<svg xmlns="http://www.w3.org/2000/svg" xmlns:xlink="http://www.w3.org/1999/xlink" version="1.1" id="education_x5F_icons_1_" x="0px" y="0px" viewBox="0 0 128 128" style="enable-background:new 0 0 128 128;" xml:space="preserve">
<style type="text/css">
	.st0{display:none;}
	.st1{display:inline;}
	.st2{fill:#ffffff;}
	.st3{display:inline;fill-rule:evenodd;clip-rule:evenodd;fill:#ffffff;}
</style>
<g id="row4_1_">
	<g id="flask_1_" class="st0">
		<g id="icon_1_" class="st1">
			<g>
				<path class="st2" d="M108.8,51.4c-0.3-0.1-1.5-1.5-1.5-1.5V31.1l3.8,0v-3.8H86.6v3.8h3.8v18.8c0,0-0.7,1.9-1.1,2      c-10.4,4.2-17.7,14.3-17.7,26.2c0,9.3,4.3,17.5,11.3,22.6c8.5-0.1,30.8,0,33.9,0c7-5.1,11.3-13.2,11.3-22.6      C128,65.7,120,55.1,108.8,51.4z M82.8,95.1c0,0-4.3-5.8-5.6-11.3c-1.5-5.8,0-11.3,0-11.3h5.6c0,0-0.7,15.9,1.9,18.8      S82.8,95.1,82.8,95.1z M77.2,68.7c3.2-7.2,9.8-12.8,16.9-15.1c0-3.4,0-4.8,0-4.8V31.1h9.4v17.7c0,0,0,2.1,0,4.8      c8,1.8,15.4,7.3,18.8,15.1C84.6,68.7,112.8,68.7,77.2,68.7z M37.6,33l3.8,0v-3.8H16.9v3.8h3.8v21.5L0,100.7h56.5L37.6,54.5V33z       M15.1,96.9H5.6l9.4-18.8h3.8L15.1,96.9z M39.5,68.7H18.8l5.6-14.2V32.9h9.4v21.5L39.5,68.7z" fill="#000000"/>
			</g>
		</g>
	</g>
	<g id="Highlighter_1_" class="st0">
		<g id="icon_2_" class="st1">
			<g>
				<path class="st2" d="M34.1,5.6L31.4,0L3.5,13.5l2.7,5.6L34.1,5.6z M38.2,7L4.7,23.2l35,72.6l33.5-16.2L38.2,7z M32.6,16.7      l2.8-1.4L65,76.7l-2.8,1.4L32.6,16.7z M71.8,83.7L43.9,97.2l20.5,21.1l11.2-5.4L71.8,83.7z M67.2,120.2l5.9,5.6l6.2,1.7      l-3.3-11.3L67.2,120.2z M84.2,121.8v6.2h40.3v-6.2H84.2z" fill="#000000"/>
			</g>
		</g>
	</g>
	<g id="lamp_1_" class="st0">
		<path id="icon_3_" class="st3" d="M62.1,74.5c-7.9-6.5-12.9-16.4-12.9-27.4c0-5.6,1.4-10.7,3.6-15.4l-2.3-4.5L27.2,69.9l31,46.5    h27.1V128H15.6v-11.6h31L19.4,69.9l24.4-47.2l-3.3-3.4c-2-2-2-5.2,0-7.1L51.1,1.5c2-2,5.1-2,7.1,0L71,14.4    c4.1-1.7,8.5-2.6,13.2-2.6c11.5,0,21.8,5,28.2,13.7C112.7,25.5,62.2,74.6,62.1,74.5z" fill="#000000"/>
	</g>
	<g id="dictionary_1_" class="st0">
		<g id="icon" class="st1">
			<g>
				<path class="st2" d="M28.2,18.7h87.4v-3.1H28.2V18.7z M118.7,0c0,0-77,0-90.5,0c-1.9,0-11.7,0.5-15.6,6.2C8,12.9,9.5,25,9.5,25      s0,88.3,0,93.7c0,5.3,2.9,9.4,7.7,9.4c19.9,0,73.9,0,92.2,0c7.9,0,9.4-5.7,9.4-9.4s0-93.7,0-93.7H25.1c0,0-12.8,1.3-9.4-12.5      c1.8-7.3,12.5-6.2,12.5-6.2h90.5V0z M31.3,56.2h71.8v37.5H31.3V56.2z M54.4,62.7L46,85.1h3.1l2.4-6.7h8.8l2.3,6.7h3.3l-8.1-22.4      H54.4z M52.4,75.9L56,66l3.4,9.9H52.4z M115.6,9.4H28.2v3.1h87.4V9.4z M83,69.9c-1,0-1.9,0.2-2.8,0.6c-0.9,0.4-1.8,1-2.5,1.8      l1.7-8.1h-2.7l-4.8,22.5h2.5l0.4-2.1c0.4,0.8,0.8,1.4,1.3,1.7c0.7,0.6,1.7,0.9,2.9,0.9c2.2,0,4.1-0.9,5.7-2.6s2.7-3.9,3.2-6.4      c0.6-2.7,0.4-4.8-0.6-6.2C86.5,70.6,85,69.9,83,69.9z M85.3,78.4c-0.4,1.9-1.1,3.5-2.1,4.7c-1,1.2-2.2,1.8-3.7,1.8      c-2,0-3.1-0.9-3.5-2.7c-0.2-1-0.1-2.2,0.2-3.7c0.4-2.1,1.2-3.6,2.4-4.6c1.1-0.9,2.3-1.4,3.6-1.4c1.4,0,2.4,0.6,2.9,1.7      C85.6,75.2,85.6,76.6,85.3,78.4z" fill="#000000"/>
			</g>
		</g>
	</g>
	<g id="rugby_ball_1_" class="st0">
		<path id="icon_4_" class="st3" d="M87.6,104.4c-32.9,18.8-70,15.9-83-6.4c-13-22.3,3.1-55.7,35.9-74.5c32.9-18.8,70-15.9,83,6.4    C136.5,52.3,120.4,85.6,87.6,104.4z M9.9,68.8C6.8,78,7,86.9,11.3,94.3c4.3,7.4,12,12,21.6,14L9.9,68.8z M80.3,19.1    c-11.4,0.7-23.9,4.5-36,11.3c-12.2,7-21.9,16.1-28.2,25.7L47,109.2c11.5-0.6,24.3-4.4,36.6-11.4c12-6.9,21.5-15.8,27.9-25.2    L80.3,19.1z M118,59.9c3.2-9.3,3-18.4-1.3-25.9S104.4,21.9,94.7,20L118,59.9z M67.5,74.9l-3.2,1.8l-3.8-6.5l0,0l-3.6,2.1l3.8,6.5    l-3.2,1.8l-3.8-6.5l0,0l-3.6,2.1l3.8,6.5l-3.2,1.8L47,78l0,0l-2-3.4l0,0l-4-6.8l3.2-1.8l4,6.8l3.6-2.1l0,0l-4-6.8l3.2-1.8l4,6.8    l3.6-2.1l0,0l-4-6.8l3.2-1.8l4,6.8l3.6-2.1l0,0l-4-6.8l3.2-1.8l4,6.8l3.6-2.1l0,0l-4-6.8l3.2-1.8l4,6.8l3.6-2.1l-4-6.8l3.2-1.8    l4,6.8l2,3.4l3.8,6.5l-3.2,1.8l-3.8-6.5l-3.6,2.1l3.8,6.5L77.9,69l-3.8-6.5l0,0l-3.6,2.1l3.8,6.5l-3.2,1.8l-3.8-6.5l0,0l-3.6,2.1    L67.5,74.9z" fill="#000000"/>
	</g>
</g>
<g id="row3_1_">
	<g id="bell_1_" class="st0">
		<g id="icon_5_" class="st1">
			<g>
				<path class="st2" d="M107.3,3.1C89.9-8.1,96.6,13.7,87.6,29.3c-2.8,4.8-7,6.2-7,6.2s1.5,6.7,0.8,7.9c-1.1,1.9-1.1,2-1.1,2      l-0.6-0.3c0,0-17-9.5-24,2.5c-6.9,12-16.2,30.3-27.4,33c-11.2,2.7-11.5,6.3-11.5,6.3l-3,5.2L76.3,128l3-5.2c0,0,3-2.1-0.3-13.1      c-3.3-11.1,7.9-28.2,14.9-40.3c6.9-12-9.8-22-9.8-22l-0.9-0.5c0.1-0.1,0.3-0.5,1-1.8c0.7-1.3,7.6-3.1,7.6-3.1s-0.1-5.1,2.4-9.5      C102.8,17.6,125.7,14.8,107.3,3.1z M41.7,81.7c0,0,3-6.6,6.6-13.1C58,51.1,60.4,48.9,61.4,48.9c1.8,0,3.3,3.3,3.3,3.3L41.7,81.7      z M25.3,116.5c4,2.6,10.3,0.9,13.1-2.6c0.1-0.1-14.5-9.2-14.4-9.2C21.2,108.1,21.4,113.9,25.3,116.5z" fill="#000000"/>
			</g>
		</g>
	</g>
	<g id="compass_1_" class="st0">
		<g id="icon_6_" class="st1">
			<g>
				<path class="st2" d="M70.1,0H57.9v21.3h12.2V0z M100.6,61c-5.3,0-5.1,0-9.1,0c0,7.7-3.2,14.6-8.2,19.6l-9.3-29.4      c3.3-2.8,5.3-6.9,5.3-11.6c0-8.4-6.8-15.2-15.2-15.2c-8.4,0-15.2,6.8-15.2,15.2c0,4.6,2.1,8.8,5.3,11.6l-9.3,29.4      c-5.1-5-8.2-11.9-8.2-19.6c-4.3,0-4.4,0-9.1,0c0,11.9,5.6,22.4,14.4,29.1l-5.3,16.6l3,21.3l10.2-33.3c4.3,1.8,9.1,2.8,14.1,2.8      s9.8-1,14.1-2.8L88.4,128l3-21.3L86.2,90C94.9,83.3,100.6,72.8,100.6,61z M64,33.5c3.4,0,6.1,2.7,6.1,6.1c0,3.4-2.7,6.1-6.1,6.1      c-3.4,0-6.1-2.7-6.1-6.1C57.9,36.3,60.6,33.5,64,33.5z M64,88.4c-4.1,0-7.9-0.9-11.4-2.5l9.6-31.2c0.6,0.1,1.2,0.1,1.8,0.1      s1.2,0,1.8-0.1l9.6,31.2C71.9,87.5,68.1,88.4,64,88.4z" fill="#000000"/>
			</g>
		</g>
	</g>
	<g id="school_x5F_bus_1_" class="st0">
		<g id="icon_7_" class="st1">
			<g>
				<path class="st2" d="M22.3,74C16.6,74,12,78.7,12,84.4s4.6,10.3,10.3,10.3s10.3-4.6,10.3-10.3S28,74,22.3,74z M22.3,87.8      c-1.9,0-3.4-1.5-3.4-3.4c0-1.9,1.5-3.4,3.4-3.4c1.9,0,3.4,1.5,3.4,3.4C25.7,86.3,24.2,87.8,22.3,87.8z M103.8,72.1      c-5.7,0-10.3,4.6-10.3,10.3c0,5.7,4.6,10.3,10.3,10.3c5.7,0,10.3-4.6,10.3-10.3C114.1,76.7,109.5,72.1,103.8,72.1z M103.8,85.9      c-1.9,0-3.4-1.5-3.4-3.4c0-1.9,1.5-3.4,3.4-3.4c1.9,0,3.4,1.5,3.4,3.4C107.2,84.3,105.7,85.9,103.8,85.9z M124.1,31      c0,0-79.9,0-97,0c-2.3,0-3.9,2.4-3.9,3.9s-1.9,17.5-1.9,17.5L3.9,58.2C2.4,59,0,59.9,0,62.1v19.4c0,2.1,1.7,3.9,3.9,3.9h5.9      c0-0.3,0-0.6,0-1c0-7,5.6-12.6,12.6-12.6c7,0,12.6,5.6,12.6,12.6c0,0.3,0,0.6,0,1h56.6c-0.2-0.9-0.4-1.9-0.4-2.9      c0-7,5.6-12.6,12.6-12.6c7,0,12.6,5.6,12.6,12.6c0,1-0.1,2-0.4,2.9h8.1c2.1,0,3.9-1.7,3.9-3.9V34.9C128,32.8,126.3,31,124.1,31z       M89.2,40.7c0-1.1,0.9-1.9,1.9-1.9h9.7c1.1,0,1.9,0.9,1.9,1.9v7.8c0,1.1-0.9,1.9-1.9,1.9h-9.7c-1.1,0-1.9-0.9-1.9-1.9V40.7z       M71.8,40.7c0-1.1,0.9-1.9,1.9-1.9h9.7c1.1,0,1.9,0.9,1.9,1.9v7.8c0,1.1-0.9,1.9-1.9,1.9h-9.7c-1.1,0-1.9-0.9-1.9-1.9V40.7z       M54.3,40.7c0-1.1,0.9-1.9,1.9-1.9h9.7c1.1,0,1.9,0.9,1.9,1.9v7.8c0,1.1-0.9,1.9-1.9,1.9h-9.7c-1.1,0-1.9-0.9-1.9-1.9V40.7z       M36.8,71.8H33c-1.1,0-1.9-0.9-1.9-1.9V40.7c0-1.1,0.9-1.9,1.9-1.9h3.9V71.8z M46.5,69.8c0,1.1-0.9,1.9-1.9,1.9h-3.9v-33h3.9      c1.1,0,1.9,0.9,1.9,1.9V69.8z M120.2,65.9H54.3V64h65.9V65.9z M120.2,60.1H54.3v-1.9h65.9V60.1z M120.2,48.5      c0,1.1-0.9,1.9-1.9,1.9h-9.7c-1.1,0-1.9-0.9-1.9-1.9v-7.8c0-1.1,0.9-1.9,1.9-1.9h9.7c1.1,0,1.9,0.9,1.9,1.9V48.5z" fill="#000000"/>
			</g>
		</g>
	</g>
	<g id="chemistry_1_" class="st0">
		<g id="icon_8_" class="st1">
			<g>
				<path class="st2" d="M86.6,73.1l20.5-1.5c1.9,2.7,5.1,4.5,8.7,4.5c5.9,0,10.7-4.8,10.7-10.7s-4.8-10.7-10.7-10.7      c-5.9,0-10.7,4.8-10.7,10.7c0,0,0,0.1,0,0.1L86.6,67c-1.1-6.2-5.2-11.3-10.8-13.7l6.8-25.9C90,27.3,96,21.2,96,13.7      C96,6.1,89.9,0,82.3,0c-7.6,0-13.7,6.1-13.7,13.7c0,5.5,3.3,10.3,8,12.5l-6.8,25.7c-0.4,0-0.8-0.1-1.2-0.1      c-4.2,0-8.1,1.4-11.2,3.8l-9.3-8.1c1.4-1.8,2.2-4,2.2-6.5c0-5.9-4.8-10.7-10.7-10.7S29,35.3,29,41.1s4.8,10.7,10.7,10.7      c1.2,0,2.3-0.2,3.4-0.6l10.2,8.9c-1.8,2.8-2.9,6-2.9,9.5l-21.8,1.6C27,65.3,21.6,61,15.2,61C7.7,61,1.5,67.1,1.5,74.7      s6.1,13.7,13.7,13.7c6.7,0,12.2-4.7,13.4-11l22.5-1.6c1.5,4.8,5,8.7,9.5,10.8l-4.5,17.1c-6.6,0.1-12,5.5-12,12.2      c0,6.7,5.5,12.2,12.2,12.2s12.2-5.5,12.2-12.2c0-4.7-2.6-8.7-6.5-10.8l4.4-16.8c0.7,0.1,1.3,0.1,2,0.1c4.6,0,8.8-1.7,12-4.5      l15.1,13.1c-1.7,2.3-2.7,5.1-2.7,8.2c0,7.6,6.1,13.7,13.7,13.7c7.6,0,13.7-6.1,13.7-13.7s-6.1-13.7-13.7-13.7      c-2.3,0-4.4,0.6-6.3,1.5L84.5,79.1C85.5,77.3,86.2,75.3,86.6,73.1z" fill="#000000"/>
			</g>
		</g>
	</g>
	<g id="bag_1_" class="st0">
		<g id="icon_9_" class="st1">
			<g>
				<path class="st2" d="M18.7,65.6v15.6h12.5V65.6H18.7z M96.8,65.6v15.6h12.5V65.6H96.8z M112.4,84.3H93.7V73.9      c-10.2,0.6-19.5,1-28.1,1c-10.6,0-20.7-0.4-31.2-1v10.4H15.6V72.6c-3.1-0.2-6.2-0.5-9.4-0.8v37.5c0,1.7,2.4,6,6.2,6.2h103      c5.3,0,6.2-4.5,6.2-6.2V71.8c-3.2,0.3-6.3,0.5-9.4,0.7V84.3z M118.6,25H90.5V12.5H37.5V25H9.4C0.3,25,0,29.5,0,31.2v31.2      c0,1.7,1.3,3.1,2.8,3.1c0,0,4.9,1.1,12.8,2.3v-5.5h18.7v7.9c8.5,0.9,18.2,1.5,28.2,1.5c11,0,21.7-0.7,31.1-1.7v-7.7h18.7v5.3      c7.9-1.2,12.8-2.2,12.8-2.2c1.6,0,2.8-1.4,2.8-3.1V31.2C128,29.5,127.5,25,118.6,25z M84.3,21.9H43.7v-3.1h40.6V21.9z" fill="#000000"/>
			</g>
		</g>
	</g>
</g>
<g id="row2_1_">
	<g id="lecture_1_" class="st0">
		<g id="icon_38_" class="st1">
			<g>
				<path class="st2" d="M103.5,102.1h-8.2c-6,0-10.9,4.9-10.9,10.9v8.2h30V113C114.4,107,109.5,102.1,103.5,102.1z M117.1,15H10.9      c-1.5,0-2.7,1.2-2.7,2.7v40.9c0,1.5,1.2,2.7,2.7,2.7h106.2c1.5,0,2.7-1.2,2.7-2.7V17.7C119.8,16.2,118.6,15,117.1,15z       M44.1,44.3v2.3H31c0.1-1.6,0.4-3.1,1-4.3c0.6-1.2,1.7-2.3,3.5-3.3l2.5-1.5c1.1-0.7,2-1.2,2.4-1.7c0.7-0.7,1.1-1.6,1.1-2.5      c0-1.1-0.3-2-1-2.6c-0.7-0.7-1.6-1-2.7-1c-1.6,0-2.8,0.6-3.4,1.9c-0.3,0.7-0.5,1.6-0.5,2.8h-2.4c0-1.7,0.3-3,0.9-4.1      c1-1.8,2.9-2.8,5.5-2.8c2.2,0,3.8,0.6,4.8,1.8c1,1.2,1.5,2.5,1.5,3.9c0,1.5-0.5,2.8-1.6,3.9c-0.6,0.6-1.7,1.4-3.3,2.3l-1.8,1      c-0.8,0.5-1.6,0.9-2,1.4c-0.9,0.8-1.4,1.6-1.7,2.6H44.1z M58.9,44.9C57.7,46.3,56,47,53.5,47c-1.6,0-2.9-0.4-4.1-1.3      c-1.2-0.9-1.9-2.2-2-4h2.5c0.2,1.4,0.8,2.3,1.9,2.8c0.6,0.3,1.2,0.4,2,0.4c1.4,0,2.5-0.5,3.2-1.4c0.7-0.9,1-1.9,1-3      c0-1.3-0.4-2.4-1.2-3.1c-0.8-0.7-1.8-1.1-2.9-1.1c-0.8,0-1.5,0.2-2.1,0.5c-0.6,0.3-1.1,0.8-1.5,1.3L48.1,38l1.4-10.2h9.9v2.3      h-8.1l-0.8,5.3c0.5-0.3,0.9-0.6,1.3-0.8c0.7-0.3,1.5-0.4,2.5-0.4c1.7,0,3.2,0.6,4.4,1.7c1.2,1.1,1.8,2.6,1.8,4.3      C60.5,42,60,43.6,58.9,44.9z M64.9,46.5h-2L69.1,27h2L64.9,46.5z M83.2,45.3C82,46.5,80.3,47,78.1,47c-2.3,0-3.9-0.6-4.9-1.9      c-1-1.2-1.5-2.7-1.5-4.5h2.5c0.1,1.3,0.3,2.2,0.7,2.7c0.6,1,1.7,1.5,3.4,1.5c1.3,0,2.3-0.3,3-1c0.8-0.7,1.1-1.5,1.1-2.6      c0-1.3-0.4-2.2-1.2-2.8c-0.8-0.5-1.9-0.8-3.3-0.8h-0.5c-0.2,0-0.3,0-0.5,0v-2.1c0.2,0,0.5,0.1,0.6,0.1h0.5      c0.9,0,1.6-0.1,2.2-0.4c1-0.5,1.5-1.4,1.5-2.7c0-1-0.3-1.7-1-2.2c-0.7-0.5-1.5-0.8-2.4-0.8c-1.6,0-2.7,0.5-3.3,1.6      c-0.4,0.6-0.5,1.4-0.6,2.5h-2.4c0-1.4,0.3-2.6,0.8-3.6c1-1.8,2.7-2.7,5.1-2.7c1.9,0,3.4,0.4,4.5,1.3c1.1,0.9,1.6,2.1,1.6,3.8      c0,1.2-0.3,2.1-1,2.8c-0.4,0.5-0.9,0.8-1.5,1.1c1,0.3,1.8,0.8,2.3,1.6c0.6,0.8,0.8,1.7,0.8,2.9C85,42.7,84.4,44.2,83.2,45.3z       M101.3,44.3v2.3H88.2c0.1-1.6,0.4-3.1,1-4.3c0.6-1.2,1.7-2.3,3.5-3.3l2.5-1.5c1.1-0.7,2-1.2,2.4-1.7c0.7-0.7,1.1-1.6,1.1-2.5      c0-1.1-0.3-2-1-2.6c-0.7-0.7-1.6-1-2.7-1c-1.6,0-2.8,0.6-3.4,1.9c-0.3,0.7-0.5,1.6-0.5,2.8h-2.4c0-1.7,0.3-3,0.9-4.1      c1-1.8,2.9-2.8,5.5-2.8c2.2,0,3.8,0.6,4.8,1.8c1,1.2,1.5,2.5,1.5,3.9c0,1.5-0.5,2.8-1.6,3.9c-0.6,0.6-1.7,1.4-3.3,2.3l-1.8,1      c-0.8,0.5-1.6,0.9-2,1.4c-0.9,0.8-1.4,1.6-1.7,2.6H101.3z M117.1,15H10.9c-1.5,0-2.7,1.2-2.7,2.7v40.9c0,1.5,1.2,2.7,2.7,2.7      h106.2c1.5,0,2.7-1.2,2.7-2.7V17.7C119.8,16.2,118.6,15,117.1,15z M44.1,44.3v2.3H31c0.1-1.6,0.4-3.1,1-4.3      c0.6-1.2,1.7-2.3,3.5-3.3l2.5-1.5c1.1-0.7,2-1.2,2.4-1.7c0.7-0.7,1.1-1.6,1.1-2.5c0-1.1-0.3-2-1-2.6c-0.7-0.7-1.6-1-2.7-1      c-1.6,0-2.8,0.6-3.4,1.9c-0.3,0.7-0.5,1.6-0.5,2.8h-2.4c0-1.7,0.3-3,0.9-4.1c1-1.8,2.9-2.8,5.5-2.8c2.2,0,3.8,0.6,4.8,1.8      c1,1.2,1.5,2.5,1.5,3.9c0,1.5-0.5,2.8-1.6,3.9c-0.6,0.6-1.7,1.4-3.3,2.3l-1.8,1c-0.8,0.5-1.6,0.9-2,1.4      c-0.9,0.8-1.4,1.6-1.7,2.6H44.1z M58.9,44.9C57.7,46.3,56,47,53.5,47c-1.6,0-2.9-0.4-4.1-1.3c-1.2-0.9-1.9-2.2-2-4h2.5      c0.2,1.4,0.8,2.3,1.9,2.8c0.6,0.3,1.2,0.4,2,0.4c1.4,0,2.5-0.5,3.2-1.4c0.7-0.9,1-1.9,1-3c0-1.3-0.4-2.4-1.2-3.1      c-0.8-0.7-1.8-1.1-2.9-1.1c-0.8,0-1.5,0.2-2.1,0.5c-0.6,0.3-1.1,0.8-1.5,1.3L48.1,38l1.4-10.2h9.9v2.3h-8.1l-0.8,5.3      c0.5-0.3,0.9-0.6,1.3-0.8c0.7-0.3,1.5-0.4,2.5-0.4c1.7,0,3.2,0.6,4.4,1.7c1.2,1.1,1.8,2.6,1.8,4.3C60.5,42,60,43.6,58.9,44.9z       M64.9,46.5h-2L69.1,27h2L64.9,46.5z M83.2,45.3C82,46.5,80.3,47,78.1,47c-2.3,0-3.9-0.6-4.9-1.9c-1-1.2-1.5-2.7-1.5-4.5h2.5      c0.1,1.3,0.3,2.2,0.7,2.7c0.6,1,1.7,1.5,3.4,1.5c1.3,0,2.3-0.3,3-1c0.8-0.7,1.1-1.5,1.1-2.6c0-1.3-0.4-2.2-1.2-2.8      c-0.8-0.5-1.9-0.8-3.3-0.8h-0.5c-0.2,0-0.3,0-0.5,0v-2.1c0.2,0,0.5,0.1,0.6,0.1h0.5c0.9,0,1.6-0.1,2.2-0.4      c1-0.5,1.5-1.4,1.5-2.7c0-1-0.3-1.7-1-2.2c-0.7-0.5-1.5-0.8-2.4-0.8c-1.6,0-2.7,0.5-3.3,1.6c-0.4,0.6-0.5,1.4-0.6,2.5h-2.4      c0-1.4,0.3-2.6,0.8-3.6c1-1.8,2.7-2.7,5.1-2.7c1.9,0,3.4,0.4,4.5,1.3c1.1,0.9,1.6,2.1,1.6,3.8c0,1.2-0.3,2.1-1,2.8      c-0.4,0.5-0.9,0.8-1.5,1.1c1,0.3,1.8,0.8,2.3,1.6c0.6,0.8,0.8,1.7,0.8,2.9C85,42.7,84.4,44.2,83.2,45.3z M101.3,44.3v2.3H88.2      c0.1-1.6,0.4-3.1,1-4.3c0.6-1.2,1.7-2.3,3.5-3.3l2.5-1.5c1.1-0.7,2-1.2,2.4-1.7c0.7-0.7,1.1-1.6,1.1-2.5c0-1.1-0.3-2-1-2.6      c-0.7-0.7-1.6-1-2.7-1c-1.6,0-2.8,0.6-3.4,1.9c-0.3,0.7-0.5,1.6-0.5,2.8h-2.4c0-1.7,0.3-3,0.9-4.1c1-1.8,2.9-2.8,5.5-2.8      c2.2,0,3.8,0.6,4.8,1.8c1,1.2,1.5,2.5,1.5,3.9c0,1.5-0.5,2.8-1.6,3.9c-0.6,0.6-1.7,1.4-3.3,2.3l-1.8,1c-0.8,0.5-1.6,0.9-2,1.4      c-0.9,0.8-1.4,1.6-1.7,2.6H101.3z M117.1,15H10.9c-1.5,0-2.7,1.2-2.7,2.7v40.9c0,1.5,1.2,2.7,2.7,2.7h106.2      c1.5,0,2.7-1.2,2.7-2.7V17.7C119.8,16.2,118.6,15,117.1,15z M44.1,44.3v2.3H31c0.1-1.6,0.4-3.1,1-4.3c0.6-1.2,1.7-2.3,3.5-3.3      l2.5-1.5c1.1-0.7,2-1.2,2.4-1.7c0.7-0.7,1.1-1.6,1.1-2.5c0-1.1-0.3-2-1-2.6c-0.7-0.7-1.6-1-2.7-1c-1.6,0-2.8,0.6-3.4,1.9      c-0.3,0.7-0.5,1.6-0.5,2.8h-2.4c0-1.7,0.3-3,0.9-4.1c1-1.8,2.9-2.8,5.5-2.8c2.2,0,3.8,0.6,4.8,1.8c1,1.2,1.5,2.5,1.5,3.9      c0,1.5-0.5,2.8-1.6,3.9c-0.6,0.6-1.7,1.4-3.3,2.3l-1.8,1c-0.8,0.5-1.6,0.9-2,1.4c-0.9,0.8-1.4,1.6-1.7,2.6H44.1z M58.9,44.9      C57.7,46.3,56,47,53.5,47c-1.6,0-2.9-0.4-4.1-1.3c-1.2-0.9-1.9-2.2-2-4h2.5c0.2,1.4,0.8,2.3,1.9,2.8c0.6,0.3,1.2,0.4,2,0.4      c1.4,0,2.5-0.5,3.2-1.4c0.7-0.9,1-1.9,1-3c0-1.3-0.4-2.4-1.2-3.1c-0.8-0.7-1.8-1.1-2.9-1.1c-0.8,0-1.5,0.2-2.1,0.5      c-0.6,0.3-1.1,0.8-1.5,1.3L48.1,38l1.4-10.2h9.9v2.3h-8.1l-0.8,5.3c0.5-0.3,0.9-0.6,1.3-0.8c0.7-0.3,1.5-0.4,2.5-0.4      c1.7,0,3.2,0.6,4.4,1.7c1.2,1.1,1.8,2.6,1.8,4.3C60.5,42,60,43.6,58.9,44.9z M64.9,46.5h-2L69.1,27h2L64.9,46.5z M83.2,45.3      C82,46.5,80.3,47,78.1,47c-2.3,0-3.9-0.6-4.9-1.9c-1-1.2-1.5-2.7-1.5-4.5h2.5c0.1,1.3,0.3,2.2,0.7,2.7c0.6,1,1.7,1.5,3.4,1.5      c1.3,0,2.3-0.3,3-1c0.8-0.7,1.1-1.5,1.1-2.6c0-1.3-0.4-2.2-1.2-2.8c-0.8-0.5-1.9-0.8-3.3-0.8h-0.5c-0.2,0-0.3,0-0.5,0v-2.1      c0.2,0,0.5,0.1,0.6,0.1h0.5c0.9,0,1.6-0.1,2.2-0.4c1-0.5,1.5-1.4,1.5-2.7c0-1-0.3-1.7-1-2.2c-0.7-0.5-1.5-0.8-2.4-0.8      c-1.6,0-2.7,0.5-3.3,1.6c-0.4,0.6-0.5,1.4-0.6,2.5h-2.4c0-1.4,0.3-2.6,0.8-3.6c1-1.8,2.7-2.7,5.1-2.7c1.9,0,3.4,0.4,4.5,1.3      c1.1,0.9,1.6,2.1,1.6,3.8c0,1.2-0.3,2.1-1,2.8c-0.4,0.5-0.9,0.8-1.5,1.1c1,0.3,1.8,0.8,2.3,1.6c0.6,0.8,0.8,1.7,0.8,2.9      C85,42.7,84.4,44.2,83.2,45.3z M101.3,44.3v2.3H88.2c0.1-1.6,0.4-3.1,1-4.3c0.6-1.2,1.7-2.3,3.5-3.3l2.5-1.5      c1.1-0.7,2-1.2,2.4-1.7c0.7-0.7,1.1-1.6,1.1-2.5c0-1.1-0.3-2-1-2.6c-0.7-0.7-1.6-1-2.7-1c-1.6,0-2.8,0.6-3.4,1.9      c-0.3,0.7-0.5,1.6-0.5,2.8h-2.4c0-1.7,0.3-3,0.9-4.1c1-1.8,2.9-2.8,5.5-2.8c2.2,0,3.8,0.6,4.8,1.8c1,1.2,1.5,2.5,1.5,3.9      c0,1.5-0.5,2.8-1.6,3.9c-0.6,0.6-1.7,1.4-3.3,2.3l-1.8,1c-0.8,0.5-1.6,0.9-2,1.4c-0.9,0.8-1.4,1.6-1.7,2.6H101.3z M117.1,15      H10.9c-1.5,0-2.7,1.2-2.7,2.7v40.9c0,1.5,1.2,2.7,2.7,2.7h106.2c1.5,0,2.7-1.2,2.7-2.7V17.7C119.8,16.2,118.6,15,117.1,15z       M44.1,44.3v2.3H31c0.1-1.6,0.4-3.1,1-4.3c0.6-1.2,1.7-2.3,3.5-3.3l2.5-1.5c1.1-0.7,2-1.2,2.4-1.7c0.7-0.7,1.1-1.6,1.1-2.5      c0-1.1-0.3-2-1-2.6c-0.7-0.7-1.6-1-2.7-1c-1.6,0-2.8,0.6-3.4,1.9c-0.3,0.7-0.5,1.6-0.5,2.8h-2.4c0-1.7,0.3-3,0.9-4.1      c1-1.8,2.9-2.8,5.5-2.8c2.2,0,3.8,0.6,4.8,1.8c1,1.2,1.5,2.5,1.5,3.9c0,1.5-0.5,2.8-1.6,3.9c-0.6,0.6-1.7,1.4-3.3,2.3l-1.8,1      c-0.8,0.5-1.6,0.9-2,1.4c-0.9,0.8-1.4,1.6-1.7,2.6H44.1z M58.9,44.9C57.7,46.3,56,47,53.5,47c-1.6,0-2.9-0.4-4.1-1.3      c-1.2-0.9-1.9-2.2-2-4h2.5c0.2,1.4,0.8,2.3,1.9,2.8c0.6,0.3,1.2,0.4,2,0.4c1.4,0,2.5-0.5,3.2-1.4c0.7-0.9,1-1.9,1-3      c0-1.3-0.4-2.4-1.2-3.1c-0.8-0.7-1.8-1.1-2.9-1.1c-0.8,0-1.5,0.2-2.1,0.5c-0.6,0.3-1.1,0.8-1.5,1.3L48.1,38l1.4-10.2h9.9v2.3      h-8.1l-0.8,5.3c0.5-0.3,0.9-0.6,1.3-0.8c0.7-0.3,1.5-0.4,2.5-0.4c1.7,0,3.2,0.6,4.4,1.7c1.2,1.1,1.8,2.6,1.8,4.3      C60.5,42,60,43.6,58.9,44.9z M64.9,46.5h-2L69.1,27h2L64.9,46.5z M83.2,45.3C82,46.5,80.3,47,78.1,47c-2.3,0-3.9-0.6-4.9-1.9      c-1-1.2-1.5-2.7-1.5-4.5h2.5c0.1,1.3,0.3,2.2,0.7,2.7c0.6,1,1.7,1.5,3.4,1.5c1.3,0,2.3-0.3,3-1c0.8-0.7,1.1-1.5,1.1-2.6      c0-1.3-0.4-2.2-1.2-2.8c-0.8-0.5-1.9-0.8-3.3-0.8h-0.5c-0.2,0-0.3,0-0.5,0v-2.1c0.2,0,0.5,0.1,0.6,0.1h0.5      c0.9,0,1.6-0.1,2.2-0.4c1-0.5,1.5-1.4,1.5-2.7c0-1-0.3-1.7-1-2.2c-0.7-0.5-1.5-0.8-2.4-0.8c-1.6,0-2.7,0.5-3.3,1.6      c-0.4,0.6-0.5,1.4-0.6,2.5h-2.4c0-1.4,0.3-2.6,0.8-3.6c1-1.8,2.7-2.7,5.1-2.7c1.9,0,3.4,0.4,4.5,1.3c1.1,0.9,1.6,2.1,1.6,3.8      c0,1.2-0.3,2.1-1,2.8c-0.4,0.5-0.9,0.8-1.5,1.1c1,0.3,1.8,0.8,2.3,1.6c0.6,0.8,0.8,1.7,0.8,2.9C85,42.7,84.4,44.2,83.2,45.3z       M101.3,44.3v2.3H88.2c0.1-1.6,0.4-3.1,1-4.3c0.6-1.2,1.7-2.3,3.5-3.3l2.5-1.5c1.1-0.7,2-1.2,2.4-1.7c0.7-0.7,1.1-1.6,1.1-2.5      c0-1.1-0.3-2-1-2.6c-0.7-0.7-1.6-1-2.7-1c-1.6,0-2.8,0.6-3.4,1.9c-0.3,0.7-0.5,1.6-0.5,2.8h-2.4c0-1.7,0.3-3,0.9-4.1      c1-1.8,2.9-2.8,5.5-2.8c2.2,0,3.8,0.6,4.8,1.8c1,1.2,1.5,2.5,1.5,3.9c0,1.5-0.5,2.8-1.6,3.9c-0.6,0.6-1.7,1.4-3.3,2.3l-1.8,1      c-0.8,0.5-1.6,0.9-2,1.4c-0.9,0.8-1.4,1.6-1.7,2.6H101.3z M117.1,15H10.9c-1.5,0-2.7,1.2-2.7,2.7v40.9c0,1.5,1.2,2.7,2.7,2.7      h106.2c1.5,0,2.7-1.2,2.7-2.7V17.7C119.8,16.2,118.6,15,117.1,15z M44.1,44.3v2.3H31c0.1-1.6,0.4-3.1,1-4.3      c0.6-1.2,1.7-2.3,3.5-3.3l2.5-1.5c1.1-0.7,2-1.2,2.4-1.7c0.7-0.7,1.1-1.6,1.1-2.5c0-1.1-0.3-2-1-2.6c-0.7-0.7-1.6-1-2.7-1      c-1.6,0-2.8,0.6-3.4,1.9c-0.3,0.7-0.5,1.6-0.5,2.8h-2.4c0-1.7,0.3-3,0.9-4.1c1-1.8,2.9-2.8,5.5-2.8c2.2,0,3.8,0.6,4.8,1.8      c1,1.2,1.5,2.5,1.5,3.9c0,1.5-0.5,2.8-1.6,3.9c-0.6,0.6-1.7,1.4-3.3,2.3l-1.8,1c-0.8,0.5-1.6,0.9-2,1.4      c-0.9,0.8-1.4,1.6-1.7,2.6H44.1z M58.9,44.9C57.7,46.3,56,47,53.5,47c-1.6,0-2.9-0.4-4.1-1.3c-1.2-0.9-1.9-2.2-2-4h2.5      c0.2,1.4,0.8,2.3,1.9,2.8c0.6,0.3,1.2,0.4,2,0.4c1.4,0,2.5-0.5,3.2-1.4c0.7-0.9,1-1.9,1-3c0-1.3-0.4-2.4-1.2-3.1      c-0.8-0.7-1.8-1.1-2.9-1.1c-0.8,0-1.5,0.2-2.1,0.5c-0.6,0.3-1.1,0.8-1.5,1.3L48.1,38l1.4-10.2h9.9v2.3h-8.1l-0.8,5.3      c0.5-0.3,0.9-0.6,1.3-0.8c0.7-0.3,1.5-0.4,2.5-0.4c1.7,0,3.2,0.6,4.4,1.7c1.2,1.1,1.8,2.6,1.8,4.3C60.5,42,60,43.6,58.9,44.9z       M64.9,46.5h-2L69.1,27h2L64.9,46.5z M83.2,45.3C82,46.5,80.3,47,78.1,47c-2.3,0-3.9-0.6-4.9-1.9c-1-1.2-1.5-2.7-1.5-4.5h2.5      c0.1,1.3,0.3,2.2,0.7,2.7c0.6,1,1.7,1.5,3.4,1.5c1.3,0,2.3-0.3,3-1c0.8-0.7,1.1-1.5,1.1-2.6c0-1.3-0.4-2.2-1.2-2.8      c-0.8-0.5-1.9-0.8-3.3-0.8h-0.5c-0.2,0-0.3,0-0.5,0v-2.1c0.2,0,0.5,0.1,0.6,0.1h0.5c0.9,0,1.6-0.1,2.2-0.4      c1-0.5,1.5-1.4,1.5-2.7c0-1-0.3-1.7-1-2.2c-0.7-0.5-1.5-0.8-2.4-0.8c-1.6,0-2.7,0.5-3.3,1.6c-0.4,0.6-0.5,1.4-0.6,2.5h-2.4      c0-1.4,0.3-2.6,0.8-3.6c1-1.8,2.7-2.7,5.1-2.7c1.9,0,3.4,0.4,4.5,1.3c1.1,0.9,1.6,2.1,1.6,3.8c0,1.2-0.3,2.1-1,2.8      c-0.4,0.5-0.9,0.8-1.5,1.1c1,0.3,1.8,0.8,2.3,1.6c0.6,0.8,0.8,1.7,0.8,2.9C85,42.7,84.4,44.2,83.2,45.3z M101.3,44.3v2.3H88.2      c0.1-1.6,0.4-3.1,1-4.3c0.6-1.2,1.7-2.3,3.5-3.3l2.5-1.5c1.1-0.7,2-1.2,2.4-1.7c0.7-0.7,1.1-1.6,1.1-2.5c0-1.1-0.3-2-1-2.6      c-0.7-0.7-1.6-1-2.7-1c-1.6,0-2.8,0.6-3.4,1.9c-0.3,0.7-0.5,1.6-0.5,2.8h-2.4c0-1.7,0.3-3,0.9-4.1c1-1.8,2.9-2.8,5.5-2.8      c2.2,0,3.8,0.6,4.8,1.8c1,1.2,1.5,2.5,1.5,3.9c0,1.5-0.5,2.8-1.6,3.9c-0.6,0.6-1.7,1.4-3.3,2.3l-1.8,1c-0.8,0.5-1.6,0.9-2,1.4      c-0.9,0.8-1.4,1.6-1.7,2.6H101.3z M122.6,6.8H5.4c-3,0-5.4,2.5-5.4,5.4V64c0,3,2.5,5.4,5.4,5.4h117.1c3,0,5.4-2.5,5.4-5.4V12.3      C128,9.3,125.5,6.8,122.6,6.8z M122.6,61.3c0,1.5-1.2,2.7-2.7,2.7H8.2c-1.5,0-2.7-1.2-2.7-2.7V15c0-1.5,1.2-2.7,2.7-2.7h111.7      c1.5,0,2.7,1.2,2.7,2.7V61.3z M117.1,15H10.9c-1.5,0-2.7,1.2-2.7,2.7v40.9c0,1.5,1.2,2.7,2.7,2.7h106.2c1.5,0,2.7-1.2,2.7-2.7      V17.7C119.8,16.2,118.6,15,117.1,15z M44.1,44.3v2.3H31c0.1-1.6,0.4-3.1,1-4.3c0.6-1.2,1.7-2.3,3.5-3.3l2.5-1.5      c1.1-0.7,2-1.2,2.4-1.7c0.7-0.7,1.1-1.6,1.1-2.5c0-1.1-0.3-2-1-2.6c-0.7-0.7-1.6-1-2.7-1c-1.6,0-2.8,0.6-3.4,1.9      c-0.3,0.7-0.5,1.6-0.5,2.8h-2.4c0-1.7,0.3-3,0.9-4.1c1-1.8,2.9-2.8,5.5-2.8c2.2,0,3.8,0.6,4.8,1.8c1,1.2,1.5,2.5,1.5,3.9      c0,1.5-0.5,2.8-1.6,3.9c-0.6,0.6-1.7,1.4-3.3,2.3l-1.8,1c-0.8,0.5-1.6,0.9-2,1.4c-0.9,0.8-1.4,1.6-1.7,2.6H44.1z M58.9,44.9      C57.7,46.3,56,47,53.5,47c-1.6,0-2.9-0.4-4.1-1.3c-1.2-0.9-1.9-2.2-2-4h2.5c0.2,1.4,0.8,2.3,1.9,2.8c0.6,0.3,1.2,0.4,2,0.4      c1.4,0,2.5-0.5,3.2-1.4c0.7-0.9,1-1.9,1-3c0-1.3-0.4-2.4-1.2-3.1c-0.8-0.7-1.8-1.1-2.9-1.1c-0.8,0-1.5,0.2-2.1,0.5      c-0.6,0.3-1.1,0.8-1.5,1.3L48.1,38l1.4-10.2h9.9v2.3h-8.1l-0.8,5.3c0.5-0.3,0.9-0.6,1.3-0.8c0.7-0.3,1.5-0.4,2.5-0.4      c1.7,0,3.2,0.6,4.4,1.7c1.2,1.1,1.8,2.6,1.8,4.3C60.5,42,60,43.6,58.9,44.9z M64.9,46.5h-2L69.1,27h2L64.9,46.5z M83.2,45.3      C82,46.5,80.3,47,78.1,47c-2.3,0-3.9-0.6-4.9-1.9c-1-1.2-1.5-2.7-1.5-4.5h2.5c0.1,1.3,0.3,2.2,0.7,2.7c0.6,1,1.7,1.5,3.4,1.5      c1.3,0,2.3-0.3,3-1c0.8-0.7,1.1-1.5,1.1-2.6c0-1.3-0.4-2.2-1.2-2.8c-0.8-0.5-1.9-0.8-3.3-0.8h-0.5c-0.2,0-0.3,0-0.5,0v-2.1      c0.2,0,0.5,0.1,0.6,0.1h0.5c0.9,0,1.6-0.1,2.2-0.4c1-0.5,1.5-1.4,1.5-2.7c0-1-0.3-1.7-1-2.2c-0.7-0.5-1.5-0.8-2.4-0.8      c-1.6,0-2.7,0.5-3.3,1.6c-0.4,0.6-0.5,1.4-0.6,2.5h-2.4c0-1.4,0.3-2.6,0.8-3.6c1-1.8,2.7-2.7,5.1-2.7c1.9,0,3.4,0.4,4.5,1.3      c1.1,0.9,1.6,2.1,1.6,3.8c0,1.2-0.3,2.1-1,2.8c-0.4,0.5-0.9,0.8-1.5,1.1c1,0.3,1.8,0.8,2.3,1.6c0.6,0.8,0.8,1.7,0.8,2.9      C85,42.7,84.4,44.2,83.2,45.3z M101.3,44.3v2.3H88.2c0.1-1.6,0.4-3.1,1-4.3c0.6-1.2,1.7-2.3,3.5-3.3l2.5-1.5      c1.1-0.7,2-1.2,2.4-1.7c0.7-0.7,1.1-1.6,1.1-2.5c0-1.1-0.3-2-1-2.6c-0.7-0.7-1.6-1-2.7-1c-1.6,0-2.8,0.6-3.4,1.9      c-0.3,0.7-0.5,1.6-0.5,2.8h-2.4c0-1.7,0.3-3,0.9-4.1c1-1.8,2.9-2.8,5.5-2.8c2.2,0,3.8,0.6,4.8,1.8c1,1.2,1.5,2.5,1.5,3.9      c0,1.5-0.5,2.8-1.6,3.9c-0.6,0.6-1.7,1.4-3.3,2.3l-1.8,1c-0.8,0.5-1.6,0.9-2,1.4c-0.9,0.8-1.4,1.6-1.7,2.6H101.3z M117.1,15      H10.9c-1.5,0-2.7,1.2-2.7,2.7v40.9c0,1.5,1.2,2.7,2.7,2.7h106.2c1.5,0,2.7-1.2,2.7-2.7V17.7C119.8,16.2,118.6,15,117.1,15z       M44.1,44.3v2.3H31c0.1-1.6,0.4-3.1,1-4.3c0.6-1.2,1.7-2.3,3.5-3.3l2.5-1.5c1.1-0.7,2-1.2,2.4-1.7c0.7-0.7,1.1-1.6,1.1-2.5      c0-1.1-0.3-2-1-2.6c-0.7-0.7-1.6-1-2.7-1c-1.6,0-2.8,0.6-3.4,1.9c-0.3,0.7-0.5,1.6-0.5,2.8h-2.4c0-1.7,0.3-3,0.9-4.1      c1-1.8,2.9-2.8,5.5-2.8c2.2,0,3.8,0.6,4.8,1.8c1,1.2,1.5,2.5,1.5,3.9c0,1.5-0.5,2.8-1.6,3.9c-0.6,0.6-1.7,1.4-3.3,2.3l-1.8,1      c-0.8,0.5-1.6,0.9-2,1.4c-0.9,0.8-1.4,1.6-1.7,2.6H44.1z M58.9,44.9C57.7,46.3,56,47,53.5,47c-1.6,0-2.9-0.4-4.1-1.3      c-1.2-0.9-1.9-2.2-2-4h2.5c0.2,1.4,0.8,2.3,1.9,2.8c0.6,0.3,1.2,0.4,2,0.4c1.4,0,2.5-0.5,3.2-1.4c0.7-0.9,1-1.9,1-3      c0-1.3-0.4-2.4-1.2-3.1c-0.8-0.7-1.8-1.1-2.9-1.1c-0.8,0-1.5,0.2-2.1,0.5c-0.6,0.3-1.1,0.8-1.5,1.3L48.1,38l1.4-10.2h9.9v2.3      h-8.1l-0.8,5.3c0.5-0.3,0.9-0.6,1.3-0.8c0.7-0.3,1.5-0.4,2.5-0.4c1.7,0,3.2,0.6,4.4,1.7c1.2,1.1,1.8,2.6,1.8,4.3      C60.5,42,60,43.6,58.9,44.9z M64.9,46.5h-2L69.1,27h2L64.9,46.5z M83.2,45.3C82,46.5,80.3,47,78.1,47c-2.3,0-3.9-0.6-4.9-1.9      c-1-1.2-1.5-2.7-1.5-4.5h2.5c0.1,1.3,0.3,2.2,0.7,2.7c0.6,1,1.7,1.5,3.4,1.5c1.3,0,2.3-0.3,3-1c0.8-0.7,1.1-1.5,1.1-2.6      c0-1.3-0.4-2.2-1.2-2.8c-0.8-0.5-1.9-0.8-3.3-0.8h-0.5c-0.2,0-0.3,0-0.5,0v-2.1c0.2,0,0.5,0.1,0.6,0.1h0.5      c0.9,0,1.6-0.1,2.2-0.4c1-0.5,1.5-1.4,1.5-2.7c0-1-0.3-1.7-1-2.2c-0.7-0.5-1.5-0.8-2.4-0.8c-1.6,0-2.7,0.5-3.3,1.6      c-0.4,0.6-0.5,1.4-0.6,2.5h-2.4c0-1.4,0.3-2.6,0.8-3.6c1-1.8,2.7-2.7,5.1-2.7c1.9,0,3.4,0.4,4.5,1.3c1.1,0.9,1.6,2.1,1.6,3.8      c0,1.2-0.3,2.1-1,2.8c-0.4,0.5-0.9,0.8-1.5,1.1c1,0.3,1.8,0.8,2.3,1.6c0.6,0.8,0.8,1.7,0.8,2.9C85,42.7,84.4,44.2,83.2,45.3z       M101.3,44.3v2.3H88.2c0.1-1.6,0.4-3.1,1-4.3c0.6-1.2,1.7-2.3,3.5-3.3l2.5-1.5c1.1-0.7,2-1.2,2.4-1.7c0.7-0.7,1.1-1.6,1.1-2.5      c0-1.1-0.3-2-1-2.6c-0.7-0.7-1.6-1-2.7-1c-1.6,0-2.8,0.6-3.4,1.9c-0.3,0.7-0.5,1.6-0.5,2.8h-2.4c0-1.7,0.3-3,0.9-4.1      c1-1.8,2.9-2.8,5.5-2.8c2.2,0,3.8,0.6,4.8,1.8c1,1.2,1.5,2.5,1.5,3.9c0,1.5-0.5,2.8-1.6,3.9c-0.6,0.6-1.7,1.4-3.3,2.3l-1.8,1      c-0.8,0.5-1.6,0.9-2,1.4c-0.9,0.8-1.4,1.6-1.7,2.6H101.3z M117.1,15H10.9c-1.5,0-2.7,1.2-2.7,2.7v40.9c0,1.5,1.2,2.7,2.7,2.7      h106.2c1.5,0,2.7-1.2,2.7-2.7V17.7C119.8,16.2,118.6,15,117.1,15z M44.1,44.3v2.3H31c0.1-1.6,0.4-3.1,1-4.3      c0.6-1.2,1.7-2.3,3.5-3.3l2.5-1.5c1.1-0.7,2-1.2,2.4-1.7c0.7-0.7,1.1-1.6,1.1-2.5c0-1.1-0.3-2-1-2.6c-0.7-0.7-1.6-1-2.7-1      c-1.6,0-2.8,0.6-3.4,1.9c-0.3,0.7-0.5,1.6-0.5,2.8h-2.4c0-1.7,0.3-3,0.9-4.1c1-1.8,2.9-2.8,5.5-2.8c2.2,0,3.8,0.6,4.8,1.8      c1,1.2,1.5,2.5,1.5,3.9c0,1.5-0.5,2.8-1.6,3.9c-0.6,0.6-1.7,1.4-3.3,2.3l-1.8,1c-0.8,0.5-1.6,0.9-2,1.4      c-0.9,0.8-1.4,1.6-1.7,2.6H44.1z M58.9,44.9C57.7,46.3,56,47,53.5,47c-1.6,0-2.9-0.4-4.1-1.3c-1.2-0.9-1.9-2.2-2-4h2.5      c0.2,1.4,0.8,2.3,1.9,2.8c0.6,0.3,1.2,0.4,2,0.4c1.4,0,2.5-0.5,3.2-1.4c0.7-0.9,1-1.9,1-3c0-1.3-0.4-2.4-1.2-3.1      c-0.8-0.7-1.8-1.1-2.9-1.1c-0.8,0-1.5,0.2-2.1,0.5c-0.6,0.3-1.1,0.8-1.5,1.3L48.1,38l1.4-10.2h9.9v2.3h-8.1l-0.8,5.3      c0.5-0.3,0.9-0.6,1.3-0.8c0.7-0.3,1.5-0.4,2.5-0.4c1.7,0,3.2,0.6,4.4,1.7c1.2,1.1,1.8,2.6,1.8,4.3C60.5,42,60,43.6,58.9,44.9z       M64.9,46.5h-2L69.1,27h2L64.9,46.5z M83.2,45.3C82,46.5,80.3,47,78.1,47c-2.3,0-3.9-0.6-4.9-1.9c-1-1.2-1.5-2.7-1.5-4.5h2.5      c0.1,1.3,0.3,2.2,0.7,2.7c0.6,1,1.7,1.5,3.4,1.5c1.3,0,2.3-0.3,3-1c0.8-0.7,1.1-1.5,1.1-2.6c0-1.3-0.4-2.2-1.2-2.8      c-0.8-0.5-1.9-0.8-3.3-0.8h-0.5c-0.2,0-0.3,0-0.5,0v-2.1c0.2,0,0.5,0.1,0.6,0.1h0.5c0.9,0,1.6-0.1,2.2-0.4      c1-0.5,1.5-1.4,1.5-2.7c0-1-0.3-1.7-1-2.2c-0.7-0.5-1.5-0.8-2.4-0.8c-1.6,0-2.7,0.5-3.3,1.6c-0.4,0.6-0.5,1.4-0.6,2.5h-2.4      c0-1.4,0.3-2.6,0.8-3.6c1-1.8,2.7-2.7,5.1-2.7c1.9,0,3.4,0.4,4.5,1.3c1.1,0.9,1.6,2.1,1.6,3.8c0,1.2-0.3,2.1-1,2.8      c-0.4,0.5-0.9,0.8-1.5,1.1c1,0.3,1.8,0.8,2.3,1.6c0.6,0.8,0.8,1.7,0.8,2.9C85,42.7,84.4,44.2,83.2,45.3z M101.3,44.3v2.3H88.2      c0.1-1.6,0.4-3.1,1-4.3c0.6-1.2,1.7-2.3,3.5-3.3l2.5-1.5c1.1-0.7,2-1.2,2.4-1.7c0.7-0.7,1.1-1.6,1.1-2.5c0-1.1-0.3-2-1-2.6      c-0.7-0.7-1.6-1-2.7-1c-1.6,0-2.8,0.6-3.4,1.9c-0.3,0.7-0.5,1.6-0.5,2.8h-2.4c0-1.7,0.3-3,0.9-4.1c1-1.8,2.9-2.8,5.5-2.8      c2.2,0,3.8,0.6,4.8,1.8c1,1.2,1.5,2.5,1.5,3.9c0,1.5-0.5,2.8-1.6,3.9c-0.6,0.6-1.7,1.4-3.3,2.3l-1.8,1c-0.8,0.5-1.6,0.9-2,1.4      c-0.9,0.8-1.4,1.6-1.7,2.6H101.3z M117.1,15H10.9c-1.5,0-2.7,1.2-2.7,2.7v40.9c0,1.5,1.2,2.7,2.7,2.7h106.2      c1.5,0,2.7-1.2,2.7-2.7V17.7C119.8,16.2,118.6,15,117.1,15z M44.1,44.3v2.3H31c0.1-1.6,0.4-3.1,1-4.3c0.6-1.2,1.7-2.3,3.5-3.3      l2.5-1.5c1.1-0.7,2-1.2,2.4-1.7c0.7-0.7,1.1-1.6,1.1-2.5c0-1.1-0.3-2-1-2.6c-0.7-0.7-1.6-1-2.7-1c-1.6,0-2.8,0.6-3.4,1.9      c-0.3,0.7-0.5,1.6-0.5,2.8h-2.4c0-1.7,0.3-3,0.9-4.1c1-1.8,2.9-2.8,5.5-2.8c2.2,0,3.8,0.6,4.8,1.8c1,1.2,1.5,2.5,1.5,3.9      c0,1.5-0.5,2.8-1.6,3.9c-0.6,0.6-1.7,1.4-3.3,2.3l-1.8,1c-0.8,0.5-1.6,0.9-2,1.4c-0.9,0.8-1.4,1.6-1.7,2.6H44.1z M58.9,44.9      C57.7,46.3,56,47,53.5,47c-1.6,0-2.9-0.4-4.1-1.3c-1.2-0.9-1.9-2.2-2-4h2.5c0.2,1.4,0.8,2.3,1.9,2.8c0.6,0.3,1.2,0.4,2,0.4      c1.4,0,2.5-0.5,3.2-1.4c0.7-0.9,1-1.9,1-3c0-1.3-0.4-2.4-1.2-3.1c-0.8-0.7-1.8-1.1-2.9-1.1c-0.8,0-1.5,0.2-2.1,0.5      c-0.6,0.3-1.1,0.8-1.5,1.3L48.1,38l1.4-10.2h9.9v2.3h-8.1l-0.8,5.3c0.5-0.3,0.9-0.6,1.3-0.8c0.7-0.3,1.5-0.4,2.5-0.4      c1.7,0,3.2,0.6,4.4,1.7c1.2,1.1,1.8,2.6,1.8,4.3C60.5,42,60,43.6,58.9,44.9z M64.9,46.5h-2L69.1,27h2L64.9,46.5z M83.2,45.3      C82,46.5,80.3,47,78.1,47c-2.3,0-3.9-0.6-4.9-1.9c-1-1.2-1.5-2.7-1.5-4.5h2.5c0.1,1.3,0.3,2.2,0.7,2.7c0.6,1,1.7,1.5,3.4,1.5      c1.3,0,2.3-0.3,3-1c0.8-0.7,1.1-1.5,1.1-2.6c0-1.3-0.4-2.2-1.2-2.8c-0.8-0.5-1.9-0.8-3.3-0.8h-0.5c-0.2,0-0.3,0-0.5,0v-2.1      c0.2,0,0.5,0.1,0.6,0.1h0.5c0.9,0,1.6-0.1,2.2-0.4c1-0.5,1.5-1.4,1.5-2.7c0-1-0.3-1.7-1-2.2c-0.7-0.5-1.5-0.8-2.4-0.8      c-1.6,0-2.7,0.5-3.3,1.6c-0.4,0.6-0.5,1.4-0.6,2.5h-2.4c0-1.4,0.3-2.6,0.8-3.6c1-1.8,2.7-2.7,5.1-2.7c1.9,0,3.4,0.4,4.5,1.3      c1.1,0.9,1.6,2.1,1.6,3.8c0,1.2-0.3,2.1-1,2.8c-0.4,0.5-0.9,0.8-1.5,1.1c1,0.3,1.8,0.8,2.3,1.6c0.6,0.8,0.8,1.7,0.8,2.9      C85,42.7,84.4,44.2,83.2,45.3z M101.3,44.3v2.3H88.2c0.1-1.6,0.4-3.1,1-4.3c0.6-1.2,1.7-2.3,3.5-3.3l2.5-1.5      c1.1-0.7,2-1.2,2.4-1.7c0.7-0.7,1.1-1.6,1.1-2.5c0-1.1-0.3-2-1-2.6c-0.7-0.7-1.6-1-2.7-1c-1.6,0-2.8,0.6-3.4,1.9      c-0.3,0.7-0.5,1.6-0.5,2.8h-2.4c0-1.7,0.3-3,0.9-4.1c1-1.8,2.9-2.8,5.5-2.8c2.2,0,3.8,0.6,4.8,1.8c1,1.2,1.5,2.5,1.5,3.9      c0,1.5-0.5,2.8-1.6,3.9c-0.6,0.6-1.7,1.4-3.3,2.3l-1.8,1c-0.8,0.5-1.6,0.9-2,1.4c-0.9,0.8-1.4,1.6-1.7,2.6H101.3z M117.1,15      H10.9c-1.5,0-2.7,1.2-2.7,2.7v40.9c0,1.5,1.2,2.7,2.7,2.7h106.2c1.5,0,2.7-1.2,2.7-2.7V17.7C119.8,16.2,118.6,15,117.1,15z       M44.1,44.3v2.3H31c0.1-1.6,0.4-3.1,1-4.3c0.6-1.2,1.7-2.3,3.5-3.3l2.5-1.5c1.1-0.7,2-1.2,2.4-1.7c0.7-0.7,1.1-1.6,1.1-2.5      c0-1.1-0.3-2-1-2.6c-0.7-0.7-1.6-1-2.7-1c-1.6,0-2.8,0.6-3.4,1.9c-0.3,0.7-0.5,1.6-0.5,2.8h-2.4c0-1.7,0.3-3,0.9-4.1      c1-1.8,2.9-2.8,5.5-2.8c2.2,0,3.8,0.6,4.8,1.8c1,1.2,1.5,2.5,1.5,3.9c0,1.5-0.5,2.8-1.6,3.9c-0.6,0.6-1.7,1.4-3.3,2.3l-1.8,1      c-0.8,0.5-1.6,0.9-2,1.4c-0.9,0.8-1.4,1.6-1.7,2.6H44.1z M58.9,44.9C57.7,46.3,56,47,53.5,47c-1.6,0-2.9-0.4-4.1-1.3      c-1.2-0.9-1.9-2.2-2-4h2.5c0.2,1.4,0.8,2.3,1.9,2.8c0.6,0.3,1.2,0.4,2,0.4c1.4,0,2.5-0.5,3.2-1.4c0.7-0.9,1-1.9,1-3      c0-1.3-0.4-2.4-1.2-3.1c-0.8-0.7-1.8-1.1-2.9-1.1c-0.8,0-1.5,0.2-2.1,0.5c-0.6,0.3-1.1,0.8-1.5,1.3L48.1,38l1.4-10.2h9.9v2.3      h-8.1l-0.8,5.3c0.5-0.3,0.9-0.6,1.3-0.8c0.7-0.3,1.5-0.4,2.5-0.4c1.7,0,3.2,0.6,4.4,1.7c1.2,1.1,1.8,2.6,1.8,4.3      C60.5,42,60,43.6,58.9,44.9z M64.9,46.5h-2L69.1,27h2L64.9,46.5z M83.2,45.3C82,46.5,80.3,47,78.1,47c-2.3,0-3.9-0.6-4.9-1.9      c-1-1.2-1.5-2.7-1.5-4.5h2.5c0.1,1.3,0.3,2.2,0.7,2.7c0.6,1,1.7,1.5,3.4,1.5c1.3,0,2.3-0.3,3-1c0.8-0.7,1.1-1.5,1.1-2.6      c0-1.3-0.4-2.2-1.2-2.8c-0.8-0.5-1.9-0.8-3.3-0.8h-0.5c-0.2,0-0.3,0-0.5,0v-2.1c0.2,0,0.5,0.1,0.6,0.1h0.5      c0.9,0,1.6-0.1,2.2-0.4c1-0.5,1.5-1.4,1.5-2.7c0-1-0.3-1.7-1-2.2c-0.7-0.5-1.5-0.8-2.4-0.8c-1.6,0-2.7,0.5-3.3,1.6      c-0.4,0.6-0.5,1.4-0.6,2.5h-2.4c0-1.4,0.3-2.6,0.8-3.6c1-1.8,2.7-2.7,5.1-2.7c1.9,0,3.4,0.4,4.5,1.3c1.1,0.9,1.6,2.1,1.6,3.8      c0,1.2-0.3,2.1-1,2.8c-0.4,0.5-0.9,0.8-1.5,1.1c1,0.3,1.8,0.8,2.3,1.6c0.6,0.8,0.8,1.7,0.8,2.9C85,42.7,84.4,44.2,83.2,45.3z       M101.3,44.3v2.3H88.2c0.1-1.6,0.4-3.1,1-4.3c0.6-1.2,1.7-2.3,3.5-3.3l2.5-1.5c1.1-0.7,2-1.2,2.4-1.7c0.7-0.7,1.1-1.6,1.1-2.5      c0-1.1-0.3-2-1-2.6c-0.7-0.7-1.6-1-2.7-1c-1.6,0-2.8,0.6-3.4,1.9c-0.3,0.7-0.5,1.6-0.5,2.8h-2.4c0-1.7,0.3-3,0.9-4.1      c1-1.8,2.9-2.8,5.5-2.8c2.2,0,3.8,0.6,4.8,1.8c1,1.2,1.5,2.5,1.5,3.9c0,1.5-0.5,2.8-1.6,3.9c-0.6,0.6-1.7,1.4-3.3,2.3l-1.8,1      c-0.8,0.5-1.6,0.9-2,1.4c-0.9,0.8-1.4,1.6-1.7,2.6H101.3z M99.4,80.3c-5.3,0-9.5,4.3-9.5,9.5c0,5.3,4.3,9.5,9.5,9.5      c5.3,0,9.5-4.3,9.5-9.5C108.9,84.6,104.7,80.3,99.4,80.3z M117.1,15H10.9c-1.5,0-2.7,1.2-2.7,2.7v40.9c0,1.5,1.2,2.7,2.7,2.7      h106.2c1.5,0,2.7-1.2,2.7-2.7V17.7C119.8,16.2,118.6,15,117.1,15z M44.1,44.3v2.3H31c0.1-1.6,0.4-3.1,1-4.3      c0.6-1.2,1.7-2.3,3.5-3.3l2.5-1.5c1.1-0.7,2-1.2,2.4-1.7c0.7-0.7,1.1-1.6,1.1-2.5c0-1.1-0.3-2-1-2.6c-0.7-0.7-1.6-1-2.7-1      c-1.6,0-2.8,0.6-3.4,1.9c-0.3,0.7-0.5,1.6-0.5,2.8h-2.4c0-1.7,0.3-3,0.9-4.1c1-1.8,2.9-2.8,5.5-2.8c2.2,0,3.8,0.6,4.8,1.8      c1,1.2,1.5,2.5,1.5,3.9c0,1.5-0.5,2.8-1.6,3.9c-0.6,0.6-1.7,1.4-3.3,2.3l-1.8,1c-0.8,0.5-1.6,0.9-2,1.4      c-0.9,0.8-1.4,1.6-1.7,2.6H44.1z M58.9,44.9C57.7,46.3,56,47,53.5,47c-1.6,0-2.9-0.4-4.1-1.3c-1.2-0.9-1.9-2.2-2-4h2.5      c0.2,1.4,0.8,2.3,1.9,2.8c0.6,0.3,1.2,0.4,2,0.4c1.4,0,2.5-0.5,3.2-1.4c0.7-0.9,1-1.9,1-3c0-1.3-0.4-2.4-1.2-3.1      c-0.8-0.7-1.8-1.1-2.9-1.1c-0.8,0-1.5,0.2-2.1,0.5c-0.6,0.3-1.1,0.8-1.5,1.3L48.1,38l1.4-10.2h9.9v2.3h-8.1l-0.8,5.3      c0.5-0.3,0.9-0.6,1.3-0.8c0.7-0.3,1.5-0.4,2.5-0.4c1.7,0,3.2,0.6,4.4,1.7c1.2,1.1,1.8,2.6,1.8,4.3C60.5,42,60,43.6,58.9,44.9z       M64.9,46.5h-2L69.1,27h2L64.9,46.5z M83.2,45.3C82,46.5,80.3,47,78.1,47c-2.3,0-3.9-0.6-4.9-1.9c-1-1.2-1.5-2.7-1.5-4.5h2.5      c0.1,1.3,0.3,2.2,0.7,2.7c0.6,1,1.7,1.5,3.4,1.5c1.3,0,2.3-0.3,3-1c0.8-0.7,1.1-1.5,1.1-2.6c0-1.3-0.4-2.2-1.2-2.8      c-0.8-0.5-1.9-0.8-3.3-0.8h-0.5c-0.2,0-0.3,0-0.5,0v-2.1c0.2,0,0.5,0.1,0.6,0.1h0.5c0.9,0,1.6-0.1,2.2-0.4      c1-0.5,1.5-1.4,1.5-2.7c0-1-0.3-1.7-1-2.2c-0.7-0.5-1.5-0.8-2.4-0.8c-1.6,0-2.7,0.5-3.3,1.6c-0.4,0.6-0.5,1.4-0.6,2.5h-2.4      c0-1.4,0.3-2.6,0.8-3.6c1-1.8,2.7-2.7,5.1-2.7c1.9,0,3.4,0.4,4.5,1.3c1.1,0.9,1.6,2.1,1.6,3.8c0,1.2-0.3,2.1-1,2.8      c-0.4,0.5-0.9,0.8-1.5,1.1c1,0.3,1.8,0.8,2.3,1.6c0.6,0.8,0.8,1.7,0.8,2.9C85,42.7,84.4,44.2,83.2,45.3z M101.3,44.3v2.3H88.2      c0.1-1.6,0.4-3.1,1-4.3c0.6-1.2,1.7-2.3,3.5-3.3l2.5-1.5c1.1-0.7,2-1.2,2.4-1.7c0.7-0.7,1.1-1.6,1.1-2.5c0-1.1-0.3-2-1-2.6      c-0.7-0.7-1.6-1-2.7-1c-1.6,0-2.8,0.6-3.4,1.9c-0.3,0.7-0.5,1.6-0.5,2.8h-2.4c0-1.7,0.3-3,0.9-4.1c1-1.8,2.9-2.8,5.5-2.8      c2.2,0,3.8,0.6,4.8,1.8c1,1.2,1.5,2.5,1.5,3.9c0,1.5-0.5,2.8-1.6,3.9c-0.6,0.6-1.7,1.4-3.3,2.3l-1.8,1c-0.8,0.5-1.6,0.9-2,1.4      c-0.9,0.8-1.4,1.6-1.7,2.6H101.3z M64,80.3c-5.3,0-9.5,4.3-9.5,9.5c0,5.3,4.3,9.5,9.5,9.5s9.5-4.3,9.5-9.5      C73.5,84.6,69.3,80.3,64,80.3z M32.7,102.1h-8.2c-6,0-10.9,4.9-10.9,10.9v8.2h30V113C43.6,107,38.7,102.1,32.7,102.1z       M28.6,80.3c-5.3,0-9.5,4.3-9.5,9.5c0,5.3,4.3,9.5,9.5,9.5s9.5-4.3,9.5-9.5C38.1,84.6,33.9,80.3,28.6,80.3z M68.1,102.1h-8.2      c-6,0-10.9,4.9-10.9,10.9v8.2h30V113C79,107,74.1,102.1,68.1,102.1z" fill="#000000"/>
			</g>
		</g>
	</g>
	<g id="certificate_1_">
		<g id="icon_10_">
			<path class="st2" d="M33.4,27.8v2.8H64v-2.8H33.4z M33.4,55.7v2.8h61.2v-2.8H33.4z M33.4,72.3v2.8h61.2v-2.8H33.4z M33.4,80.7     v2.8h61.2v-2.8H33.4z M108.5,0h-89c-1.5,0-2.8,1.2-2.8,2.8v105.7c0,1.5,1.2,2.8,2.8,2.8H64v-5.6H22.3V5.6h83.5v100.2H103v5.6h5.6     c1.5,0,2.8-1.2,2.8-2.8V2.8C111.3,1.2,110.1,0,108.5,0z M33.4,39v2.8h61.2V39H33.4z M33.4,64v2.8h61.2V64H33.4z M33.4,47.3v2.8     h61.2v-2.8H33.4z M33.4,19.5v2.8H64v-2.8H33.4z" fill="#000000"/>
			<path class="st2" d="M95.2,109.6L95.2,109.6c1.6-2.1,2.6-4.8,2.6-7.7C97.8,94.8,92,89,84.9,89C77.7,89,72,94.8,72,101.9     c0,2.9,1,5.6,2.6,7.7h0L66.8,128c0.3-0.3,2.7-2.7,5.5-2.7c2.5,0,5.6,2.8,5.6,2.8l6.9-13.3l7,13.3c0,0,2.4-2.8,5.6-2.8     c2.3,0,5.6,2.8,5.6,2.8L95.2,109.6z M79.1,99.6c-1.7-1.9-1.4-4.9,0.5-6.6c1.9-1.7,4.8-1.5,6.4,0.5c1.6,1.9-3.7,1.2-5.6,2.9     C78.5,98,80.7,101.5,79.1,99.6z M83.8,109.7c-1.6-1.9,3.7-1.2,5.6-2.9c1.9-1.7-0.3-5.2,1.3-3.2c1.7,1.9,1.4,4.9-0.5,6.6     C88.3,111.8,85.4,111.6,83.8,109.7z" fill="#000000"/>
		</g>
	</g>
	<g id="desktop_x5F_computer_1_" class="st0">
		<g id="icon_11_" class="st1">
			<g>
				<path class="st2" d="M123.3,45.4H67.5c-2.6,0-4.7,2.1-4.7,4.7v41.9c0,2.6,2.1,4.7,4.7,4.7h20.9v7H76.8v4.7h34.9v-4.7h-11.6v-7      h23.3c2.6,0,4.7-2.1,4.7-4.7V50C128,47.5,125.9,45.4,123.3,45.4z M123.3,89.6c0,1.3-1,2.3-2.3,2.3H69.8c-1.3,0-2.3-1-2.3-2.3      V52.4c0-1.3,1-2.3,2.3-2.3H121c1.3,0,2.3,1,2.3,2.3V89.6z M24.4,82.6c-3.2,0-5.8,2.6-5.8,5.8s2.6,5.8,5.8,5.8      c3.2,0,5.8-2.6,5.8-5.8S27.7,82.6,24.4,82.6z M0,108.2h48.9V19.8H0V108.2z M24.4,96.6c-4.5,0-8.1-3.6-8.1-8.1s3.6-8.1,8.1-8.1      c4.5,0,8.1,3.6,8.1,8.1S28.9,96.6,24.4,96.6z M34.9,68.7H14v-2.3h20.9V68.7z M40.7,61.7c-1.9,0-3.5-1.6-3.5-3.5      c0-1.9,1.6-3.5,3.5-3.5s3.5,1.6,3.5,3.5C44.2,60.1,42.7,61.7,40.7,61.7z M4.7,24.4h39.6v4.7H4.7V24.4z M4.7,33.7h39.6v4.7H4.7      V33.7z M4.7,43.1h39.6v4.7H4.7V43.1z M118.7,52.4H72.1c-1.3,0-2.3,1-2.3,2.3v32.6c0,1.3,1,2.3,2.3,2.3h46.5c1.3,0,2.3-1,2.3-2.3      V54.7C121,53.4,120,52.4,118.7,52.4z M82.9,55.1l1.2,2l-8.9,6.6l-1-2.1L82.9,55.1z M74.9,69.5l-1.4-1.8l14.6-11.5l1.4,1.8      L74.9,69.5z" fill="#000000"/>
			</g>
		</g>
	</g>
	<g id="calculator_1_" class="st0">
		<g id="icon_12_" class="st1">
			<g>
				<path class="st2" d="M17.3,0v128h93.4V0H17.3z M45,117.6H27.7v-13.8H45V117.6z M45,96.9H27.7V83H45V96.9z M45,76.1H27.7V62.3H45      V76.1z M45,55.4H27.7V41.5H45V55.4z M72.6,117.6H55.4v-13.8h17.3V117.6z M72.6,96.9H55.4V83h17.3V96.9z M72.6,76.1H55.4V62.3      h17.3V76.1z M72.6,55.4H55.4V41.5h17.3V55.4z M100.3,117.6H83v-13.8h17.3V117.6z M100.3,96.9H83V83h17.3V96.9z M100.3,76.1H83      V62.3h17.3V76.1z M100.3,55.4H83V41.5h17.3V55.4z M100.3,27.7H27.7V10.4h72.6V27.7z" fill="#000000"/>
			</g>
		</g>
	</g>
	<g id="triangle_x5F_ruler_1_" class="st0">
		<g id="icon_13_" class="st1">
			<g>
				<path class="st2" d="M48.6,49.7l24.3,26.5l17.7-15.4L48.6,49.7z M59.6,56.3l22.1,6.6l-8.8,6.6L59.6,56.3z M0,21L70.6,107      L128,51.9L0,21z M63.4,91.6l5.9-5L67.9,85L62,89.9l-4.2-5.1l5.7-4.9l-1.4-1.7l-5.7,4.8L52.3,78l5.6-4.8l-1.4-1.7l-5.6,4.7      l-4.2-5.1l5.5-4.7l-1.4-1.7l-5.5,4.6l-4.2-5.1l5.4-4.6L45,58l-5.4,4.5l-4.2-5.1l5.3-4.5l-1.4-1.7l-5.3,4.5l-4.2-5.1l5.2-4.4      l-1.4-1.7l-5.1,4.4l-4.2-5.1l5.1-4.3l-1.4-1.7l-5,4.3L11,27.6l108.1,26.5l-48.6,46.3L63.4,91.6z" fill="#000000"/>
			</g>
		</g>
	</g>
</g>
<g id="row1_1_" class="st0">
	<g id="university_1_" class="st1">
		<g id="icon_14_">
			<g>
				<path class="st2" d="M65.2,16.9L0,45.9h128L65.2,16.9z M65.2,36.2c-2.7,0-4.8-2.2-4.8-4.8c0-2.7,2.2-4.8,4.8-4.8      c2.7,0,4.8,2.2,4.8,4.8C70,34.1,67.9,36.2,65.2,36.2z M101.4,94.2V53.1h4.8v-4.8H19.3v4.8h4.8v41.1h7.2V53.1h7.2v41.1h7.2V53.1      h14.5v41.1h7.2V53.1h12.1v41.1h7.2V53.1h7.2v41.1H101.4z M106.3,96.6H19.3v4.8h-7.2v9.7h101.4v-9.7h-7.2V96.6z" fill="#000000"/>
			</g>
		</g>
	</g>
	<g id="books_1_" class="st1">
		<g id="icon_15_">
			<path class="st2" d="M63.4,96l-53-28.8v2.6l53,28.7l59.3-31.4v-2.6L63.4,96z M63.4,80.3L13,54.2v2.6l50.4,26.1l59.3-31.4V49     L63.4,80.3z M63.4,101.2l-53-28.7v2.6l53,28.7l59.3-31.3v-2.6L63.4,101.2z M63.4,75.1L13,49v2.6l50.4,26.1l59.3-31.4v-2.6     L63.4,75.1z" fill="#000000"/>
			<path class="st2" d="M10.4,59.4c-7.5-4.7-2.4-11.9,0-13.1c3.8-1.8,52.3,26.1,52.3,26.1l65.3-34c0,0-53.3-21.8-57.5-23.5     c-4.2-1.8-4.1-1.7-7.8,0C49.2,21.2,17.1,35.8,7.8,41.1c-11,6.2-6.2,18.2-2.8,20.8c-0.5,0.1-0.9,0.4-1.3,0.9     c-5.5,6.6-4,15.6-1.1,17.6c3.9,2.7,60.1,34,60.1,34l65.3-34v-5.2l-65.3,34c0,0-47.4-26.7-54.9-31.4C1,73.4,6.7,65.4,9.6,64.7     c13.7,7.7,53,28.7,53,28.7l65.3-34v-5.2l-65.3,34C62.7,88.2,17.9,64.1,10.4,59.4z M67.9,22.8l39.2,15.7l-18.3,7.8L49.6,30.7     L67.9,22.8z" fill="#000000"/>
		</g>
	</g>
	<g id="ruler_x5F_pencil_1_" class="st1">
		<g id="icon_16_">
			<path class="st2" d="M46.9,11.4V2.8H12.8v122.3h34.1v-8.5H29.9v-2.8h17.1v-5.7H29.9v-2.8h17.1v-5.7H29.9v-2.8h17.1V91H29.9v-2.8     h17.1v-5.7H29.9v-2.8h17.1V74H29.9v-2.8h17.1v-5.7H29.9v-2.8h17.1v-5.7H29.9V54h17.1v-5.7H29.9v-2.8h17.1v-5.7H29.9V37h17.1v-5.7     H29.9v-2.8h17.1v-5.7H29.9v-2.8h17.1v-5.7H29.9v-2.8H46.9z M92.4,37v58.4h11.4V37H92.4z M95.3,0c-8.1,0-16.1,6.3-17,14.2H112     C110.5,6.7,103,0,95.3,0z M75.4,17.1v17.1h39.8V17.1H75.4z M106.7,37v59.7l-8.5,14.2h-5.7l-8.5-14.2V37h-5.7v58.3L95.3,128     l17.1-34.1V37H106.7z" fill="#000000"/>
		</g>
	</g>
	<g id="whiteboard_1_" class="st1">
		<g id="icon_17_">
			<g>
				<path class="st2" d="M24.4,126.5h12.5l8.8-39.6H33.5L24.4,126.5z M57.9,126.5h12.2V86.9H57.9V126.5z M82.3,86.9l9.1,39.6h12.2      l-9.1-39.6H82.3z M77.7,7.6l-3-6.1H53.3l-3,6.1H0v79.2h128V7.6H77.7z M121.9,80.8H6.1v-67h115.8V80.8z M118.9,16.8H9.1v61h109.7      V16.8z" fill="#000000"/>
			</g>
		</g>
	</g>
	<g id="Graduation_x5F_Cap_1_" class="st1">
		<g id="icon_18_">
			<g>
				<path class="st2" d="M25.6,59.7v27.7c0,0,18.6,10.7,37.5,10.7c19.5,0,39.3-10.7,39.3-10.7V59.7L64,76.8L25.6,59.7z M117.3,85.3      v-6.4h-2.1V53.3l-6.4,4.3v21.3h-2.1v6.4h2.1l-4.3,21.3h14.9l-4.3-21.3H117.3z M106.7,53.3l-34.1-4.3c0,0-6,1.9-8.5,2.1      c-4.3,0.4-6.3-0.7-6.4-4.3c-0.1-3.6,0.9-5.7,6.4-6.4c5.5-0.7,8.5,4.3,8.5,4.3l40.5,6.4l14.9-6.4L64,21.3L0,44.8l64,27.7      L106.7,53.3z" fill="#000000"/>
			</g>
		</g>
	</g>
</g>
</svg>