<svg xmlns="http://www.w3.org/2000/svg" style="width: 1em; height: 1em; vertical-align: middle; fill: currentcolor;" version="1.1" width="1024" height="1024"><rect id="backgroundrect" width="100%" height="100%" x="0" y="0" fill="none" stroke="none"/><g class="currentLayer" style=""><title>Layer 1</title><path d="M191.4594594836235,517.0205405163765 l-98.56,-44.373333 c-67.776,-30.464 -67.626667,-103.146667 0,-133.546667 l339.093333,-152.618667 c45.290667,-20.373333 113.706667,-20.352 158.933334,0 l339.114666,152.597334 c67.754667,30.506667 67.584,103.168 0,133.589333 L831.4594594836235,517.0205405163765 v176.853333 c0,98.410667 -145.6,160 -320,160 S191.4594594836235,792.2845405163765 191.4594594836235,693.8738735163765 v-176.853333 zm554.666667,38.4 l-155.2,69.845333 c-45.290667,20.373333 -113.706667,20.352 -158.933334,0 L276.7927924836235,555.4205405163765 v138.453333 c0,10.197333 17.557333,27.733333000000002 55.189334,43.669334 C378.0621264836235,757.0418735163765 442.31812648362353,768.5405405163765 511.4594594836235,768.5405405163765 c69.12,0 133.397333,-11.52 179.477333,-30.997333 C728.5687924836235,721.6285405163765 746.1261264836235,704.0498735163765 746.1261264836235,693.8738735163765 v-138.453333 zm-190.208,-291.114667 c-22.976,-10.346667 -65.898667,-10.368 -88.917334,0 L152.4194594836235,405.8738735163765 l314.602667,141.568 c22.976,10.346667 65.898667,10.368 88.917333,0 L870.4994594836235,405.8738735163765 l-314.602667,-141.568 z" fill="#ffffff" id="svg_1" class="" fill-opacity="1"/></g></svg>