<svg version="1.1" id="Layer_1" xmlns="http://www.w3.org/2000/svg" xmlns:xlink="http://www.w3.org/1999/xlink" x="0px" y="0px"
	 width="512px" height="512px" viewBox="0 0 512 512" enable-background="new 0 0 512 512" xml:space="preserve">
<g id="_x33_._cap_x2C__graduate_x2C__student_x2C__school_x2C__university_x2C__college_x2C__learning">
	<g>
		<path fill="#CCD1D9" d="M369.34,356.363l-7.344,7.632L257.999,467.993L154.003,363.995l-22.397-3.601
			c15.358-6.719,29.839-13.844,38.396-20.242l8.078-8.077l47.921,47.92l31.998-16l32,16l46.396-46.396l6.398,6.398
			C348.075,344.957,358.543,351.004,369.34,356.363z"/>
	</g>
	<g>
		<path fill="#656D78" d="M429.838,381.511c-10.085-3.758-25.046-9.438-39.999-15.836c-7.445-3.202-13.616-5.952-20.499-9.312
			l-7.344,7.632L257.999,467.993L154.003,363.995l-22.397-3.601c-19.762,8.64-41.042,16.476-53.44,21.116
			c-29.44,11.039-44.158,22.086-44.158,51.521c0,29.516,0,74.959,0,74.959h223.992h215.994c0,0,0-45.443,0-74.959
			C473.993,403.597,459.274,392.55,429.838,381.511z"/>
	</g>
	<g opacity="0.2">
		<path d="M353.341,372.362l0.195,0.094l8.46-8.461l7.344-7.632c-10.797-5.359-21.265-11.406-26.546-16.366l-6.398-6.398l-16,15.999
			l6.398,6.398C332.075,360.957,342.544,367.003,353.341,372.362z"/>
	</g>
	<g opacity="0.2">
		<path d="M429.838,381.511c-10.085-3.758-25.046-9.438-39.999-15.836c-7.445-3.202-13.616-5.952-20.499-9.312l-7.344,7.632
			l-8.46,8.461l16.171,7.422l0,0c1.352,0.594,2.703,1.18,4.133,1.797c14.952,6.398,29.913,12.078,39.999,15.836
			c29.437,11.038,44.154,22.085,44.154,51.521c0,18.422,0,43.045,0,58.959h16c0,0,0-45.443,0-74.959
			C473.993,403.597,459.274,392.55,429.838,381.511z"/>
	</g>
	<g opacity="0.3">
		<path fill="#FFFFFF" d="M94.165,397.511c11.819-4.422,31.698-11.766,50.65-19.922l15.531-7c0.059-0.023,0.113-0.055,0.172-0.078
			l-6.516-6.516l-22.397-3.601c-19.762,8.64-41.042,16.476-53.44,21.116c-29.44,11.039-44.158,22.086-44.158,51.521
			c0,29.516,0,74.959,0,74.959h15.999c0-15.914,0-40.537,0-58.959C50.006,419.596,64.725,408.549,94.165,397.511z"/>
	</g>
	<g opacity="0.7">
		<path fill="#FFFFFF" d="M164.061,344.129c-1.546,0.953-3.171,1.914-4.901,2.891c-0.188,0.102-0.359,0.203-0.551,0.312
			c-2.074,1.156-4.277,2.312-6.562,3.477c-0.188,0.102-0.379,0.195-0.566,0.289c-6.141,3.109-12.902,6.242-19.874,9.297
			l22.397,3.601l6.516,6.516c10.272-4.883,19.394-9.804,25.483-14.358l8.078-8.078l-16-15.999l-8.078,8.077
			c-1.375,1.031-2.953,2.086-4.613,3.141C164.955,343.574,164.51,343.848,164.061,344.129z"/>
	</g>
	<g opacity="0.2">
		<polygon points="257.999,355.996 178.002,309.521 178.002,339.997 226.001,387.995 257.999,371.995 289.999,387.995 
			337.997,339.997 337.997,309.521 		"/>
	</g>
	<g>
		<polygon fill="#E6E9ED" points="257.999,347.996 178.002,301.521 178.002,331.997 226.001,379.995 257.999,363.995 
			289.999,379.995 337.997,331.997 337.997,301.521 		"/>
	</g>
	<g opacity="0.2">
		<path d="M258.007,355.996c23.656,0,54.499-18.218,79.99-46.507v-7.969l-79.998,46.476l-79.997-46.476v7.945
			C203.497,337.771,234.348,355.996,258.007,355.996z"/>
	</g>
	<g>
		<path fill="#EAC6BB" d="M385.995,187.122v-23.12H130.012v23.12c0,83.752,79.278,160.874,127.995,160.874
			c48.718,0,127.996-77.122,127.996-160.874H385.995z"/>
	</g>
	<g opacity="0.2">
		<path d="M130.012,172.001c0.086,0.012,56.045,8,127.987,8c71.998,0,127.996-8,127.996-8v-8H130.012V172.001z"/>
	</g>
	<g opacity="0.5">
		<path fill="#FFFFFF" d="M146.011,187.122v-13.179c-10.168-1.113-15.972-1.938-15.999-1.941v15.121
			c0,83.752,79.278,160.874,127.995,160.874c2.582,0,5.266-0.266,8-0.688C217.095,339.763,146.011,266.437,146.011,187.122z"/>
	</g>
	<g opacity="0.2">
		<path d="M369.996,187.122v-13.179c10.171-1.113,15.968-1.938,15.999-1.941v15.121c0,83.752-79.278,160.874-127.996,160.874
			c-2.577,0-5.265-0.266-7.999-0.688C298.912,339.763,369.996,266.437,369.996,187.122z"/>
	</g>
	<g>
		<polygon fill="#656D78" points="257.999,4.003 34.019,52.001 257.999,100 481.993,52.001 		"/>
	</g>
	<g opacity="0.2">
		<polygon fill="#FFFFFF" points="66.018,52.001 273.999,7.433 257.999,4.003 34.019,52.001 257.999,100 273.999,96.57 		"/>
	</g>
	<g opacity="0.2">
		<polygon points="449.985,52.001 257.999,93.145 273.999,96.574 481.985,52.001 273.999,7.437 257.999,10.862 		"/>
	</g>
	<g>
		<path fill="#3A3847" d="M258.237,391.987c-2.206,0-4.038-1.789-4.038-4s1.75-4,3.96-4h0.078c2.211,0,4.004,1.789,4.004,4
			S260.448,391.987,258.237,391.987z"/>
	</g>
	<g>
		<path fill="#3A3847" d="M258.237,415.986c-2.206,0-4.038-1.789-4.038-4s1.75-4,3.96-4h0.078c2.211,0,4.004,1.789,4.004,4
			S260.448,415.986,258.237,415.986z"/>
	</g>
	<g>
		<path fill="#656D78" d="M385.995,72.563v91.438c0,0-55.998,8-127.996,8c-71.997,0-127.995-8-127.995-8V72.563l127.995,27.44
			L385.995,72.563z"/>
	</g>
	<g opacity="0.2">
		<path d="M385.995,72.563v91.438c0,0-55.998,8-127.996,8c-71.997,0-127.995-8-127.995-8V72.563l127.995,27.44L385.995,72.563z"/>
	</g>
	<g opacity="0.2">
		<polygon points="257.999,123.999 385.995,96.57 385.995,72.563 257.999,100.004 130.004,72.563 130.004,96.57 		"/>
	</g>
	<g opacity="0.2">
		<path fill="#FFFFFF" d="M146.003,100l-15.999-3.43v67.432c0,0,55.998,8,127.995,8c2.707,0,5.344-0.031,8-0.054
			c-68.08-0.555-119.996-7.945-119.996-7.945V100z"/>
	</g>
	<g opacity="0.2">
		<path d="M369.996,100l15.999-3.43v67.432c0,0-55.998,8-127.996,8c-2.71,0-5.343-0.031-7.999-0.054
			c68.075-0.555,119.996-7.945,119.996-7.945V100z"/>
	</g>
	<g opacity="0.2">
		<path fill="#FFFFFF" d="M273.999,52.005c0,4.398-7.109,8-15.996,8c-8.8,0-15.999-3.602-15.999-8c0-4.398,7.199-8,15.999-8
			C266.89,44.005,273.999,47.607,273.999,52.005z"/>
	</g>
	<g>
		<polygon fill="#FFCE54" points="457.993,140.002 457.993,132.003 441.994,132.003 441.994,140.002 433.994,172.001 
			465.993,172.001 		"/>
	</g>
	<g opacity="0.5">
		<polygon fill="#FFFFFF" points="441.994,140.002 433.994,172.001 441.994,172.001 449.993,140.002 		"/>
	</g>
	<g>
		<rect x="441.994" y="116.003" fill="#656D78" width="15.999" height="16"/>
	</g>
	<g>
		<polygon fill="#FFCE54" points="369.34,356.363 257.999,467.993 144.722,354.426 128.262,361.84 257.999,491.991 385.706,363.879 
					"/>
	</g>
	<g opacity="0.2">
		<polygon points="348.083,369.675 257.999,459.993 166.064,367.815 160.511,370.503 257.999,467.993 353.544,372.456 		"/>
	</g>
	<g opacity="0.2">
		<path d="M369.707,379.878L369.707,379.878c0.008,0.008,0.023,0.008,0.031,0.016l15.968-16.015l-16.366-7.516l-15.968,16.015
			L369.707,379.878z"/>
	</g>
	<g opacity="0.5">
		<path fill="#FFFFFF" d="M144.722,354.426l-16.46,7.414l15.952,15.999c0.199-0.086,0.402-0.164,0.602-0.25l15.531-7
			c0.117-0.055,0.223-0.109,0.336-0.164L144.722,354.426z"/>
	</g>
	<g opacity="0.2">
		<rect x="441.994" y="131.003" width="15.999" height="9"/>
	</g>
	<g opacity="0.3">
		<rect x="441.994" y="116.804" fill="#FFFFFF" width="7.999" height="14.199"/>
	</g>
	<g>
		<g>
			<path fill="#3A3847" d="M473.993,511.991H34.007c-2.211,0-4-1.789-4-4v-74.959c0-31.717,16.433-43.896,46.752-55.264l3.141-1.172
				c12.75-4.766,32.019-11.961,50.104-19.866c18.085-7.914,30.386-14.383,37.604-19.78c1.773-1.328,4.277-0.961,5.598,0.812
				c1.324,1.766,0.961,4.272-0.809,5.593c-7.715,5.773-20.534,12.539-39.19,20.702c-18.28,7.992-37.674,15.234-50.506,20.031
				l-3.133,1.172c-28.159,10.555-41.562,20.397-41.562,47.771v70.959h431.987v-70.959c0-27.374-13.398-37.217-41.562-47.771
				c-9.929-3.703-24.913-9.383-40.163-15.914c-8.086-3.469-15.468-6.835-21.952-9.999c-12.515-6.219-21.101-11.594-26.265-16.438
				c-1.609-1.516-1.688-4.046-0.172-5.655c1.523-1.617,4.047-1.688,5.656-0.172c4.516,4.241,12.694,9.319,24.319,15.093
				c6.344,3.094,13.601,6.406,21.562,9.82c15.094,6.46,29.952,12.093,39.819,15.765c30.327,11.375,46.757,23.555,46.757,55.271
				v74.959C477.993,510.202,476.204,511.991,473.993,511.991z"/>
		</g>
		<g>
			<path fill="#3A3847" d="M257.999,351.996c-49.729,0-131.995-77.06-131.995-164.874c0-2.211,1.789-4,4-4
				c2.21,0,3.999,1.789,3.999,4c0,80.893,77.354,156.874,123.996,156.874c46.64,0,123.996-75.981,123.996-156.874
				c0-2.211,1.789-4,4-4s4,1.789,4,4C389.995,274.937,307.725,351.996,257.999,351.996z"/>
		</g>
		<g>
			<path fill="#3A3847" d="M130.004,168.002c-2.211,0-4-1.789-4-4V72.563c0-2.211,1.789-4,4-4c2.21,0,3.999,1.789,3.999,4v91.438
				C134.003,166.213,132.214,168.002,130.004,168.002z"/>
		</g>
		<g>
			<path fill="#3A3847" d="M385.995,168.002c-2.211,0-4-1.789-4-4V72.563c0-2.211,1.789-4,4-4s4,1.789,4,4v91.438
				C389.995,166.213,388.206,168.002,385.995,168.002z"/>
		</g>
		<g>
			<path fill="#3A3847" d="M257.999,176.001c-71.454,0-127.999-7.96-128.562-8.039c-2.188-0.312-3.707-2.34-3.395-4.527
				s2.371-3.703,4.527-3.395c0.555,0.082,56.572,7.961,127.429,7.961c70.857,0,126.871-7.879,127.434-7.961
				c2.141-0.309,4.211,1.207,4.523,3.395s-1.211,4.215-3.398,4.527C385.995,168.041,329.458,176.001,257.999,176.001z"/>
		</g>
		<g>
			<path fill="#3A3847" d="M257.999,104.004c-0.281,0-0.562-0.031-0.84-0.09L33.171,55.915c-1.848-0.395-3.164-2.023-3.164-3.91
				c0-1.887,1.316-3.516,3.16-3.91L257.159,0.097c0.555-0.117,1.129-0.117,1.676,0L434.83,37.775
				c2.164,0.461,3.539,2.586,3.078,4.746c-0.469,2.167-2.633,3.562-4.75,3.074L257.999,8.097L53.104,52.005l204.896,43.909
				l175.159-37.499c2.117-0.469,4.281,0.91,4.75,3.074c0.461,2.16-0.922,4.285-3.078,4.746l-175.991,37.679
				C258.562,103.973,258.28,104.004,257.999,104.004z"/>
		</g>
		<g>
			<path fill="#3A3847" d="M257.999,64.005c-11.401,0-19.999-5.16-19.999-12c0-6.84,8.598-12,19.999-12c11.398,0,20,5.16,20,12
				C277.999,58.845,269.397,64.005,257.999,64.005z M257.999,48.005c-8.14,0-11.999,3.207-11.999,4c0,0.792,3.859,4,11.999,4
				c7.742,0,12-3.004,12-4C269.999,51.009,265.741,48.005,257.999,48.005z"/>
		</g>
		<g>
			<path fill="#3A3847" d="M449.993,56.005H289.358c-2.211,0-4-1.789-4-4c0-2.211,1.789-4,4-4h160.635c2.211,0,4,1.789,4,4
				C453.993,54.216,452.204,56.005,449.993,56.005z"/>
		</g>
		<g>
			<path fill="#3A3847" d="M449.993,112.003c-2.211,0-4-1.789-4-4V52.005c0-2.211,1.789-4,4-4s4,1.789,4,4v55.998
				C453.993,110.214,452.204,112.003,449.993,112.003z"/>
		</g>
		<g>
			<path fill="#3A3847" d="M457.993,120.003h-15.999c-2.211,0-4-1.789-4-4c0-2.211,1.789-4,4-4h15.999c2.211,0,4,1.789,4,4
				C461.993,118.214,460.204,120.003,457.993,120.003z"/>
		</g>
		<g>
			<path fill="#3A3847" d="M457.993,136.003c-2.211,0-4-1.789-4-4v-16c0-2.211,1.789-4,4-4s4,1.789,4,4v16
				C461.993,134.214,460.204,136.003,457.993,136.003z"/>
		</g>
		<g>
			<path fill="#3A3847" d="M457.993,136.003h-15.999c-2.211,0-4-1.789-4-4s1.789-4,4-4h15.999c2.211,0,4,1.789,4,4
				S460.204,136.003,457.993,136.003z"/>
		</g>
		<g>
			<path fill="#3A3847" d="M441.994,136.003c-2.211,0-4-1.789-4-4v-15.199c0-2.21,1.789-4,4-4c2.21,0,3.999,1.789,3.999,4v15.199
				C445.993,134.214,444.204,136.003,441.994,136.003z"/>
		</g>
		<g>
			<path fill="#3A3847" d="M433.994,176.001c-0.32,0-0.641-0.039-0.969-0.121c-2.148-0.535-3.445-2.707-2.914-4.847l8-31.999
				c0.531-2.148,2.672-3.453,4.852-2.91c2.147,0.535,3.444,2.707,2.913,4.847l-7.999,31.999
				C437.424,174.791,435.791,176.001,433.994,176.001z"/>
		</g>
		<g>
			<path fill="#3A3847" d="M465.993,176.001h-31.999c-2.211,0-4-1.789-4-4c0-2.21,1.789-4,4-4h31.999c2.211,0,4,1.789,4,4
				C469.993,174.212,468.204,176.001,465.993,176.001z"/>
		</g>
		<g>
			<path fill="#3A3847" d="M465.993,176.001c-1.797,0-3.43-1.211-3.883-3.031l-8-31.999c-0.531-2.14,0.766-4.312,2.914-4.847
				c2.109-0.551,4.312,0.762,4.852,2.91l8,31.999c0.531,2.14-0.766,4.312-2.914,4.847
				C466.642,175.962,466.313,176.001,465.993,176.001z"/>
		</g>
		<g>
			<path fill="#3A3847" d="M385.995,191.122c-2.211,0-4-1.789-4-4v-7.121c0-2.211,1.789-4,4-4s4,1.789,4,4v7.121
				C389.995,189.333,388.206,191.122,385.995,191.122z"/>
		</g>
		<g>
			<path fill="#3A3847" d="M130.004,191.122c-2.211,0-4-1.789-4-4v-7.121c0-2.211,1.789-4,4-4c2.21,0,3.999,1.789,3.999,4v7.121
				C134.003,189.333,132.214,191.122,130.004,191.122z"/>
		</g>
		<g>
			<path fill="#3A3847" d="M226.005,383.995c-1.469,0-2.879-0.812-3.582-2.211c-0.988-1.977-0.188-4.383,1.789-5.367l31.999-15.999
				c1.972-0.984,4.374-0.188,5.366,1.789c0.984,1.976,0.188,4.374-1.789,5.366l-31.998,16
				C227.216,383.854,226.606,383.995,226.005,383.995z"/>
		</g>
		<g>
			<path fill="#3A3847" d="M226.001,383.995c-1.023,0-2.047-0.391-2.828-1.172l-47.921-47.92c-1.562-1.562-1.602-4.133-0.039-5.695
				c1.555-1.562,4.055-1.609,5.617-0.039l47.998,47.998c1.562,1.562,1.562,4.094,0,5.656
				C228.047,383.604,227.024,383.995,226.001,383.995z"/>
		</g>
		<g>
			<path fill="#3A3847" d="M178.002,335.997c-2.211,0-4-1.789-4-4v-16c0-2.211,1.789-4,4-4s4,1.789,4,4v16
				C182.002,334.208,180.213,335.997,178.002,335.997z"/>
		</g>
		<g>
			<path fill="#3A3847" d="M289.999,383.995c-0.602,0-1.211-0.141-1.789-0.422l-31.999-16c-1.977-0.992-2.777-3.391-1.789-5.366
				c0.988-1.977,3.397-2.773,5.366-1.789l32,15.999c1.976,0.984,2.772,3.391,1.788,5.367
				C292.873,383.183,291.46,383.995,289.999,383.995z"/>
		</g>
		<g>
			<path fill="#3A3847" d="M289.999,383.995c-1.023,0-2.047-0.391-2.828-1.172c-1.562-1.562-1.562-4.094,0-5.656l47.998-47.998
				c1.562-1.562,4.094-1.562,5.656,0s1.562,4.094,0,5.656l-47.999,47.998C292.045,383.604,291.022,383.995,289.999,383.995z"/>
		</g>
		<g>
			<path fill="#3A3847" d="M337.997,335.997c-2.211,0-4-1.789-4-4v-16c0-2.211,1.789-4,4-4s4,1.789,4,4v16
				C341.997,334.208,340.208,335.997,337.997,335.997z"/>
		</g>
		<g>
			<path fill="#3A3847" d="M257.999,471.992c-1.022,0-2.046-0.391-2.827-1.172L151.175,366.823c-1.562-1.562-1.562-4.093,0-5.655
				s4.094-1.562,5.656,0l103.996,103.997c1.562,1.562,1.562,4.093,0,5.655C260.046,471.602,259.022,471.992,257.999,471.992z"/>
		</g>
		<g>
			<path fill="#3A3847" d="M257.999,471.992c-1.022,0-2.046-0.391-2.827-1.172c-1.562-1.562-1.562-4.093,0-5.655l103.996-103.997
				c1.562-1.562,4.094-1.562,5.656,0s1.562,4.093,0,5.655L260.827,470.82C260.046,471.602,259.022,471.992,257.999,471.992z"/>
		</g>
		<g>
			<path fill="#3A3847" d="M257.999,495.991c-1.022,0-2.046-0.391-2.827-1.172L135.175,374.823c-1.562-1.562-1.562-4.094,0-5.656
				s4.094-1.562,5.656,0l119.996,119.997c1.562,1.562,1.562,4.093,0,5.655C260.046,495.601,259.022,495.991,257.999,495.991z"/>
		</g>
		<g>
			<path fill="#3A3847" d="M257.999,495.991c-1.022,0-2.046-0.391-2.827-1.172c-1.562-1.562-1.562-4.093,0-5.655l119.996-119.997
				c1.562-1.562,4.094-1.562,5.655,0c1.562,1.562,1.562,4.094,0,5.656L260.827,494.819
				C260.046,495.601,259.022,495.991,257.999,495.991z"/>
		</g>
	</g>
</g>
</svg>
