<svg xmlns="http://www.w3.org/2000/svg" xmlns:xlink="http://www.w3.org/1999/xlink" version="1.1" style="enable-background:new 0 0 490 490;" xml:space="preserve" width="490" height="490"><rect id="backgroundrect" width="100%" height="100%" x="0" y="0" fill="none" stroke="none"/>
















<g class="currentLayer" style=""><title>Layer 1</title><g id="svg_1" class="selected" fill="#ffffff" fill-opacity="1">
	<g id="svg_2" fill="#ffffff" fill-opacity="1">
		<g id="svg_3" fill="#ffffff" fill-opacity="1">
			<path d="M368.9834031330342,127.20408327319214 c-0.0006916666746677224,-1.7304612694060286 -0.6861333412703804,-3.4323143748041924 -2.008600023235064,-4.704379713944649 l-58.791667346756356,-56.55102187601401 c-1.3224666819646842,-1.2720653391404566 -3.0917500357647163,-1.9320490297405262 -4.890775056575461,-1.9327143358802434 V64 H126.91666699952356 c-3.820075044189828,0 -6.916666746677218,2.978575587516645 -6.916666746677218,6.653061397178119 v312.6938856673716 c0,3.6744858096614754 3.0965917024873906,6.653061397178119 6.916666746677218,6.653061397178119 h235.16666938702542 c3.8193833775151598,0 6.916666746677218,-2.978575587516645 6.916666746677218,-6.653061397178119 V127.20408327319214 H368.9834031330342 zM310.20833578646983,86.71488222224554 L345.3844278600462,120.55102187601402 H310.20833578646983 V86.71488222224554 zM355.16666963987177,376.6938856673716 H133.83333374620076 V77.30612279435624 h162.54166854691462 v49.8979604788359 c0,3.6744858096614754 3.097283369162058,6.653061397178119 6.916666746677218,6.653061397178119 h51.87500060007914 V376.6938856673716 z" id="svg_4" fill="#ffffff" fill-opacity="1"/>
			<path d="M254.25042680582715,260.2653112167545 l15.524458512917018,34.34576415679233 l12.686550146755355,-5.30581646424955 l-48.90982556577861,-108.20339464528578 c-1.1156583462390353,-2.4682857783530823 -3.6360917087282134,-4.027763369851634 -6.463625074769861,-3.999155205843768 c-2.797100032356267,0.046571429780246865 -5.289866727858736,1.709836779074777 -6.314916739716302,4.213383782832904 l-44.95833385340192,109.77551305343897 l12.870533482216969,4.876694004131561 L203.30779288320008,260.2653112167545 H254.25042680582715 zM227.52373482999172,201.13755866161344 L248.23500173624194,246.95918842239828 h-39.47825879000956 L227.52373482999172,201.13755866161344 z" id="svg_5" fill="#ffffff" fill-opacity="1"/>
			<polygon points="292.91668701171875,173.77552032470703 279.0833282470703,173.77552032470703 279.0833282470703,187.08163452148438 265.25,187.08163452148438 265.25,200.38775634765625 279.0833282470703,200.38775634765625 279.0833282470703,213.69387817382812 292.91668701171875,213.69387817382812 292.91668701171875,200.38775634765625 306.75,200.38775634765625 306.75,187.08163452148438 292.91668701171875,187.08163452148438 " id="svg_6" fill="#ffffff" fill-opacity="1"/>
			<rect x="151.1250006128938" y="336.7755172843029" width="27.666666986708872" height="13.306122794356238" id="svg_7" fill="#ffffff" fill-opacity="1"/>
			<rect x="192.62500109295715" y="336.7755172843029" width="27.666666986708872" height="13.306122794356238" id="svg_8" fill="#ffffff" fill-opacity="1"/>
			<rect x="234.12500157302046" y="336.7755172843029" width="103.75000120015828" height="13.306122794356238" id="svg_9" fill="#ffffff" fill-opacity="1"/>
			<rect x="151.1250006128938" y="90.61224558871248" width="27.666666986708872" height="13.306122794356238" id="svg_10" fill="#ffffff" fill-opacity="1"/>
			<rect x="151.1250006128938" y="117.22449117742495" width="55.333333973417744" height="13.306122794356238" id="svg_11" fill="#ffffff" fill-opacity="1"/>
		</g>
	</g>
</g><g id="svg_12">
</g><g id="svg_13">
</g><g id="svg_14">
</g><g id="svg_15">
</g><g id="svg_16">
</g><g id="svg_17">
</g><g id="svg_18">
</g><g id="svg_19">
</g><g id="svg_20">
</g><g id="svg_21">
</g><g id="svg_22">
</g><g id="svg_23">
</g><g id="svg_24">
</g><g id="svg_25">
</g><g id="svg_26">
</g></g></svg>