<svg xmlns="http://www.w3.org/2000/svg" xmlns:xlink="http://www.w3.org/1999/xlink" version="1.1" id="Layer_1" x="0px" y="0px" width="128px" height="128px" viewBox="0 0 128 128" enable-background="new 0 0 128 128" xml:space="preserve">
<g>
	<g>
		<path fill="#ffffff" d="M118.893,16.106h-4v-3.623h-5.322v3.623h-4v-4.599c0-1.667,1.358-3.024,3.027-3.024h7.271    c1.667,0,3.023,1.356,3.023,3.024V16.106z"/>
	</g>
	<g>
		<polygon fill="#ffffff" points="112.238,100.094 105.583,85.105 105.583,82.688 109.583,82.688 109.583,84.258 112.238,90.236     114.893,84.258 114.893,82.688 118.893,82.688 118.893,85.105   "/>
	</g>
	<g>
		<polygon fill="#ffffff" points="69.869,128 9.021,128 9.021,0 97.948,0 97.948,99.369 93.948,99.369 93.948,4 13.021,4     13.021,124 69.869,124   "/>
	</g>
	<g>
		<g>
			<path fill="#ffffff" d="M73.357,126.894v-23.919h23.426L73.357,126.894z M77.357,106.975v10.118l9.91-10.118H77.357z"/>
		</g>
	</g>
	<g>
		<rect x="40.392" y="22.977" fill="#ffffff" width="38.729" height="4"/>
	</g>
	<g>
		<rect x="40.392" y="32.693" fill="#ffffff" width="38.729" height="4"/>
	</g>
	<g>
		<polygon fill="#ffffff" points="27.67,35.781 21.787,31.907 23.986,28.566 26.789,30.412 32.258,23.416 35.409,25.878   "/>
	</g>
	<g>
		<rect x="40.392" y="51.951" fill="#ffffff" width="38.729" height="4"/>
	</g>
	<g>
		<rect x="40.392" y="61.669" fill="#ffffff" width="38.729" height="4"/>
	</g>
	<g>
		<polygon fill="#ffffff" points="27.669,64.756 21.786,60.878 23.987,57.538 26.79,59.386 32.258,52.391 35.409,54.855   "/>
	</g>
	<g>
		<rect x="40.392" y="80.927" fill="#ffffff" width="38.729" height="4"/>
	</g>
	<g>
		<rect x="40.392" y="90.645" fill="#ffffff" width="38.729" height="4"/>
	</g>
	<g>
		<polygon fill="#ffffff" points="27.669,93.731 21.786,89.854 23.987,86.514 26.79,88.36 32.258,81.366 35.409,83.829   "/>
	</g>
	<g>
		<path fill="#ffffff" d="M118.979,84.373h-13.496V19.167h13.496V84.373z M109.482,80.373h5.496V23.167h-5.496V80.373z"/>
	</g>
</g>
</svg>