<svg version="1.1" id="Layer_1" xmlns="http://www.w3.org/2000/svg" xmlns:xlink="http://www.w3.org/1999/xlink" x="0px" y="0px"
	 width="512px" height="512px" viewBox="0 0 512 512" enable-background="new 0 0 512 512" xml:space="preserve">
<g id="_x31_8._protractor_x2C__triangle_x2C__pencil_x2C__compasses_x2C__school_x2C__university_x2C__learning">
	<g>
		<path fill="#CCD1D9" d="M12.008,96.005c-4.418,0-8,3.578-8,8s3.582,8,8,8h61.748v-16H12.008z"/>
	</g>
	<g opacity="0.5">
		<path fill="#FFFFFF" d="M73.756,96.005H12.008c-4.418,0-8,3.578-8,8h69.748V96.005z"/>
	</g>
	<g>
		<polygon fill="#CCD1D9" points="475.994,120.004 122.005,120.004 122.005,88.005 475.994,88.005 507.992,104.005 		"/>
	</g>
	<g opacity="0.5">
		<polygon fill="#FFFFFF" points="122.005,88.005 122.005,104.005 507.992,104.005 475.994,88.005 		"/>
	</g>
	<g>
		<path fill="#CCD1D9" d="M12.008,96.005c-4.418,0-8,3.578-8,8s3.582,8,8,8h61.748v-16H12.008z"/>
	</g>
	<g>
		<path fill="#AAB2BD" d="M100.006,96.005c4.398,0,8,3.602,8,8s-3.602,8-8,8c-4.398,0-8-3.602-8-8S95.607,96.005,100.006,96.005z"/>
	</g>
	<g>
		<path fill="#656D78" d="M108.005,104.005c0-4.398-3.602-8-8-8c-4.398,0-8,3.602-8,8s3.602,8,8,8
			C104.404,112.005,108.005,108.403,108.005,104.005z M100.006,72.006c17.679,0,31.999,14.319,31.999,31.999
			c0,17.679-14.32,31.999-31.999,31.999s-31.999-14.32-31.999-31.999C68.007,86.325,82.327,72.006,100.006,72.006z"/>
	</g>
	<g opacity="0.3">
		<g>
			<path fill="#FFFFFF" d="M100.006,80.006c16.308,0,29.608,12.233,31.597,27.999c0.168-1.328,0.402-2.633,0.402-4
				c0-17.68-14.32-31.999-31.999-31.999s-31.999,14.319-31.999,31.999c0,1.367,0.234,2.672,0.402,4
				C70.397,92.239,83.698,80.006,100.006,80.006z"/>
		</g>
	</g>
	<g opacity="0.2">
		<g>
			<path d="M100.006,128.004c-16.308,0-29.609-12.233-31.597-27.999c-0.168,1.328-0.402,2.633-0.402,4
				c0,17.679,14.32,31.999,31.999,31.999s31.999-14.32,31.999-31.999c0-1.367-0.234-2.672-0.402-4
				C129.614,115.771,116.314,128.004,100.006,128.004z"/>
		</g>
	</g>
	<g>
		<path fill="#FFCE54" d="M500.072,48.007H44.007l-39.999-16l39.999-15.999h399.987h16h40.078c4.32,0,7.92,3.523,7.92,7.921v16.078
			c0,4.398-3.6,7.922-7.92,7.922V48.007z"/>
	</g>
	<g>
		<path fill="#FFD2A6" d="M292,495.992h-24h-23.999h-24h-23.999h-24h-23.999h-24h-23.999h-24H52.007h-24H4.009V152.003
			l503.983,343.989h-47.998h-23.998h-24h-24h-23.998h-24h-24H292z M68.007,431.994L300,431.518L68.007,273.203V431.994z"/>
	</g>
	<g opacity="0.2">
		<g>
			<polygon points="4.009,152.003 4.009,162.925 491.994,495.992 507.992,495.992 			"/>
		</g>
	</g>
	<g opacity="0.5">
		<g>
			<polygon fill="#FFFFFF" points="4.009,152.003 4.009,495.992 12.008,495.992 12.008,157.464 			"/>
		</g>
	</g>
	<g>
		<polygon fill="#AC92EC" points="295.602,309.357 275.758,295.843 255.923,282.241 236.08,268.719 193.124,239.438 215.682,206.4 
			235.521,219.923 268.562,242.478 446.955,364.238 479.994,386.793 499.838,400.316 477.275,433.354 454.15,417.519 
			434.316,403.996 414.473,390.473 394.715,376.957 374.881,363.435 355.037,349.919 335.201,336.396 315.438,322.881 		"/>
	</g>
	<g opacity="0.3">
		<polygon fill="#FFFFFF" points="462.15,409.519 442.316,395.996 422.473,382.473 402.715,368.957 382.879,355.435 
			363.037,341.919 343.201,328.396 323.436,314.881 303.602,301.357 283.758,287.843 263.922,274.242 244.08,260.719 
			201.124,231.438 217.413,207.58 215.682,206.4 193.124,239.438 236.08,268.719 255.923,282.241 275.758,295.843 295.602,309.357 
			315.438,322.881 335.201,336.396 355.037,349.919 374.881,363.435 394.715,376.957 414.473,390.473 434.316,403.996 
			454.15,417.519 477.275,433.354 483.549,424.167 		"/>
	</g>
	<g>
		<path fill="#967ADC" d="M339.998,193.924c-13.758,2.555-27.115,7.922-39.037,15.758c-11.602,7.522-21.922,17.437-30.164,29.522
			l-2.234,3.273l-33.042-22.555l2.242-3.281c46.081-67.521,138.157-84.958,205.67-38.881
			c67.52,46.162,84.879,138.159,38.881,205.673l-2.32,3.359l-33.039-22.555l2.242-3.28c8.234-12.078,13.758-25.28,16.555-38.804
			c5.844-27.999,0.32-57.357-15.359-81.271c-7.6-11.523-17.436-21.844-29.514-30.085c-12.086-8.234-25.203-13.68-38.727-16.477
			C368.24,191.361,353.842,191.283,339.998,193.924z"/>
	</g>
	<g opacity="0.2">
		<g>
			<path d="M443.434,177.761c-61.164-41.741-142.355-31.21-191.378,21.304c49.522-45.491,125.45-52.842,183.378-13.305
				c65.561,44.819,83.645,132.785,42.545,199.658l2.016,1.375l2.32-3.359C528.312,315.92,510.953,223.923,443.434,177.761z"/>
		</g>
	</g>
	<g>
		<polygon fill="#FFD2A6" points="38.253,18.312 52.007,32.007 38.339,45.741 4.009,32.007 		"/>
	</g>
	<g>
		<rect x="427.996" y="16.008" fill="#CCD1D9" width="47.998" height="31.999"/>
	</g>
	<g>
		<path fill="#EC87C0" d="M500.072,16.008h-24.078v31.999h24.078v-0.078c4.32,0,7.92-3.523,7.92-7.922V23.929
			C507.992,19.531,504.393,16.008,500.072,16.008z"/>
	</g>
	<g opacity="0.5">
		<path fill="#FFFFFF" d="M507.992,31.968v-8.039c0-4.397-3.6-7.921-7.92-7.921h-40.078h-16H44.007L4.106,31.968H507.992z"/>
	</g>
	<g>
		<g>
			<path fill="#3A3847" d="M4.009,499.992c-2.211,0-4-1.789-4-4V152.003c0-2.211,1.789-3.999,4-3.999c2.21,0,4,1.788,4,3.999
				v343.989C8.008,498.203,6.219,499.992,4.009,499.992z"/>
		</g>
		<g>
			<path fill="#3A3847" d="M507.992,499.992H4.009c-2.211,0-4-1.789-4-4s1.789-4,4-4h503.983c2.211,0,4,1.789,4,4
				S510.203,499.992,507.992,499.992z"/>
		</g>
		<g>
			<path fill="#3A3847" d="M507.992,499.992c-0.779,0-1.561-0.227-2.256-0.695L1.755,155.308c-1.824-1.25-2.297-3.734-1.051-5.562
				c1.246-1.819,3.742-2.28,5.558-1.047L510.25,492.688c1.82,1.25,2.289,3.734,1.047,5.562
				C510.523,499.383,509.266,499.992,507.992,499.992z"/>
		</g>
		<g>
			<path fill="#3A3847" d="M68.007,435.994c-2.211,0-4-1.789-4-4V273.203c0-2.211,1.789-4,4-4c2.21,0,4,1.789,4,4v158.791
				C72.006,434.205,70.217,435.994,68.007,435.994z"/>
		</g>
		<g>
			<path fill="#3A3847" d="M68.007,435.994c-2.207,0-3.996-1.789-4-3.992c-0.004-2.211,1.781-4,3.992-4.008l231.993-0.476H300
				c2.203,0,3.992,1.788,4,3.991c0.008,2.211-1.781,4-3.992,4.008l-231.994,0.477C68.01,435.994,68.01,435.994,68.007,435.994z"/>
		</g>
		<g>
			<path fill="#3A3847" d="M300,435.518c-0.781,0-1.562-0.227-2.258-0.695L65.753,276.507c-1.824-1.241-2.297-3.733-1.051-5.562
				c1.242-1.82,3.738-2.281,5.558-1.047l231.998,158.314c1.82,1.242,2.289,3.734,1.047,5.562
				C302.531,434.908,301.273,435.518,300,435.518z"/>
		</g>
		<g>
			<path fill="#3A3847" d="M28.008,499.992c-2.21,0-4-1.789-4-4v-7.28c0-2.211,1.789-4,4-4c2.211,0,4,1.789,4,4v7.28
				C32.008,498.203,30.219,499.992,28.008,499.992z"/>
		</g>
		<g>
			<path fill="#3A3847" d="M52.007,499.992c-2.211,0-4-1.789-4-4v-7.28c0-2.211,1.789-4,4-4s4,1.789,4,4v7.28
				C56.007,498.203,54.218,499.992,52.007,499.992z"/>
		</g>
		<g>
			<path fill="#3A3847" d="M76.006,499.992c-2.211,0-4-1.789-4-4v-7.28c0-2.211,1.789-4,4-4s4,1.789,4,4v7.28
				C80.006,498.203,78.217,499.992,76.006,499.992z"/>
		</g>
		<g>
			<path fill="#3A3847" d="M100.006,499.992c-2.211,0-4-1.789-4-4v-7.28c0-2.211,1.789-4,4-4c2.21,0,4,1.789,4,4v7.28
				C104.005,498.203,102.216,499.992,100.006,499.992z"/>
		</g>
		<g>
			<path fill="#3A3847" d="M124.005,499.992c-2.21,0-4-1.789-4-4v-7.28c0-2.211,1.789-4,4-4c2.211,0,4,1.789,4,4v7.28
				C128.005,498.203,126.216,499.992,124.005,499.992z"/>
		</g>
		<g>
			<path fill="#3A3847" d="M148.004,499.992c-2.211,0-4-1.789-4-4v-7.28c0-2.211,1.789-4,4-4s4,1.789,4,4v7.28
				C152.004,498.203,150.215,499.992,148.004,499.992z"/>
		</g>
		<g>
			<path fill="#3A3847" d="M172.003,499.992c-2.211,0-4-1.789-4-4v-7.28c0-2.211,1.789-4,4-4s4,1.789,4,4v7.28
				C176.003,498.203,174.214,499.992,172.003,499.992z"/>
		</g>
		<g>
			<path fill="#3A3847" d="M196.003,499.992c-2.211,0-4-1.789-4-4v-7.28c0-2.211,1.789-4,4-4c2.21,0,4,1.789,4,4v7.28
				C200.002,498.203,198.213,499.992,196.003,499.992z"/>
		</g>
		<g>
			<path fill="#3A3847" d="M220.002,499.992c-2.21,0-4-1.789-4-4v-7.28c0-2.211,1.789-4,4-4c2.211,0,4,1.789,4,4v7.28
				C224.002,498.203,222.213,499.992,220.002,499.992z"/>
		</g>
		<g>
			<path fill="#3A3847" d="M244.001,499.992c-2.211,0-4-1.789-4-4v-7.28c0-2.211,1.789-4,4-4s4,1.789,4,4v7.28
				C248.001,498.203,246.212,499.992,244.001,499.992z"/>
		</g>
		<g>
			<path fill="#3A3847" d="M268,499.992c-2.211,0-4-1.789-4-4v-7.28c0-2.211,1.789-4,4-4s4,1.789,4,4v7.28
				C272,498.203,270.211,499.992,268,499.992z"/>
		</g>
		<g>
			<path fill="#3A3847" d="M292,499.992c-2.211,0-4-1.789-4-4v-7.28c0-2.211,1.789-4,4-4s4,1.789,4,4v7.28
				C296,498.203,294.211,499.992,292,499.992z"/>
		</g>
		<g>
			<path fill="#3A3847" d="M315.998,499.992c-2.209,0-3.998-1.789-3.998-4v-7.28c0-2.211,1.789-4,3.998-4c2.211,0,4,1.789,4,4v7.28
				C319.998,498.203,318.209,499.992,315.998,499.992z"/>
		</g>
		<g>
			<path fill="#3A3847" d="M339.998,499.992c-2.211,0-4-1.789-4-4v-7.28c0-2.211,1.789-4,4-4s4,1.789,4,4v7.28
				C343.998,498.203,342.209,499.992,339.998,499.992z"/>
		</g>
		<g>
			<path fill="#3A3847" d="M363.998,499.992c-2.211,0-4-1.789-4-4v-7.28c0-2.211,1.789-4,4-4s4,1.789,4,4v7.28
				C367.998,498.203,366.209,499.992,363.998,499.992z"/>
		</g>
		<g>
			<path fill="#3A3847" d="M387.996,499.992c-2.211,0-4-1.789-4-4v-7.28c0-2.211,1.789-4,4-4s4,1.789,4,4v7.28
				C391.996,498.203,390.207,499.992,387.996,499.992z"/>
		</g>
		<g>
			<path fill="#3A3847" d="M411.996,499.992c-2.211,0-4-1.789-4-4v-7.28c0-2.211,1.789-4,4-4s4,1.789,4,4v7.28
				C415.996,498.203,414.207,499.992,411.996,499.992z"/>
		</g>
		<g>
			<path fill="#3A3847" d="M435.996,499.992c-2.211,0-4-1.789-4-4v-7.28c0-2.211,1.789-4,4-4s4,1.789,4,4v7.28
				C439.996,498.203,438.207,499.992,435.996,499.992z"/>
		</g>
		<g>
			<path fill="#3A3847" d="M459.994,499.992c-2.211,0-4-1.789-4-4v-7.28c0-2.211,1.789-4,4-4s4,1.789,4,4v7.28
				C463.994,498.203,462.205,499.992,459.994,499.992z"/>
		</g>
		<g>
			<path fill="#3A3847" d="M477.275,437.354c-0.805,0-1.586-0.242-2.258-0.703L190.87,242.743c-0.875-0.594-1.48-1.516-1.676-2.562
				c-0.199-1.039,0.027-2.125,0.625-3l22.558-33.038c1.25-1.82,3.727-2.281,5.559-1.047l284.152,193.916
				c0.883,0.594,1.484,1.516,1.68,2.562c0.195,1.039-0.031,2.125-0.625,3l-22.562,33.037c-0.602,0.875-1.523,1.477-2.57,1.672
				C477.768,437.33,477.518,437.354,477.275,437.354z M198.686,238.392l277.542,189.4l18.047-26.429L216.733,211.955
				L198.686,238.392z"/>
		</g>
		<g>
			<path fill="#3A3847" d="M449.197,364.957c-0.781,0-1.562-0.227-2.25-0.695c-1.828-1.241-2.297-3.733-1.055-5.554
				c7.828-11.484,13.188-24.054,15.945-37.366c5.602-26.858,0.211-55.381-14.789-78.263c-7.623-11.555-17.186-21.312-28.428-28.977
				c-11.398-7.765-23.945-13.108-37.281-15.866c-13.186-2.805-27.209-2.93-40.592-0.383c-13.234,2.461-26.225,7.703-37.592,15.171
				c-11.5,7.461-21.273,17.023-29.055,28.43c-1.25,1.844-3.734,2.297-5.555,1.055c-1.828-1.242-2.297-3.734-1.055-5.555
				c8.383-12.297,18.914-22.602,31.289-30.632c12.227-8.031,26.232-13.688,40.49-16.328c14.398-2.766,29.523-2.609,43.717,0.414
				c14.352,2.969,27.867,8.719,40.141,17.086c12.102,8.257,22.396,18.749,30.6,31.187c16.172,24.655,21.977,55.373,15.938,84.294
				c-2.969,14.344-8.742,27.882-17.164,40.233C451.729,364.348,450.471,364.957,449.197,364.957z"/>
		</g>
		<g>
			<path fill="#3A3847" d="M482.314,387.434c-0.781,0-1.562-0.227-2.25-0.695c-1.828-1.242-2.297-3.734-1.055-5.555
				c44.662-65.553,27.688-155.323-37.834-200.119c-31.766-21.687-70.084-29.687-107.873-22.53
				c-37.795,7.148-70.549,28.585-92.235,60.365c-1.246,1.82-3.746,2.289-5.559,1.047c-1.824-1.242-2.297-3.734-1.051-5.562
				c22.893-33.538,57.471-56.17,97.36-63.709c39.883-7.562,80.334,0.898,113.871,23.781c69.154,47.287,87.068,142.042,39.93,211.228
				C484.846,386.824,483.588,387.434,482.314,387.434z"/>
		</g>
		<g>
			<path fill="#3A3847" d="M420.879,214.798c-0.781,0-1.57-0.227-2.258-0.703c-1.828-1.242-2.289-3.733-1.039-5.554l9.039-13.195
				c1.25-1.82,3.75-2.281,5.555-1.039c1.828,1.242,2.289,3.734,1.039,5.555l-9.039,13.194
				C423.402,214.188,422.152,214.798,420.879,214.798z"/>
		</g>
		<g>
			<path fill="#3A3847" d="M382.16,198.322c-0.273,0-0.547-0.023-0.828-0.086c-2.162-0.453-3.545-2.57-3.092-4.734l3.279-15.679
				c0.453-2.156,2.539-3.586,4.734-3.094c2.164,0.453,3.547,2.57,3.094,4.734l-3.281,15.679
				C385.676,197.025,384.012,198.322,382.16,198.322z"/>
		</g>
		<g>
			<path fill="#3A3847" d="M339.99,197.924c-1.883,0-3.562-1.344-3.922-3.258l-2.961-15.765c-0.406-2.172,1.023-4.266,3.188-4.672
				c2.117-0.398,4.266,1.016,4.672,3.188l2.961,15.765c0.406,2.172-1.023,4.266-3.188,4.672
				C340.49,197.9,340.24,197.924,339.99,197.924z"/>
		</g>
		<g>
			<path fill="#3A3847" d="M300.961,213.681c-1.297,0-2.578-0.633-3.344-1.804l-8.805-13.438c-1.211-1.852-0.695-4.328,1.148-5.539
				c1.836-1.211,4.328-0.711,5.539,1.148l8.805,13.438c1.211,1.852,0.695,4.328-1.148,5.538
				C302.477,213.47,301.719,213.681,300.961,213.681z"/>
		</g>
		<g>
			<path fill="#3A3847" d="M481.439,329.436c-0.273,0-0.555-0.023-0.828-0.086l-15.68-3.281c-2.164-0.453-3.547-2.57-3.094-4.734
				s2.547-3.578,4.734-3.094l15.68,3.281c2.164,0.453,3.547,2.57,3.094,4.734C484.955,328.139,483.291,329.436,481.439,329.436z"/>
		</g>
		<g>
			<path fill="#3A3847" d="M466.143,283.999c-1.883,0-3.562-1.344-3.922-3.258c-0.406-2.172,1.023-4.266,3.188-4.672l15.766-2.96
				c2.133-0.398,4.266,1.016,4.672,3.187c0.406,2.172-1.023,4.266-3.188,4.672l-15.766,2.961
				C466.643,283.976,466.393,283.999,466.143,283.999z"/>
		</g>
		<g>
			<path fill="#3A3847" d="M450.393,244.883c-1.305,0-2.586-0.641-3.352-1.819c-1.203-1.852-0.68-4.336,1.172-5.531l13.445-8.727
				c1.844-1.203,4.328-0.68,5.531,1.172s0.68,4.336-1.172,5.531l-13.445,8.726C451.9,244.672,451.143,244.883,450.393,244.883z"/>
		</g>
		<g>
			<path fill="#3A3847" d="M216.319,259.203c-0.777,0-1.562-0.227-2.25-0.695c-1.824-1.25-2.297-3.734-1.051-5.562l4.48-6.562
				c1.25-1.82,3.738-2.281,5.558-1.047c1.824,1.25,2.297,3.734,1.051,5.562l-4.48,6.562
				C218.85,258.594,217.596,259.203,216.319,259.203z"/>
		</g>
		<g>
			<path fill="#3A3847" d="M236.076,272.719c-0.789,0-1.582-0.234-2.281-0.719c-1.812-1.258-2.262-3.75-1-5.562l4.562-6.562
				c1.258-1.82,3.742-2.266,5.57-1c1.812,1.258,2.262,3.75,1,5.562L239.365,271C238.587,272.117,237.341,272.719,236.076,272.719z"
				/>
		</g>
		<g>
			<path fill="#3A3847" d="M255.919,286.241c-0.777,0-1.559-0.227-2.25-0.695c-1.824-1.242-2.296-3.734-1.051-5.562l4.476-6.562
				c1.246-1.82,3.727-2.281,5.559-1.047c1.824,1.242,2.293,3.733,1.051,5.562l-4.477,6.562
				C258.453,285.632,257.195,286.241,255.919,286.241z"/>
		</g>
		<g>
			<path fill="#3A3847" d="M275.758,299.843c-0.773,0-1.555-0.219-2.242-0.688c-1.828-1.234-2.312-3.719-1.07-5.555l4.484-6.641
				c1.242-1.82,3.734-2.305,5.555-1.07c1.828,1.234,2.312,3.719,1.07,5.555l-4.484,6.641
				C278.297,299.226,277.039,299.843,275.758,299.843z"/>
		</g>
		<g>
			<path fill="#3A3847" d="M295.602,313.357c-0.773,0-1.547-0.219-2.234-0.68c-1.836-1.242-2.32-3.727-1.086-5.555l4.477-6.641
				c1.242-1.843,3.734-2.312,5.555-1.085c1.836,1.241,2.32,3.726,1.086,5.554l-4.477,6.641
				C298.148,312.74,296.883,313.357,295.602,313.357z"/>
		</g>
		<g>
			<path fill="#3A3847" d="M315.438,326.881c-0.773,0-1.555-0.219-2.242-0.688c-1.828-1.234-2.312-3.719-1.07-5.555l4.482-6.641
				c1.242-1.828,3.734-2.312,5.555-1.07c1.828,1.234,2.312,3.719,1.07,5.555l-4.484,6.641
				C317.975,326.264,316.717,326.881,315.438,326.881z"/>
		</g>
		<g>
			<path fill="#3A3847" d="M335.201,340.396c-0.781,0-1.57-0.227-2.266-0.702c-1.82-1.25-2.281-3.734-1.031-5.562l4.555-6.641
				c1.258-1.812,3.742-2.281,5.562-1.031s2.281,3.734,1.031,5.562l-4.555,6.641C337.725,339.787,336.475,340.396,335.201,340.396z"
				/>
		</g>
		<g>
			<path fill="#3A3847" d="M355.037,353.919c-0.781,0-1.57-0.227-2.266-0.703c-1.82-1.25-2.281-3.742-1.031-5.562l4.562-6.641
				c1.25-1.804,3.734-2.272,5.562-1.03c1.82,1.249,2.281,3.741,1.031,5.562l-4.562,6.641
				C357.561,353.31,356.311,353.919,355.037,353.919z"/>
		</g>
		<g>
			<path fill="#3A3847" d="M374.881,367.434c-0.773,0-1.547-0.219-2.234-0.68c-1.836-1.242-2.32-3.726-1.086-5.554l4.477-6.641
				c1.242-1.836,3.734-2.297,5.553-1.086c1.836,1.242,2.32,3.727,1.086,5.555l-4.475,6.64
				C377.428,366.816,376.162,367.434,374.881,367.434z"/>
		</g>
		<g>
			<path fill="#3A3847" d="M394.715,380.957c-0.773,0-1.555-0.219-2.242-0.688c-1.828-1.234-2.312-3.719-1.07-5.555l4.484-6.641
				c1.242-1.828,3.734-2.305,5.555-1.07c1.828,1.234,2.312,3.719,1.07,5.555l-4.484,6.641
				C397.254,380.34,395.996,380.957,394.715,380.957z"/>
		</g>
		<g>
			<path fill="#3A3847" d="M414.473,394.473c-0.789,0-1.586-0.234-2.281-0.719c-1.82-1.258-2.266-3.75-1-5.57l4.562-6.547
				c1.266-1.812,3.758-2.25,5.562-1c1.82,1.258,2.266,3.75,1,5.57l-4.562,6.555C416.98,393.871,415.73,394.473,414.473,394.473z"/>
		</g>
		<g>
			<path fill="#3A3847" d="M434.316,407.995c-0.789,0-1.586-0.234-2.281-0.719c-1.812-1.258-2.266-3.749-1-5.562l4.562-6.562
				c1.25-1.812,3.742-2.266,5.562-1c1.812,1.258,2.266,3.75,1,5.562l-4.562,6.562C436.824,407.394,435.582,407.995,434.316,407.995z
				"/>
		</g>
		<g>
			<path fill="#3A3847" d="M454.15,421.519c-0.789,0-1.586-0.234-2.281-0.719c-1.812-1.258-2.266-3.75-1-5.562l4.562-6.562
				c1.25-1.812,3.742-2.273,5.562-1c1.812,1.258,2.266,3.75,1,5.562l-4.562,6.562C456.658,420.917,455.416,421.519,454.15,421.519z"
				/>
		</g>
		<g>
			<path fill="#3A3847" d="M500.072,20.008H44.007c-2.211,0-4-1.789-4-4s1.789-4,4-4h456.065c2.211,0,4,1.789,4,4
				S502.283,20.008,500.072,20.008z"/>
		</g>
		<g>
			<path fill="#3A3847" d="M500.072,52.007H44.007c-2.211,0-4-1.789-4-4s1.789-4,4-4h456.065c2.211,0,4,1.789,4,4
				S502.283,52.007,500.072,52.007z"/>
		</g>
		<g>
			<path fill="#3A3847" d="M507.992,27.929c-2.209,0-3.998-1.789-3.998-4c0-2.164-1.758-3.921-3.922-3.921c-2.211,0-4-1.789-4-4
				s1.789-4,4-4c6.57,0,11.92,5.352,11.92,11.921C511.992,26.14,510.203,27.929,507.992,27.929z"/>
		</g>
		<g>
			<path fill="#3A3847" d="M500.072,51.929c-2.211,0-4-1.789-4-4s1.789-4,4-4c2.164,0,3.922-1.758,3.922-3.922
				c0-2.211,1.789-4,3.998-4c2.211,0,4,1.789,4,4C511.992,46.577,506.643,51.929,500.072,51.929z"/>
		</g>
		<g>
			<path fill="#3A3847" d="M507.992,44.007c-2.209,0-3.998-1.789-3.998-4V23.929c0-2.211,1.789-3.999,3.998-3.999
				c2.211,0,4,1.788,4,3.999v16.078C511.992,42.218,510.203,44.007,507.992,44.007z"/>
		</g>
		<g>
			<path fill="#3A3847" d="M475.994,44.007c-2.211,0-4-1.789-4-4V23.929c0-2.211,1.789-3.999,4-3.999s4,1.788,4,3.999v16.078
				C479.994,42.218,478.205,44.007,475.994,44.007z"/>
		</g>
		<g>
			<path fill="#3A3847" d="M427.996,44.007c-2.211,0-4-1.789-4-4V23.929c0-2.211,1.789-3.999,4-3.999s4,1.788,4,3.999v16.078
				C431.996,42.218,430.207,44.007,427.996,44.007z"/>
		</g>
		<g>
			<path fill="#3A3847" d="M443.994,24.007c-2.209,0-3.998-1.789-3.998-3.999v-4c0-2.211,1.789-4,3.998-4c2.211,0,4,1.789,4,4v4
				C447.994,22.218,446.205,24.007,443.994,24.007z"/>
		</g>
		<g>
			<path fill="#3A3847" d="M459.994,24.007c-2.211,0-4-1.789-4-3.999v-4c0-2.211,1.789-4,4-4s4,1.789,4,4v4
				C463.994,22.218,462.205,24.007,459.994,24.007z"/>
		</g>
		<g>
			<path fill="#3A3847" d="M459.994,51.929c-2.211,0-4-1.789-4-4v-3.922c0-2.211,1.789-4,4-4s4,1.789,4,4v3.922
				C463.994,50.14,462.205,51.929,459.994,51.929z"/>
		</g>
		<g>
			<path fill="#3A3847" d="M443.994,51.929c-2.209,0-3.998-1.789-3.998-4v-3.922c0-2.211,1.789-4,3.998-4c2.211,0,4,1.789,4,4v3.922
				C447.994,50.14,446.205,51.929,443.994,51.929z"/>
		</g>
		<g>
			<path fill="#3A3847" d="M44.007,52.007c-0.496,0-1-0.094-1.484-0.289l-39.999-16c-2.051-0.82-3.051-3.148-2.23-5.195
				c0.82-2.055,3.16-3.055,5.199-2.227l39.999,16c2.051,0.82,3.051,3.148,2.23,5.195C47.097,51.054,45.593,52.007,44.007,52.007z"/>
		</g>
		<g>
			<path fill="#3A3847" d="M4.009,36.007c-1.586,0-3.09-0.953-3.715-2.516c-0.82-2.047,0.18-4.375,2.23-5.195l39.999-15.999
				c2.035-0.82,4.379,0.172,5.199,2.227c0.82,2.047-0.18,4.375-2.23,5.195L5.493,35.718C5.008,35.913,4.504,36.007,4.009,36.007z"/>
		</g>
		<g>
			<path fill="#3A3847" d="M52.007,36.007c-1.023,0-2.047-0.391-2.828-1.172l-8-8c-1.562-1.562-1.562-4.094,0-5.656
				c1.562-1.562,4.094-1.562,5.656,0l8,8c1.562,1.562,1.562,4.094,0,5.656C54.054,35.616,53.031,36.007,52.007,36.007z"/>
		</g>
		<g>
			<path fill="#3A3847" d="M44.007,44.007c-1.023,0-2.047-0.391-2.828-1.172c-1.562-1.562-1.562-4.094,0-5.656l8-8
				c1.562-1.562,4.094-1.562,5.656,0s1.562,4.094,0,5.656l-8,8C46.054,43.616,45.031,44.007,44.007,44.007z"/>
		</g>
		<g>
			<path fill="#3A3847" d="M411.996,36.007H68.007c-2.211,0-4-1.789-4-4s1.789-4,4-4h343.989c2.211,0,4,1.789,4,4
				S414.207,36.007,411.996,36.007z"/>
		</g>
		<g>
			<path fill="#3A3847" d="M60.007,116.005H12.008c-2.211,0-4-1.789-4-4s1.789-4,4-4h47.999c2.211,0,4,1.789,4,4
				S62.218,116.005,60.007,116.005z"/>
		</g>
		<g>
			<path fill="#3A3847" d="M60.007,100.005H12.008c-2.211,0-4-1.789-4-4s1.789-4,4-4h47.999c2.211,0,4,1.789,4,4
				S62.218,100.005,60.007,100.005z"/>
		</g>
		<g>
			<path fill="#3A3847" d="M12.008,116.005c-6.617,0-12-5.383-12-12s5.382-12,12-12c2.211,0,4,1.789,4,4s-1.789,4-4,4
				c-2.207,0-4,1.797-4,4s1.793,4,4,4c2.211,0,4,1.789,4,4S14.219,116.005,12.008,116.005z"/>
		</g>
		<g>
			<path fill="#3A3847" d="M100.006,140.004c-19.851,0-35.999-16.148-35.999-35.999c0-19.852,16.148-35.999,35.999-35.999
				s35.999,16.147,35.999,35.999C136.004,123.855,119.857,140.004,100.006,140.004z M100.006,76.006c-15.437,0-28,12.562-28,27.999
				c0,15.437,12.562,27.999,28,27.999s27.999-12.562,27.999-27.999C128.005,88.567,115.443,76.006,100.006,76.006z"/>
		</g>
		<g>
			<path fill="#3A3847" d="M100.006,116.005c-6.617,0-12-5.383-12-12s5.382-12,12-12c6.617,0,12,5.383,12,12
				S106.623,116.005,100.006,116.005z M100.006,100.005c-2.207,0-4,1.797-4,4s1.793,4,4,4c2.207,0,4-1.797,4-4
				S102.212,100.005,100.006,100.005z"/>
		</g>
		<g>
			<path fill="#3A3847" d="M475.994,124.004h-335.99c-2.211,0-4-1.789-4-4s1.789-3.999,4-3.999h335.99c2.211,0,4,1.788,4,3.999
				S478.205,124.004,475.994,124.004z"/>
		</g>
		<g>
			<path fill="#3A3847" d="M475.994,92.005h-335.99c-2.211,0-4-1.789-4-4s1.789-3.999,4-3.999h335.99c2.211,0,4,1.788,4,3.999
				S478.205,92.005,475.994,92.005z"/>
		</g>
		<g>
			<path fill="#3A3847" d="M483.994,108.005h-335.99c-2.211,0-4-1.789-4-4s1.789-4,4-4h335.99c2.211,0,4,1.789,4,4
				S486.205,108.005,483.994,108.005z"/>
		</g>
		<g>
			<path fill="#3A3847" d="M507.992,108.005c-0.6,0-1.209-0.133-1.787-0.422l-32-16c-1.977-0.992-2.773-3.391-1.789-5.367
				c1-1.969,3.391-2.772,5.367-1.789l31.998,16c1.977,0.992,2.773,3.391,1.789,5.367
				C510.867,107.192,509.453,108.005,507.992,108.005z"/>
		</g>
		<g>
			<path fill="#3A3847" d="M475.994,124.004c-1.461,0-2.875-0.812-3.578-2.211c-0.984-1.977-0.188-4.375,1.789-5.367l32-15.999
				c1.982-0.992,4.373-0.188,5.365,1.789c0.984,1.977,0.188,4.375-1.789,5.367l-31.998,15.999
				C477.205,123.871,476.596,124.004,475.994,124.004z"/>
		</g>
	</g>
</g>
</svg>
