<svg width="574" height="395" viewBox="0 0 574 395" fill="none" xmlns="http://www.w3.org/2000/svg">
<path d="M544.204 117.939H65.3461C43.0781 117.939 25.0264 132.582 25.0264 150.644V376.155C25.0264 394.217 43.0781 408.86 65.3461 408.86H544.204C566.472 408.86 584.524 394.217 584.524 376.155V150.644C584.524 132.582 566.472 117.939 544.204 117.939Z" fill="#ABBCD3"/>
<path d="M526.937 60.9705H28.2551C15.6474 60.9705 5.42676 69.2607 5.42676 79.4872V366.842C5.42676 377.069 15.6474 385.359 28.2551 385.359H526.937C539.544 385.359 549.765 377.069 549.765 366.842V79.4872C549.765 69.2607 539.544 60.9705 526.937 60.9705Z" fill="#193649"/>
<path d="M278.067 60.8977L200.029 385.468H168.096L246.089 60.8977H278.067Z" fill="#325F77"/>
<path d="M426.429 60.6794L348.884 385.25H274.479L352.517 60.6794H426.429Z" fill="#325F77"/>
<path d="M482.132 60.6794L404.094 385.25H372.116L450.154 60.6794H482.132Z" fill="#325F77"/>
<path d="M48.9312 332.974C47.4086 332.974 45.9485 332.483 44.8719 331.61C43.7953 330.737 43.1904 329.553 43.1904 328.318V155.046C43.3171 153.887 43.9744 152.808 45.0328 152.022C46.0912 151.237 47.474 150.801 48.9087 150.801C50.3435 150.801 51.7263 151.237 52.7847 152.022C53.8431 152.808 54.5004 153.887 54.6271 155.046V328.318C54.633 328.927 54.49 329.532 54.2064 330.097C53.9228 330.661 53.5042 331.175 52.9747 331.608C52.4452 332.041 51.8153 332.384 51.1213 332.619C50.4273 332.853 49.6829 332.974 48.9312 332.974Z" fill="#325F77"/>
<path d="M259.858 151.59H76.2442C74.8049 151.59 73.4246 151.126 72.4069 150.301C71.3891 149.475 70.8174 148.355 70.8174 147.188C70.8174 146.021 71.3891 144.901 72.4069 144.075C73.4246 143.25 74.8049 142.786 76.2442 142.786H259.858C261.297 142.786 262.678 143.25 263.695 144.075C264.713 144.901 265.285 146.021 265.285 147.188C265.285 148.355 264.713 149.475 263.695 150.301C262.678 151.126 261.297 151.59 259.858 151.59Z" fill="#FEBC2E"/>
<path d="M193.84 170.543H76.2442C74.8049 170.543 73.4246 170.079 72.4069 169.254C71.3891 168.428 70.8174 167.309 70.8174 166.141C70.8174 164.974 71.3891 163.854 72.4069 163.029C73.4246 162.203 74.8049 161.74 76.2442 161.74H193.84C195.279 161.74 196.659 162.203 197.677 163.029C198.695 163.854 199.266 164.974 199.266 166.141C199.266 167.309 198.695 168.428 197.677 169.254C196.659 170.079 195.279 170.543 193.84 170.543Z" fill="#FEBC2E"/>
<path d="M147.151 190.442H76.2438C75.4928 190.498 74.7356 190.426 74.0208 190.231C73.3059 190.036 72.6491 189.722 72.0921 189.31C71.5351 188.897 71.0902 188.395 70.7858 187.835C70.4814 187.276 70.3242 186.671 70.3242 186.059C70.3242 185.447 70.4814 184.842 70.7858 184.282C71.0902 183.723 71.5351 183.22 72.0921 182.808C72.6491 182.396 73.3059 182.082 74.0208 181.887C74.7356 181.692 75.4928 181.62 76.2438 181.675H147.106C147.857 181.62 148.614 181.692 149.329 181.887C150.044 182.082 150.701 182.396 151.258 182.808C151.815 183.22 152.26 183.723 152.564 184.282C152.868 184.842 153.026 185.447 153.026 186.059C153.026 186.671 152.868 187.276 152.564 187.835C152.26 188.395 151.815 188.897 151.258 189.31C150.701 189.722 150.044 190.036 149.329 190.231C148.614 190.426 147.857 190.498 147.106 190.442H147.151Z" fill="#FEBC2E"/>
<path d="M186.618 190.442H168.095C167.344 190.498 166.587 190.426 165.872 190.231C165.157 190.036 164.501 189.722 163.944 189.31C163.387 188.897 162.942 188.395 162.637 187.835C162.333 187.276 162.176 186.671 162.176 186.059C162.176 185.447 162.333 184.842 162.637 184.282C162.942 183.723 163.387 183.22 163.944 182.808C164.501 182.396 165.157 182.082 165.872 181.887C166.587 181.692 167.344 181.62 168.095 181.675H186.618C187.369 181.62 188.126 181.692 188.841 181.887C189.556 182.082 190.213 182.396 190.77 182.808C191.327 183.22 191.772 183.723 192.076 184.282C192.381 184.842 192.538 185.447 192.538 186.059C192.538 186.671 192.381 187.276 192.076 187.835C191.772 188.395 191.327 188.897 190.77 189.31C190.213 189.722 189.556 190.036 188.841 190.231C188.126 190.426 187.369 190.498 186.618 190.442Z" fill="#FEBC2E"/>
<path d="M237.702 190.442H212.632C211.88 190.498 211.123 190.426 210.408 190.231C209.694 190.036 209.037 189.722 208.48 189.31C207.923 188.897 207.478 188.395 207.174 187.835C206.869 187.276 206.712 186.671 206.712 186.059C206.712 185.447 206.869 184.842 207.174 184.282C207.478 183.723 207.923 183.22 208.48 182.808C209.037 182.396 209.694 182.082 210.408 181.887C211.123 181.692 211.88 181.62 212.632 181.675H237.702C238.453 181.62 239.211 181.692 239.925 181.887C240.64 182.082 241.297 182.396 241.854 182.808C242.411 183.22 242.856 183.723 243.16 184.282C243.465 184.842 243.622 185.447 243.622 186.059C243.622 186.671 243.465 187.276 243.16 187.835C242.856 188.395 242.411 188.897 241.854 189.31C241.297 189.722 240.64 190.036 239.925 190.231C239.211 190.426 238.453 190.498 237.702 190.442Z" fill="#FEBC2E"/>
<path d="M259.858 227.367H76.2442C74.8049 227.367 73.4246 226.903 72.4069 226.077C71.3891 225.252 70.8174 224.132 70.8174 222.965C70.8174 221.797 71.3891 220.678 72.4069 219.852C73.4246 219.027 74.8049 218.563 76.2442 218.563H259.858C261.297 218.563 262.678 219.027 263.695 219.852C264.713 220.678 265.285 221.797 265.285 222.965C265.285 224.132 264.713 225.252 263.695 226.077C262.678 226.903 261.297 227.367 259.858 227.367Z" fill="#FEBC2E"/>
<path d="M193.84 246.32H76.2442C74.8049 246.32 73.4246 245.856 72.4069 245.03C71.3891 244.205 70.8174 243.085 70.8174 241.918C70.8174 240.75 71.3891 239.631 72.4069 238.805C73.4246 237.98 74.8049 237.516 76.2442 237.516H193.84C195.279 237.516 196.659 237.98 197.677 238.805C198.695 239.631 199.266 240.75 199.266 241.918C199.266 243.085 198.695 244.205 197.677 245.03C196.659 245.856 195.279 246.32 193.84 246.32Z" fill="#FEBC2E"/>
<path d="M147.151 266.219H76.2442C74.8049 266.219 73.4246 265.755 72.4069 264.93C71.3891 264.104 70.8174 262.985 70.8174 261.817C70.8174 260.65 71.3891 259.53 72.4069 258.705C73.4246 257.879 74.8049 257.416 76.2442 257.416H147.106C148.546 257.416 149.926 257.879 150.944 258.705C151.961 259.53 152.533 260.65 152.533 261.817C152.533 262.985 151.961 264.104 150.944 264.93C149.926 265.755 148.546 266.219 147.106 266.219H147.151Z" fill="#FEBC2E"/>
<path d="M186.619 266.219H168.096C166.656 266.219 165.276 265.755 164.258 264.93C163.241 264.104 162.669 262.985 162.669 261.817C162.669 260.65 163.241 259.53 164.258 258.705C165.276 257.879 166.656 257.416 168.096 257.416H186.619C188.058 257.416 189.438 257.879 190.456 258.705C191.474 259.53 192.045 260.65 192.045 261.817C192.045 262.985 191.474 264.104 190.456 264.93C189.438 265.755 188.058 266.219 186.619 266.219Z" fill="#FEBC2E"/>
<path d="M237.703 266.219H212.632C211.193 266.219 209.812 265.755 208.795 264.93C207.777 264.104 207.205 262.985 207.205 261.817C207.205 260.65 207.777 259.53 208.795 258.705C209.812 257.879 211.193 257.416 212.632 257.416H237.703C239.142 257.416 240.522 257.879 241.54 258.705C242.558 259.53 243.13 260.65 243.13 261.817C243.13 262.985 242.558 264.104 241.54 264.93C240.522 265.755 239.142 266.219 237.703 266.219Z" fill="#FEBC2E"/>
<path d="M168.096 209.141H76.2443C75.4175 209.276 74.5641 209.26 73.7457 209.095C72.9272 208.93 72.1641 208.62 71.5116 208.187C70.859 207.753 70.3332 207.208 69.9722 206.59C69.6111 205.971 69.4238 205.296 69.4238 204.612C69.4238 203.928 69.6111 203.252 69.9722 202.634C70.3332 202.016 70.859 201.47 71.5116 201.037C72.1641 200.604 72.9272 200.293 73.7457 200.128C74.5641 199.963 75.4175 199.948 76.2443 200.083H168.096C169.607 200.083 171.055 200.569 172.124 201.436C173.192 202.302 173.792 203.477 173.792 204.703C173.792 205.928 173.192 207.103 172.124 207.97C171.055 208.836 169.607 209.323 168.096 209.323V209.141Z" fill="#325F77"/>
<path d="M259.857 284.881H76.2437C74.7331 284.881 73.2843 284.394 72.2161 283.528C71.148 282.661 70.5479 281.486 70.5479 280.261C70.5479 279.036 71.148 277.861 72.2161 276.994C73.2843 276.128 74.7331 275.641 76.2437 275.641H259.857C261.368 275.641 262.817 276.128 263.885 276.994C264.953 277.861 265.553 279.036 265.553 280.261C265.553 281.486 264.953 282.661 263.885 283.528C262.817 284.394 261.368 284.881 259.857 284.881Z" fill="#FEBC2E"/>
<path d="M259.858 303.143H76.2442C74.8049 303.143 73.4246 302.679 72.4069 301.854C71.3891 301.028 70.8174 299.909 70.8174 298.741C70.8174 297.574 71.3891 296.454 72.4069 295.629C73.4246 294.803 74.8049 294.339 76.2442 294.339H259.858C261.297 294.339 262.678 294.803 263.695 295.629C264.713 296.454 265.285 297.574 265.285 298.741C265.285 299.909 264.713 301.028 263.695 301.854C262.678 302.679 261.297 303.143 259.858 303.143Z" fill="#FEBC2E"/>
<path d="M193.84 322.06H76.2442C74.8049 322.06 73.4246 321.596 72.4069 320.771C71.3891 319.945 70.8174 318.826 70.8174 317.658C70.8174 316.491 71.3891 315.371 72.4069 314.546C73.4246 313.72 74.8049 313.257 76.2442 313.257H193.84C195.279 313.257 196.659 313.72 197.677 314.546C198.695 315.371 199.266 316.491 199.266 317.658C199.266 318.826 198.695 319.945 197.677 320.771C196.659 321.596 195.279 322.06 193.84 322.06Z" fill="#FEBC2E"/>
<path d="M147.151 341.959H76.2442C74.8049 341.959 73.4246 341.495 72.4069 340.67C71.3891 339.844 70.8174 338.725 70.8174 337.557C70.8174 336.39 71.3891 335.27 72.4069 334.445C73.4246 333.619 74.8049 333.156 76.2442 333.156H147.106C148.546 333.156 149.926 333.619 150.944 334.445C151.961 335.27 152.533 336.39 152.533 337.557C152.533 338.725 151.961 339.844 150.944 340.67C149.926 341.495 148.546 341.959 147.106 341.959H147.151Z" fill="#FEBC2E"/>
<path d="M186.619 341.959H168.096C166.656 341.959 165.276 341.495 164.258 340.67C163.241 339.844 162.669 338.725 162.669 337.557C162.669 336.39 163.241 335.27 164.258 334.445C165.276 333.619 166.656 333.156 168.096 333.156H186.619C188.058 333.156 189.438 333.619 190.456 334.445C191.474 335.27 192.045 336.39 192.045 337.557C192.045 338.725 191.474 339.844 190.456 340.67C189.438 341.495 188.058 341.959 186.619 341.959Z" fill="#FEBC2E"/>
<path d="M237.703 341.959H212.632C211.193 341.959 209.812 341.495 208.795 340.67C207.777 339.844 207.205 338.725 207.205 337.557C207.205 336.39 207.777 335.27 208.795 334.445C209.812 333.619 211.193 333.156 212.632 333.156H237.703C239.142 333.156 240.522 333.619 241.54 334.445C242.558 335.27 243.13 336.39 243.13 337.557C243.13 338.725 242.558 339.844 241.54 340.67C240.522 341.495 239.142 341.959 237.703 341.959Z" fill="#FEBC2E"/>
<path d="M505.095 320.132H410.911C410.138 320.132 409.397 319.883 408.85 319.439C408.303 318.996 407.996 318.395 407.996 317.767C407.996 317.14 408.303 316.539 408.85 316.095C409.397 315.652 410.138 315.403 410.911 315.403H505.095C505.868 315.403 506.61 315.652 507.157 316.095C507.703 316.539 508.01 317.14 508.01 317.767C508.01 318.395 507.703 318.996 507.157 319.439C506.61 319.883 505.868 320.132 505.095 320.132Z" fill="#FEBC2E"/>
<path d="M471.234 329.736H410.956C410.183 329.736 409.442 329.487 408.895 329.043C408.348 328.6 408.041 327.999 408.041 327.371C408.041 326.744 408.348 326.143 408.895 325.699C409.442 325.256 410.183 325.007 410.956 325.007H471.234C472.007 325.007 472.749 325.256 473.295 325.699C473.842 326.143 474.149 326.744 474.149 327.371C474.149 327.999 473.842 328.6 473.295 329.043C472.749 329.487 472.007 329.736 471.234 329.736Z" fill="#FEBC2E"/>
<path d="M447.284 339.959H410.956C410.183 339.959 409.442 339.71 408.895 339.266C408.348 338.823 408.041 338.221 408.041 337.594C408.041 336.967 408.348 336.366 408.895 335.922C409.442 335.479 410.183 335.229 410.956 335.229H447.284C448.057 335.229 448.799 335.479 449.346 335.922C449.892 336.366 450.199 336.967 450.199 337.594C450.199 338.221 449.892 338.823 449.346 339.266C448.799 339.71 448.057 339.959 447.284 339.959Z" fill="#FEBC2E"/>
<path d="M467.511 339.959H458.048C457.275 339.959 456.533 339.71 455.987 339.266C455.44 338.823 455.133 338.221 455.133 337.594C455.133 336.967 455.44 336.366 455.987 335.922C456.533 335.479 457.275 335.229 458.048 335.229H467.511C468.284 335.229 469.026 335.479 469.573 335.922C470.119 336.366 470.426 336.967 470.426 337.594C470.426 338.221 470.119 338.823 469.573 339.266C469.026 339.71 468.284 339.959 467.511 339.959Z" fill="#FEBC2E"/>
<path d="M493.793 339.959H480.876C480.103 339.959 479.362 339.71 478.815 339.266C478.268 338.823 477.961 338.221 477.961 337.594C477.961 336.967 478.268 336.366 478.815 335.922C479.362 335.479 480.103 335.229 480.876 335.229H493.793C494.566 335.229 495.307 335.479 495.854 335.922C496.401 336.366 496.708 336.967 496.708 337.594C496.708 338.221 496.401 338.823 495.854 339.266C495.307 339.71 494.566 339.959 493.793 339.959Z" fill="#FEBC2E"/>
<path d="M505.095 276.878H410.911C410.528 276.878 410.149 276.817 409.796 276.698C409.442 276.579 409.121 276.405 408.85 276.185C408.579 275.966 408.364 275.705 408.218 275.418C408.071 275.131 407.996 274.824 407.996 274.513C407.996 273.883 408.302 273.278 408.847 272.828C409.393 272.379 410.134 272.122 410.911 272.112H505.095C505.872 272.122 506.614 272.379 507.159 272.828C507.705 273.278 508.01 273.883 508.01 274.513C508.01 274.824 507.935 275.131 507.789 275.418C507.642 275.705 507.427 275.966 507.157 276.185C506.886 276.405 506.564 276.579 506.211 276.698C505.857 276.817 505.478 276.878 505.095 276.878Z" fill="#FEBC2E"/>
<path d="M471.234 286.591H410.956C410.179 286.581 409.438 286.324 408.892 285.875C408.347 285.426 408.041 284.82 408.041 284.19C408.041 283.879 408.116 283.572 408.263 283.285C408.409 282.998 408.624 282.737 408.895 282.518C409.166 282.298 409.487 282.124 409.841 282.005C410.194 281.886 410.573 281.825 410.956 281.825H471.234C471.617 281.825 471.996 281.886 472.35 282.005C472.703 282.124 473.025 282.298 473.295 282.518C473.566 282.737 473.781 282.998 473.927 283.285C474.074 283.572 474.149 283.879 474.149 284.19C474.149 284.82 473.844 285.426 473.298 285.875C472.753 286.324 472.011 286.581 471.234 286.591Z" fill="#FEBC2E"/>
<path d="M447.284 296.777H410.956C410.183 296.777 409.442 296.528 408.895 296.084C408.348 295.641 408.041 295.04 408.041 294.412C408.041 293.785 408.348 293.184 408.895 292.74C409.442 292.297 410.183 292.048 410.956 292.048H447.284C448.057 292.048 448.799 292.297 449.346 292.74C449.892 293.184 450.199 293.785 450.199 294.412C450.199 295.04 449.892 295.641 449.346 296.084C448.799 296.528 448.057 296.777 447.284 296.777Z" fill="#FEBC2E"/>
<path d="M467.511 296.777H458.048C457.275 296.777 456.533 296.528 455.987 296.084C455.44 295.641 455.133 295.04 455.133 294.412C455.133 293.785 455.44 293.184 455.987 292.74C456.533 292.297 457.275 292.048 458.048 292.048H467.511C468.284 292.048 469.026 292.297 469.573 292.74C470.119 293.184 470.426 293.785 470.426 294.412C470.426 295.04 470.119 295.641 469.573 296.084C469.026 296.528 468.284 296.777 467.511 296.777Z" fill="#FEBC2E"/>
<path d="M493.793 296.777H480.876C480.103 296.777 479.362 296.528 478.815 296.084C478.268 295.641 477.961 295.04 477.961 294.412C477.961 293.785 478.268 293.184 478.815 292.74C479.362 292.297 480.103 292.048 480.876 292.048H493.793C494.566 292.048 495.307 292.297 495.854 292.74C496.401 293.184 496.708 293.785 496.708 294.412C496.708 295.04 496.401 295.641 495.854 296.084C495.307 296.528 494.566 296.777 493.793 296.777Z" fill="#FEBC2E"/>
<path d="M505.095 190.551H410.911C410.134 190.542 409.393 190.285 408.847 189.835C408.302 189.386 407.996 188.781 407.996 188.15C407.996 187.523 408.303 186.922 408.85 186.478C409.397 186.035 410.138 185.786 410.911 185.786H505.095C505.868 185.786 506.61 186.035 507.157 186.478C507.703 186.922 508.01 187.523 508.01 188.15C508.01 188.781 507.705 189.386 507.159 189.835C506.614 190.285 505.872 190.542 505.095 190.551Z" fill="#FEBC2E"/>
<path d="M471.234 200.083H410.956C410.183 200.083 409.442 199.833 408.895 199.39C408.348 198.946 408.041 198.345 408.041 197.718C408.041 197.091 408.348 196.489 408.895 196.046C409.442 195.602 410.183 195.353 410.956 195.353H471.234C472.007 195.353 472.749 195.602 473.295 196.046C473.842 196.489 474.149 197.091 474.149 197.718C474.149 198.345 473.842 198.946 473.295 199.39C472.749 199.833 472.007 200.083 471.234 200.083Z" fill="#FEBC2E"/>
<path d="M447.284 210.451H410.956C410.183 210.451 409.442 210.202 408.895 209.758C408.348 209.315 408.041 208.713 408.041 208.086C408.041 207.459 408.348 206.857 408.895 206.414C409.442 205.971 410.183 205.721 410.956 205.721H447.284C448.057 205.721 448.799 205.971 449.346 206.414C449.892 206.857 450.199 207.459 450.199 208.086C450.199 208.713 449.892 209.315 449.346 209.758C448.799 210.202 448.057 210.451 447.284 210.451Z" fill="#FEBC2E"/>
<path d="M467.511 210.451H458.048C457.275 210.451 456.533 210.202 455.987 209.758C455.44 209.315 455.133 208.713 455.133 208.086C455.133 207.459 455.44 206.857 455.987 206.414C456.533 205.971 457.275 205.721 458.048 205.721H467.511C468.284 205.721 469.026 205.971 469.573 206.414C470.119 206.857 470.426 207.459 470.426 208.086C470.426 208.713 470.119 209.315 469.573 209.758C469.026 210.202 468.284 210.451 467.511 210.451Z" fill="#FEBC2E"/>
<path d="M493.793 210.451H480.876C480.103 210.451 479.362 210.202 478.815 209.758C478.268 209.315 477.961 208.713 477.961 208.086C477.961 207.459 478.268 206.857 478.815 206.414C479.362 205.971 480.103 205.721 480.876 205.721H493.793C494.566 205.721 495.307 205.971 495.854 206.414C496.401 206.857 496.708 207.459 496.708 208.086C496.708 208.713 496.401 209.315 495.854 209.758C495.307 210.202 494.566 210.451 493.793 210.451Z" fill="#FEBC2E"/>
<path d="M505.095 233.696H410.911C410.138 233.696 409.397 233.447 408.85 233.004C408.303 232.56 407.996 231.959 407.996 231.332C407.996 230.705 408.303 230.103 408.85 229.66C409.397 229.216 410.138 228.967 410.911 228.967H505.095C505.868 228.967 506.61 229.216 507.157 229.66C507.703 230.103 508.01 230.705 508.01 231.332C508.01 231.959 507.703 232.56 507.157 233.004C506.61 233.447 505.868 233.696 505.095 233.696Z" fill="#FEBC2E"/>
<path d="M471.234 243.41H410.956C410.183 243.41 409.442 243.161 408.895 242.717C408.348 242.274 408.041 241.672 408.041 241.045C408.041 240.418 408.348 239.816 408.895 239.373C409.442 238.93 410.183 238.68 410.956 238.68H471.234C472.007 238.68 472.749 238.93 473.295 239.373C473.842 239.816 474.149 240.418 474.149 241.045C474.149 241.672 473.842 242.274 473.295 242.717C472.749 243.161 472.007 243.41 471.234 243.41Z" fill="#FEBC2E"/>
<path d="M447.284 253.632H410.956C410.239 253.56 409.58 253.278 409.102 252.839C408.623 252.4 408.359 251.835 408.359 251.249C408.359 250.663 408.623 250.098 409.102 249.659C409.58 249.22 410.239 248.938 410.956 248.866H447.284C447.7 248.825 448.123 248.855 448.523 248.956C448.924 249.056 449.294 249.225 449.608 249.45C449.922 249.675 450.174 249.952 450.346 250.262C450.518 250.573 450.608 250.909 450.608 251.249C450.608 251.589 450.518 251.926 450.346 252.236C450.174 252.546 449.922 252.823 449.608 253.048C449.294 253.273 448.924 253.442 448.523 253.543C448.123 253.643 447.7 253.674 447.284 253.632Z" fill="#FEBC2E"/>
<path d="M467.511 253.632H458.047C457.631 253.674 457.209 253.643 456.808 253.543C456.407 253.442 456.038 253.273 455.723 253.048C455.409 252.823 455.157 252.546 454.985 252.236C454.813 251.926 454.724 251.589 454.724 251.249C454.724 250.909 454.813 250.573 454.985 250.262C455.157 249.952 455.409 249.675 455.723 249.45C456.038 249.225 456.407 249.056 456.808 248.956C457.209 248.855 457.631 248.825 458.047 248.866H467.511C467.927 248.825 468.349 248.855 468.75 248.956C469.151 249.056 469.52 249.225 469.835 249.45C470.149 249.675 470.4 249.952 470.573 250.262C470.745 250.573 470.834 250.909 470.834 251.249C470.834 251.589 470.745 251.926 470.573 252.236C470.4 252.546 470.149 252.823 469.835 253.048C469.52 253.273 469.151 253.442 468.75 253.543C468.349 253.643 467.927 253.674 467.511 253.632Z" fill="#FEBC2E"/>
<path d="M493.792 253.632H480.876C480.159 253.56 479.5 253.278 479.021 252.839C478.543 252.4 478.279 251.835 478.279 251.249C478.279 250.664 478.543 250.098 479.021 249.659C479.5 249.22 480.159 248.938 480.876 248.866H493.792C494.509 248.938 495.168 249.22 495.647 249.659C496.125 250.098 496.389 250.664 496.389 251.249C496.389 251.835 496.125 252.4 495.647 252.839C495.168 253.278 494.509 253.56 493.792 253.632Z" fill="#FEBC2E"/>
<path d="M505.095 147.37H410.911C410.528 147.37 410.149 147.309 409.796 147.19C409.442 147.071 409.121 146.897 408.85 146.677C408.579 146.458 408.364 146.197 408.218 145.91C408.071 145.623 407.996 145.316 407.996 145.005C407.996 144.695 408.071 144.387 408.218 144.1C408.364 143.813 408.579 143.553 408.85 143.333C409.121 143.114 409.442 142.939 409.796 142.821C410.149 142.702 410.528 142.641 410.911 142.641H505.095C505.868 142.641 506.61 142.89 507.157 143.333C507.703 143.777 508.01 144.378 508.01 145.005C508.01 145.632 507.703 146.234 507.157 146.677C506.61 147.121 505.868 147.37 505.095 147.37Z" fill="#FEBC2E"/>
<path d="M471.234 157.083H410.956C410.183 157.083 409.442 156.834 408.895 156.39C408.348 155.947 408.041 155.346 408.041 154.718C408.041 154.088 408.347 153.483 408.892 153.033C409.438 152.584 410.179 152.327 410.956 152.317H471.234C472.011 152.327 472.753 152.584 473.298 153.033C473.844 153.483 474.149 154.088 474.149 154.718C474.149 155.346 473.842 155.947 473.295 156.39C472.749 156.834 472.007 157.083 471.234 157.083Z" fill="#FEBC2E"/>
<path d="M447.284 167.342H410.956C410.573 167.342 410.194 167.281 409.841 167.162C409.487 167.043 409.166 166.869 408.895 166.649C408.624 166.43 408.409 166.169 408.263 165.882C408.116 165.595 408.041 165.288 408.041 164.977C408.041 164.667 408.116 164.359 408.263 164.072C408.409 163.785 408.624 163.525 408.895 163.305C409.166 163.086 409.487 162.911 409.841 162.793C410.194 162.674 410.573 162.613 410.956 162.613H447.284C447.667 162.613 448.046 162.674 448.4 162.793C448.754 162.911 449.075 163.086 449.346 163.305C449.616 163.525 449.831 163.785 449.978 164.072C450.124 164.359 450.199 164.667 450.199 164.977C450.199 165.288 450.124 165.595 449.978 165.882C449.831 166.169 449.616 166.43 449.346 166.649C449.075 166.869 448.754 167.043 448.4 167.162C448.046 167.281 447.667 167.342 447.284 167.342Z" fill="#FEBC2E"/>
<path d="M467.511 167.342H458.048C457.665 167.342 457.286 167.281 456.932 167.162C456.579 167.043 456.257 166.869 455.987 166.649C455.716 166.43 455.501 166.169 455.355 165.882C455.208 165.595 455.133 165.288 455.133 164.977C455.133 164.667 455.208 164.359 455.355 164.072C455.501 163.785 455.716 163.525 455.987 163.305C456.257 163.086 456.579 162.911 456.932 162.793C457.286 162.674 457.665 162.613 458.048 162.613H467.511C467.894 162.613 468.273 162.674 468.627 162.793C468.981 162.911 469.302 163.086 469.573 163.305C469.843 163.525 470.058 163.785 470.205 164.072C470.351 164.359 470.426 164.667 470.426 164.977C470.426 165.288 470.351 165.595 470.205 165.882C470.058 166.169 469.843 166.43 469.573 166.649C469.302 166.869 468.981 167.043 468.627 167.162C468.273 167.281 467.894 167.342 467.511 167.342Z" fill="#FEBC2E"/>
<path d="M493.793 167.342H480.876C480.103 167.342 479.362 167.093 478.815 166.649C478.268 166.206 477.961 165.604 477.961 164.977C477.961 164.35 478.268 163.749 478.815 163.305C479.362 162.862 480.103 162.613 480.876 162.613H493.793C494.176 162.613 494.555 162.674 494.908 162.793C495.262 162.911 495.583 163.086 495.854 163.305C496.125 163.525 496.34 163.785 496.486 164.072C496.633 164.359 496.708 164.667 496.708 164.977C496.708 165.288 496.633 165.595 496.486 165.882C496.34 166.169 496.125 166.43 495.854 166.649C495.583 166.869 495.262 167.043 494.908 167.162C494.555 167.281 494.176 167.342 493.793 167.342Z" fill="#FEBC2E"/>
<path d="M48.8857 89.7097C53.9139 89.7097 57.9901 86.4034 57.9901 82.3248C57.9901 78.2463 53.9139 74.9399 48.8857 74.9399C43.8574 74.9399 39.7812 78.2463 39.7812 82.3248C39.7812 86.4034 43.8574 89.7097 48.8857 89.7097Z" fill="#FF5F57"/>
<path d="M77.3652 89.7097C82.3934 89.7097 86.4696 86.4034 86.4696 82.3248C86.4696 78.2463 82.3934 74.9399 77.3652 74.9399C72.3369 74.9399 68.2607 78.2463 68.2607 82.3248C68.2607 86.4034 72.3369 89.7097 77.3652 89.7097Z" fill="#FEBC2E"/>
<path d="M105.8 89.7097C110.828 89.7097 114.904 86.4034 114.904 82.3248C114.904 78.2463 110.828 74.9399 105.8 74.9399C100.772 74.9399 96.6953 78.2463 96.6953 82.3248C96.6953 86.4034 100.772 89.7097 105.8 89.7097Z" fill="#29C940"/>
<path d="M526.937 389.761H28.2552C20.7692 389.761 13.5892 387.351 8.29159 383.061C2.994 378.771 0.0118825 372.951 0 366.879L0 79.4874C0.0118608 73.412 2.99255 67.5881 8.28885 63.2922C13.5852 58.9962 20.7651 56.5785 28.2552 56.5688H526.937C534.427 56.5785 541.607 58.9962 546.903 63.2922C552.199 67.5881 555.18 73.412 555.192 79.4874V366.879C555.18 372.951 552.198 378.771 546.9 383.061C541.603 387.351 534.423 389.761 526.937 389.761ZM28.2552 65.4816C25.97 65.4816 23.7071 65.8467 21.5959 66.556C19.4846 67.2654 17.5663 68.3051 15.9504 69.6158C12.687 72.2628 10.8536 75.853 10.8536 79.5965V366.988C10.8654 370.725 12.7041 374.306 15.9662 376.945C19.2284 379.584 23.6477 381.066 28.2552 381.066H526.937C531.544 381.066 535.963 379.584 539.226 376.945C542.488 374.306 544.326 370.725 544.338 366.988V79.5965C544.338 75.853 542.505 72.2628 539.241 69.6158C535.978 66.9687 531.552 65.4816 526.937 65.4816H28.2552Z" fill="#000201"/>
<path d="M129.435 108.117H8.6557C7.76359 108.117 6.90802 107.83 6.2772 107.318C5.64638 106.806 5.29199 106.112 5.29199 105.389C5.29199 104.665 5.64638 103.971 6.2772 103.46C6.90802 102.948 7.76359 102.66 8.6557 102.66H129.435C130.327 102.66 131.183 102.948 131.814 103.46C132.445 103.971 132.799 104.665 132.799 105.389C132.799 106.112 132.445 106.806 131.814 107.318C131.183 107.83 130.327 108.117 129.435 108.117Z" fill="#000201"/>
<path d="M545.594 108.117H160.561C159.669 108.117 158.813 107.83 158.182 107.318C157.552 106.806 157.197 106.112 157.197 105.389C157.197 104.665 157.552 103.971 158.182 103.46C158.813 102.948 159.669 102.66 160.561 102.66H545.594C546.486 102.66 547.341 102.948 547.972 103.46C548.603 103.971 548.958 104.665 548.958 105.389C548.958 106.112 548.603 106.806 547.972 107.318C547.341 107.83 546.486 108.117 545.594 108.117Z" fill="#000201"/>
<path opacity="0.45" d="M453.383 3.27417H233.172C227.599 3.27417 223.081 6.93881 223.081 11.4594V138.348C223.081 142.869 227.599 146.533 233.172 146.533H453.383C458.956 146.533 463.474 142.869 463.474 138.348V11.4594C463.474 6.93881 458.956 3.27417 453.383 3.27417Z" fill="white"/>
<path d="M461.591 35.0327H283.494C282.491 34.947 281.563 34.5632 280.888 33.9553C280.213 33.3474 279.84 32.5584 279.84 31.7404C279.84 30.9224 280.213 30.1334 280.888 29.5255C281.563 28.9175 282.491 28.5338 283.494 28.4481H461.591C462.16 28.3996 462.735 28.4485 463.279 28.5918C463.823 28.7352 464.324 28.9696 464.749 29.2801C465.174 29.5905 465.514 29.9699 465.747 30.3938C465.979 30.8176 466.1 31.2764 466.1 31.7404C466.1 32.2044 465.979 32.6631 465.747 33.087C465.514 33.5108 465.174 33.8903 464.749 34.2007C464.324 34.5111 463.823 34.7456 463.279 34.8889C462.735 35.0323 462.16 35.0812 461.591 35.0327Z" fill="#000201"/>
<path d="M242.277 20.8814C244.506 20.8814 246.313 19.4156 246.313 17.6073C246.313 15.7991 244.506 14.3333 242.277 14.3333C240.047 14.3333 238.24 15.7991 238.24 17.6073C238.24 19.4156 240.047 20.8814 242.277 20.8814Z" fill="#FF5F57"/>
<path d="M254.834 20.8814C257.064 20.8814 258.871 19.4156 258.871 17.6073C258.871 15.7991 257.064 14.3333 254.834 14.3333C252.605 14.3333 250.798 15.7991 250.798 17.6073C250.798 19.4156 252.605 20.8814 254.834 20.8814Z" fill="#FEBC2E"/>
<path d="M267.393 20.8814C269.622 20.8814 271.429 19.4156 271.429 17.6073C271.429 15.7991 269.622 14.3333 267.393 14.3333C265.164 14.3333 263.356 15.7991 263.356 17.6073C263.356 19.4156 265.164 20.8814 267.393 20.8814Z" fill="#29C940"/>
<path d="M418.356 3.31055L384.091 146.533H351.306L385.705 3.31055H418.356Z" fill="white"/>
<path d="M442.933 3.31055L408.489 146.533H394.406L428.806 3.31055H442.933Z" fill="white"/>
<path d="M259.319 35.0327H224.471C223.469 34.947 222.54 34.5632 221.865 33.9553C221.191 33.3474 220.817 32.5584 220.817 31.7404C220.817 30.9224 221.191 30.1334 221.865 29.5255C222.54 28.9175 223.469 28.5338 224.471 28.4481H259.319C259.888 28.3996 260.463 28.4485 261.007 28.5918C261.551 28.7352 262.052 28.9696 262.477 29.2801C262.903 29.5905 263.242 29.9699 263.475 30.3938C263.708 30.8176 263.828 31.2764 263.828 31.7404C263.828 32.2044 263.708 32.6631 263.475 33.087C263.242 33.5108 262.903 33.8903 262.477 34.2007C262.052 34.5111 261.551 34.7456 261.007 34.8889C260.463 35.0323 259.888 35.0812 259.319 35.0327Z" fill="#000201"/>
<path d="M453.383 149.844H233.217C231.341 149.849 229.482 149.551 227.748 148.969C226.015 148.386 224.441 147.531 223.119 146.451C221.796 145.372 220.751 144.09 220.044 142.68C219.337 141.27 218.982 139.761 219 138.239V11.4593C219.006 9.9497 219.378 8.45579 220.096 7.0629C220.813 5.67 221.862 4.40541 223.182 3.34132C224.503 2.27722 226.068 1.43447 227.79 0.861175C229.512 0.287881 231.356 -0.00472713 233.217 5.77481e-05H453.473C457.216 0.00965099 460.803 1.22004 463.449 3.367C466.096 5.51395 467.589 8.42309 467.6 11.4593V138.239C467.618 139.761 467.263 141.27 466.556 142.68C465.849 144.09 464.804 145.372 463.481 146.451C462.159 147.531 460.585 148.386 458.852 148.969C457.118 149.551 455.259 149.849 453.383 149.844ZM233.217 6.58459C231.623 6.58459 230.094 7.09818 228.967 8.01237C227.84 8.92656 227.207 10.1665 227.207 11.4593V138.239C227.183 138.891 227.321 139.541 227.612 140.149C227.903 140.757 228.342 141.312 228.903 141.78C229.463 142.249 230.134 142.621 230.875 142.875C231.616 143.129 232.412 143.259 233.217 143.259H453.473C454.27 143.25 455.056 143.112 455.787 142.854C456.518 142.595 457.178 142.222 457.729 141.754C458.28 141.287 458.711 140.736 458.996 140.132C459.282 139.529 459.417 138.885 459.393 138.239V11.4593C459.393 10.1665 458.76 8.92656 457.633 8.01237C456.506 7.09818 454.977 6.58459 453.383 6.58459H233.217Z" fill="#000201"/>
</svg>
