<svg xmlns="http://www.w3.org/2000/svg" viewBox="0 0 66.34 48.85"><defs><style>.cls-1{fill:#9ce5e5;}.cls-1,.cls-5{opacity:0.5;}.cls-1,.cls-10,.cls-5,.cls-6,.cls-9{isolation:isolate;}.cls-2{fill:#cfb0ff;}.cls-3{fill:#3e3126;}.cls-4{fill:#7c6887;}.cls-5,.cls-6,.cls-7{fill:#3d3344;}.cls-6{opacity:0.35;}.cls-8{fill:#fff;}.cls-9{fill:#c9d2df;opacity:0.2;}.cls-10{fill:#8647ea;opacity:0.6;}.cls-11{fill:#b29fbf;}</style></defs><g id="Layer_2" data-name="Layer 2"><g id="Layer_1-2" data-name="Layer 1"><path class="cls-1" d="M16.5,4.32V25a3.36,3.36,0,0,0,3.34,3.34l33.75.14a3.35,3.35,0,0,0,3.35-3.35V4.46Z"/><path class="cls-2" d="M5,48.39H2.86C1.56,48.39.52,47,.52,45.26V9.39c0-1.74,1-3.15,2.34-3.15H5c-1.29,0-2.34,1.41-2.34,3.15V45.26C2.61,47,3.66,48.39,5,48.39Z"/><path class="cls-3" d="M55.08,48.84H49.65a.44.44,0,1,1,0-.88h5.43a2.71,2.71,0,0,0,2.71-2.71V9.39a2.71,2.71,0,0,0-2.71-2.71.44.44,0,0,1,0-.88,3.59,3.59,0,0,1,3.59,3.59V45.25A3.59,3.59,0,0,1,55.08,48.84Z"/><path class="cls-3" d="M46.64,4.63H14.21a.45.45,0,1,1,0-.9H46.64a.45.45,0,0,1,0,.9Z"/><path class="cls-3" d="M13.8,6.66H11.53a.44.44,0,0,1,0-.88H13.8a.44.44,0,0,1,0,.88Z"/><rect class="cls-4" x="5.19" y="8.4" width="50.66" height="37.75" rx="2.02"/><path class="cls-5" d="M62.59,27.79a3.35,3.35,0,0,1-3.06,2l-33.76-.14a3.34,3.34,0,0,1-3.34-3.33V6.39h1.85V25.71a2.09,2.09,0,0,0,2.09,2.08Z"/><path class="cls-3" d="M5.3,23.51a.29.29,0,0,1-.3-.26V10.39a2.3,2.3,0,0,1,2.3-2.3h8.52a.29.29,0,0,1,.28.28h0a.27.27,0,0,1-.26.28H7.32a1.74,1.74,0,0,0-1.74,1.74V23.23A.3.3,0,0,1,5.3,23.51Z"/><path class="cls-3" d="M53.94,46.39H7.32A2.3,2.3,0,0,1,5,44.09V31.26A.27.27,0,0,1,5.26,31h0a.29.29,0,0,1,.28.28v12.8A1.76,1.76,0,0,0,7.3,45.81H53.94a1.76,1.76,0,0,0,1.74-1.75V29.8a.29.29,0,0,1,.28-.28h0a.29.29,0,0,1,.28.29V44.06A2.3,2.3,0,0,1,54,46.39Z"/><path class="cls-3" d="M5.3,29.76A.29.29,0,0,1,5,29.5v-3a.29.29,0,0,1,.28-.28.3.3,0,0,1,.28.28v2.94A.28.28,0,0,1,5.3,29.76Z"/><circle class="cls-6" cx="36.66" cy="40.49" r="0.49"/><path class="cls-5" d="M53.83,43.86H38.47v-.12a.76.76,0,0,0-1.52,0v.12H35.8a1,1,0,0,0,.05-.24.89.89,0,0,0-1.78,0h0a1,1,0,0,0,0,.24H7.21a2,2,0,0,1-2-2v2.29a2,2,0,0,0,2,2H53.83a2,2,0,0,0,2-2V41.83a2,2,0,0,1-2,2Z"/><circle class="cls-6" cx="34.86" cy="39.99" r="0.28"/><circle class="cls-6" cx="38.67" cy="40.65" r="0.19"/><circle class="cls-6" cx="37.41" cy="38.7" r="0.42"/><circle class="cls-6" cx="33.15" cy="39.95" r="0.42"/><rect class="cls-7" x="13.96" y="20.01" width="2.06" height="8.23" rx="1.03"/><path class="cls-8" d="M63.35.21H18.89a2.36,2.36,0,0,0-.65.08h.57a2.32,2.32,0,0,0-2.38,2.26V33.62a2.46,2.46,0,0,0,2.46,2.46H63.35a2.46,2.46,0,0,0,2.46-2.46V2.67A2.46,2.46,0,0,0,63.35.21Z"/><path class="cls-9" d="M65.83,3V34a2.46,2.46,0,0,1-2.46,2.46H32.63C80.32,36.48,47.72,8.94,60.32.61h3A2.45,2.45,0,0,1,65.83,3Z"/><path class="cls-8" d="M27.23,7.64H23.47a.33.33,0,0,1,0-.66h3.76a.33.33,0,0,1,0,.66Z"/><path class="cls-8" d="M27.23,19.88H23.47a.33.33,0,1,1,0-.66h3.76a.33.33,0,1,1,0,.66Z"/><path class="cls-8" d="M27.23,26H23.47a.33.33,0,1,1,0-.66h3.76a.33.33,0,1,1,0,.66Z"/><path class="cls-2" d="M19,36.33H16.44A2.46,2.46,0,0,1,14,33.87V2.92A2.46,2.46,0,0,1,16.46.46H19a2.46,2.46,0,0,0-2.46,2.46V33.87A2.46,2.46,0,0,0,19,36.33Z"/><path class="cls-10" d="M15.12,5.41h0a1,1,0,0,1,1,1v4.2a1,1,0,0,1-1,1h0a1,1,0,0,1-1-1V6.44A1,1,0,0,1,15.12,5.41Z"/><path class="cls-3" d="M61.54,4.53h-43a.23.23,0,0,1,0-.46h43a.24.24,0,0,1,.22.23.22.22,0,0,1-.21.23Z"/><path class="cls-3" d="M51.92,16H40.54a.28.28,0,1,1,0-.56H51.92a.28.28,0,0,1,0,.56Z"/><path class="cls-3" d="M51.92,13.32H40.54a.3.3,0,0,1-.28-.28.29.29,0,0,1,.28-.28H51.92a.27.27,0,0,1,.28.26v0A.29.29,0,0,1,51.92,13.32Z"/><path class="cls-3" d="M58,18.78H40.54a.3.3,0,0,1-.28-.28.29.29,0,0,1,.28-.28H58a.29.29,0,0,1,.28.28A.3.3,0,0,1,58,18.78Z"/><path class="cls-3" d="M21.06,3.21a.7.7,0,1,1,.7-.7A.7.7,0,0,1,21.06,3.21Zm0-1.13a.43.43,0,0,0-.43.43h0a.44.44,0,0,0,.43.43.43.43,0,0,0,.43-.43h0a.43.43,0,0,0-.43-.43Z"/><path class="cls-3" d="M23.49,3.21a.7.7,0,1,1,.7-.7.7.7,0,0,1-.7.7Zm0-1.13a.43.43,0,0,0-.43.43h0a.43.43,0,0,0,.85.13.29.29,0,0,0,0-.13.42.42,0,0,0-.41-.43Z"/><path class="cls-3" d="M25.91,3.21a.7.7,0,1,1,.7-.7A.7.7,0,0,1,25.91,3.21Zm0-1.13a.42.42,0,0,0-.42.42h0a.43.43,0,0,0,.85.13.29.29,0,0,0,0-.13.43.43,0,0,0-.43-.43Z"/><circle class="cls-3" cx="9.66" cy="6.26" r="0.57"/><circle class="cls-3" cx="5.34" cy="24.95" r="0.57"/><path class="cls-3" d="M8.81,15.39h-.1a.25.25,0,0,1-.13-.32h0l1.34-3.16a.23.23,0,0,1,.29-.14h0a.23.23,0,0,1,.14.29v0L9,15.22A.22.22,0,0,1,8.81,15.39Z"/><path class="cls-3" d="M10.59,13.85h-.1a.25.25,0,0,1-.13-.32h0l.72-1.69a.23.23,0,0,1,.29-.14h0a.24.24,0,0,1,.13.31h0l-.72,1.69A.22.22,0,0,1,10.59,13.85Z"/><circle class="cls-10" cx="15.28" cy="13.55" r="0.97"/><path class="cls-3" d="M25.82,36.58H18.71a2.8,2.8,0,0,1-2.79-2.79v-31A2.8,2.8,0,0,1,18.71,0h7.11a.33.33,0,0,1,.33.33.33.33,0,0,1-.33.33H18.71a2.15,2.15,0,0,0-2.13,2.13v31a2.15,2.15,0,0,0,2.13,2.13h7.11a.33.33,0,0,1,.33.33h0A.33.33,0,0,1,25.82,36.58Z"/><path class="cls-3" d="M63.55,36.58h-47a2.8,2.8,0,0,1-2.79-2.79v-31A2.8,2.8,0,0,1,16.55,0h47a2.8,2.8,0,0,1,2.79,2.79v31A2.8,2.8,0,0,1,63.55,36.58ZM16.55.7a2.15,2.15,0,0,0-2.13,2.13v31A2.15,2.15,0,0,0,16.55,36h47a2.15,2.15,0,0,0,2.13-2.13v-31A2.15,2.15,0,0,0,63.55.7Z"/><rect class="cls-10" x="0.47" y="29.29" width="1.99" height="8.14" rx="0.99"/><path class="cls-3" d="M44.65,48.85H3.59A3.59,3.59,0,0,1,0,45.26V9.39A3.59,3.59,0,0,1,3.59,5.8H7.9a.44.44,0,0,1,0,.88H3.59A2.71,2.71,0,0,0,.88,9.39h0V45.26A2.71,2.71,0,0,0,3.59,48H44.65a.44.44,0,0,1,.44.44h0a.43.43,0,0,1-.42.44Z"/><path class="cls-3" d="M5.66,48.69a3.44,3.44,0,0,1-3.43-3.43h0V9.39A3.44,3.44,0,0,1,5.66,6h0a.3.3,0,0,1,.28.28.29.29,0,0,1-.28.28h0A2.86,2.86,0,0,0,2.79,9.39V45.26a2.86,2.86,0,0,0,2.85,2.87h0a.3.3,0,0,1,.28.28A.29.29,0,0,1,5.66,48.69Z"/><rect class="cls-11" x="20.55" y="8.67" width="16.38" height="14" rx="0.9"/><path class="cls-4" d="M36.72,9.51v12.2a.91.91,0,0,1-.91.91H26.94A23.39,23.39,0,0,0,36.5,9,.82.82,0,0,1,36.72,9.51Z"/><path class="cls-3" d="M36,23H21.45a1.18,1.18,0,0,1-1.18-1.18h0V9.65a1.18,1.18,0,0,1,1.17-1.19H36a1.19,1.19,0,0,1,1.19,1.19V21.83A1.19,1.19,0,0,1,36,23ZM21.43,9a.64.64,0,0,0-.62.63V21.83a.64.64,0,0,0,.62.63H36a.63.63,0,0,0,.63-.63h0V9.65A.63.63,0,0,0,36,9H21.43Z"/></g></g></svg>