<svg width="611" height="351" viewBox="0 0 611 351" fill="none" xmlns="http://www.w3.org/2000/svg">
<path d="M572.548 57.4019H115.87C94.6336 57.4019 77.418 71.0524 77.418 87.8911V298.128C77.418 314.967 94.6336 328.617 115.87 328.617H572.548C593.785 328.617 611 314.967 611 298.128V87.8911C611 71.0524 593.785 57.4019 572.548 57.4019Z" fill="#ABBCD3"/>
<path d="M557.706 4.25732H82.1226C70.0988 4.25732 60.3516 11.986 60.3516 21.5199V289.412C60.3516 298.946 70.0988 306.674 82.1226 306.674H557.706C569.73 306.674 579.477 298.946 579.477 289.412V21.5199C579.477 11.986 569.73 4.25732 557.706 4.25732Z" fill="#4C5389"/>
<path d="M60.3516 166.743H579.434V294.94C579.434 296.484 579.05 298.013 578.304 299.438C577.557 300.864 576.463 302.16 575.085 303.25C573.706 304.34 572.069 305.203 570.269 305.791C568.468 306.379 566.539 306.679 564.592 306.674H75.1507C71.2257 306.674 67.4615 305.438 64.6861 303.238C61.9108 301.037 60.3516 298.052 60.3516 294.94V166.743Z" fill="#2E3A6D"/>
<path d="M323.272 4.15576L248.891 306.776H218.395L292.818 4.15576H323.272Z" fill="#3B447A"/>
<path d="M464.805 3.95215L390.809 306.573H319.893L394.316 3.95215H464.805Z" fill="#3B447A"/>
<path d="M517.885 3.95215L443.462 306.573H413.008L487.431 3.95215H517.885Z" fill="#3B447A"/>
<path d="M101.797 257.905C100.357 257.905 98.975 257.451 97.9562 256.644C96.9375 255.836 96.3652 254.74 96.3652 253.598V91.9268C96.3652 90.7845 96.9375 89.6889 97.9562 88.8812C98.975 88.0734 100.357 87.6196 101.797 87.6196C103.238 87.6196 104.62 88.0734 105.638 88.8812C106.657 89.6889 107.229 90.7845 107.229 91.9268V253.496C107.246 254.07 107.119 254.642 106.853 255.176C106.588 255.71 106.191 256.197 105.684 256.608C105.178 257.019 104.574 257.345 103.906 257.568C103.239 257.791 102.522 257.905 101.797 257.905Z" fill="#6773BA"/>
<path d="M302.998 88.739H127.931C126.559 88.739 125.242 88.3066 124.272 87.537C123.301 86.7674 122.756 85.7236 122.756 84.6353C122.756 83.5469 123.301 82.5031 124.272 81.7335C125.242 80.9639 126.559 80.5315 127.931 80.5315H302.998C304.37 80.5315 305.687 80.9639 306.657 81.7335C307.628 82.5031 308.173 83.5469 308.173 84.6353C308.173 85.7236 307.628 86.7674 306.657 87.537C305.687 88.3066 304.37 88.739 302.998 88.739Z" fill="#61FC54"/>
<path d="M240.037 106.408H127.931C126.559 106.408 125.242 105.976 124.272 105.207C123.301 104.437 122.756 103.393 122.756 102.305C122.756 101.216 123.301 100.173 124.272 99.4031C125.242 98.6335 126.559 98.2012 127.931 98.2012H240.037C241.41 98.2012 242.726 98.6335 243.697 99.4031C244.667 100.173 245.213 101.216 245.213 102.305C245.213 103.393 244.667 104.437 243.697 105.207C242.726 105.976 241.41 106.408 240.037 106.408Z" fill="#F70D67"/>
<path d="M195.511 124.96H127.931C126.559 124.96 125.242 124.528 124.272 123.758C123.301 122.988 122.756 121.945 122.756 120.856C122.756 119.768 123.301 118.724 124.272 117.955C125.242 117.185 126.559 116.753 127.931 116.753H195.511C196.884 116.753 198.2 117.185 199.171 117.955C200.141 118.724 200.687 119.768 200.687 120.856C200.687 121.945 200.141 122.988 199.171 123.758C198.2 124.528 196.884 124.96 195.511 124.96Z" fill="#859CFF"/>
<path d="M233.108 124.96H215.443C214.07 124.96 212.754 124.528 211.783 123.758C210.813 122.988 210.268 121.945 210.268 120.856C210.268 119.768 210.813 118.724 211.783 117.955C212.754 117.185 214.07 116.753 215.443 116.753H233.108C234.48 116.753 235.797 117.185 236.767 117.955C237.738 118.724 238.283 119.768 238.283 120.856C238.283 121.945 237.738 122.988 236.767 123.758C235.797 124.528 234.48 124.96 233.108 124.96Z" fill="#859CFF"/>
<path d="M281.997 124.96H257.959C256.586 124.96 255.27 124.528 254.299 123.758C253.328 122.988 252.783 121.945 252.783 120.856C252.783 119.768 253.328 118.724 254.299 117.955C255.27 117.185 256.586 116.753 257.959 116.753H281.997C283.369 116.753 284.686 117.185 285.656 117.955C286.627 118.724 287.172 119.768 287.172 120.856C287.172 121.945 286.627 122.988 285.656 123.758C284.686 124.528 283.369 124.96 281.997 124.96Z" fill="#859CFF"/>
<path d="M302.998 159.349H127.931C126.559 159.349 125.242 158.917 124.272 158.147C123.301 157.378 122.756 156.334 122.756 155.245C122.756 154.157 123.301 153.113 124.272 152.344C125.242 151.574 126.559 151.142 127.931 151.142H302.998C304.37 151.142 305.687 151.574 306.657 152.344C307.628 153.113 308.173 154.157 308.173 155.245C308.173 156.334 307.628 157.378 306.657 158.147C305.687 158.917 304.37 159.349 302.998 159.349Z" fill="#61FC54"/>
<path d="M240.037 177.019H127.931C126.559 177.019 125.242 176.586 124.272 175.817C123.301 175.047 122.756 174.004 122.756 172.915C122.756 171.827 123.301 170.783 124.272 170.013C125.242 169.244 126.559 168.812 127.931 168.812H240.037C241.41 168.812 242.726 169.244 243.697 170.013C244.667 170.783 245.213 171.827 245.213 172.915C245.213 174.004 244.667 175.047 243.697 175.817C242.726 176.586 241.41 177.019 240.037 177.019Z" fill="#F70D67"/>
<path d="M195.511 195.604H127.931C126.559 195.604 125.242 195.172 124.272 194.402C123.301 193.632 122.756 192.589 122.756 191.5C122.756 190.412 123.301 189.368 124.272 188.599C125.242 187.829 126.559 187.397 127.931 187.397H195.511C196.884 187.397 198.2 187.829 199.171 188.599C200.141 189.368 200.687 190.412 200.687 191.5C200.687 192.589 200.141 193.632 199.171 194.402C198.2 195.172 196.884 195.604 195.511 195.604Z" fill="#859CFF"/>
<path d="M233.108 195.604H215.443C214.07 195.604 212.754 195.172 211.783 194.402C210.813 193.632 210.268 192.589 210.268 191.5C210.268 190.412 210.813 189.368 211.783 188.599C212.754 187.829 214.07 187.397 215.443 187.397H233.108C234.48 187.397 235.797 187.829 236.767 188.599C237.738 189.368 238.283 190.412 238.283 191.5C238.283 192.589 237.738 193.632 236.767 194.402C235.797 195.172 234.48 195.604 233.108 195.604Z" fill="#859CFF"/>
<path d="M281.997 195.604H257.959C256.586 195.604 255.27 195.172 254.299 194.402C253.328 193.632 252.783 192.589 252.783 191.5C252.783 190.412 253.328 189.368 254.299 188.599C255.27 187.829 256.586 187.397 257.959 187.397H281.997C283.369 187.397 284.686 187.829 285.656 188.599C286.627 189.368 287.172 190.412 287.172 191.5C287.172 192.589 286.627 193.632 285.656 194.402C284.686 195.172 283.369 195.604 281.997 195.604Z" fill="#859CFF"/>
<path d="M302.997 142.358H127.931C126.49 142.358 125.109 141.904 124.09 141.096C123.071 140.289 122.499 139.193 122.499 138.051C122.499 136.908 123.071 135.813 124.09 135.005C125.109 134.197 126.49 133.744 127.931 133.744H302.997C304.438 133.744 305.82 134.197 306.838 135.005C307.857 135.813 308.43 136.908 308.43 138.051C308.43 139.193 307.857 140.289 306.838 141.096C305.82 141.904 304.438 142.358 302.997 142.358Z" fill="#6773BA"/>
<path d="M302.997 213.002H127.931C126.49 213.002 125.109 212.548 124.09 211.741C123.071 210.933 122.499 209.837 122.499 208.695C122.499 207.553 123.071 206.457 124.09 205.649C125.109 204.842 126.49 204.388 127.931 204.388H302.997C304.438 204.388 305.82 204.842 306.838 205.649C307.857 206.457 308.43 207.553 308.43 208.695C308.43 209.837 307.857 210.933 306.838 211.741C305.82 212.548 304.438 213.002 302.997 213.002Z" fill="#6773BA"/>
<path d="M302.998 229.993H127.931C126.559 229.993 125.242 229.561 124.272 228.791C123.301 228.022 122.756 226.978 122.756 225.89C122.756 224.801 123.301 223.758 124.272 222.988C125.242 222.218 126.559 221.786 127.931 221.786H302.998C304.37 221.786 305.687 222.218 306.657 222.988C307.628 223.758 308.173 224.801 308.173 225.89C308.173 226.978 307.628 228.022 306.657 228.791C305.687 229.561 304.37 229.993 302.998 229.993Z" fill="#61FC54"/>
<path d="M240.037 247.731H127.931C126.559 247.731 125.242 247.298 124.272 246.529C123.301 245.759 122.756 244.715 122.756 243.627C122.756 242.539 123.301 241.495 124.272 240.725C125.242 239.956 126.559 239.523 127.931 239.523H240.037C241.41 239.523 242.726 239.956 243.697 240.725C244.667 241.495 245.213 242.539 245.213 243.627C245.213 244.715 244.667 245.759 243.697 246.529C242.726 247.298 241.41 247.731 240.037 247.731Z" fill="#F70D67"/>
<path d="M195.511 266.214H127.931C127.252 266.214 126.579 266.108 125.951 265.902C125.323 265.696 124.752 265.393 124.272 265.012C123.791 264.631 123.41 264.179 123.15 263.681C122.89 263.183 122.756 262.649 122.756 262.111C122.756 261.572 122.89 261.038 123.15 260.54C123.41 260.042 123.791 259.59 124.272 259.209C124.752 258.828 125.323 258.526 125.951 258.319C126.579 258.113 127.252 258.007 127.931 258.007H195.511C196.191 258.007 196.864 258.113 197.492 258.319C198.12 258.526 198.69 258.828 199.171 259.209C199.651 259.59 200.033 260.042 200.293 260.54C200.553 261.038 200.687 261.572 200.687 262.111C200.687 262.649 200.553 263.183 200.293 263.681C200.033 264.179 199.651 264.631 199.171 265.012C198.69 265.393 198.12 265.696 197.492 265.902C196.864 266.108 196.191 266.214 195.511 266.214Z" fill="#859CFF"/>
<path d="M233.108 266.214H215.443C214.763 266.214 214.09 266.108 213.462 265.902C212.835 265.696 212.264 265.393 211.783 265.012C211.303 264.631 210.922 264.179 210.662 263.681C210.401 263.183 210.268 262.649 210.268 262.111C210.268 261.572 210.401 261.038 210.662 260.54C210.922 260.042 211.303 259.59 211.783 259.209C212.264 258.828 212.835 258.526 213.462 258.319C214.09 258.113 214.763 258.007 215.443 258.007H233.108C233.788 258.007 234.461 258.113 235.088 258.319C235.716 258.526 236.287 258.828 236.767 259.209C237.248 259.59 237.629 260.042 237.889 260.54C238.149 261.038 238.283 261.572 238.283 262.111C238.283 262.649 238.149 263.183 237.889 263.681C237.629 264.179 237.248 264.631 236.767 265.012C236.287 265.393 235.716 265.696 235.088 265.902C234.461 266.108 233.788 266.214 233.108 266.214Z" fill="#859CFF"/>
<path d="M281.997 266.214H257.959C257.279 266.214 256.606 266.108 255.978 265.902C255.35 265.696 254.78 265.393 254.299 265.012C253.818 264.631 253.437 264.179 253.177 263.681C252.917 263.183 252.783 262.649 252.783 262.111C252.783 261.572 252.917 261.038 253.177 260.54C253.437 260.042 253.818 259.59 254.299 259.209C254.78 258.828 255.35 258.526 255.978 258.319C256.606 258.113 257.279 258.007 257.959 258.007H281.997C282.676 258.007 283.349 258.113 283.977 258.319C284.605 258.526 285.176 258.828 285.656 259.209C286.137 259.59 286.518 260.042 286.778 260.54C287.038 261.038 287.172 261.572 287.172 262.111C287.172 262.649 287.038 263.183 286.778 263.681C286.518 264.179 286.137 264.631 285.656 265.012C285.176 265.393 284.605 265.696 283.977 265.902C283.349 266.108 282.676 266.214 281.997 266.214Z" fill="#859CFF"/>
<path d="M536.833 245.764H447.012C446.274 245.764 445.567 245.531 445.046 245.118C444.524 244.705 444.231 244.144 444.231 243.559C444.231 242.975 444.524 242.414 445.046 242.001C445.567 241.587 446.274 241.355 447.012 241.355H536.833C537.57 241.355 538.278 241.587 538.799 242.001C539.32 242.414 539.613 242.975 539.613 243.559C539.613 244.144 539.32 244.705 538.799 245.118C538.278 245.531 537.57 245.764 536.833 245.764Z" fill="#60FC54"/>
<path d="M504.712 254.819H447.098C446.36 254.819 445.653 254.587 445.132 254.173C444.61 253.76 444.317 253.199 444.317 252.615C444.317 252.027 444.609 251.463 445.129 251.044C445.649 250.625 446.356 250.385 447.098 250.376H504.712C505.453 250.385 506.16 250.625 506.68 251.044C507.2 251.463 507.492 252.027 507.492 252.615C507.492 253.199 507.199 253.76 506.678 254.173C506.156 254.587 505.449 254.819 504.712 254.819Z" fill="#60FC54"/>
<path d="M481.743 264.349H447.098C446.356 264.34 445.649 264.101 445.129 263.682C444.609 263.263 444.317 262.699 444.317 262.111C444.317 261.821 444.389 261.535 444.529 261.267C444.669 261 444.874 260.757 445.132 260.552C445.39 260.347 445.696 260.185 446.034 260.074C446.371 259.963 446.732 259.906 447.098 259.906H481.743C482.108 259.906 482.47 259.963 482.807 260.074C483.144 260.185 483.451 260.347 483.709 260.552C483.967 260.757 484.172 261 484.312 261.267C484.451 261.535 484.523 261.821 484.523 262.111C484.523 262.699 484.232 263.263 483.712 263.682C483.191 264.101 482.484 264.34 481.743 264.349Z" fill="#60FC54"/>
<path d="M501.033 264.349H491.88C491.139 264.34 490.431 264.101 489.911 263.682C489.391 263.263 489.1 262.699 489.1 262.111C489.1 261.821 489.172 261.535 489.311 261.267C489.451 261 489.656 260.757 489.914 260.552C490.172 260.347 490.479 260.185 490.816 260.074C491.153 259.963 491.515 259.906 491.88 259.906H500.948C501.313 259.906 501.674 259.963 502.011 260.074C502.349 260.185 502.655 260.347 502.913 260.552C503.172 260.757 503.376 261 503.516 261.267C503.656 261.535 503.728 261.821 503.728 262.111C503.728 262.687 503.449 263.242 502.947 263.659C502.445 264.076 501.759 264.323 501.033 264.349Z" fill="#60FC54"/>
<path d="M526.097 264.349H513.779C513.03 264.349 512.312 264.113 511.783 263.693C511.253 263.274 510.956 262.704 510.956 262.111C510.956 261.818 511.029 261.529 511.172 261.259C511.314 260.989 511.523 260.745 511.785 260.54C512.048 260.334 512.36 260.173 512.702 260.064C513.044 259.955 513.41 259.902 513.779 259.906H526.097C526.462 259.906 526.824 259.963 527.161 260.074C527.499 260.185 527.805 260.347 528.063 260.552C528.321 260.756 528.526 260.999 528.666 261.267C528.806 261.534 528.878 261.821 528.878 262.111C528.878 262.698 528.586 263.263 528.066 263.682C527.546 264.1 526.839 264.34 526.097 264.349Z" fill="#60FC54"/>
<path d="M536.833 205.507H447.012C446.274 205.507 445.567 205.275 445.046 204.861C444.524 204.448 444.231 203.887 444.231 203.303C444.231 202.718 444.524 202.157 445.046 201.744C445.567 201.331 446.274 201.098 447.012 201.098H536.833C537.57 201.098 538.278 201.331 538.799 201.744C539.32 202.157 539.613 202.718 539.613 203.303C539.613 203.887 539.32 204.448 538.799 204.861C538.278 205.275 537.57 205.507 536.833 205.507Z" fill="#60FC54"/>
<path d="M504.712 214.562H447.098C446.36 214.562 445.653 214.33 445.132 213.917C444.61 213.503 444.317 212.943 444.317 212.358C444.317 211.773 444.61 211.213 445.132 210.799C445.653 210.386 446.36 210.154 447.098 210.154H504.712C505.449 210.154 506.156 210.386 506.678 210.799C507.199 211.213 507.492 211.773 507.492 212.358C507.492 212.943 507.199 213.503 506.678 213.917C506.156 214.33 505.449 214.562 504.712 214.562Z" fill="#60FC54"/>
<path d="M481.743 223.991H447.098C446.36 223.991 445.653 223.758 445.132 223.345C444.61 222.932 444.317 222.371 444.317 221.786C444.317 221.199 444.609 220.634 445.129 220.216C445.649 219.797 446.356 219.557 447.098 219.548H481.743C482.484 219.557 483.191 219.797 483.712 220.216C484.232 220.634 484.523 221.199 484.523 221.786C484.523 222.371 484.23 222.932 483.709 223.345C483.187 223.758 482.48 223.991 481.743 223.991Z" fill="#60FC54"/>
<path d="M501.033 223.991H491.88C491.142 223.991 490.435 223.758 489.914 223.345C489.393 222.932 489.1 222.371 489.1 221.786C489.1 221.199 489.391 220.634 489.911 220.216C490.431 219.797 491.139 219.557 491.88 219.548H500.948C501.689 219.557 502.396 219.797 502.916 220.216C503.436 220.634 503.728 221.199 503.728 221.786C503.728 222.359 503.447 222.91 502.944 223.322C502.441 223.733 501.756 223.973 501.033 223.991Z" fill="#60FC54"/>
<path d="M526.097 223.99H513.779C513.41 223.995 513.044 223.941 512.702 223.833C512.36 223.724 512.048 223.562 511.785 223.357C511.523 223.152 511.314 222.907 511.172 222.638C511.029 222.368 510.956 222.079 510.956 221.786C510.956 221.193 511.253 220.623 511.783 220.204C512.312 219.784 513.03 219.548 513.779 219.548H526.097C526.839 219.557 527.546 219.797 528.066 220.215C528.586 220.634 528.878 221.198 528.878 221.786C528.878 222.371 528.585 222.931 528.063 223.345C527.542 223.758 526.835 223.99 526.097 223.99Z" fill="#60FC54"/>
<path d="M536.833 125.027H447.012C446.274 125.027 445.567 124.795 445.046 124.382C444.524 123.968 444.231 123.408 444.231 122.823C444.231 122.239 444.524 121.678 445.046 121.264C445.567 120.851 446.274 120.619 447.012 120.619H536.833C537.57 120.619 538.278 120.851 538.799 121.264C539.32 121.678 539.613 122.239 539.613 122.823C539.613 123.408 539.32 123.968 538.799 124.382C538.278 124.795 537.57 125.027 536.833 125.027Z" fill="#60FC54"/>
<path d="M504.712 134.083H447.098C446.36 134.083 445.653 133.85 445.132 133.437C444.61 133.024 444.317 132.463 444.317 131.878C444.317 131.294 444.61 130.733 445.132 130.319C445.653 129.906 446.36 129.674 447.098 129.674H504.712C505.449 129.674 506.156 129.906 506.678 130.319C507.199 130.733 507.492 131.294 507.492 131.878C507.492 132.463 507.199 133.024 506.678 133.437C506.156 133.85 505.449 134.083 504.712 134.083Z" fill="#60FC54"/>
<path d="M481.743 143.613H447.098C446.356 143.604 445.649 143.364 445.129 142.945C444.609 142.527 444.317 141.962 444.317 141.375C444.317 140.79 444.61 140.229 445.132 139.816C445.653 139.402 446.36 139.17 447.098 139.17H481.743C482.48 139.17 483.187 139.402 483.709 139.816C484.23 140.229 484.523 140.79 484.523 141.375C484.523 141.962 484.232 142.527 483.712 142.945C483.191 143.364 482.484 143.604 481.743 143.613Z" fill="#60FC54"/>
<path d="M501.033 143.613H491.88C491.139 143.604 490.431 143.364 489.911 142.946C489.391 142.527 489.1 141.962 489.1 141.375C489.111 140.796 489.409 140.244 489.929 139.838C490.449 139.432 491.15 139.204 491.88 139.204H500.948C501.685 139.204 502.392 139.436 502.913 139.85C503.435 140.263 503.728 140.824 503.728 141.409C503.718 141.979 503.433 142.525 502.932 142.935C502.431 143.345 501.752 143.587 501.033 143.613Z" fill="#60FC54"/>
<path d="M526.097 143.613H513.779C513.03 143.613 512.312 143.377 511.783 142.957C511.253 142.537 510.956 141.968 510.956 141.374C510.956 141.082 511.029 140.793 511.172 140.523C511.314 140.253 511.523 140.009 511.785 139.803C512.048 139.598 512.36 139.437 512.702 139.328C513.044 139.219 513.41 139.165 513.779 139.17H526.097C526.835 139.17 527.542 139.402 528.063 139.816C528.585 140.229 528.878 140.79 528.878 141.374C528.878 141.962 528.586 142.527 528.066 142.945C527.546 143.364 526.839 143.604 526.097 143.613Z" fill="#60FC54"/>
<path d="M536.833 165.285H447.011C446.328 165.217 445.699 164.955 445.243 164.545C444.787 164.136 444.535 163.609 444.535 163.063C444.535 162.517 444.787 161.99 445.243 161.581C445.699 161.171 446.328 160.909 447.011 160.841H536.833C537.23 160.802 537.633 160.831 538.015 160.925C538.397 161.018 538.749 161.176 539.049 161.386C539.349 161.596 539.589 161.854 539.753 162.143C539.918 162.432 540.003 162.746 540.003 163.063C540.003 163.38 539.918 163.694 539.753 163.983C539.589 164.272 539.349 164.53 539.049 164.74C538.749 164.95 538.397 165.107 538.015 165.201C537.633 165.295 537.23 165.324 536.833 165.285Z" fill="#60FC54"/>
<path d="M504.712 174.34H447.098C446.356 174.331 445.649 174.091 445.129 173.672C444.609 173.253 444.317 172.689 444.317 172.101C444.317 171.517 444.61 170.956 445.132 170.543C445.653 170.129 446.36 169.897 447.098 169.897H504.712C505.449 169.897 506.156 170.129 506.678 170.543C507.199 170.956 507.492 171.517 507.492 172.101C507.492 172.689 507.2 173.253 506.68 173.672C506.16 174.091 505.453 174.331 504.712 174.34Z" fill="#60FC54"/>
<path d="M481.743 183.835H447.098C446.36 183.835 445.653 183.603 445.132 183.19C444.61 182.776 444.317 182.216 444.317 181.631C444.317 181.046 444.61 180.486 445.132 180.072C445.653 179.659 446.36 179.427 447.098 179.427H481.743C482.48 179.427 483.187 179.659 483.709 180.072C484.23 180.486 484.523 181.046 484.523 181.631C484.523 182.216 484.23 182.776 483.709 183.19C483.187 183.603 482.48 183.835 481.743 183.835Z" fill="#60FC54"/>
<path d="M501.033 183.835H491.88C491.142 183.835 490.435 183.603 489.914 183.19C489.393 182.776 489.1 182.216 489.1 181.631C489.1 181.046 489.393 180.486 489.914 180.072C490.435 179.659 491.142 179.427 491.88 179.427H500.948C501.685 179.427 502.392 179.659 502.913 180.072C503.435 180.486 503.728 181.046 503.728 181.631C503.728 182.216 503.435 182.776 502.913 183.19C502.392 183.603 501.685 183.835 500.948 183.835H501.033Z" fill="#60FC54"/>
<path d="M526.098 183.835H513.779C513.042 183.835 512.335 183.603 511.813 183.19C511.292 182.776 510.999 182.216 510.999 181.631C510.999 181.046 511.292 180.486 511.813 180.072C512.335 179.659 513.042 179.427 513.779 179.427H526.098C526.835 179.427 527.542 179.659 528.063 180.072C528.585 180.486 528.878 181.046 528.878 181.631C528.878 182.216 528.585 182.776 528.063 183.19C527.542 183.603 526.835 183.835 526.098 183.835Z" fill="#60FC54"/>
<path d="M536.833 84.9404H447.012C446.27 84.9315 445.563 84.6918 445.043 84.273C444.523 83.8542 444.231 83.29 444.231 82.7022C444.231 82.1175 444.524 81.5569 445.046 81.1435C445.567 80.7301 446.274 80.4978 447.012 80.4978H536.833C537.202 80.4933 537.568 80.547 537.91 80.6558C538.252 80.7645 538.564 80.9262 538.827 81.1313C539.089 81.3365 539.298 81.581 539.44 81.8507C539.583 82.1204 539.656 82.4098 539.656 82.7022C539.656 83.2958 539.359 83.8651 538.829 84.2849C538.3 84.7046 537.582 84.9404 536.833 84.9404Z" fill="#60FC54"/>
<path d="M504.712 93.8262H447.098C446.36 93.8262 445.653 93.5939 445.132 93.1805C444.61 92.7671 444.317 92.2064 444.317 91.6217C444.317 91.037 444.61 90.4763 445.132 90.0629C445.653 89.6495 446.36 89.4172 447.098 89.4172H504.712C505.449 89.4172 506.156 89.6495 506.678 90.0629C507.199 90.4763 507.492 91.037 507.492 91.6217C507.492 92.2064 507.199 92.7671 506.678 93.1805C506.156 93.5939 505.449 93.8262 504.712 93.8262Z" fill="#60FC54"/>
<path d="M481.743 103.356H447.098C446.36 103.356 445.653 103.124 445.132 102.711C444.61 102.297 444.317 101.737 444.317 101.152C444.317 100.567 444.61 100.006 445.132 99.593C445.653 99.1795 446.36 98.9473 447.098 98.9473H481.743C482.48 98.9473 483.187 99.1795 483.709 99.593C484.23 100.006 484.523 100.567 484.523 101.152C484.523 101.737 484.23 102.297 483.709 102.711C483.187 103.124 482.48 103.356 481.743 103.356Z" fill="#60FC54"/>
<path d="M501.033 103.356H491.88C491.142 103.356 490.435 103.124 489.914 102.711C489.393 102.297 489.1 101.737 489.1 101.152C489.1 100.567 489.393 100.006 489.914 99.593C490.435 99.1795 491.142 98.9473 491.88 98.9473H500.948C501.685 98.9473 502.392 99.1795 502.913 99.593C503.435 100.006 503.728 100.567 503.728 101.152C503.728 101.737 503.435 102.297 502.913 102.711C502.392 103.124 501.685 103.356 500.948 103.356H501.033Z" fill="#60FC54"/>
<path d="M526.098 103.356H513.779C513.042 103.356 512.335 103.124 511.813 102.711C511.292 102.297 510.999 101.737 510.999 101.152C510.999 100.567 511.292 100.006 511.813 99.593C512.335 99.1795 513.042 98.9473 513.779 98.9473H526.098C526.835 98.9473 527.542 99.1795 528.063 99.593C528.585 100.006 528.878 100.567 528.878 101.152C528.878 101.737 528.585 102.297 528.063 102.711C527.542 103.124 526.835 103.356 526.098 103.356Z" fill="#60FC54"/>
<path d="M101.798 31.016C106.593 31.016 110.481 27.9337 110.481 24.1314C110.481 20.3292 106.593 17.2468 101.798 17.2468C97.0026 17.2468 93.1152 20.3292 93.1152 24.1314C93.1152 27.9337 97.0026 31.016 101.798 31.016Z" fill="#FF5F57"/>
<path d="M128.958 31.016C133.753 31.016 137.641 27.9337 137.641 24.1314C137.641 20.3292 133.753 17.2468 128.958 17.2468C124.163 17.2468 120.275 20.3292 120.275 24.1314C120.275 27.9337 124.163 31.016 128.958 31.016Z" fill="#FEBC2E"/>
<path d="M156.075 31.016C160.871 31.016 164.758 27.9337 164.758 24.1314C164.758 20.3292 160.871 17.2468 156.075 17.2468C151.28 17.2468 147.393 20.3292 147.393 24.1314C147.393 27.9337 151.28 31.016 156.075 31.016Z" fill="#29C940"/>
<path d="M557.706 310.778H82.0795C74.9402 310.769 68.0973 308.514 63.0531 304.508C58.0089 300.502 55.1758 295.073 55.1758 289.412V21.52C55.1758 15.8592 58.0089 10.4298 63.0531 6.42381C68.0973 2.41784 74.9402 0.162794 82.0795 0.153809L557.706 0.153809C564.845 0.162794 571.688 2.41784 576.732 6.42381C581.776 10.4298 584.609 15.8592 584.609 21.52V289.446C584.598 295.101 581.76 300.521 576.717 304.52C571.674 308.519 564.837 310.769 557.706 310.778ZM82.0795 8.36115C77.6854 8.37013 73.4753 9.76048 70.3722 12.2273C67.2692 14.6941 65.5266 18.036 65.5266 21.52V289.446C65.5266 292.93 67.2692 296.272 70.3722 298.739C73.4753 301.205 77.6854 302.596 82.0795 302.605H557.706C562.1 302.596 566.31 301.205 569.413 298.739C572.516 296.272 574.258 292.93 574.258 289.446V21.52C574.258 18.036 572.516 14.6941 569.413 12.2273C566.31 9.76048 562.1 8.37013 557.706 8.36115H82.0795Z" fill="#000201"/>
<path d="M178.574 48.2107H63.3886C62.5378 48.2107 61.7218 47.9427 61.1202 47.4657C60.5186 46.9887 60.1807 46.3417 60.1807 45.6671C60.1807 44.9925 60.5186 44.3455 61.1202 43.8685C61.7218 43.3915 62.5378 43.1235 63.3886 43.1235H178.574C179.425 43.1235 180.241 43.3915 180.842 43.8685C181.444 44.3455 181.782 44.9925 181.782 45.6671C181.782 46.3417 181.444 46.9887 180.842 47.4657C180.241 47.9427 179.425 48.2107 178.574 48.2107Z" fill="#000201"/>
<path d="M575.499 48.2107H208.301C207.45 48.2107 206.634 47.9427 206.032 47.4657C205.431 46.9887 205.093 46.3417 205.093 45.6671C205.093 44.9925 205.431 44.3455 206.032 43.8685C206.634 43.3915 207.45 43.1235 208.301 43.1235H575.499C576.35 43.1235 577.166 43.3915 577.768 43.8685C578.369 44.3455 578.707 44.9925 578.707 45.6671C578.707 46.3417 578.369 46.9887 577.768 47.4657C577.166 47.9427 576.35 48.2107 575.499 48.2107Z" fill="#000201"/>
<path opacity="0.45" d="M223.527 214.054H13.5163C8.20127 214.054 3.89258 217.47 3.89258 221.685V339.979C3.89258 344.193 8.20127 347.61 13.5163 347.61H223.527C228.843 347.61 233.151 344.193 233.151 339.979V221.685C233.151 217.47 228.843 214.054 223.527 214.054Z" fill="white"/>
<path d="M231.354 243.661H61.5063C60.5498 243.581 59.6645 243.224 59.021 242.657C58.3775 242.09 58.0215 241.354 58.0215 240.592C58.0215 239.829 58.3775 239.094 59.021 238.527C59.6645 237.96 60.5498 237.602 61.5063 237.522H231.354C231.897 237.477 232.445 237.523 232.964 237.656C233.483 237.79 233.961 238.009 234.366 238.298C234.772 238.587 235.096 238.941 235.318 239.336C235.54 239.731 235.654 240.159 235.654 240.592C235.654 241.024 235.54 241.452 235.318 241.847C235.096 242.242 234.772 242.596 234.366 242.886C233.961 243.175 233.483 243.394 232.964 243.527C232.445 243.661 231.897 243.707 231.354 243.661Z" fill="#000201"/>
<path d="M22.1991 230.468C24.3251 230.468 26.0486 229.102 26.0486 227.416C26.0486 225.73 24.3251 224.364 22.1991 224.364C20.0731 224.364 18.3496 225.73 18.3496 227.416C18.3496 229.102 20.0731 230.468 22.1991 230.468Z" fill="#FF5F57"/>
<path d="M34.1747 230.468C36.3007 230.468 38.0242 229.102 38.0242 227.416C38.0242 225.73 36.3007 224.364 34.1747 224.364C32.0487 224.364 30.3252 225.73 30.3252 227.416C30.3252 229.102 32.0487 230.468 34.1747 230.468Z" fill="#FEBC2E"/>
<path d="M46.1512 230.468C48.2773 230.468 50.0007 229.102 50.0007 227.416C50.0007 225.73 48.2773 224.364 46.1512 224.364C44.0252 224.364 42.3018 225.73 42.3018 227.416C42.3018 229.102 44.0252 230.468 46.1512 230.468Z" fill="#29C940"/>
<path d="M190.122 214.088L157.444 347.61H126.178L158.984 214.088H190.122Z" fill="white"/>
<path d="M213.519 214.088L180.712 347.61H167.239L200.088 214.088H213.519Z" fill="white"/>
<path d="M38.4949 243.661H5.2182C4.26174 243.581 3.37642 243.224 2.73294 242.657C2.08946 242.09 1.7334 241.354 1.7334 240.592C1.7334 239.829 2.08946 239.094 2.73294 238.527C3.37642 237.96 4.26174 237.602 5.2182 237.522H38.4949C39.0374 237.477 39.5859 237.523 40.1047 237.656C40.6236 237.79 41.1012 238.009 41.5066 238.298C41.912 238.587 42.2362 238.941 42.4581 239.336C42.68 239.731 42.7947 240.159 42.7947 240.592C42.7947 241.024 42.68 241.452 42.4581 241.847C42.2362 242.242 41.912 242.596 41.5066 242.886C41.1012 243.175 40.6236 243.394 40.1047 243.527C39.5859 243.661 39.0374 243.707 38.4949 243.661Z" fill="#000201"/>
<path d="M223.527 350.696H13.4732C9.90337 350.687 6.48295 349.558 3.95868 347.557C1.4344 345.555 0.0112792 342.843 0 340.012V221.685C0 218.851 1.4195 216.134 3.94622 214.131C6.47294 212.127 9.8999 211.002 13.4732 211.002H223.527C227.097 211.011 230.517 212.139 233.042 214.141C235.566 216.142 236.989 218.854 237 221.685V340.012C236.989 342.843 235.566 345.555 233.042 347.557C230.517 349.558 227.097 350.687 223.527 350.696ZM13.4732 217.208C11.9531 217.208 10.4953 217.687 9.42047 218.539C8.34561 219.391 7.74176 220.547 7.74176 221.753V340.08C7.74176 341.286 8.34561 342.442 9.42047 343.294C10.4953 344.146 11.9531 344.625 13.4732 344.625H223.527C224.28 344.625 225.025 344.507 225.721 344.279C226.416 344.051 227.048 343.716 227.58 343.294C228.112 342.872 228.534 342.371 228.822 341.819C229.11 341.268 229.259 340.677 229.259 340.08V221.685C229.236 220.491 228.622 219.353 227.55 218.515C226.478 217.677 225.033 217.208 223.527 217.208H13.4732Z" fill="#000201"/>
</svg>
