<svg width="612" height="473" viewBox="0 0 612 473" fill="none" xmlns="http://www.w3.org/2000/svg">
<path d="M502.448 165.522H102.143C83.528 165.522 68.4375 179.788 68.4375 197.386V417.101C68.4375 434.699 83.528 448.965 102.143 448.965H502.448C521.063 448.965 536.153 434.699 536.153 417.101V197.386C536.153 179.788 521.063 165.522 502.448 165.522Z" fill="#ABBCD3"/>
<path d="M489.438 109.982H72.5611C62.0215 109.982 53.4775 118.059 53.4775 128.023V407.992C53.4775 417.956 62.0215 426.033 72.5611 426.033H489.438C499.977 426.033 508.521 417.956 508.521 407.992V128.023C508.521 118.059 499.977 109.982 489.438 109.982Z" fill="#383856"/>
<path d="M283.943 109.875L218.744 426.14H192.012L257.248 109.875H283.943Z" fill="#4A4A68"/>
<path d="M408.004 109.663L343.143 425.927H280.98L346.217 109.663H408.004Z" fill="#4A4A68"/>
<path d="M454.533 109.663L389.296 425.927H362.602L427.838 109.663H454.533Z" fill="#4A4A68"/>
<path d="M89.8074 374.959C88.5446 374.959 87.3335 374.485 86.4405 373.641C85.5476 372.796 85.0459 371.652 85.0459 370.458V201.604C85.0459 200.41 85.5476 199.265 86.4405 198.421C87.3335 197.577 88.5446 197.103 89.8074 197.103C91.0702 197.103 92.2814 197.577 93.1743 198.421C94.0673 199.265 94.5689 200.41 94.5689 201.604V370.458C94.5689 371.652 94.0673 372.796 93.1743 373.641C92.2814 374.485 91.0702 374.959 89.8074 374.959Z" fill="#4A4A68"/>
<path d="M266.171 198.272H112.715C111.512 198.272 110.358 197.82 109.507 197.016C108.657 196.212 108.179 195.121 108.179 193.983C108.179 192.846 108.657 191.755 109.507 190.951C110.358 190.147 111.512 189.695 112.715 189.695H266.171C267.374 189.695 268.528 190.147 269.379 190.951C270.23 191.755 270.708 192.846 270.708 193.983C270.708 195.121 270.23 196.212 269.379 197.016C268.528 197.82 267.374 198.272 266.171 198.272Z" fill="#3BC197"/>
<path d="M210.982 216.703H112.715C111.512 216.703 110.358 216.251 109.507 215.447C108.657 214.642 108.179 213.552 108.179 212.414C108.179 211.277 108.657 210.186 109.507 209.382C110.358 208.577 111.512 208.125 112.715 208.125H210.982C212.186 208.125 213.34 208.577 214.19 209.382C215.041 210.186 215.519 211.277 215.519 212.414C215.519 213.552 215.041 214.642 214.19 215.447C213.34 216.251 212.186 216.703 210.982 216.703Z" fill="#F76B9A"/>
<path d="M171.916 236.126H112.715C111.512 236.126 110.358 235.674 109.507 234.87C108.657 234.066 108.179 232.975 108.179 231.837C108.179 230.7 108.657 229.609 109.507 228.805C110.358 228 111.512 227.549 112.715 227.549H171.916C173.119 227.549 174.273 228 175.123 228.805C175.974 229.609 176.452 230.7 176.452 231.837C176.452 232.975 175.974 234.066 175.123 234.87C174.273 235.674 173.119 236.126 171.916 236.126Z" fill="#43FFFF"/>
<path d="M204.909 236.126H189.424C188.221 236.126 187.067 235.674 186.216 234.87C185.366 234.066 184.888 232.975 184.888 231.837C184.888 230.7 185.366 229.609 186.216 228.805C187.067 228 188.221 227.549 189.424 227.549H204.909C206.112 227.549 207.266 228 208.116 228.805C208.967 229.609 209.445 230.7 209.445 231.837C209.445 232.975 208.967 234.066 208.116 234.87C207.266 235.674 206.112 236.126 204.909 236.126Z" fill="#43FFFF"/>
<path d="M247.762 236.126H226.692C225.489 236.126 224.335 235.674 223.484 234.87C222.633 234.066 222.155 232.975 222.155 231.837C222.155 230.7 222.633 229.609 223.484 228.805C224.335 228 225.489 227.549 226.692 227.549H247.762C248.966 227.549 250.12 228 250.97 228.805C251.821 229.609 252.299 230.7 252.299 231.837C252.299 232.975 251.821 234.066 250.97 234.87C250.12 235.674 248.966 236.126 247.762 236.126Z" fill="#43FFFF"/>
<path d="M266.171 272.066H112.715C111.512 272.066 110.358 271.614 109.507 270.81C108.657 270.005 108.179 268.915 108.179 267.777C108.179 266.64 108.657 265.549 109.507 264.745C110.358 263.94 111.512 263.489 112.715 263.489H266.171C267.374 263.489 268.528 263.94 269.379 264.745C270.23 265.549 270.708 266.64 270.708 267.777C270.708 268.915 270.23 270.005 269.379 270.81C268.528 271.614 267.374 272.066 266.171 272.066Z" fill="#3BC197"/>
<path d="M210.982 290.674H112.715C111.512 290.674 110.358 290.222 109.507 289.418C108.657 288.613 108.179 287.523 108.179 286.385C108.179 285.248 108.657 284.157 109.507 283.353C110.358 282.548 111.512 282.096 112.715 282.096H210.982C212.186 282.096 213.34 282.548 214.19 283.353C215.041 284.157 215.519 285.248 215.519 286.385C215.519 287.523 215.041 288.613 214.19 289.418C213.34 290.222 212.186 290.674 210.982 290.674Z" fill="#F76B9A"/>
<path d="M171.916 309.955H112.715C111.512 309.955 110.358 309.503 109.507 308.699C108.657 307.895 108.179 306.804 108.179 305.667C108.179 304.529 108.657 303.438 109.507 302.634C110.358 301.83 111.512 301.378 112.715 301.378H171.916C173.119 301.378 174.273 301.83 175.123 302.634C175.974 303.438 176.452 304.529 176.452 305.667C176.452 306.804 175.974 307.895 175.123 308.699C174.273 309.503 173.119 309.955 171.916 309.955Z" fill="#43FFFF"/>
<path d="M204.909 309.955H189.424C188.221 309.955 187.067 309.503 186.216 308.699C185.366 307.895 184.888 306.804 184.888 305.667C184.888 304.529 185.366 303.438 186.216 302.634C187.067 301.83 188.221 301.378 189.424 301.378H204.909C206.112 301.378 207.266 301.83 208.116 302.634C208.967 303.438 209.445 304.529 209.445 305.667C209.445 306.804 208.967 307.895 208.116 308.699C207.266 309.503 206.112 309.955 204.909 309.955Z" fill="#43FFFF"/>
<path d="M247.762 309.955H226.692C225.489 309.955 224.335 309.503 223.484 308.699C222.633 307.895 222.155 306.804 222.155 305.667C222.155 304.529 222.633 303.438 223.484 302.634C224.335 301.83 225.489 301.378 226.692 301.378H247.762C248.966 301.378 250.12 301.83 250.97 302.634C251.821 303.438 252.299 304.529 252.299 305.667C252.299 306.804 251.821 307.895 250.97 308.699C250.12 309.503 248.966 309.955 247.762 309.955Z" fill="#43FFFF"/>
<path d="M266.171 254.309H112.716C111.453 254.309 110.242 253.834 109.349 252.99C108.456 252.146 107.954 251.001 107.954 249.807C107.954 248.613 108.456 247.469 109.349 246.624C110.242 245.78 111.453 245.306 112.716 245.306H266.171C267.434 245.306 268.645 245.78 269.538 246.624C270.431 247.469 270.933 248.613 270.933 249.807C270.933 251.001 270.431 252.146 269.538 252.99C268.645 253.834 267.434 254.309 266.171 254.309Z" fill="#3C3C5B"/>
<path d="M266.171 328.138H112.716C111.453 328.138 110.242 327.664 109.349 326.819C108.456 325.975 107.954 324.83 107.954 323.637C107.954 322.443 108.456 321.298 109.349 320.454C110.242 319.609 111.453 319.135 112.716 319.135H266.171C267.434 319.135 268.645 319.609 269.538 320.454C270.431 321.298 270.933 322.443 270.933 323.637C270.933 324.83 270.431 325.975 269.538 326.819C268.645 327.664 267.434 328.138 266.171 328.138Z" fill="#3C3C5B"/>
<path d="M266.171 345.895H112.715C111.512 345.895 110.358 345.443 109.507 344.639C108.657 343.835 108.179 342.744 108.179 341.606C108.179 340.469 108.657 339.378 109.507 338.574C110.358 337.77 111.512 337.318 112.715 337.318H266.171C267.374 337.318 268.528 337.77 269.379 338.574C270.23 339.378 270.708 340.469 270.708 341.606C270.708 342.744 270.23 343.835 269.379 344.639C268.528 345.443 267.374 345.895 266.171 345.895Z" fill="#3BC197"/>
<path d="M210.982 364.361H112.715C111.512 364.361 110.358 363.909 109.507 363.105C108.657 362.301 108.179 361.21 108.179 360.073C108.179 358.935 108.657 357.844 109.507 357.04C110.358 356.236 111.512 355.784 112.715 355.784H210.982C212.186 355.784 213.34 356.236 214.19 357.04C215.041 357.844 215.519 358.935 215.519 360.073C215.519 361.21 215.041 362.301 214.19 363.105C213.34 363.909 212.186 364.361 210.982 364.361Z" fill="#F76B9A"/>
<path d="M171.916 383.749H112.715C111.512 383.749 110.358 383.297 109.507 382.493C108.657 381.689 108.179 380.598 108.179 379.46C108.179 378.323 108.657 377.232 109.507 376.428C110.358 375.623 111.512 375.172 112.715 375.172H171.916C173.119 375.172 174.273 375.623 175.123 376.428C175.974 377.232 176.452 378.323 176.452 379.46C176.452 380.598 175.974 381.689 175.123 382.493C174.273 383.297 173.119 383.749 171.916 383.749Z" fill="#43FFFF"/>
<path d="M204.909 383.749H189.424C188.221 383.749 187.067 383.297 186.216 382.493C185.366 381.689 184.888 380.598 184.888 379.46C184.888 378.323 185.366 377.232 186.216 376.428C187.067 375.623 188.221 375.172 189.424 375.172H204.909C206.112 375.172 207.266 375.623 208.116 376.428C208.967 377.232 209.445 378.323 209.445 379.46C209.445 380.598 208.967 381.689 208.116 382.493C207.266 383.297 206.112 383.749 204.909 383.749Z" fill="#43FFFF"/>
<path d="M247.762 383.749H226.692C225.489 383.749 224.335 383.297 223.484 382.493C222.633 381.689 222.155 380.598 222.155 379.46C222.155 378.323 222.633 377.232 223.484 376.428C224.335 375.623 225.489 375.172 226.692 375.172H247.762C248.966 375.172 250.12 375.623 250.97 376.428C251.821 377.232 252.299 378.323 252.299 379.46C252.299 380.598 251.821 381.689 250.97 382.493C250.12 383.297 248.966 383.749 247.762 383.749Z" fill="#43FFFF"/>
<path d="M471.141 362.376H392.408C391.761 362.376 391.141 362.134 390.684 361.702C390.227 361.27 389.971 360.684 389.971 360.073C389.971 359.462 390.227 358.876 390.684 358.444C391.141 358.012 391.761 357.769 392.408 357.769H471.141C471.788 357.769 472.408 358.012 472.865 358.444C473.322 358.876 473.578 359.462 473.578 360.073C473.578 360.684 473.322 361.27 472.865 361.702C472.408 362.134 471.788 362.376 471.141 362.376Z" fill="#6F6F8E"/>
<path d="M442.985 371.84H392.483C391.837 371.84 391.217 371.597 390.76 371.165C390.303 370.733 390.046 370.147 390.046 369.536C390.046 368.922 390.301 368.332 390.757 367.894C391.213 367.457 391.833 367.206 392.483 367.197H442.985C443.635 367.206 444.254 367.457 444.71 367.894C445.166 368.332 445.422 368.922 445.422 369.536C445.422 370.147 445.165 370.733 444.708 371.165C444.251 371.597 443.631 371.84 442.985 371.84Z" fill="#6F6F8E"/>
<path d="M422.852 381.8H392.483C391.833 381.79 391.213 381.54 390.757 381.102C390.301 380.664 390.046 380.075 390.046 379.46C390.046 378.849 390.303 378.263 390.76 377.831C391.217 377.399 391.837 377.156 392.483 377.156H422.852C423.498 377.156 424.118 377.399 424.575 377.831C425.032 378.263 425.289 378.849 425.289 379.46C425.289 380.075 425.033 380.664 424.577 381.102C424.121 381.54 423.501 381.79 422.852 381.8Z" fill="#6F6F8E"/>
<path d="M439.76 381.8H431.737C431.087 381.79 430.467 381.54 430.011 381.102C429.555 380.664 429.3 380.075 429.3 379.46C429.3 378.849 429.557 378.263 430.014 377.831C430.471 377.399 431.09 377.156 431.737 377.156H439.685C440.331 377.156 440.951 377.399 441.408 377.831C441.865 378.263 442.122 378.849 442.122 379.46C442.123 380.063 441.878 380.642 441.438 381.078C440.998 381.514 440.397 381.772 439.76 381.8Z" fill="#6F6F8E"/>
<path d="M461.731 381.8H450.933C450.28 381.79 449.656 381.541 449.194 381.104C448.732 380.668 448.469 380.078 448.459 379.46C448.469 378.846 448.734 378.26 449.197 377.829C449.66 377.398 450.284 377.156 450.933 377.156H461.731C462.377 377.156 462.997 377.399 463.454 377.831C463.911 378.263 464.168 378.849 464.168 379.46C464.168 380.075 463.913 380.664 463.457 381.102C463.001 381.54 462.381 381.79 461.731 381.8Z" fill="#6F6F8E"/>
<path d="M471.141 320.305H392.408C391.761 320.305 391.141 320.062 390.684 319.63C390.227 319.198 389.971 318.612 389.971 318.001C389.971 317.39 390.227 316.804 390.684 316.372C391.141 315.94 391.761 315.697 392.408 315.697H471.141C471.461 315.697 471.778 315.757 472.074 315.873C472.37 315.988 472.638 316.158 472.865 316.372C473.091 316.586 473.27 316.84 473.393 317.119C473.515 317.399 473.578 317.698 473.578 318.001C473.578 318.304 473.515 318.603 473.393 318.883C473.27 319.162 473.091 319.416 472.865 319.63C472.638 319.844 472.37 320.014 472.074 320.129C471.778 320.245 471.461 320.305 471.141 320.305Z" fill="#6F6F8E"/>
<path d="M442.985 329.662H392.483C391.837 329.662 391.217 329.419 390.76 328.987C390.303 328.555 390.046 327.969 390.046 327.358C390.046 326.747 390.303 326.161 390.76 325.729C391.217 325.297 391.837 325.054 392.483 325.054H442.985C443.631 325.054 444.251 325.297 444.708 325.729C445.165 326.161 445.422 326.747 445.422 327.358C445.422 327.969 445.165 328.555 444.708 328.987C444.251 329.419 443.631 329.662 442.985 329.662Z" fill="#6F6F8E"/>
<path d="M422.852 339.728H392.483C391.837 339.728 391.217 339.485 390.76 339.053C390.303 338.621 390.046 338.035 390.046 337.424C390.046 336.813 390.303 336.227 390.76 335.795C391.217 335.363 391.837 335.12 392.483 335.12H422.852C423.498 335.12 424.118 335.363 424.575 335.795C425.032 336.227 425.289 336.813 425.289 337.424C425.289 338.035 425.032 338.621 424.575 339.053C424.118 339.485 423.498 339.728 422.852 339.728Z" fill="#6F6F8E"/>
<path d="M439.76 339.728H431.737C431.09 339.728 430.471 339.485 430.014 339.053C429.557 338.621 429.3 338.035 429.3 337.424C429.3 336.813 429.557 336.227 430.014 335.795C430.471 335.363 431.09 335.12 431.737 335.12H439.685C440.331 335.12 440.951 335.363 441.408 335.795C441.865 336.227 442.122 336.813 442.122 337.424C442.122 338.035 441.865 338.621 441.408 339.053C440.951 339.485 440.331 339.728 439.685 339.728H439.76Z" fill="#6F6F8E"/>
<path d="M461.731 339.728H450.933C450.287 339.728 449.667 339.485 449.21 339.053C448.753 338.621 448.496 338.035 448.496 337.424C448.496 336.813 448.753 336.227 449.21 335.795C449.667 335.363 450.287 335.12 450.933 335.12H461.731C462.377 335.12 462.997 335.363 463.454 335.795C463.911 336.227 464.168 336.813 464.168 337.424C464.168 338.035 463.911 338.621 463.454 339.053C462.997 339.485 462.377 339.728 461.731 339.728Z" fill="#6F6F8E"/>
<path d="M471.141 236.197H392.408C391.761 236.197 391.141 235.954 390.684 235.522C390.227 235.09 389.971 234.504 389.971 233.893C389.971 233.282 390.227 232.696 390.684 232.264C391.141 231.832 391.761 231.589 392.408 231.589H471.141C471.788 231.589 472.408 231.832 472.865 232.264C473.322 232.696 473.578 233.282 473.578 233.893C473.578 234.504 473.322 235.09 472.865 235.522C472.408 235.954 471.788 236.197 471.141 236.197Z" fill="#6F6F8E"/>
<path d="M442.985 245.66H392.483C392.163 245.66 391.846 245.601 391.55 245.485C391.255 245.369 390.986 245.2 390.76 244.986C390.533 244.772 390.354 244.518 390.231 244.238C390.109 243.959 390.046 243.659 390.046 243.357C390.046 243.054 390.109 242.754 390.231 242.475C390.354 242.195 390.533 241.941 390.76 241.728C390.986 241.514 391.255 241.344 391.55 241.228C391.846 241.112 392.163 241.053 392.483 241.053H442.985C443.305 241.053 443.622 241.112 443.918 241.228C444.213 241.344 444.482 241.514 444.708 241.728C444.934 241.941 445.114 242.195 445.236 242.475C445.359 242.754 445.422 243.054 445.422 243.357C445.422 243.659 445.359 243.959 445.236 244.238C445.114 244.518 444.934 244.772 444.708 244.986C444.482 245.2 444.213 245.369 443.918 245.485C443.622 245.601 443.305 245.66 442.985 245.66Z" fill="#6F6F8E"/>
<path d="M422.852 255.62H392.483C391.833 255.611 391.213 255.36 390.757 254.923C390.301 254.485 390.046 253.895 390.046 253.281C390.046 252.978 390.109 252.679 390.231 252.399C390.354 252.12 390.533 251.866 390.76 251.652C390.986 251.438 391.255 251.268 391.55 251.152C391.846 251.037 392.163 250.977 392.483 250.977H422.852C423.172 250.977 423.489 251.037 423.784 251.152C424.08 251.268 424.349 251.438 424.575 251.652C424.801 251.866 424.981 252.12 425.103 252.399C425.226 252.679 425.289 252.978 425.289 253.281C425.289 253.895 425.033 254.485 424.577 254.923C424.121 255.36 423.501 255.611 422.852 255.62Z" fill="#6F6F8E"/>
<path d="M439.76 255.62H431.737C431.087 255.611 430.467 255.36 430.011 254.923C429.555 254.485 429.3 253.895 429.3 253.281C429.3 252.978 429.363 252.679 429.485 252.399C429.608 252.12 429.787 251.866 430.014 251.652C430.24 251.438 430.509 251.268 430.804 251.152C431.1 251.037 431.417 250.977 431.737 250.977H439.685C440.005 250.977 440.322 251.037 440.618 251.152C440.913 251.268 441.182 251.438 441.408 251.652C441.635 251.866 441.814 252.12 441.937 252.399C442.059 252.679 442.122 252.978 442.122 253.281C442.123 253.883 441.878 254.463 441.438 254.898C440.998 255.334 440.397 255.593 439.76 255.62Z" fill="#6F6F8E"/>
<path d="M461.731 255.62H450.933C450.28 255.611 449.656 255.362 449.194 254.925C448.732 254.488 448.469 253.898 448.459 253.281C448.469 252.667 448.734 252.081 449.197 251.65C449.66 251.219 450.284 250.977 450.933 250.977H461.731C462.051 250.977 462.368 251.037 462.664 251.152C462.959 251.268 463.228 251.438 463.454 251.652C463.681 251.866 463.86 252.12 463.983 252.399C464.105 252.679 464.168 252.978 464.168 253.281C464.168 253.895 463.913 254.485 463.457 254.923C463.001 255.36 462.381 255.611 461.731 255.62Z" fill="#6F6F8E"/>
<path d="M471.141 278.269H392.408C391.758 278.259 391.138 278.009 390.682 277.571C390.226 277.133 389.971 276.544 389.971 275.929C389.971 275.318 390.227 274.732 390.684 274.3C391.141 273.868 391.761 273.625 392.408 273.625H471.141C471.791 273.625 472.415 273.867 472.878 274.298C473.341 274.729 473.606 275.315 473.616 275.929C473.606 276.547 473.342 277.137 472.88 277.573C472.418 278.01 471.795 278.259 471.141 278.269Z" fill="#6F6F8E"/>
<path d="M442.985 287.732H392.483C391.833 287.723 391.213 287.472 390.757 287.034C390.301 286.597 390.046 286.007 390.046 285.393C390.046 284.782 390.303 284.196 390.76 283.764C391.217 283.332 391.837 283.089 392.483 283.089H442.985C443.631 283.089 444.251 283.332 444.708 283.764C445.165 284.196 445.422 284.782 445.422 285.393C445.422 286.007 445.166 286.597 444.71 287.034C444.254 287.472 443.635 287.723 442.985 287.732Z" fill="#6F6F8E"/>
<path d="M422.852 297.763H392.483C391.837 297.763 391.217 297.52 390.76 297.088C390.303 296.656 390.046 296.07 390.046 295.459C390.046 294.848 390.303 294.262 390.76 293.83C391.217 293.398 391.837 293.155 392.483 293.155H422.852C423.498 293.155 424.118 293.398 424.575 293.83C425.032 294.262 425.289 294.848 425.289 295.459C425.289 296.07 425.032 296.656 424.575 297.088C424.118 297.52 423.498 297.763 422.852 297.763Z" fill="#6F6F8E"/>
<path d="M439.76 297.763H431.737C431.09 297.763 430.471 297.52 430.014 297.088C429.557 296.656 429.3 296.07 429.3 295.459C429.3 294.848 429.557 294.262 430.014 293.83C430.471 293.398 431.09 293.155 431.737 293.155H439.685C440.331 293.155 440.951 293.398 441.408 293.83C441.865 294.262 442.122 294.848 442.122 295.459C442.122 296.07 441.865 296.656 441.408 297.088C440.951 297.52 440.331 297.763 439.685 297.763H439.76Z" fill="#6F6F8E"/>
<path d="M461.731 297.763H450.933C450.287 297.763 449.667 297.52 449.21 297.088C448.753 296.656 448.496 296.07 448.496 295.459C448.496 294.848 448.753 294.262 449.21 293.83C449.667 293.398 450.287 293.155 450.933 293.155H461.731C462.377 293.155 462.997 293.398 463.454 293.83C463.911 294.262 464.168 294.848 464.168 295.459C464.168 296.07 463.911 296.656 463.454 297.088C462.997 297.52 462.377 297.763 461.731 297.763Z" fill="#6F6F8E"/>
<path d="M471.141 194.125H392.408C391.761 194.125 391.141 193.883 390.684 193.45C390.227 193.018 389.971 192.432 389.971 191.821C389.971 191.21 390.227 190.624 390.684 190.192C391.141 189.76 391.761 189.518 392.408 189.518H471.141C471.461 189.518 471.778 189.577 472.074 189.693C472.37 189.809 472.638 189.978 472.865 190.192C473.091 190.406 473.27 190.66 473.393 190.94C473.515 191.219 473.578 191.519 473.578 191.821C473.578 192.124 473.515 192.424 473.393 192.703C473.27 192.983 473.091 193.237 472.865 193.45C472.638 193.664 472.37 193.834 472.074 193.95C471.778 194.066 471.461 194.125 471.141 194.125Z" fill="#6F6F8E"/>
<path d="M442.985 203.589H392.483C391.837 203.589 391.217 203.346 390.76 202.914C390.303 202.482 390.046 201.896 390.046 201.285C390.046 200.674 390.303 200.088 390.76 199.656C391.217 199.224 391.837 198.981 392.483 198.981H442.985C443.631 198.981 444.251 199.224 444.708 199.656C445.165 200.088 445.422 200.674 445.422 201.285C445.422 201.896 445.165 202.482 444.708 202.914C444.251 203.346 443.631 203.589 442.985 203.589Z" fill="#6F6F8E"/>
<path d="M422.852 213.548H392.483C391.837 213.548 391.217 213.306 390.76 212.874C390.303 212.442 390.046 211.856 390.046 211.245C390.046 210.634 390.303 210.048 390.76 209.615C391.217 209.183 391.837 208.941 392.483 208.941H422.852C423.498 208.941 424.118 209.183 424.575 209.615C425.032 210.048 425.289 210.634 425.289 211.245C425.289 211.856 425.032 212.442 424.575 212.874C424.118 213.306 423.498 213.548 422.852 213.548Z" fill="#6F6F8E"/>
<path d="M439.76 213.548H431.737C431.09 213.548 430.471 213.306 430.014 212.874C429.557 212.442 429.3 211.856 429.3 211.245C429.3 210.634 429.557 210.048 430.014 209.615C430.471 209.183 431.09 208.941 431.737 208.941H439.685C440.331 208.941 440.951 209.183 441.408 209.615C441.865 210.048 442.122 210.634 442.122 211.245C442.122 211.856 441.865 212.442 441.408 212.874C440.951 213.306 440.331 213.548 439.685 213.548H439.76Z" fill="#6F6F8E"/>
<path d="M461.731 213.548H450.933C450.287 213.548 449.667 213.306 449.21 212.874C448.753 212.442 448.496 211.856 448.496 211.245C448.496 210.634 448.753 210.048 449.21 209.615C449.667 209.183 450.287 208.941 450.933 208.941H461.731C462.377 208.941 462.997 209.183 463.454 209.615C463.911 210.048 464.168 210.634 464.168 211.245C464.168 211.856 463.911 212.442 463.454 212.874C462.997 213.306 462.377 213.548 461.731 213.548Z" fill="#6F6F8E"/>
<path d="M89.8082 137.947C94.0116 137.947 97.4191 134.726 97.4191 130.752C97.4191 126.778 94.0116 123.557 89.8082 123.557C85.6048 123.557 82.1973 126.778 82.1973 130.752C82.1973 134.726 85.6048 137.947 89.8082 137.947Z" fill="#FF5F57"/>
<path d="M113.578 137.947C117.781 137.947 121.189 134.726 121.189 130.752C121.189 126.778 117.781 123.557 113.578 123.557C109.374 123.557 105.967 126.778 105.967 130.752C105.967 134.726 109.374 137.947 113.578 137.947Z" fill="#FEBC2E"/>
<path d="M137.385 137.947C141.589 137.947 144.996 134.726 144.996 130.752C144.996 126.778 141.589 123.557 137.385 123.557C133.182 123.557 129.774 126.778 129.774 130.752C129.774 134.726 133.182 137.947 137.385 137.947Z" fill="#29C940"/>
<path d="M489.438 430.322H72.524C66.2661 430.313 60.2678 427.956 55.8463 423.769C51.4248 419.583 48.9414 413.909 48.9414 407.993V127.987C48.9414 122.071 51.4248 116.397 55.8463 112.21C60.2678 108.024 66.2661 105.667 72.524 105.658H489.438C495.696 105.667 501.694 108.024 506.116 112.21C510.537 116.397 513.021 122.071 513.021 127.987V407.993C513.021 413.909 510.537 419.583 506.116 423.769C501.694 427.956 495.696 430.313 489.438 430.322ZM72.524 114.271C68.6724 114.28 64.982 115.733 62.262 118.311C59.542 120.889 58.0145 124.382 58.0145 128.023V408.028C58.0096 409.834 58.381 411.623 59.1075 413.293C59.834 414.964 60.9014 416.482 62.2487 417.763C63.5961 419.043 65.1969 420.06 66.96 420.755C68.723 421.451 70.6137 421.811 72.524 421.816H489.438C493.29 421.806 496.98 420.353 499.7 417.775C502.42 415.197 503.947 411.705 503.947 408.063V128.058C503.947 124.417 502.42 120.924 499.7 118.346C496.98 115.768 493.29 114.315 489.438 114.306L72.524 114.271Z" fill="#000201"/>
<path d="M157.107 155.988H56.14C55.3943 155.988 54.6791 155.708 54.1517 155.209C53.6244 154.711 53.3281 154.034 53.3281 153.329C53.3281 152.624 53.6244 151.948 54.1517 151.45C54.6791 150.951 55.3943 150.671 56.14 150.671H157.107C157.852 150.671 158.568 150.951 159.095 151.45C159.622 151.948 159.919 152.624 159.919 153.329C159.919 154.034 159.622 154.711 159.095 155.209C158.568 155.708 157.852 155.988 157.107 155.988Z" fill="#000201"/>
<path d="M505.034 155.988H183.163C182.418 155.988 181.702 155.708 181.175 155.209C180.648 154.711 180.352 154.034 180.352 153.329C180.352 152.624 180.648 151.948 181.175 151.45C181.702 150.951 182.418 150.671 183.163 150.671H505.034C505.78 150.671 506.495 150.951 507.023 151.45C507.55 151.948 507.846 152.624 507.846 153.329C507.846 154.034 507.55 154.711 507.023 155.209C506.495 155.708 505.78 155.988 505.034 155.988Z" fill="#000201"/>
<path opacity="0.45" d="M196.473 329.237H12.386C7.72701 329.237 3.9502 332.807 3.9502 337.211V460.839C3.9502 465.243 7.72701 468.814 12.386 468.814H196.473C201.132 468.814 204.909 465.243 204.909 460.839V337.211C204.909 332.807 201.132 329.237 196.473 329.237Z" fill="white"/>
<path d="M203.372 360.179H54.4902C53.6518 360.096 52.8758 359.722 52.3117 359.129C51.7477 358.537 51.4355 357.768 51.4355 356.971C51.4355 356.174 51.7477 355.406 52.3117 354.813C52.8758 354.221 53.6518 353.847 54.4902 353.764H203.372C203.848 353.716 204.328 353.764 204.783 353.904C205.238 354.043 205.656 354.272 206.012 354.574C206.367 354.877 206.651 355.246 206.846 355.659C207.04 356.072 207.141 356.519 207.141 356.971C207.141 357.423 207.04 357.87 206.846 358.283C206.651 358.696 206.367 359.066 206.012 359.368C205.656 359.671 205.238 359.899 204.783 360.039C204.328 360.179 203.848 360.226 203.372 360.179Z" fill="#000201"/>
<path d="M20.0345 346.391C21.898 346.391 23.4088 344.963 23.4088 343.201C23.4088 341.44 21.898 340.011 20.0345 340.011C18.1709 340.011 16.6602 341.44 16.6602 343.201C16.6602 344.963 18.1709 346.391 20.0345 346.391Z" fill="#FF5F57"/>
<path d="M30.5325 346.391C32.3961 346.391 33.9068 344.963 33.9068 343.201C33.9068 341.44 32.3961 340.011 30.5325 340.011C28.6689 340.011 27.1582 341.44 27.1582 343.201C27.1582 344.963 28.6689 346.391 30.5325 346.391Z" fill="#FEBC2E"/>
<path d="M41.0306 346.391C42.8941 346.391 44.4049 344.963 44.4049 343.201C44.4049 341.44 42.8941 340.011 41.0306 340.011C39.167 340.011 37.6562 341.44 37.6562 343.201C37.6562 344.963 39.167 346.391 41.0306 346.391Z" fill="#29C940"/>
<path d="M167.23 329.272L138.586 468.814H111.179L139.935 329.272H167.23Z" fill="white"/>
<path d="M187.737 329.272L158.981 468.814H147.171L175.965 329.272H187.737Z" fill="white"/>
<path d="M34.3193 360.179H5.15034C4.31194 360.096 3.53591 359.722 2.97186 359.129C2.40782 358.537 2.0957 357.768 2.0957 356.971C2.0957 356.174 2.40782 355.406 2.97186 354.813C3.53591 354.221 4.31194 353.847 5.15034 353.764H34.3193C34.7949 353.716 35.2756 353.764 35.7304 353.904C36.1852 354.043 36.6039 354.272 36.9592 354.574C37.3146 354.877 37.5988 355.246 37.7933 355.659C37.9878 356.072 38.0883 356.519 38.0883 356.971C38.0883 357.423 37.9878 357.87 37.7933 358.283C37.5988 358.696 37.3146 359.066 36.9592 359.368C36.6039 359.671 36.1852 359.899 35.7304 360.039C35.2756 360.179 34.7949 360.226 34.3193 360.179Z" fill="#000201"/>
<path d="M196.511 472.039H12.3863C10.8304 472.035 9.29081 471.74 7.85528 471.173C6.41974 470.606 5.11644 469.777 4.01977 468.734C2.9231 467.69 2.05455 466.453 1.46371 465.092C0.872865 463.732 0.5713 462.274 0.576231 460.804V337.211C0.596036 334.263 1.84904 331.441 4.06172 329.363C6.27439 327.284 9.26702 326.117 12.3863 326.118H196.511C199.64 326.127 202.638 327.306 204.851 329.398C207.064 331.49 208.311 334.324 208.321 337.282V460.804C208.326 462.274 208.024 463.732 207.433 465.092C206.843 466.453 205.974 467.69 204.877 468.734C203.781 469.777 202.477 470.606 201.042 471.173C199.606 471.74 198.067 472.035 196.511 472.039ZM12.3863 332.462C11.0539 332.462 9.77599 332.962 8.83382 333.853C7.89164 334.744 7.36233 335.952 7.36233 337.211V460.804C7.36233 462.063 7.89164 463.271 8.83382 464.162C9.77599 465.053 11.0539 465.553 12.3863 465.553H196.511C197.171 465.553 197.824 465.43 198.433 465.192C199.043 464.953 199.597 464.603 200.063 464.162C200.53 463.721 200.9 463.197 201.152 462.621C201.405 462.045 201.535 461.427 201.535 460.804V337.211C201.535 336.588 201.405 335.97 201.152 335.394C200.9 334.818 200.53 334.294 200.063 333.853C199.597 333.412 199.043 333.062 198.433 332.823C197.824 332.585 197.171 332.462 196.511 332.462H12.3863Z" fill="#000201"/>
<path d="M526.668 157.016C571.269 157.016 607.426 122.835 607.426 80.67C607.426 38.5054 571.269 4.32422 526.668 4.32422C482.066 4.32422 445.909 38.5054 445.909 80.67C445.909 122.835 482.066 157.016 526.668 157.016Z" fill="#F5F7F9"/>
<path d="M526.667 161.34C509.79 161.34 493.292 156.609 479.259 147.744C465.226 138.88 454.289 126.281 447.831 111.541C441.372 96.8004 439.682 80.5804 442.975 64.932C446.267 49.2836 454.394 34.9096 466.328 23.6277C478.262 12.3458 493.467 4.66275 510.02 1.55009C526.573 -1.56258 543.73 0.0349531 559.323 6.14067C574.915 12.2464 588.242 22.586 597.619 35.8521C606.995 49.1182 612 64.7149 612 80.6699C611.98 102.059 602.983 122.567 586.985 137.691C570.986 152.816 549.293 161.321 526.667 161.34ZM526.667 8.61286C511.583 8.61286 496.838 12.8419 484.296 20.7651C471.755 28.6883 461.98 39.9497 456.209 53.1249C450.439 66.3002 448.931 80.7974 451.876 94.7829C454.822 108.768 462.088 121.614 472.757 131.695C483.426 141.776 497.018 148.639 511.813 151.417C526.608 154.195 541.943 152.762 555.877 147.3C569.81 141.838 581.718 132.592 590.093 120.732C598.468 108.872 602.934 94.93 602.927 80.6699C602.907 61.5588 594.865 43.2364 580.567 29.7261C566.268 16.2158 546.883 8.62224 526.667 8.61286Z" fill="#3D4246"/>
<path d="M503.867 69.2891C502.477 69.2891 501.242 69.5625 500.164 70.1094C499.102 70.6406 498.203 71.4141 497.469 72.4297C496.75 73.4453 496.203 74.6719 495.828 76.1094C495.453 77.5469 495.266 79.1641 495.266 80.9609C495.266 83.3828 495.562 85.4531 496.156 87.1719C496.766 88.875 497.703 90.1797 498.969 91.0859C500.234 91.9766 501.867 92.4219 503.867 92.4219C505.258 92.4219 506.648 92.2656 508.039 91.9531C509.445 91.6406 510.969 91.1953 512.609 90.6172V96.7109C511.094 97.3359 509.602 97.7812 508.133 98.0469C506.664 98.3281 505.016 98.4688 503.188 98.4688C499.656 98.4688 496.75 97.7422 494.469 96.2891C492.203 94.8203 490.523 92.7734 489.43 90.1484C488.336 87.5078 487.789 84.4297 487.789 80.9141C487.789 78.3203 488.141 75.9453 488.844 73.7891C489.547 71.6328 490.578 69.7656 491.938 68.1875C493.297 66.6094 494.977 65.3906 496.977 64.5312C498.977 63.6719 501.273 63.2422 503.867 63.2422C505.57 63.2422 507.273 63.4609 508.977 63.8984C510.695 64.3203 512.336 64.9062 513.898 65.6562L511.555 71.5625C510.273 70.9531 508.984 70.4219 507.688 69.9688C506.391 69.5156 505.117 69.2891 503.867 69.2891ZM531.875 78.5234H540.945V83.6562H531.875V92.6797H526.742V83.6562H517.672V78.5234H526.742V69.3828H531.875V78.5234ZM559.344 78.5234H568.414V83.6562H559.344V92.6797H554.211V83.6562H545.141V78.5234H554.211V69.3828H559.344V78.5234Z" fill="#3D4246"/>
</svg>
