<svg xmlns="http://www.w3.org/2000/svg" viewBox="0 0 500 500"><g id="freepik--background-complete--inject-238"><path d="M118,460.24c20.4-7.5,30-28.66,34.48-48.76.74-3.36,2-6.77,1.16-10.1s-4.08-6.28-7.46-5.65c-2.8.52-4.63,3.11-6.65,5.13a20.28,20.28,0,0,1-9.82,5.42c-2.43.55-5.26.54-7.08-1.16-2.5-2.33-1.82-6.38-.95-9.69q2.44-9.23,4.88-18.46c.87-3.3,1.75-6.68,1.51-10.09s-1.78-6.91-4.75-8.61-7.37-.9-8.88,2.17a32.5,32.5,0,0,0-1.15,4.09c-.45,1.35-1.49,2.7-2.91,2.75s-2.53-1.24-3.29-2.47c-2.6-4.23-3.84-9.13-4.93-14s-2.1-9.77-4.3-14.22-5.8-8.45-10.53-9.95-10.6.11-13,4.45-.88,9.79,1.15,14.33a76.69,76.69,0,0,0,11.81,18.66,6.32,6.32,0,0,1,1.89,3.43c.16,2.39-2.52,4-4.91,4.2-2.71.18-5.36-.77-8-1.14s-5.82,0-7.43,2.23c-2.25,3-.29,7.31,1.93,10.35a66.26,66.26,0,0,0,16.19,15.68c2.24,1.52,4.63,3,6.18,5.19s2,5.5.18,7.52-5.08,2-7.54.84-4.41-3.11-6.64-4.66c-4.17-2.9-10.19-4.11-14.16-.94-2.6,2.09-3.7,5.64-3.51,9a25,25,0,0,0,3,9.48A66.53,66.53,0,0,0,87,451.41c9.75,6.4,19.39,9.93,31,8.83" style="fill:#ebebeb"></path><path d="M116.5,460.29c-.39-10.82-2.39-36.52-4.3-48.85q-.74-4.62-1.45-9.12c-.48-3-1-6-1.6-8.83a152.78,152.78,0,0,0-4.69-16.31c-1.74-5.12-3.58-9.92-5.34-14.39s-3.48-8.61-5.22-12.31a121.91,121.91,0,0,0-9.48-16.88c-1.27-1.9-2.3-3.34-3-4.31l-.82-1.1-.29-.37a3.74,3.74,0,0,0,.25.4l.77,1.13c.69,1,1.69,2.45,2.94,4.36a128.26,128.26,0,0,1,9.31,16.92c1.71,3.71,3.41,7.84,5.16,12.32s3.56,9.27,5.28,14.38a153.45,153.45,0,0,1,4.64,16.27c.64,2.86,1.12,5.8,1.6,8.8s1,6,1.44,9.12c1.91,12.32,3.92,38,4.33,48.79" style="fill:#e0e0e0"></path><path d="M109,393.41a8.12,8.12,0,0,0,.67-1.34c.41-.87,1-2.15,1.61-3.74,1.31-3.17,3-7.62,4.8-12.52s3.57-9.32,5-12.46c.68-1.57,1.25-2.84,1.66-3.7a7,7,0,0,0,.57-1.38,7.68,7.68,0,0,0-.75,1.29c-.47.84-1.09,2.09-1.81,3.64-1.47,3.11-3.27,7.51-5.1,12.43s-3.44,9.26-4.66,12.57c-.59,1.53-1.08,2.81-1.45,3.79A8.07,8.07,0,0,0,109,393.41Z" style="fill:#e0e0e0"></path><path d="M68,374.4a1.68,1.68,0,0,0,.42.18l1.25.44c1.09.37,2.66.91,4.57,1.64,3.85,1.42,9.09,3.58,14.76,6.21s10.69,5.27,14.27,7.27c1.8,1,3.23,1.83,4.22,2.41l1.14.66a2.35,2.35,0,0,0,.42.2s-.11-.12-.36-.29l-1.1-.74c-1-.63-2.36-1.52-4.14-2.55-3.54-2.09-8.55-4.77-14.24-7.42s-11-4.76-14.84-6.1c-1.94-.68-3.53-1.17-4.64-1.48l-1.28-.35A1.4,1.4,0,0,0,68,374.4Z" style="fill:#e0e0e0"></path><path d="M115.65,445.49a3.92,3.92,0,0,0,.41-.45l1.13-1.36c1-1.18,2.34-2.92,4-5.09,3.32-4.35,7.73-10.49,12.51-17.33s9.13-13,12.37-17.4l3.87-5.19,1.05-1.42a2.27,2.27,0,0,0,.33-.51,3.35,3.35,0,0,0-.42.45l-1.12,1.35c-1,1.18-2.34,2.93-4,5.1-3.32,4.35-7.73,10.49-12.51,17.33s-9.13,13-12.37,17.4L117,443.56c-.43.58-.77,1.05-1,1.41A2.43,2.43,0,0,0,115.65,445.49Z" style="fill:#e0e0e0"></path><path d="M63.06,412.57a2.86,2.86,0,0,0,.51.37l1.53,1,5.64,3.52c4.76,3,11.28,7.17,18.47,11.82s13.75,8.8,18.56,11.7c2.41,1.45,4.36,2.6,5.73,3.38l1.58.88a3,3,0,0,0,.57.28,3.3,3.3,0,0,0-.52-.37l-1.53-1L108,440.64c-4.75-3-11.27-7.18-18.47-11.83S75.74,420,70.93,417.12c-2.4-1.46-4.36-2.61-5.72-3.39l-1.58-.88A3.44,3.44,0,0,0,63.06,412.57Z" style="fill:#e0e0e0"></path><path d="M81.5,264.66h82.89s-7.33-13.34-28.67-11.39c-20.38,1.85-21.41-6.57-31.77-7.6S85,252.57,81.5,264.66Z" style="fill:#ebebeb"></path><path d="M365.18,118.05h79.39s-7-12.78-27.45-10.92c-19.52,1.78-20.51-6.28-30.43-7.28S368.49,106.47,365.18,118.05Z" style="fill:#ebebeb"></path><path d="M404.88,160.9h51.93s-4.59-8.36-18-7.14c-12.77,1.16-13.42-4.11-19.91-4.76S407,153.32,404.88,160.9Z" style="fill:#e0e0e0"></path><path d="M72.37,91.67H124.3s-4.59-8.36-18-7.14c-12.77,1.16-13.42-4.12-19.91-4.77S74.53,84.09,72.37,91.67Z" style="fill:#f5f5f5"></path><path d="M61,293.34h51.93s-4.59-8.36-18-7.14c-12.76,1.16-13.41-4.11-19.9-4.76S63.12,285.76,61,293.34Z" style="fill:#e0e0e0"></path></g><g id="freepik--Floor--inject-238"><path d="M463.84,461.05c0,.14-95.74.26-213.83.26s-213.85-.12-213.85-.26,95.72-.26,213.85-.26S463.84,460.91,463.84,461.05Z" style="fill:#263238"></path></g><g id="freepik--Earth--inject-238"><path d="M306.78,127.31a4.27,4.27,0,0,1,.4-.31l1.21-.86c.52-.39,1.21-.81,1.95-1.41l2.57-2c.91-.83,2-1.73,3-2.76s2.26-2.17,3.38-3.52a63.41,63.41,0,0,0,7.13-9.51,65.3,65.3,0,0,0,9.67-29.1,48.7,48.7,0,0,0-1.83-18A32.9,32.9,0,0,0,324,43.48a26.08,26.08,0,0,0-8.67-4.63,33,33,0,0,0-9.51-1.29,64.39,64.39,0,0,0-17.95,3.1,127.85,127.85,0,0,0-28.4,12.27,131.07,131.07,0,0,0-17.16,11.93c-1.89,1.59-3.36,2.83-4.32,3.71l-1.11,1c-.25.22-.39.32-.39.32s.12-.13.36-.36l1.07-1c.94-.9,2.39-2.17,4.26-3.79a127.88,127.88,0,0,1,17.1-12.09A126.55,126.55,0,0,1,287.76,40.2a64.88,64.88,0,0,1,18.08-3.15,33.09,33.09,0,0,1,9.66,1.31,26.32,26.32,0,0,1,8.85,4.72A33.31,33.31,0,0,1,334.8,59.6a48.9,48.9,0,0,1,1.81,18.24,65.16,65.16,0,0,1-9.83,29.26,63,63,0,0,1-7.22,9.51c-1.14,1.34-2.38,2.43-3.43,3.5S314,122,313,122.84l-2.61,2c-.75.59-1.45,1-2,1.38l-1.24.81Z" style="fill:#FF725E"></path><path d="M175.9,206a51.94,51.94,0,0,1-7.9,1.81,61.19,61.19,0,0,1-22-.55A52.65,52.65,0,0,1,131.67,202,50.86,50.86,0,0,1,118,191.09a46.1,46.1,0,0,1-9.57-16.76,37,37,0,0,1-1.2-5,41.48,41.48,0,0,1-.64-5.14c-.09-.87,0-1.74-.06-2.62a23.27,23.27,0,0,1,.06-2.64c.07-.88.14-1.76.2-2.64s.27-1.76.41-2.65a50,50,0,0,1,2.85-10.17c.58-1.64,1.37-3.18,2.09-4.74.36-.77.81-1.51,1.21-2.25a25.14,25.14,0,0,1,1.27-2.2,61.36,61.36,0,0,1,12.56-14.7,73.81,73.81,0,0,1,14.66-9.57,90.3,90.3,0,0,1,14.23-5.55,119.55,119.55,0,0,1,21.67-4.18c2.6-.25,4.62-.41,6-.47l1.56-.08h.53l-.53.06-1.55.13c-1.37.09-3.39.28-6,.56a124.21,124.21,0,0,0-21.59,4.33,91.28,91.28,0,0,0-14.13,5.58A73.4,73.4,0,0,0,127.5,120a61.06,61.06,0,0,0-12.44,14.6c-.47.69-.85,1.44-1.26,2.17s-.83,1.47-1.19,2.24c-.71,1.54-1.49,3.07-2.07,4.7a49.86,49.86,0,0,0-2.82,10.07c-.13.87-.27,1.75-.4,2.61s-.13,1.75-.2,2.62a20.68,20.68,0,0,0-.06,2.61c0,.87,0,1.73,0,2.59a40.76,40.76,0,0,0,.64,5.08,36.44,36.44,0,0,0,1.18,4.9,45.58,45.58,0,0,0,9.44,16.59,50.59,50.59,0,0,0,13.51,10.86,52.81,52.81,0,0,0,14.19,5.25,62.29,62.29,0,0,0,21.9.71c2.57-.4,4.55-.81,5.89-1.13l1.51-.37Z" style="fill:#FF725E"></path><path d="M332.54,162.19c-1-2.22-1.21-4.68-1.86-7a4.68,4.68,0,0,0-2.11-3.14,20.94,20.94,0,0,0-2.52-.57c-3-.89-3.78-5-6.58-6.31a9.4,9.4,0,0,0-2.83-.59c-3.75-.44-7.64-1.74-10-4.69a19,19,0,0,0-2.32-2.86c-1-.77-2.46-1.11-3.39-.31.79,1.58,1.57,3.17,2.35,4.74a12.42,12.42,0,0,0,2.63,4,4.24,4.24,0,0,0,4.42.95,2.88,2.88,0,0,1,1.49-.52,1.54,1.54,0,0,1,1,.62c2,2.26,1.38,6-.62,8.34s-4.93,3.5-7.77,4.63a6.08,6.08,0,0,1-3.17.62c-2-.37-3-2.51-3.58-4.43-1.29-4.25-1.91-8.86-4.54-12.45a15.11,15.11,0,0,1-2.39-3.47c-.54-1.43-.42-3.09-1.27-4.35s-2.78-2.07-2.91-3.66a2.9,2.9,0,0,1,1.86-2.57c1-.49,2.16-.63,3.2-1.06.42-.18.88-.48.89-.92,0-.67-.92-.94-1.16-1.56s.46-1.34.76-2c.66-1.55-1-3.12-2.53-3.75s-3.44-1.1-4.17-2.62a8.7,8.7,0,0,1-.51-2.27,5,5,0,0,0-3.71-4.09c-1.95-.32-4.11,1.41-3.79,3.35.19,1.06,1,1.88,1.41,2.87s.32,2.44-.7,2.76c-1.66.5-3.27-2.54-4.66-1.49.57,2,1.12,3.9,1.7,5.86-2.19,1.11-4.81-.9-5.75-3.18s-1-4.87-2.07-7.06-4.11-3.84-6-2.29c-.1,2.83,3.63,4,5.28,6.25,1.19,1.65,1,4.33-.75,5.38s-4.52-.78-3.85-2.7c.24-.66.79-1.22.85-1.93.07-.89-.68-1.6-1.36-2.17-1.06-.91-2.12-1.8-3.19-2.68a6.52,6.52,0,0,0-2.26-1.43c-2.19-.64-4.38,1.14-5.54,3.09s-1.81,4.27-3.41,5.9c-2.3,2.38-6.66,2.52-8.82,0s-1.06-7.15,2.13-8.05c1.2-.34,2.73-.31,3.36-1.37,1.11-1.89-2.06-4.3-1-6.2.84-1.46,3.06-.79,4.68-1.28s2.51-2.11,3.46-3.51,2.41-2.77,4.06-2.41a5.14,5.14,0,0,1,.17-2.89,1.77,1.77,0,0,1,2.43-.88c-.81,1.33.16,3.18,1.57,3.85a8.46,8.46,0,0,0,4.61.33c1.56-.19,3.51-.76,3.64-2.31a5.13,5.13,0,0,1,0-1.52c.69-1.86,4.11.69,5.43-.8.76-.77-.08-2.15-1.14-2.41s-2.15.13-3.22.16-2.4-.52-2.45-1.6,1.15-1.83,1.27-2.87c.21-1.78-2.8-2.24-3.87-.79s-.68,3.42-.36,5.18.49,3.84-.81,5.08c-.56.84-2,.39-2.47-.5a7,7,0,0,1-.46-3,2.57,2.57,0,0,0-1.51-2.43,5.31,5.31,0,0,0-2.11.24c-2.76.33-4.68-3.23-3.81-5.87s3.37-4.34,5.79-5.69c1.78-1,4-1.9,5.74-.9.83.45,1.4,1.25,2.21,1.72,1.39.83,3.12.53,4.72.56a11,11,0,0,1,6.9,2.68c.72.65,1.38,1.73.83,2.5s-2.33,1-2,2a3.43,3.43,0,0,0,4.31-2.77A2.88,2.88,0,0,1,282.06,88a5.14,5.14,0,0,1,7.53.62A6.33,6.33,0,0,0,291,90.38c.64.42,1.75.21,1.83-.54a1.52,1.52,0,0,0-.13-.69c-.38-1.08-.78-2.14-1.16-3.21,1.48-.79,3.22.45,4.22,1.78,3.71,5,6.36,2,11.6,2.79,3.53.54,5.09,2.81,7.08,5.55,6.13,8.44,14.21,15.35,19.78,24.17.59.92,1.13,1.86,1.63,2.81-.09-.24-.17-.48-.27-.72a97.57,97.57,0,0,0-8.08-16.44c-.69-1.11-1.38-2.21-2.1-3.29-.44-.66-.9-1.34-1.36-2-.59-.86-1.21-1.68-1.82-2.51-.5-.67-1-1.32-1.5-2-.34-.44-.71-.89-1.07-1.33s-.8-1-1.24-1.49l-1.33-1.54a6.2,6.2,0,0,0-.43-.48c-.46-.54-.95-1.06-1.44-1.58a.46.46,0,0,0-.15-.16c-.12-.14-.27-.29-.41-.43-.4-.44-.82-.87-1.24-1.3-.68-.7-1.38-1.4-2.09-2.06s-1.19-1.14-1.81-1.7-1.08-1-1.63-1.46l-1.63-1.39c-.67-.57-1.35-1.13-2.05-1.68h0q-2.88-2.31-5.93-4.37l-1.5-1c-.51-.35-1-.67-1.54-1s-1-.65-1.56-1-1-.64-1.57-.94-.84-.49-1.27-.71a4.7,4.7,0,0,0-.65-.37c-.9-.51-1.82-1-2.74-1.46l-1.39-.7c-.59-.3-1.19-.58-1.8-.85a1.13,1.13,0,0,0-.27-.13c-.54-.25-1.08-.51-1.63-.74-.78-.34-1.55-.67-2.33-1s-1.78-.73-2.68-1.06-2-.75-3-1.08-2.05-.68-3.08-1-2.06-.6-3.11-.89q-3.09-.83-6.26-1.47a.53.53,0,0,0-.12,0c-.8-.16-1.61-.32-2.42-.45l-.16,0c-.35-.06-.71-.13-1.08-.17-1.51-.26-3-.46-4.57-.64-.17,0-.36,0-.55-.06-.45-.06-.89-.1-1.35-.14q-1.51-.15-3.06-.24c-1.06-.08-2.14-.13-3.22-.16s-2.25-.06-3.38-.06c-3,0-5.93.12-8.85.39-.69,0-1.38.11-2.06.19s-1.43.16-2.14.26-1.43.19-2.12.3-1.42.22-2.13.35-1.22.2-1.82.33c-1.49.29-3,.6-4.43,1-.68.16-1.36.34-2,.53s-1.37.36-2,.55c-1.13.32-2.22.67-3.32,1h0l-2.67.9-.06,0c-.91.32-1.78.65-2.67,1l-.14,0c-.81.31-1.62.65-2.41,1-1,.41-2,.86-2.95,1.3s-1.63.76-2.43,1.16-1.71.86-2.55,1.3l-.09,0c-.81.43-1.62.87-2.41,1.33s-1.64.93-2.45,1.44h0c-.76.46-1.51.92-2.25,1.4-.29.17-.56.36-.85.55-.79.51-1.55,1-2.33,1.57-1,.65-1.87,1.34-2.79,2s-1.6,1.22-2.38,1.84a100.15,100.15,0,0,0-12.46,11.81c-1.35,1.49-2.62,3-3.86,4.57-1,1.33-2.06,2.68-3,4.08-.88,1.21-1.72,2.45-2.53,3.7.81-1.25,1.65-2.49,2.53-3.7A6.31,6.31,0,0,1,161,100a11.85,11.85,0,0,0,4.21-.69,24.65,24.65,0,0,0,3.11-2.41c2.76-2,7.28-2.33,8-5.63.25-1.11-.05-2.31.36-3.37.78-2,3.43-2.27,5.55-2.24.91,0,2,.13,2.38.92a2.28,2.28,0,0,1-.09,1.84,17.26,17.26,0,0,1-7.28,8.94c-2.76,1.68-6.36,3-7.12,6.12.38,1.07,2.31,1,2.47,2.1.11.89-1,1.35-1.44,2.14-.6,1.16.77,2.57,2.09,2.5a5.77,5.77,0,0,0,3.38-1.9c2.89-2.68,5.91-5.56,7-9.37.45-1.57.6-3.41,1.87-4.46A3.1,3.1,0,0,1,190.15,96c1.26-.7,3.21-1.22,3.86.08a6.75,6.75,0,0,1,.27,1.49c.41,2,3.18,3,3.47,5,.33,2.37-2.7,3.59-5.06,4-2.14.34-4.28.67-6.42,1a5.85,5.85,0,0,0-2.67.86,2.08,2.08,0,0,0-.79,2.49,6.29,6.29,0,0,0,1.11,1.14c1.78,1.77.32,5.44-2.19,5.52-.85,0-1.7-.29-2.55-.32-2.54-.11-4.55,2.12-5.76,4.36s-2.11,4.79-4.14,6.31c-3.26,2.46-8.89,1.89-10.48,5.66-.63,1.53-.3,3.24-.05,4.87s.37,3.43-.58,4.78-3.38,1.61-4.08.12a3.69,3.69,0,0,1-.1-2.11q.57-3.51,1.11-7c.27-1.74.51-3.69-.52-5.12-1.44-2-4.68-1.81-6.55-.21s-2.63,4.11-3.15,6.51a29,29,0,0,1-1.81,6.31h0c-.34,2-.61,4-.81,6s-.35,4.1-.43,6.2a10.71,10.71,0,0,0,.81-.76c1-1,3-5.4,4.82-3.26a1.62,1.62,0,0,1,0,2c-.55.71-1.66.87-2.09,1.65s.2,2.06,1.06,2.66A9.4,9.4,0,0,1,149,158c1.15,1.67,0,4.19,1.17,5.89,1,1.46,3,1.55,4.79,1.74l.6.1c.49-3.49,2.13-6.33,6.89-7.41,6.56-1.49,15.19,3.95,18.88,8.9,4.13,5.53,6.08,13.37,12.39,16.14,4.52,2,10.94,1.27,13.15,5.69,2,4-1.46,8.43-2,12.82-.33,2.9.62,5.79.84,8.69s-.65,6.31-3.29,7.53c-1.48.67-3.33.59-4.52,1.7-2.11,2-.38,6.12-2.49,8.12a10.88,10.88,0,0,1-2.68,1.41c-4.75,2.4-4.62,9.37-2.41,14.21l.23.51A100.26,100.26,0,0,0,289,246.55h0a100.81,100.81,0,0,0,8.87-5.35,99,99,0,0,0,20.06-17.84c1.68-1.93,3.26-4,4.79-6,.77-1.06,1.54-2.12,2.25-3.22a95.15,95.15,0,0,0,6-10,96.51,96.51,0,0,0,6.48-15.63,97.66,97.66,0,0,0,3.83-17c.3-2.25.54-4.53.69-6.83a5.77,5.77,0,0,1-4,1.79C335.49,166.43,333.5,164.41,332.54,162.19Z" style="fill:#FF725E"></path><g style="opacity:0.8"><path d="M332.54,162.19c-1-2.22-1.21-4.68-1.86-7a4.68,4.68,0,0,0-2.11-3.14,20.94,20.94,0,0,0-2.52-.57c-3-.89-3.78-5-6.58-6.31a9.4,9.4,0,0,0-2.83-.59c-3.75-.44-7.64-1.74-10-4.69a19,19,0,0,0-2.32-2.86c-1-.77-2.46-1.11-3.39-.31.79,1.58,1.57,3.17,2.35,4.74a12.42,12.42,0,0,0,2.63,4,4.24,4.24,0,0,0,4.42.95,2.88,2.88,0,0,1,1.49-.52,1.54,1.54,0,0,1,1,.62c2,2.26,1.38,6-.62,8.34s-4.93,3.5-7.77,4.63a6.08,6.08,0,0,1-3.17.62c-2-.37-3-2.51-3.58-4.43-1.29-4.25-1.91-8.86-4.54-12.45a15.11,15.11,0,0,1-2.39-3.47c-.54-1.43-.42-3.09-1.27-4.35s-2.78-2.07-2.91-3.66a2.9,2.9,0,0,1,1.86-2.57c1-.49,2.16-.63,3.2-1.06.42-.18.88-.48.89-.92,0-.67-.92-.94-1.16-1.56s.46-1.34.76-2c.66-1.55-1-3.12-2.53-3.75s-3.44-1.1-4.17-2.62a8.7,8.7,0,0,1-.51-2.27,5,5,0,0,0-3.71-4.09c-1.95-.32-4.11,1.41-3.79,3.35.19,1.06,1,1.88,1.41,2.87s.32,2.44-.7,2.76c-1.66.5-3.27-2.54-4.66-1.49.57,2,1.12,3.9,1.7,5.86-2.19,1.11-4.81-.9-5.75-3.18s-1-4.87-2.07-7.06-4.11-3.84-6-2.29c-.1,2.83,3.63,4,5.28,6.25,1.19,1.65,1,4.33-.75,5.38s-4.52-.78-3.85-2.7c.24-.66.79-1.22.85-1.93.07-.89-.68-1.6-1.36-2.17-1.06-.91-2.12-1.8-3.19-2.68a6.52,6.52,0,0,0-2.26-1.43c-2.19-.64-4.38,1.14-5.54,3.09s-1.81,4.27-3.41,5.9c-2.3,2.38-6.66,2.52-8.82,0s-1.06-7.15,2.13-8.05c1.2-.34,2.73-.31,3.36-1.37,1.11-1.89-2.06-4.3-1-6.2.84-1.46,3.06-.79,4.68-1.28s2.51-2.11,3.46-3.51,2.41-2.77,4.06-2.41a5.14,5.14,0,0,1,.17-2.89,1.77,1.77,0,0,1,2.43-.88c-.81,1.33.16,3.18,1.57,3.85a8.46,8.46,0,0,0,4.61.33c1.56-.19,3.51-.76,3.64-2.31a5.13,5.13,0,0,1,0-1.52c.69-1.86,4.11.69,5.43-.8.76-.77-.08-2.15-1.14-2.41s-2.15.13-3.22.16-2.4-.52-2.45-1.6,1.15-1.83,1.27-2.87c.21-1.78-2.8-2.24-3.87-.79s-.68,3.42-.36,5.18.49,3.84-.81,5.08c-.56.84-2,.39-2.47-.5a7,7,0,0,1-.46-3,2.57,2.57,0,0,0-1.51-2.43,5.31,5.31,0,0,0-2.11.24c-2.76.33-4.68-3.23-3.81-5.87s3.37-4.34,5.79-5.69c1.78-1,4-1.9,5.74-.9.83.45,1.4,1.25,2.21,1.72,1.39.83,3.12.53,4.72.56a11,11,0,0,1,6.9,2.68c.72.65,1.38,1.73.83,2.5s-2.33,1-2,2a3.43,3.43,0,0,0,4.31-2.77A2.88,2.88,0,0,1,282.06,88a5.14,5.14,0,0,1,7.53.62A6.33,6.33,0,0,0,291,90.38c.64.42,1.75.21,1.83-.54a1.52,1.52,0,0,0-.13-.69c-.38-1.08-.78-2.14-1.16-3.21,1.48-.79,3.22.45,4.22,1.78,3.71,5,6.36,2,11.6,2.79,3.53.54,5.09,2.81,7.08,5.55,6.13,8.44,14.21,15.35,19.78,24.17.59.92,1.13,1.86,1.63,2.81-.09-.24-.17-.48-.27-.72a97.57,97.57,0,0,0-8.08-16.44c-.69-1.11-1.38-2.21-2.1-3.29-.44-.66-.9-1.34-1.36-2-.59-.86-1.21-1.68-1.82-2.51-.5-.67-1-1.32-1.5-2-.34-.44-.71-.89-1.07-1.33s-.8-1-1.24-1.49l-1.33-1.54a6.2,6.2,0,0,0-.43-.48c-.46-.54-.95-1.06-1.44-1.58a.46.46,0,0,0-.15-.16c-.12-.14-.27-.29-.41-.43-.4-.44-.82-.87-1.24-1.3-.68-.7-1.38-1.4-2.09-2.06s-1.19-1.14-1.81-1.7-1.08-1-1.63-1.46l-1.63-1.39c-.67-.57-1.35-1.13-2.05-1.68h0q-2.88-2.31-5.93-4.37l-1.5-1c-.51-.35-1-.67-1.54-1s-1-.65-1.56-1-1-.64-1.57-.94-.84-.49-1.27-.71a4.7,4.7,0,0,0-.65-.37c-.9-.51-1.82-1-2.74-1.46l-1.39-.7c-.59-.3-1.19-.58-1.8-.85a1.13,1.13,0,0,0-.27-.13c-.54-.25-1.08-.51-1.63-.74-.78-.34-1.55-.67-2.33-1s-1.78-.73-2.68-1.06-2-.75-3-1.08-2.05-.68-3.08-1-2.06-.6-3.11-.89q-3.09-.83-6.26-1.47a.53.53,0,0,0-.12,0c-.8-.16-1.61-.32-2.42-.45l-.16,0c-.35-.06-.71-.13-1.08-.17-1.51-.26-3-.46-4.57-.64-.17,0-.36,0-.55-.06-.45-.06-.89-.1-1.35-.14q-1.51-.15-3.06-.24c-1.06-.08-2.14-.13-3.22-.16s-2.25-.06-3.38-.06c-3,0-5.93.12-8.85.39-.69,0-1.38.11-2.06.19s-1.43.16-2.14.26-1.43.19-2.12.3-1.42.22-2.13.35-1.22.2-1.82.33c-1.49.29-3,.6-4.43,1-.68.16-1.36.34-2,.53s-1.37.36-2,.55c-1.13.32-2.22.67-3.32,1h0l-2.67.9-.06,0c-.91.32-1.78.65-2.67,1l-.14,0c-.81.31-1.62.65-2.41,1-1,.41-2,.86-2.95,1.3s-1.63.76-2.43,1.16-1.71.86-2.55,1.3l-.09,0c-.81.43-1.62.87-2.41,1.33s-1.64.93-2.45,1.44h0c-.76.46-1.51.92-2.25,1.4-.29.17-.56.36-.85.55-.79.51-1.55,1-2.33,1.57-1,.65-1.87,1.34-2.79,2s-1.6,1.22-2.38,1.84a100.15,100.15,0,0,0-12.46,11.81c-1.35,1.49-2.62,3-3.86,4.57-1,1.33-2.06,2.68-3,4.08-.88,1.21-1.72,2.45-2.53,3.7.81-1.25,1.65-2.49,2.53-3.7A6.31,6.31,0,0,1,161,100a11.85,11.85,0,0,0,4.21-.69,24.65,24.65,0,0,0,3.11-2.41c2.76-2,7.28-2.33,8-5.63.25-1.11-.05-2.31.36-3.37.78-2,3.43-2.27,5.55-2.24.91,0,2,.13,2.38.92a2.28,2.28,0,0,1-.09,1.84,17.26,17.26,0,0,1-7.28,8.94c-2.76,1.68-6.36,3-7.12,6.12.38,1.07,2.31,1,2.47,2.1.11.89-1,1.35-1.44,2.14-.6,1.16.77,2.57,2.09,2.5a5.77,5.77,0,0,0,3.38-1.9c2.89-2.68,5.91-5.56,7-9.37.45-1.57.6-3.41,1.87-4.46A3.1,3.1,0,0,1,190.15,96c1.26-.7,3.21-1.22,3.86.08a6.75,6.75,0,0,1,.27,1.49c.41,2,3.18,3,3.47,5,.33,2.37-2.7,3.59-5.06,4-2.14.34-4.28.67-6.42,1a5.85,5.85,0,0,0-2.67.86,2.08,2.08,0,0,0-.79,2.49,6.29,6.29,0,0,0,1.11,1.14c1.78,1.77.32,5.44-2.19,5.52-.85,0-1.7-.29-2.55-.32-2.54-.11-4.55,2.12-5.76,4.36s-2.11,4.79-4.14,6.31c-3.26,2.46-8.89,1.89-10.48,5.66-.63,1.53-.3,3.24-.05,4.87s.37,3.43-.58,4.78-3.38,1.61-4.08.12a3.69,3.69,0,0,1-.1-2.11q.57-3.51,1.11-7c.27-1.74.51-3.69-.52-5.12-1.44-2-4.68-1.81-6.55-.21s-2.63,4.11-3.15,6.51a29,29,0,0,1-1.81,6.31h0c-.34,2-.61,4-.81,6s-.35,4.1-.43,6.2a10.71,10.71,0,0,0,.81-.76c1-1,3-5.4,4.82-3.26a1.62,1.62,0,0,1,0,2c-.55.71-1.66.87-2.09,1.65s.2,2.06,1.06,2.66A9.4,9.4,0,0,1,149,158c1.15,1.67,0,4.19,1.17,5.89,1,1.46,3,1.55,4.79,1.74l.6.1c.49-3.49,2.13-6.33,6.89-7.41,6.56-1.49,15.19,3.95,18.88,8.9,4.13,5.53,6.08,13.37,12.39,16.14,4.52,2,10.94,1.27,13.15,5.69,2,4-1.46,8.43-2,12.82-.33,2.9.62,5.79.84,8.69s-.65,6.31-3.29,7.53c-1.48.67-3.33.59-4.52,1.7-2.11,2-.38,6.12-2.49,8.12a10.88,10.88,0,0,1-2.68,1.41c-4.75,2.4-4.62,9.37-2.41,14.21l.23.51A100.26,100.26,0,0,0,289,246.55h0a100.81,100.81,0,0,0,8.87-5.35,99,99,0,0,0,20.06-17.84c1.68-1.93,3.26-4,4.79-6,.77-1.06,1.54-2.12,2.25-3.22a95.15,95.15,0,0,0,6-10,96.51,96.51,0,0,0,6.48-15.63,97.66,97.66,0,0,0,3.83-17c.3-2.25.54-4.53.69-6.83a5.77,5.77,0,0,1-4,1.79C335.49,166.43,333.5,164.41,332.54,162.19Z" style="fill:#fff"></path></g><path d="M218,84.08c-2,1.19-3,3.43-4.57,5.16s-4.28,3-6.09,1.53a4.2,4.2,0,0,1-1.36-3,7.62,7.62,0,0,1,1.08-4.59c.87-1.41,2.18-2.52,2.91-4s.59-3.64-.91-4.34c-.81-.37-1.83-.22-2.55-.75-1.29-1-.37-3.21,1.13-3.77s3.17-.13,4.77,0c5.81.37,10.08-3.43,14.45-6.59,3.4-2.46,10.63-5.36,14.56-2.85,1.57,1,2.18,3.58.7,4.71-.66.5-1.57.62-2.18,1.18s-.85,1.77-1.27,2.68c-1.1,2.35-4.27,3.2-5.29,5.59-.62,1.44-.34,3.22-1.29,4.47a5.52,5.52,0,0,1-3.25,1.62L221.26,83A11.26,11.26,0,0,0,218,84.08Z" style="fill:#263238"></path><path d="M285.72,207.43c-2.51,3.79-3,8.52-3.66,13s-1.9,9.27-5.35,12.22-9.79,2.79-11.69-1.34c-1-2.24-.5-4.89-1.06-7.29-.74-3.13-3.23-5.54-4.41-8.53-1-2.55-1-5.37-1.09-8.11-.45-15-4.1-30.6-14.3-41.58a9.92,9.92,0,0,0-4.45-3.14,5.7,5.7,0,0,0-5.85,2c-.82,1.09-1.24,2.47-2.25,3.38-2.17,2-6,.57-7.43-2s-1.26-5.71-1-8.65l.9-10.94c.16-1.91.37-3.95,1.63-5.4,1.77-2.06,5-2.16,7.14-3.79,2.86-2.14,3.24-6.21,5-9.29s7.44-4.39,8.27-.92c6-12.75,19.13,6.2,27,4.77,2.28-.41,4.5-1.5,6.79-1.18,4,.56,6.13,5,7.51,8.86q3.42,9.57,6.85,19.14c.86,2.43,2,5.13,4.4,6.06,1.84.72,4,.17,5.84.85,4.92,1.79,3.32,9.52-.64,12.95s-9.5,5.58-11.38,10.46c-1.42,3.67-.29,8-1.81,11.62C289.58,203.21,287.28,205.08,285.72,207.43Z" style="fill:#263238"></path><path d="M304.38,211.59c-1.61.23-3.52-.57-4.75.51a5.33,5.33,0,0,0-1.16,2.56,5.41,5.41,0,0,1-2.29,3.12,3.43,3.43,0,0,1-3.73-.06,2.52,2.52,0,0,1-.51-3.5,15.32,15.32,0,0,1,1.39-1.14c2.14-2,.68-5.78,2.31-8.19,1-1.42,2.47-2.87,3.53-4.3.81-1.11,1.11-2,2.6-2.28C308.3,197,311.25,210.63,304.38,211.59Z" style="fill:#263238"></path><path d="M154.82,184.4c-.32-2.87.63-5.75.68-8.65,0-2-.11-4.1-.14-6.12a28.1,28.1,0,0,1-5.09-.71,1.53,1.53,0,0,1-.94-.48,1.82,1.82,0,0,1-.2-1.06c-.13-2.25-2.3-3.74-4.25-4.87a16.48,16.48,0,0,0-3.1-1.52c0,.24,0,.46,0,.7a100.18,100.18,0,0,0,6.37,31.79,95.65,95.65,0,0,0,6.13,13.13c1,1.83,2.06,3.62,3.18,5.38,1.4,2.17,2.86,4.3,4.43,6.34s3,3.89,4.64,5.73a99.53,99.53,0,0,0,7.09,7.29q3.31,3.1,6.9,5.87c-5.47-14.68-10.62-29.67-20-42.17C158.1,191.79,155.28,188.46,154.82,184.4Z" style="fill:#FF725E"></path><path d="M141.77,156.25c0,.6,0,1.2,0,1.8s0,1,0,1.47c0-.49,0-1,0-1.47S141.76,156.85,141.77,156.25Z" style="fill:#263238"></path><g style="opacity:0.6000000000000001"><path d="M186.15,241.28c.84.57,1.7,1.13,2.56,1.67.6.38,1.21.74,1.82,1.11-.61-.37-1.22-.73-1.82-1.11C187.85,242.41,187,241.85,186.15,241.28Z" style="fill:#263238"></path></g><path d="M303.86,178.53c4-3.43,5.56-11.16.64-12.95-1.86-.68-4-.13-5.84-.85-2.41-.93-3.54-3.63-4.4-6.06q-3.43-9.57-6.85-19.14c-1.38-3.84-3.47-8.3-7.51-8.86-2.29-.32-4.51.77-6.79,1.18-7.83,1.43-21-17.52-27-4.77-.83-3.47-6.47-2.16-8.27.92s-2.18,7.15-5,9.29c-2.17,1.63-5.37,1.73-7.14,3.79-1.26,1.45-1.47,3.49-1.63,5.4l-.9,10.94c-.25,2.94-.45,6.08,1,8.65s5.26,4,7.43,2c1-.91,1.43-2.29,2.25-3.38a5.7,5.7,0,0,1,5.85-2,9.92,9.92,0,0,1,4.45,3.14c10.2,11,13.85,26.61,14.3,41.58.08,2.74.08,5.56,1.09,8.11,1.18,3,3.67,5.4,4.41,8.53.56,2.4,0,5.05,1.06,7.29,1.9,4.13,8.24,4.3,11.69,1.34s4.65-7.73,5.35-12.22,1.15-9.22,3.66-13c1.56-2.35,3.86-4.22,4.95-6.82,1.52-3.64.39-8,1.81-11.62C294.36,184.11,299.91,182,303.86,178.53Z" style="fill:#FF725E"></path><g style="opacity:0.6000000000000001"><path d="M141.83,153.88h0a5.25,5.25,0,0,0,0,.56c0,.59,0,1.2,0,1.81,0-.61,0-1.22,0-1.81A5.25,5.25,0,0,1,141.83,153.88Z" style="fill:#263238"></path></g><g style="opacity:0.6000000000000001"><path d="M141.76,159.52c0,.49,0,1,0,1.47h0C141.77,160.5,141.77,160,141.76,159.52Z" style="fill:#263238"></path></g><path d="M155.53,165.75l-.6-.1c-1.76-.19-3.82-.28-4.79-1.74-1.13-1.7,0-4.22-1.17-5.89a9.4,9.4,0,0,0-2.51-1.87c-.86-.6-1.58-1.74-1.06-2.66s1.54-.94,2.09-1.65a1.62,1.62,0,0,0,0-2c-1.81-2.14-3.82,2.23-4.82,3.26a10.71,10.71,0,0,1-.81.76h0a5.25,5.25,0,0,0,0,.56c0,.59,0,1.2,0,1.81s0,1.2,0,1.8,0,1,0,1.47,0,1,0,1.47a16.48,16.48,0,0,1,3.1,1.52c2,1.13,4.12,2.62,4.25,4.87a1.82,1.82,0,0,0,.2,1.06,1.53,1.53,0,0,0,.94.48,28.1,28.1,0,0,0,5.09.71" style="fill:#FF725E"></path><path d="M155.36,169.63c0,2,.17,4.12.14,6.12-.05,2.9-1,5.78-.68,8.65.46,4.06,3.28,7.39,5.74,10.65,9.36,12.5,14.51,27.49,20,42.17h0c1,.81,2,1.57,3.09,2.32.83.59,1.66,1.18,2.5,1.74s1.7,1.13,2.56,1.67c.6.38,1.21.74,1.82,1.11-.08-.18-.16-.34-.23-.51-2.21-4.84-2.34-11.81,2.41-14.21a10.88,10.88,0,0,0,2.68-1.41c2.11-2,.38-6.12,2.49-8.12,1.19-1.11,3-1,4.52-1.7,2.64-1.22,3.5-4.61,3.29-7.53s-1.17-5.79-.84-8.69c.53-4.39,4-8.85,2-12.82-2.21-4.42-8.63-3.71-13.15-5.69-6.31-2.77-8.26-10.61-12.39-16.14-3.69-5-12.32-10.39-18.88-8.9-4.76,1.08-6.4,3.92-6.89,7.41" style="fill:#FF725E"></path><path d="M148,128.87c1.87-1.6,5.11-1.79,6.55.21,1,1.43.79,3.38.52,5.12q-.54,3.53-1.11,7a3.69,3.69,0,0,0,.1,2.11c.7,1.49,3.14,1.21,4.08-.12s.84-3.16.58-4.78-.58-3.34.05-4.87c1.59-3.77,7.22-3.2,10.48-5.66,2-1.52,2.94-4.07,4.14-6.31s3.22-4.47,5.76-4.36c.85,0,1.7.35,2.55.32,2.51-.08,4-3.75,2.19-5.52a6.29,6.29,0,0,1-1.11-1.14,2.08,2.08,0,0,1,.79-2.49,5.85,5.85,0,0,1,2.67-.86c2.14-.35,4.28-.68,6.42-1,2.36-.36,5.39-1.58,5.06-4-.29-2-3.06-3-3.47-5a6.75,6.75,0,0,0-.27-1.49c-.65-1.3-2.6-.78-3.86-.08a3.1,3.1,0,0,0-4.71-1.51c-1.27,1-1.42,2.89-1.87,4.46-1,3.81-4.07,6.69-7,9.37a5.77,5.77,0,0,1-3.38,1.9c-1.32.07-2.69-1.34-2.09-2.5.41-.79,1.55-1.25,1.44-2.14-.16-1.11-2.09-1-2.47-2.1.76-3.14,4.36-4.44,7.12-6.12a17.26,17.26,0,0,0,7.28-8.94,2.28,2.28,0,0,0,.09-1.84c-.41-.79-1.47-.92-2.38-.92-2.12,0-4.77.25-5.55,2.24-.41,1.06-.11,2.26-.36,3.37-.75,3.3-5.27,3.67-8,5.63a24.65,24.65,0,0,1-3.11,2.41A11.85,11.85,0,0,1,161,100a6.31,6.31,0,0,0-.76.08c-.88,1.21-1.72,2.45-2.53,3.7s-1.59,2.54-2.34,3.83A98.59,98.59,0,0,0,146.64,127q-1.17,3.55-2.06,7.23t-1.51,7.44a29,29,0,0,0,1.81-6.31C145.4,133,146.18,130.48,148,128.87Z" style="fill:#FF725E"></path><path d="M232.09,79.53c.95-1.25.67-3,1.29-4.47,1-2.39,4.19-3.24,5.29-5.59.42-.91.53-2,1.27-2.68s1.52-.68,2.18-1.18c1.48-1.13.87-3.71-.7-4.71-3.93-2.51-11.16.39-14.56,2.85-4.37,3.16-8.64,7-14.45,6.59-1.6-.1-3.27-.54-4.77,0s-2.42,2.81-1.13,3.77c.72.53,1.74.38,2.55.75,1.5.7,1.64,2.86.91,4.34s-2,2.59-2.91,4A7.62,7.62,0,0,0,206,87.82a4.2,4.2,0,0,0,1.36,3c1.81,1.44,4.56.21,6.09-1.53s2.59-4,4.57-5.16A11.26,11.26,0,0,1,221.26,83l7.58-1.8A5.52,5.52,0,0,0,232.09,79.53Z" style="fill:#FF725E"></path><g style="opacity:0.6000000000000001"><path d="M335.83,123.05q.72,1.9,1.35,3.84-.63-1.94-1.35-3.84s0,0,0,0h0Z" style="fill:#263238"></path></g><path d="M342.1,156.67c0-1.44-.05-2.87-.13-4.29s-.19-2.84-.33-4.25c-.11-1.15-.24-2.27-.4-3.4s-.33-2.37-.53-3.55a94.94,94.94,0,0,0-2.34-10.4c-.37-1.31-.77-2.61-1.19-3.89s-.87-2.57-1.35-3.84h0c-.5-1-1-1.89-1.63-2.81-5.57-8.82-13.65-15.73-19.78-24.17-2-2.74-3.55-5-7.08-5.55-5.24-.81-7.89,2.17-11.6-2.79-1-1.33-2.74-2.57-4.22-1.78.38,1.07.78,2.13,1.16,3.21a1.52,1.52,0,0,1,.13.69c-.08.75-1.19,1-1.83.54a6.33,6.33,0,0,1-1.39-1.79,5.14,5.14,0,0,0-7.53-.62,2.88,2.88,0,0,0-1.67-2.34,3.43,3.43,0,0,1-4.31,2.77c-.3-1,1.42-1.14,2-2s-.11-1.85-.83-2.5a11,11,0,0,0-6.9-2.68c-1.6,0-3.33.27-4.72-.56-.81-.47-1.38-1.27-2.21-1.72-1.76-1-4-.08-5.74.9-2.42,1.35-4.93,3-5.79,5.69s1.05,6.2,3.81,5.87a5.31,5.31,0,0,1,2.11-.24,2.57,2.57,0,0,1,1.51,2.43,7,7,0,0,0,.46,3c.47.89,1.91,1.34,2.47.5,1.3-1.24,1.14-3.32.81-5.08s-.68-3.74.36-5.18,4.08-1,3.87.79c-.12,1-1.31,1.81-1.27,2.87s1.37,1.65,2.45,1.6,2.17-.43,3.22-.16,1.9,1.64,1.14,2.41c-1.32,1.49-4.74-1.06-5.43.8a5.13,5.13,0,0,0,0,1.52c-.13,1.55-2.08,2.12-3.64,2.31a8.46,8.46,0,0,1-4.61-.33c-1.41-.67-2.38-2.52-1.57-3.85a1.77,1.77,0,0,0-2.43.88,5.14,5.14,0,0,0-.17,2.89c-1.65-.36-3.13,1-4.06,2.41s-1.86,3-3.46,3.51-3.84-.18-4.68,1.28c-1.09,1.9,2.08,4.31,1,6.2-.63,1.06-2.16,1-3.36,1.37-3.19.9-4.3,5.56-2.13,8.05s6.52,2.35,8.82,0c1.6-1.63,2.25-3.93,3.41-5.9s3.35-3.73,5.54-3.09a6.52,6.52,0,0,1,2.26,1.43c1.07.88,2.13,1.77,3.19,2.68.68.57,1.43,1.28,1.36,2.17-.06.71-.61,1.27-.85,1.93-.67,1.92,2.11,3.75,3.85,2.7s1.94-3.73.75-5.38c-1.65-2.28-5.38-3.42-5.28-6.25,1.9-1.55,4.9.08,6,2.29s1.14,4.79,2.07,7.06,3.56,4.29,5.75,3.18c-.58-2-1.13-3.91-1.7-5.86,1.39-1,3,2,4.66,1.49,1-.32,1.14-1.78.7-2.76s-1.22-1.81-1.41-2.87c-.32-1.94,1.84-3.67,3.79-3.35a5,5,0,0,1,3.71,4.09,8.7,8.7,0,0,0,.51,2.27c.73,1.52,2.61,2,4.17,2.62s3.19,2.2,2.53,3.75c-.3.69-1,1.34-.76,2s1.16.89,1.16,1.56c0,.44-.47.74-.89.92-1,.43-2.19.57-3.2,1.06a2.9,2.9,0,0,0-1.86,2.57c.13,1.59,2,2.35,2.91,3.66s.73,2.92,1.27,4.35a15.11,15.11,0,0,0,2.39,3.47c2.63,3.59,3.25,8.2,4.54,12.45.57,1.92,1.61,4.06,3.58,4.43a6.08,6.08,0,0,0,3.17-.62c2.84-1.13,5.79-2.33,7.77-4.63s2.67-6.08.62-8.34a1.54,1.54,0,0,0-1-.62,2.88,2.88,0,0,0-1.49.52,4.24,4.24,0,0,1-4.42-.95,12.42,12.42,0,0,1-2.63-4c-.78-1.57-1.56-3.16-2.35-4.74.93-.8,2.42-.46,3.39.31a19,19,0,0,1,2.32,2.86c2.36,3,6.25,4.25,10,4.69a9.4,9.4,0,0,1,2.83.59c2.8,1.29,3.61,5.42,6.58,6.31a20.94,20.94,0,0,1,2.52.57,4.68,4.68,0,0,1,2.11,3.14c.65,2.33.87,4.79,1.86,7s2.95,4.24,5.36,4.27a5.77,5.77,0,0,0,4-1.79v0c.13-2.19.21-4.38.21-6.6C342.13,157.59,342.13,157.13,342.1,156.67Z" style="fill:#FF725E"></path><path d="M301.77,198.31c-1.49.29-1.79,1.17-2.6,2.28-1.06,1.43-2.57,2.88-3.53,4.3-1.63,2.41-.17,6.16-2.31,8.19a15.32,15.32,0,0,0-1.39,1.14,2.52,2.52,0,0,0,.51,3.5,3.43,3.43,0,0,0,3.73.06,5.41,5.41,0,0,0,2.29-3.12,5.33,5.33,0,0,1,1.16-2.56c1.23-1.08,3.14-.28,4.75-.51C311.25,210.63,308.3,197,301.77,198.31Z" style="fill:#FF725E"></path><g style="opacity:0.6000000000000001"><path d="M303.86,178.53c4-3.43,5.56-11.16.64-12.95-1.86-.68-4-.13-5.84-.85-2.41-.93-3.54-3.63-4.4-6.06q-3.43-9.57-6.85-19.14c-1.38-3.84-3.47-8.3-7.51-8.86-2.29-.32-4.51.77-6.79,1.18-7.83,1.43-21-17.52-27-4.77-.83-3.47-6.47-2.16-8.27.92s-2.18,7.15-5,9.29c-2.17,1.63-5.37,1.73-7.14,3.79-1.26,1.45-1.47,3.49-1.63,5.4l-.9,10.94c-.25,2.94-.45,6.08,1,8.65s5.26,4,7.43,2c1-.91,1.43-2.29,2.25-3.38a5.7,5.7,0,0,1,5.85-2,9.92,9.92,0,0,1,4.45,3.14c10.2,11,13.85,26.61,14.3,41.58.08,2.74.08,5.56,1.09,8.11,1.18,3,3.67,5.4,4.41,8.53.56,2.4,0,5.05,1.06,7.29,1.9,4.13,8.24,4.3,11.69,1.34s4.65-7.73,5.35-12.22,1.15-9.22,3.66-13c1.56-2.35,3.86-4.22,4.95-6.82,1.52-3.64.39-8,1.81-11.62C294.36,184.11,299.91,182,303.86,178.53Z" style="fill:#fff"></path></g><g style="opacity:0.6000000000000001"><path d="M180.54,237.22h0c1,.81,2,1.57,3.09,2.32.83.59,1.66,1.18,2.5,1.74s1.7,1.13,2.56,1.67c.6.38,1.21.74,1.82,1.11-.08-.18-.16-.34-.23-.51-2.21-4.84-2.34-11.81,2.41-14.21a10.88,10.88,0,0,0,2.68-1.41c2.11-2,.38-6.12,2.49-8.12,1.19-1.11,3-1,4.52-1.7,2.64-1.22,3.5-4.61,3.29-7.53s-1.17-5.79-.84-8.69c.53-4.39,4-8.85,2-12.82-2.21-4.42-8.63-3.71-13.15-5.69-6.31-2.77-8.26-10.61-12.39-16.14-3.69-5-12.32-10.39-18.88-8.9-4.76,1.08-6.4,3.92-6.89,7.41l-.6-.1c-1.76-.19-3.82-.29-4.79-1.74-1.13-1.7,0-4.22-1.17-5.89a9.4,9.4,0,0,0-2.51-1.87c-.86-.6-1.58-1.74-1.06-2.66s1.54-.94,2.09-1.65a1.62,1.62,0,0,0,0-2c-1.81-2.14-3.82,2.23-4.82,3.26a10.71,10.71,0,0,1-.81.76h0a5.25,5.25,0,0,0,0,.56c0,.59,0,1.2,0,1.81s0,1.2,0,1.8,0,1,0,1.47,0,1,0,1.47c0,.24,0,.46,0,.7a100.18,100.18,0,0,0,6.37,31.79,95.65,95.65,0,0,0,6.13,13.13c1,1.83,2.06,3.62,3.18,5.38,1.4,2.17,2.86,4.3,4.43,6.34s3,3.89,4.64,5.73a99.53,99.53,0,0,0,7.09,7.29q3.31,3.1,6.9,5.87" style="fill:#fff"></path></g><g style="opacity:0.6000000000000001"><path d="M148,128.87c1.87-1.6,5.11-1.79,6.55.21,1,1.43.79,3.38.52,5.12q-.54,3.53-1.11,7a3.69,3.69,0,0,0,.1,2.11c.7,1.49,3.14,1.21,4.08-.12s.84-3.16.58-4.78-.58-3.34.05-4.87c1.59-3.77,7.22-3.2,10.48-5.66,2-1.52,2.94-4.07,4.14-6.31s3.22-4.47,5.76-4.36c.85,0,1.7.35,2.55.32,2.51-.08,4-3.75,2.19-5.52a6.29,6.29,0,0,1-1.11-1.14,2.08,2.08,0,0,1,.79-2.49,5.85,5.85,0,0,1,2.67-.86c2.14-.35,4.28-.68,6.42-1,2.36-.36,5.39-1.58,5.06-4-.29-2-3.06-3-3.47-5a6.75,6.75,0,0,0-.27-1.49c-.65-1.3-2.6-.78-3.86-.08a3.1,3.1,0,0,0-4.71-1.51c-1.27,1-1.42,2.89-1.87,4.46-1,3.81-4.07,6.69-7,9.37a5.77,5.77,0,0,1-3.38,1.9c-1.32.07-2.69-1.34-2.09-2.5.41-.79,1.55-1.25,1.44-2.14-.16-1.11-2.09-1-2.47-2.1.76-3.14,4.36-4.44,7.12-6.12a17.26,17.26,0,0,0,7.28-8.94,2.28,2.28,0,0,0,.09-1.84c-.41-.79-1.47-.92-2.38-.92-2.12,0-4.77.25-5.55,2.24-.41,1.06-.11,2.26-.36,3.37-.75,3.3-5.27,3.67-8,5.63a24.65,24.65,0,0,1-3.11,2.41A11.85,11.85,0,0,1,161,100a6.31,6.31,0,0,0-.76.08c-.88,1.21-1.72,2.45-2.53,3.7s-1.59,2.54-2.34,3.83A98.59,98.59,0,0,0,146.64,127q-1.17,3.55-2.06,7.23t-1.51,7.44a29,29,0,0,0,1.81-6.31C145.4,133,146.18,130.48,148,128.87Z" style="fill:#fff"></path></g><g style="opacity:0.6000000000000001"><path d="M232.09,79.53c.95-1.25.67-3,1.29-4.47,1-2.39,4.19-3.24,5.29-5.59.42-.91.53-2,1.27-2.68s1.52-.68,2.18-1.18c1.48-1.13.87-3.71-.7-4.71-3.93-2.51-11.16.39-14.56,2.85-4.37,3.16-8.64,7-14.45,6.59-1.6-.1-3.27-.54-4.77,0s-2.42,2.81-1.13,3.77c.72.53,1.74.38,2.55.75,1.5.7,1.64,2.86.91,4.34s-2,2.59-2.91,4A7.62,7.62,0,0,0,206,87.82a4.2,4.2,0,0,0,1.36,3c1.81,1.44,4.56.21,6.09-1.53s2.59-4,4.57-5.16A11.26,11.26,0,0,1,221.26,83l7.58-1.8A5.52,5.52,0,0,0,232.09,79.53Z" style="fill:#fff"></path></g><g style="opacity:0.6000000000000001"><path d="M342.1,156.67c0-1.44-.05-2.87-.13-4.29s-.19-2.84-.33-4.25c-.11-1.15-.24-2.27-.4-3.4s-.33-2.37-.53-3.55a94.94,94.94,0,0,0-2.34-10.4c-.37-1.31-.77-2.61-1.19-3.89s-.87-2.57-1.35-3.84h0c-.5-1-1-1.89-1.63-2.81-5.57-8.82-13.65-15.73-19.78-24.17-2-2.74-3.55-5-7.08-5.55-5.24-.81-7.89,2.17-11.6-2.79-1-1.33-2.74-2.57-4.22-1.78.38,1.07.78,2.13,1.16,3.21a1.52,1.52,0,0,1,.13.69c-.08.75-1.19,1-1.83.54a6.33,6.33,0,0,1-1.39-1.79,5.14,5.14,0,0,0-7.53-.62,2.88,2.88,0,0,0-1.67-2.34,3.43,3.43,0,0,1-4.31,2.77c-.3-1,1.42-1.14,2-2s-.11-1.85-.83-2.5a11,11,0,0,0-6.9-2.68c-1.6,0-3.33.27-4.72-.56-.81-.47-1.38-1.27-2.21-1.72-1.76-1-4-.08-5.74.9-2.42,1.35-4.93,3-5.79,5.69s1.05,6.2,3.81,5.87a5.31,5.31,0,0,1,2.11-.24,2.57,2.57,0,0,1,1.51,2.43,7,7,0,0,0,.46,3c.47.89,1.91,1.34,2.47.5,1.3-1.24,1.14-3.32.81-5.08s-.68-3.74.36-5.18,4.08-1,3.87.79c-.12,1-1.31,1.81-1.27,2.87s1.37,1.65,2.45,1.6,2.17-.43,3.22-.16,1.9,1.64,1.14,2.41c-1.32,1.49-4.74-1.06-5.43.8a5.13,5.13,0,0,0,0,1.52c-.13,1.55-2.08,2.12-3.64,2.31a8.46,8.46,0,0,1-4.61-.33c-1.41-.67-2.38-2.52-1.57-3.85a1.77,1.77,0,0,0-2.43.88,5.14,5.14,0,0,0-.17,2.89c-1.65-.36-3.13,1-4.06,2.41s-1.86,3-3.46,3.51-3.84-.18-4.68,1.28c-1.09,1.9,2.08,4.31,1,6.2-.63,1.06-2.16,1-3.36,1.37-3.19.9-4.3,5.56-2.13,8.05s6.52,2.35,8.82,0c1.6-1.63,2.25-3.93,3.41-5.9s3.35-3.73,5.54-3.09a6.52,6.52,0,0,1,2.26,1.43c1.07.88,2.13,1.77,3.19,2.68.68.57,1.43,1.28,1.36,2.17-.06.71-.61,1.27-.85,1.93-.67,1.92,2.11,3.75,3.85,2.7s1.94-3.73.75-5.38c-1.65-2.28-5.38-3.42-5.28-6.25,1.9-1.55,4.9.08,6,2.29s1.14,4.79,2.07,7.06,3.56,4.29,5.75,3.18c-.58-2-1.13-3.91-1.7-5.86,1.39-1,3,2,4.66,1.49,1-.32,1.14-1.78.7-2.76s-1.22-1.81-1.41-2.87c-.32-1.94,1.84-3.67,3.79-3.35a5,5,0,0,1,3.71,4.09,8.7,8.7,0,0,0,.51,2.27c.73,1.52,2.61,2,4.17,2.62s3.19,2.2,2.53,3.75c-.3.69-1,1.34-.76,2s1.16.89,1.16,1.56c0,.44-.47.74-.89.92-1,.43-2.19.57-3.2,1.06a2.9,2.9,0,0,0-1.86,2.57c.13,1.59,2,2.35,2.91,3.66s.73,2.92,1.27,4.35a15.11,15.11,0,0,0,2.39,3.47c2.63,3.59,3.25,8.2,4.54,12.45.57,1.92,1.61,4.06,3.58,4.43a6.08,6.08,0,0,0,3.17-.62c2.84-1.13,5.79-2.33,7.77-4.63s2.67-6.08.62-8.34a1.54,1.54,0,0,0-1-.62,2.88,2.88,0,0,0-1.49.52,4.24,4.24,0,0,1-4.42-.95,12.42,12.42,0,0,1-2.63-4c-.78-1.57-1.56-3.16-2.35-4.74.93-.8,2.42-.46,3.39.31a19,19,0,0,1,2.32,2.86c2.36,3,6.25,4.25,10,4.69a9.4,9.4,0,0,1,2.83.59c2.8,1.29,3.61,5.42,6.58,6.31a20.94,20.94,0,0,1,2.52.57,4.68,4.68,0,0,1,2.11,3.14c.65,2.33.87,4.79,1.86,7s2.95,4.24,5.36,4.27a5.77,5.77,0,0,0,4-1.79v0c.13-2.19.21-4.38.21-6.6C342.13,157.59,342.13,157.13,342.1,156.67Z" style="fill:#fff"></path></g><g style="opacity:0.6000000000000001"><path d="M301.77,198.31c-1.49.29-1.79,1.17-2.6,2.28-1.06,1.43-2.57,2.88-3.53,4.3-1.63,2.41-.17,6.16-2.31,8.19a15.32,15.32,0,0,0-1.39,1.14,2.52,2.52,0,0,0,.51,3.5,3.43,3.43,0,0,0,3.73.06,5.41,5.41,0,0,0,2.29-3.12,5.33,5.33,0,0,1,1.16-2.56c1.23-1.08,3.14-.28,4.75-.51C311.25,210.63,308.3,197,301.77,198.31Z" style="fill:#fff"></path></g><path d="M175.05,83.45s.79-.58,2.39-1.53a54.2,54.2,0,0,1,7.28-3.61,60.33,60.33,0,0,1,12.37-3.49,69.31,69.31,0,0,1,8-.91c1.42-.11,2.89-.15,4.39-.18s3,0,4.62,0a89.22,89.22,0,0,1,20.41,3,75.89,75.89,0,0,1,21.6,9.61,63.83,63.83,0,0,1,18.51,18.37A60.07,60.07,0,0,1,284.3,131a53,53,0,0,1-.21,13.52l-.42-.24a40.23,40.23,0,0,1,11.43-6.4,42.7,42.7,0,0,1,12.46-2.37,38.56,38.56,0,0,1,22.7,6.29,41,41,0,0,1,14.05,16,38.3,38.3,0,0,1,4,18A40.56,40.56,0,0,1,339,200.37a39.26,39.26,0,0,1-5.11,5.1l-1.49,1.13-.52.37s.16-.15.49-.41l1.46-1.17a40,40,0,0,0,5-5.14,41.26,41.26,0,0,0,5.89-9.74,40.68,40.68,0,0,0,3.25-14.73,38,38,0,0,0-4-17.83A40.81,40.81,0,0,0,330,142.16,38.14,38.14,0,0,0,307.58,136a42,42,0,0,0-12.31,2.35A39.76,39.76,0,0,0,284,144.66l-.52.42.1-.66a52.4,52.4,0,0,0,.2-13.39,59.69,59.69,0,0,0-9.6-26A63.5,63.5,0,0,0,255.83,86.8a75.38,75.38,0,0,0-21.46-9.59,89,89,0,0,0-20.3-3.08c-1.57,0-3.11-.1-4.61,0s-3,.06-4.37.16a66.91,66.91,0,0,0-8,.87,61,61,0,0,0-12.35,3.39,56.73,56.73,0,0,0-7.3,3.51c-.81.45-1.41.83-1.82,1.08Z" style="fill:#FF725E"></path><path d="M286.14,142.38a4.55,4.55,0,0,0-1.46-1.72c-1.56-1.4-3.56-1.21-4.37-.17a4.22,4.22,0,0,0-.31,4.19,4.57,4.57,0,0,0,2.81,2.68,3.2,3.2,0,0,0,3.55-1.19A3.68,3.68,0,0,0,286.14,142.38Z" style="fill:#FF725E"></path><path d="M261.19,81.21c.37-1.88-2.36-3.86-4.66-4.86,0,0-1.52-.75-2.16-1h0l-2.7-4.48a2.2,2.2,0,0,0-.93-.83l-.44-.2a.29.29,0,0,0-.39.34l1.08,4,0,0-4.28-1.43-.07,0a3.31,3.31,0,0,1-1.86-1.59l-1-1.81a.56.56,0,0,0-.21-.22.51.51,0,0,0-.76.43l-.09,3.05a1.22,1.22,0,0,0,.68,1.13l1.07.55L250,77.05l-2.87,1.46a.2.2,0,0,0-.06.31l.17.2a1,1,0,0,0,.94.36l4.73-.89,6.5,3.2C260.23,82.13,261,81.91,261.19,81.21Z" style="fill:#FF725E"></path><path d="M178.1,74.08a3.87,3.87,0,0,0-3.21-1.62A4.22,4.22,0,0,0,171,75.14a4.4,4.4,0,0,0,.15,3,5.33,5.33,0,0,0,.56,1c.77,1.12,3.18,4.17,3.18,4.17h.52c.68-.93,2.37-4,2.88-5A4.23,4.23,0,0,0,178.1,74.08Zm-2.71,5A2.56,2.56,0,1,1,178,76.49,2.56,2.56,0,0,1,175.39,79.05Z" style="fill:#FF725E"></path><g style="opacity:0.4"><path d="M178.1,74.08a3.87,3.87,0,0,0-3.21-1.62A4.22,4.22,0,0,0,171,75.14a4.4,4.4,0,0,0,.15,3,5.33,5.33,0,0,0,.56,1c.77,1.12,3.18,4.17,3.18,4.17h.52c.68-.93,2.37-4,2.88-5A4.23,4.23,0,0,0,178.1,74.08Zm-2.71,5A2.56,2.56,0,1,1,178,76.49,2.56,2.56,0,0,1,175.39,79.05Z"></path></g><path d="M178.62,74.1a3.85,3.85,0,0,0-3.2-1.62,4.22,4.22,0,0,0-3.89,2.68,4.39,4.39,0,0,0,.14,3,5.92,5.92,0,0,0,.56,1c.78,1.12,3.19,4.17,3.19,4.17s2.78-3.83,3.39-5A4.18,4.18,0,0,0,178.62,74.1Zm-3.23,5A2.56,2.56,0,1,1,178,76.51,2.55,2.55,0,0,1,175.39,79.07Z" style="fill:#FF725E"></path><path d="M175.39,73.93a2.56,2.56,0,0,0-2.41,1.7,2.19,2.19,0,1,1,.26,2.25,2.56,2.56,0,1,0,2.15-3.95Z" style="fill:#FF725E"></path><g style="opacity:0.4"><path d="M175.39,73.93a2.56,2.56,0,0,0-2.41,1.7,2.19,2.19,0,1,1,.26,2.25,2.56,2.56,0,1,0,2.15-3.95Z"></path></g></g><g id="freepik--Character--inject-238"><path d="M199.37,424.16l-.41.41-7.88,8L182,437.31l8.57,23.06,12.38,1.55s-.52-3.08-6.29-5.36l1.08-11.95,12.16-10.43" style="fill:#FF725E"></path><g style="opacity:0.6000000000000001"><polygon points="181.96 437.31 190.53 460.38 202.91 461.92 201.75 459.89 191.75 458.07 183.9 436.3 181.96 437.31" style="fill:#fff"></polygon></g><path d="M197.22,451.1c-.11.11-.77-.38-1.73-.48s-1.72.22-1.8.09.69-.77,1.86-.63S197.34,451,197.22,451.1Z" style="fill:#263238"></path><path d="M197.39,448.12c-.14.07-.6-.73-1.56-1s-1.81,0-1.88-.1.14-.25.51-.4a2.28,2.28,0,0,1,1.54,0,2.22,2.22,0,0,1,1.22.94C197.43,447.84,197.45,448.09,197.39,448.12Z" style="fill:#263238"></path><path d="M197.94,444.34c-.14.05-.48-.72-1.3-1.12S195,443,195,442.85s.15-.22.51-.3a2.1,2.1,0,0,1,1.41.18,2.16,2.16,0,0,1,1,1C198,444.09,198,444.32,197.94,444.34Z" style="fill:#263238"></path><path d="M201.62,441.82c-.15,0-.41-.72-1.12-1.31s-1.47-.77-1.46-.92,1-.24,1.82.5S201.77,441.82,201.62,441.82Z" style="fill:#263238"></path><path d="M203.55,439.47a5.41,5.41,0,0,1-.92-1.43c-.28-.53-.56-1.07-.86-1.62a4,4,0,0,1-.45-1.07,1.06,1.06,0,0,1,.17-.74.78.78,0,0,1,.8-.3,2.33,2.33,0,0,1,1.08.74,4.51,4.51,0,0,1,.65,1,4.15,4.15,0,0,1,.42,1.87,2.25,2.25,0,0,1-.49,1.65,12.28,12.28,0,0,0,.1-1.64,4.35,4.35,0,0,0-.48-1.65,3.87,3.87,0,0,0-.59-.82,2,2,0,0,0-.8-.57.23.23,0,0,0-.25.08.51.51,0,0,0-.07.35,3.77,3.77,0,0,0,.37.92c.25.57.5,1.12.75,1.67A5.12,5.12,0,0,1,203.55,439.47Z" style="fill:#263238"></path><path d="M204,439.9c-.06,0,.07-.66.84-1.32a3.12,3.12,0,0,1,3.75-.21.6.6,0,0,1,.14.47.76.76,0,0,1-.2.38,2.34,2.34,0,0,1-.49.33,5.68,5.68,0,0,1-.94.39,5.17,5.17,0,0,1-1.69.25,2.48,2.48,0,0,1-1.51-.33c0-.09.59,0,1.5-.05a6.31,6.31,0,0,0,1.54-.35,6.84,6.84,0,0,0,.84-.38,1.9,1.9,0,0,0,.35-.24c.08-.1.06-.07,0-.11a1,1,0,0,0-.34-.18,2.5,2.5,0,0,0-.45-.12,2.7,2.7,0,0,0-.89-.05,3,3,0,0,0-1.42.51C204.29,439.39,204,439.94,204,439.9Z" style="fill:#263238"></path><g style="opacity:0.6000000000000001"><path d="M191.89,438.16a1.48,1.48,0,1,1-1.29-1.65A1.48,1.48,0,0,1,191.89,438.16Z" style="fill:#fff"></path></g><path d="M279.12,436.65l7.15,25,31.09-8.73c-1-2.92-18.77-4.37-18.77-4.37l-3.93-16.18Z" style="fill:#FF725E"></path><g style="opacity:0.6000000000000001"><path d="M288.59,449.86a1.33,1.33,0,0,0-.47,1.7,1.26,1.26,0,0,0,1.68.48,1.4,1.4,0,0,0,.49-1.8,1.31,1.31,0,0,0-1.8-.3" style="fill:#fff"></path></g><g style="opacity:0.6000000000000001"><path d="M286.27,461.61l-.62-2.54,30-7.43s1.56.22,1.67,1.24Z" style="fill:#fff"></path></g><path d="M299.05,448.21c0,.15-.71.44-1.32,1.14s-.83,1.44-1,1.42-.18-1,.57-1.79S299,448.06,299.05,448.21Z" style="fill:#263238"></path><path d="M302.69,448.64c.07.14-.51.59-.85,1.37s-.29,1.51-.45,1.55-.49-.8-.05-1.77S302.64,448.5,302.69,448.64Z" style="fill:#263238"></path><path d="M305.63,452c-.12.07-.55-.63-.39-1.57s.77-1.47.87-1.36-.21.67-.33,1.45S305.78,452,305.63,452Z" style="fill:#263238"></path><path d="M297.74,444.62c0,.16-.78.15-1.62.45s-1.43.75-1.55.65.38-.83,1.37-1.17S297.78,444.48,297.74,444.62Z" style="fill:#263238"></path><path d="M296,441.14a3,3,0,0,1-1.56.43,7.13,7.13,0,0,1-1.77,0,7.91,7.91,0,0,1-1-.22,2.05,2.05,0,0,1-.57-.24.68.68,0,0,1-.3-.79.86.86,0,0,1,.57-.53,1.91,1.91,0,0,1,.6-.08,5.36,5.36,0,0,1,1.07.06,5.67,5.67,0,0,1,1.7.54c.91.46,1.31,1,1.27,1s-.54-.3-1.43-.65a6.55,6.55,0,0,0-1.61-.39,5.19,5.19,0,0,0-1,0c-.36,0-.64.09-.68.26s0,.08.08.16a1.66,1.66,0,0,0,.42.17,9.61,9.61,0,0,0,1,.24,8.74,8.74,0,0,0,1.67.15A11.88,11.88,0,0,1,296,441.14Z" style="fill:#263238"></path><path d="M295.83,441.42c-.05,0-.5-.43-.83-1.39a5.15,5.15,0,0,1-.27-1.77,5.58,5.58,0,0,1,.13-1.05,1.34,1.34,0,0,1,.77-1.07.77.77,0,0,1,.78.25,2.34,2.34,0,0,1,.32.53A3.36,3.36,0,0,1,297,438a3.74,3.74,0,0,1-.21,1.79c-.38,1-1,1.34-1,1.29s.37-.5.62-1.41a3.79,3.79,0,0,0,.08-1.6,3.28,3.28,0,0,0-.28-.89c-.14-.32-.34-.55-.45-.48s-.35.36-.41.66a6.67,6.67,0,0,0-.15.95,5.9,5.9,0,0,0,.14,1.64C295.58,440.85,295.91,441.37,295.83,441.42Z" style="fill:#263238"></path><path d="M277.6,271.34c.92,1.86,15.8,98.63,15.8,98.63l11.14,65.15-25.14,6.49-14.61-65.13-11.35-63-5-34.69Z" style="fill:#263238"></path><path d="M267.1,287.36l-1,72.73a43.48,43.48,0,0,1-10.88,29.44L210.44,438.9l-20.37-20.19,44.29-54.84-4.83-70.58Z" style="fill:#263238"></path><path d="M265.8,293.61a1.2,1.2,0,0,1,0,.31l0,.91c0,.83.07,2,.12,3.5.08,3,.15,7.44.19,12.88.11,10.88-.06,25.9.22,42.49.05,4.15.27,8.2.1,12.13a41.77,41.77,0,0,1-.62,5.76,17.24,17.24,0,0,1-.75,2.73,24.7,24.7,0,0,1-1.2,2.48,68.15,68.15,0,0,1-5.74,8.48c-2,2.53-3.87,4.82-5.63,6.89-3.54,4.13-6.5,7.39-8.52,9.66l-2.32,2.62-.61.69a1.4,1.4,0,0,1-.21.22s0-.09.17-.26l.57-.71c.5-.63,1.25-1.54,2.24-2.69,2-2.31,4.9-5.61,8.4-9.77,1.74-2.08,3.63-4.38,5.57-6.91a70.41,70.41,0,0,0,5.66-8.44c1.92-3.07,2.28-6.9,2.48-10.77s-.06-7.95-.11-12.1c-.28-16.6-.05-31.62-.07-42.5,0-5.41,0-9.8,0-12.88,0-1.49,0-2.66,0-3.5,0-.38,0-.68,0-.91A1,1,0,0,1,265.8,293.61Z" style="fill:#455a64"></path><path d="M241.08,357.62a32.61,32.61,0,0,1-4,4.24,32.06,32.06,0,0,1-4.32,3.88,64.37,64.37,0,0,1,8.28-8.12Z" style="fill:#455a64"></path><path d="M271.48,210.15l15.11,28.42,35-6,4.39,18.31-40.77,10.61a10.91,10.91,0,0,1-5.78.21h0a10.94,10.94,0,0,1-7.89-7.21l-14.88-38.68c-1.36-3.52-4.18-10.77-1.4-13.32l-2.77-2.89C257,195.33,268.55,203.4,271.48,210.15Z" style="fill:#FF725E"></path><path d="M284,250.58a4.56,4.56,0,0,1-.74-1.81,10.7,10.7,0,0,1,2-9,4.73,4.73,0,0,1,1.43-1.33c.06.06-.47.58-1.13,1.55a12,12,0,0,0-1.91,8.7A18.6,18.6,0,0,1,284,250.58Z" style="fill:#263238"></path><path d="M281.37,282.12c2.67-1.69,6.4-.58,8.58,1.71s3.16,5.45,3.93,8.52a106.22,106.22,0,0,1,2.69,15.55,13,13,0,0,1-.28,5.5,7.6,7.6,0,0,1-5.65,4.84,8.68,8.68,0,0,1-7.24-2.06c-3.45-3.05-4.09-8.1-4.52-12.69L277,282.91" style="fill:#FF725E"></path><g style="opacity:0.4"><path d="M281.37,282.12c2.67-1.69,6.4-.58,8.58,1.71s3.16,5.45,3.93,8.52a106.22,106.22,0,0,1,2.69,15.55,13,13,0,0,1-.28,5.5,7.6,7.6,0,0,1-5.65,4.84,8.68,8.68,0,0,1-7.24-2.06c-3.45-3.05-4.09-8.1-4.52-12.69L277,282.91"></path></g><path d="M291.93,318s-.64.24-1.45-.45a3.15,3.15,0,0,1-.92-1.59c-.2-.69-.33-1.47-.51-2.33-.69-3.45-1.6-8.22-2.57-13.49s-1.84-10.06-2.43-13.52c-.28-1.67-.5-3-.68-4.11a9.17,9.17,0,0,1-.18-1.52,7.83,7.83,0,0,1,.38,1.48l.84,4.08c.69,3.45,1.6,8.22,2.58,13.5s1.83,10.05,2.42,13.52c.16.86.26,1.66.43,2.32a3.12,3.12,0,0,0,.78,1.51A2,2,0,0,0,291.93,318Z" style="fill:#263238"></path><path d="M291.49,316.33c.07.12-.24.4-.72.47s-.86-.11-.83-.25.36-.21.75-.26S291.43,316.2,291.49,316.33Z" style="fill:#263238"></path><path d="M294.38,294.16a20.86,20.86,0,0,1-8.32,1.92,26.82,26.82,0,0,1,4.14-1A27.53,27.53,0,0,1,294.38,294.16Z" style="fill:#263238"></path><path d="M296.52,304.18a12.5,12.5,0,0,1-4.13,1.34,12.62,12.62,0,0,1-4.34.26,33.17,33.17,0,0,1,4.24-.78A35.1,35.1,0,0,1,296.52,304.18Z" style="fill:#263238"></path><polygon points="284.44 281.31 265.46 201.87 264.3 201.18 269.11 229.6 280.92 282.75 284.44 281.31" style="fill:#263238"></polygon><path d="M228.77,203.74a36.84,36.84,0,0,0-20.91,1.49c-3,1.12-5.92,2.75-7.6,5.45-2,3.18-1.8,7.2-1.72,10.95A129,129,0,0,1,197,244.44c-1,6.28-2.44,12.51-2.63,18.86s1,13,4.83,18.06c5.89,7.83,16.75,10.33,26.49,9.35a31.26,31.26,0,0,0,14.55-4.77c4.26-2.9,7.55-7.49,8.07-12.62" style="fill:#FF725E"></path><g style="opacity:0.5"><path d="M228.77,203.74a36.84,36.84,0,0,0-20.91,1.49c-3,1.12-5.92,2.75-7.6,5.45-2,3.18-1.8,7.2-1.72,10.95A129,129,0,0,1,197,244.44c-1,6.28-2.44,12.51-2.63,18.86s1,13,4.83,18.06c5.89,7.83,16.75,10.33,26.49,9.35a31.26,31.26,0,0,0,14.55-4.77c4.26-2.9,7.55-7.49,8.07-12.62"></path></g><path d="M216.3,213a16.63,16.63,0,0,0-2.41,3.45,28.77,28.77,0,0,0-1.71,4.25,42.81,42.81,0,0,1-2,5.32,12,12,0,0,1-3.55,4.5,7,7,0,0,1-4.44,1.42,5.48,5.48,0,0,1-3-1,3.53,3.53,0,0,1-.64-.58c-.13-.15-.19-.23-.17-.24s.31.27.92.65a5.62,5.62,0,0,0,2.9.78,6.75,6.75,0,0,0,4.15-1.44,12.09,12.09,0,0,0,3.37-4.33,50.67,50.67,0,0,0,2-5.25,27.06,27.06,0,0,1,1.83-4.28,11.47,11.47,0,0,1,1.86-2.53A3.66,3.66,0,0,1,216.3,213Z" style="fill:#e0e0e0"></path><path d="M211,289.74a2.22,2.22,0,0,1-.1-.62q-.07-.71-.18-1.8c-.15-1.57-.33-3.83-.53-6.63-.41-5.61-.87-13.35-1.2-21.92s-.45-16.33-.47-21.94c0-2.81,0-5.08,0-6.65,0-.74,0-1.34.05-1.81a2.34,2.34,0,0,1,0-.63,3,3,0,0,1,.05.63c0,.47,0,1.07.06,1.81,0,1.63.08,3.89.13,6.64.11,5.62.3,13.37.62,21.93s.73,16.31,1,21.91c.16,2.76.28,5,.37,6.64l.08,1.81A3.37,3.37,0,0,1,211,289.74Z" style="fill:#e0e0e0"></path><path d="M209,255.42a32.1,32.1,0,0,1-6.86.43,33.05,33.05,0,0,1-6.87-.52c0-.15,3.08,0,6.87,0S209,255.27,209,255.42Z" style="fill:#e0e0e0"></path><path d="M206.51,255.64c.07,0,.33.5.59,1.41a12,12,0,0,1,.36,1.62,2.32,2.32,0,0,1-.05,1.07,1.19,1.19,0,0,1-1,.82.84.84,0,0,1-.69-.23,1.09,1.09,0,0,1-.3-.58,3,3,0,0,1,0-1,9.44,9.44,0,0,1,.37-1.63c.29-.91.6-1.41.66-1.38a7,7,0,0,1-.31,1.47,13.87,13.87,0,0,0-.24,1.59,3,3,0,0,0,0,.89c0,.27.21.42.43.39.54-.07.69-.73.59-1.31s-.15-1.14-.23-1.6A6.33,6.33,0,0,1,206.51,255.64Z" style="fill:#e0e0e0"></path><rect x="195.34" y="184.35" width="48.13" height="21.54" rx="9.59" style="fill:#455a64"></rect><path d="M203.67,184.79s.09-.08.3-.17a3.52,3.52,0,0,1,.93-.25,5.37,5.37,0,0,1,3.43.76,9.87,9.87,0,0,1,3.78,3.6,13.1,13.1,0,0,1,1.65,6.17,11,11,0,0,1-1.47,6.22,8.93,8.93,0,0,1-3.85,3.52,8,8,0,0,1-3.44.78,4.45,4.45,0,0,1-.95-.08,1.3,1.3,0,0,1-.33-.08s.46,0,1.28,0a8.52,8.52,0,0,0,3.27-.91,8.78,8.78,0,0,0,3.61-3.44,10.73,10.73,0,0,0,1.36-6A13,13,0,0,0,211.7,189a9.86,9.86,0,0,0-3.56-3.52,5.36,5.36,0,0,0-3.22-.88C204.11,184.63,203.69,184.84,203.67,184.79Z" style="fill:#263238"></path><path d="M222.27,184.27l-5,.09a5.81,5.81,0,0,1,3.47,2.07,9.89,9.89,0,0,1,1.82,3.69,15.66,15.66,0,0,1-5.29,15.77l4.05.06s10.27-11.58,1-21.68" style="fill:#263238"></path><path d="M225.39,293.52c-.76-6.73-1-32.93-1-32.93-1-12.2-1.42-25.52-2.14-34.39-.68-8.34-3.95-17.59,0-20,14.11-8.82,18.81-8.47,18.81-8.47l7.57.1c9,.68,15.7,6.77,17,15.11l17,77.77Z" style="fill:#FF725E"></path><path d="M279.4,273.72a2.18,2.18,0,0,1-.19-.55c-.11-.42-.26-1-.44-1.61-.38-1.4-.89-3.44-1.51-6-1.25-5-2.89-12-4.6-19.74s-3.17-14.75-4.19-19.84c-.49-2.49-.88-4.53-1.17-6-.12-.67-.22-1.21-.29-1.64a2.54,2.54,0,0,1-.07-.58,2,2,0,0,1,.17.56l.39,1.62,1.33,6c1.12,5.13,2.65,12.1,4.34,19.8s3.29,14.65,4.44,19.77c.56,2.48,1,4.51,1.36,6l.34,1.64A2.05,2.05,0,0,1,279.4,273.72Z" style="fill:#263238"></path><path d="M232.6,169.36a3.15,3.15,0,0,1-2.09,2.89,25.74,25.74,0,0,1-3.7.95,4.17,4.17,0,0,0-2.94,2.2,2.58,2.58,0,0,0,3.23,3.38,3.09,3.09,0,1,0,3.77,4.85c-1.52,2-.6,5.16,1.56,6.4a6.28,6.28,0,0,0,6.95-.91,10.28,10.28,0,0,0,3.28-6.52,30.39,30.39,0,0,0-.16-7.44" style="fill:#263238"></path><path d="M257.17,191.5a3.5,3.5,0,0,0,6.12-2.34,4,4,0,0,0,5-6.1,2.19,2.19,0,0,0,2.93-1.17,3.84,3.84,0,0,0-.47-3.4c-.61-1-5.46-3.2-5.46-6.53,0-7.33-1-6.68-1.42-12.38" style="fill:#263238"></path><path d="M233.77,166.06l2.36,33.5a10.45,10.45,0,0,0,10.42,9.71h0A10.45,10.45,0,0,0,257,198.14c-.21-3.18-.4-5.8-.4-5.8s8.11-1.26,8.21-9.37c.06-4.68-.75-15.31-1.44-23.45a10.64,10.64,0,0,0-10.61-9.73h-4.89A15,15,0,0,0,233.77,166.06Z" style="fill:#ffbe9d"></path><path d="M256.59,192.23a18.91,18.91,0,0,1-10.57-3s2.5,5.84,10.59,5.11Z" style="fill:#eb996e"></path><path d="M261.52,169.94a1.17,1.17,0,0,1-1.12,1.17,1.11,1.11,0,0,1-1.19-1.05,1.15,1.15,0,0,1,1.12-1.16A1.1,1.1,0,0,1,261.52,169.94Z" style="fill:#263238"></path><path d="M262,167.65c-.15.15-1-.5-2.27-.49s-2.16.62-2.29.47.08-.34.47-.63a3.21,3.21,0,0,1,1.84-.57,3.06,3.06,0,0,1,1.81.59C261.89,167.31,262,167.58,262,167.65Z" style="fill:#263238"></path><path d="M249.82,169.94a1.17,1.17,0,0,1-1.12,1.17,1.11,1.11,0,0,1-1.19-1.05,1.15,1.15,0,0,1,1.12-1.16A1.1,1.1,0,0,1,249.82,169.94Z" style="fill:#263238"></path><path d="M249.7,167.88c-.15.15-1-.49-2.27-.49s-2.16.63-2.29.47.07-.34.47-.63a3.14,3.14,0,0,1,1.84-.56,3.06,3.06,0,0,1,1.81.58C249.64,167.54,249.77,167.82,249.7,167.88Z" style="fill:#263238"></path><path d="M254.22,177.13a7.53,7.53,0,0,1,2-.37c.32,0,.62-.1.68-.31a1.71,1.71,0,0,0-.21-.95l-.95-2.42a42.25,42.25,0,0,1-2.11-6.34,42.36,42.36,0,0,1,2.62,6.16q.47,1.28.9,2.43a1.88,1.88,0,0,1,.17,1.25.82.82,0,0,1-.53.47,2.22,2.22,0,0,1-.54.07A8.31,8.31,0,0,1,254.22,177.13Z" style="fill:#263238"></path><path d="M250.55,178c.21,0,.21,1.34,1.37,2.3s2.59.81,2.6,1-.32.26-.93.28a3.36,3.36,0,0,1-2.17-.76,2.93,2.93,0,0,1-1.06-1.93C250.31,178.32,250.46,178,250.55,178Z" style="fill:#263238"></path><path d="M250,163c-.12.34-1.37.18-2.83.35s-2.64.58-2.84.28c-.08-.15.12-.47.6-.8a5,5,0,0,1,4.32-.47C249.8,162.57,250.07,162.84,250,163Z" style="fill:#263238"></path><path d="M261.49,164c-.22.29-1.08,0-2.11,0s-1.91.19-2.11-.11c-.09-.14.05-.42.43-.69a2.86,2.86,0,0,1,1.72-.46,2.89,2.89,0,0,1,1.68.56C261.47,163.62,261.59,163.91,261.49,164Z" style="fill:#263238"></path><path d="M236.5,172.15c-.14-.06-5.57-1.65-5.39,3.89s5.7,4.23,5.71,4.07S236.5,172.15,236.5,172.15Z" style="fill:#ffbe9d"></path><path d="M235.06,178.06s-.1.07-.26.15a.94.94,0,0,1-.72,0,2.4,2.4,0,0,1-1.17-2.11,3.28,3.28,0,0,1,.22-1.39,1.15,1.15,0,0,1,.71-.77.49.49,0,0,1,.57.25c.08.15.05.27.08.27s.12-.09.07-.32a.65.65,0,0,0-.23-.34.75.75,0,0,0-.54-.12,1.32,1.32,0,0,0-1,.89,3.26,3.26,0,0,0-.29,1.55,2.5,2.5,0,0,0,1.49,2.35,1.07,1.07,0,0,0,.88-.17C235.05,178.19,235.08,178.07,235.06,178.06Z" style="fill:#eb996e"></path><path d="M233.42,172a2.92,2.92,0,0,1,2.67,1.37c.36.79.44,1.69.8,2.48a2,2,0,0,0,2,1.31,1.7,1.7,0,0,0,1.16-1.27,4.89,4.89,0,0,0,0-1.79c-.33-2.59-.87-5.15-1-7.76a13.35,13.35,0,0,1,1.64-7.54,7.31,7.31,0,0,1,6.48-3.65c1.73.14,3.31,1,5,1.28a6.76,6.76,0,0,0,5.63-1.88c.18-.18,1.05-.75,1.05-.75a3.2,3.2,0,0,0-.59-1.72c-3.39-3.14-9.51-4-14-2.89a16.21,16.21,0,0,0-10.62,8.5c-1.93,4.21-1.36,10.06-.29,14.31" style="fill:#263238"></path><path d="M263.44,158.27s-21.28-6.85-30.48,11.56a34.47,34.47,0,0,1-1.38-7.08c0-1.65,1-11.47,11.09-14.56C242.67,148.19,257.9,142.38,263.44,158.27Z" style="fill:#FF725E"></path><path d="M245.16,158.73a4.63,4.63,0,0,0,7.36.67,2.73,2.73,0,0,0,5.16-.27,6.24,6.24,0,0,0,2.07,1.51,2.11,2.11,0,0,0,2.36-.5,2.06,2.06,0,0,0-.14-2.44,5.13,5.13,0,0,0-2.16-1.45,15.72,15.72,0,0,0-8-1.22,10.86,10.86,0,0,0-7,3.84" style="fill:#263238"></path><g style="opacity:0.4"><path d="M263.44,158.27a9.91,9.91,0,0,0-6.77-3.07c-6.28-.28-18,3.25-23.71,14.63a34.47,34.47,0,0,1-1.38-7.08c0-1.65,1-11.47,11.09-14.56C242.67,148.19,257.9,142.38,263.44,158.27Z"></path></g><path d="M233.85,167.67a40.12,40.12,0,0,1,12.39-11.87c4.89-3.05,13-6.07,18.55-7.55a11.94,11.94,0,0,1,5.12-.54,4.6,4.6,0,0,1,3.8,3.11c.53,2.1-3.2,5.34-4.95,6.62a58.09,58.09,0,0,1-5.32,3.14s0-3.9-6.19-4.7C248.76,154.79,233.85,167.67,233.85,167.67Z" style="fill:#FF725E"></path><path d="M292.29,262.64s17.73-.46,21.93-8.77l-23.25.76Z" style="fill:#ffbe9d"></path><path d="M264.79,202.26c0,83.71-39.56,89.41-39.56,89.41l-.24-4.16c39.62-15.15,35.36-88,35.36-88S264.79,200.23,264.79,202.26Z" style="fill:#455a64"></path><path d="M216.4,289.34h13.94a0,0,0,0,1,0,0v16.94a0,0,0,0,1,0,0H216.4a4.1,4.1,0,0,1-4.1-4.1v-8.73a4.1,4.1,0,0,1,4.1-4.1Z" transform="translate(-119.25 150.56) rotate(-30)" style="fill:#263238"></path><rect x="207.21" y="301.1" width="8.81" height="7.13" transform="translate(-131.96 164.81) rotate(-33.07)" style="fill:#263238"></rect><path d="M204.94,301.94H210a1.86,1.86,0,0,1,1.86,1.86v5.91a1.86,1.86,0,0,1-1.86,1.86h-5.09a0,0,0,0,1,0,0v-9.63a0,0,0,0,1,0,0Z" transform="translate(-133.61 163.4) rotate(-33.07)" style="fill:#263238"></path><path d="M212.94,292.89l-.22-.27a2.16,2.16,0,0,1,.67-3.22l3.5-1.9a1.19,1.19,0,0,1,1.53.34l1,1.3Z" style="fill:#263238"></path><rect x="204.74" y="303.58" width="1.09" height="10.29" transform="translate(-135.2 162.02) rotate(-33.07)" style="fill:#263238"></rect><path d="M208.43,312.52a6.23,6.23,0,0,1-.94-1.11c-.55-.71-1.26-1.72-2-2.87s-1.37-2.22-1.79-3a6.89,6.89,0,0,1-.63-1.31,7.25,7.25,0,0,1,.82,1.2l1.87,2.95,1.92,2.91A8.33,8.33,0,0,1,208.43,312.52Z" style="fill:#455a64"></path><path d="M213.32,308c-.08,0-.73-1.48-1.81-3.18s-2.15-2.94-2.08-3a10.73,10.73,0,0,1,2.35,2.83A10.46,10.46,0,0,1,213.32,308Z" style="fill:#455a64"></path><path d="M216.31,300.06a15.26,15.26,0,0,1-2.56,1.77,16,16,0,0,1-2.72,1.51,15.46,15.46,0,0,1,2.56-1.78A15.9,15.9,0,0,1,216.31,300.06Z" style="fill:#455a64"></path><path d="M217.43,301.53a17.72,17.72,0,0,1-2.71,1.82,16.9,16.9,0,0,1-2.86,1.55,17.72,17.72,0,0,1,2.71-1.82A16.09,16.09,0,0,1,217.43,301.53Z" style="fill:#455a64"></path><path d="M217.59,303.84a12.08,12.08,0,0,1-2.33,1.59,13.31,13.31,0,0,1-2.5,1.32,12.38,12.38,0,0,1,2.34-1.59A13.41,13.41,0,0,1,217.59,303.84Z" style="fill:#455a64"></path><path d="M216.75,305.8a7,7,0,0,0,.72-1.32,3.66,3.66,0,0,0-3.46-5,6.93,6.93,0,0,0-1.5.21s.12-.1.37-.21a3.5,3.5,0,0,1,1.13-.22,3.77,3.77,0,0,1,3.67,5.31,3.19,3.19,0,0,1-.61,1C216.89,305.73,216.76,305.82,216.75,305.8Z" style="fill:#455a64"></path><path d="M213.32,290.34a11,11,0,0,0,.63,1.33l3.64-2.12-.65-1.22Z" style="fill:#fafafa"></path><path d="M213.94,291.69h0a9.42,9.42,0,0,1-.62-1.34h0l3.63-2h0l.66,1.23h0Zm-.6-1.34a10,10,0,0,0,.61,1.3l3.62-2.11-.64-1.19Z" style="fill:#455a64"></path><path d="M227.27,304.4s-.22.25-.75.14-1.06-.7-1.48-1.45l-3.52-5.88c-.36-.56-.64-1.17-1-1.64a1.57,1.57,0,0,0-1.46-.66,2.9,2.9,0,0,1-1.66-.31,2.57,2.57,0,0,1-1-1.07,2.45,2.45,0,0,1,0-2.09,2.21,2.21,0,0,1,.31-.48c.09-.09.14-.14.15-.13a7.25,7.25,0,0,0-.35.66,2.3,2.3,0,0,0,2.57,3.13,2.23,2.23,0,0,1,.94.13,2,2,0,0,1,.77.63c.41.52.67,1.12,1,1.68,1.3,2.23,2.47,4.25,3.43,5.92.42.77.86,1.34,1.33,1.45A1.16,1.16,0,0,0,227.27,304.4Z" style="fill:#455a64"></path><path d="M229.53,293.29a9,9,0,0,1,1.06,1.92c.59,1.23,1.41,2.87,2.21,4.83a2.15,2.15,0,0,1-.09,1.65,3.15,3.15,0,0,1-1,1.12,9.43,9.43,0,0,1-2.21,1,6.66,6.66,0,0,0-1.85,1c-.08,0,.42-.84,1.71-1.38a10.85,10.85,0,0,0,2.06-1.05,1.92,1.92,0,0,0,.89-2.23A60.64,60.64,0,0,1,229.53,293.29Z" style="fill:#455a64"></path><path d="M222.15,269.76s14.34-13.18,17.75-22.87,3-17.43-.36-27.14c-2.22-6.41-9.44-12.38-15.84-14.64a49.56,49.56,0,0,1,7-3.93s16.2,9,18.59,26C252.4,249.57,244.28,267.15,222.15,269.76Z" style="fill:#263238"></path><path d="M230.57,209.27c-5.89-3.42-8.48-3.18-8.36-3.12-3.58,2.5-7.66,7.46-7.27,17,.4,9.89,3.72,29,6.37,42.9a16.24,16.24,0,0,0,19.83,12.75l51.73-12.64L291,254.63l-47.2.68-5-33.42S235.62,212.2,230.57,209.27Z" style="fill:#FF725E"></path><path d="M221.44,266.64s.05.13.12.38.18.63.35,1.12a15.13,15.13,0,0,0,2.05,4,13.86,13.86,0,0,0,5.46,4.39,23.21,23.21,0,0,0,9.18,1.92,32.5,32.5,0,0,0,5.49-.34,28.51,28.51,0,0,0,2.86-.65l3-.75,12.94-3.26,29.93-7.5-.19.29c-.41-2.47-.84-5.1-1.28-7.75-.21-1.27-.42-2.54-.62-3.78l.26.22-47.2.63h-.18l0-.17c-.88-5.31-1.46-10.18-2-14.47s-1-8-1.44-11-.89-5.4-1.19-7c-.15-.78-.27-1.38-.35-1.82s-.1-.63-.1-.63.06.21.16.62l.42,1.81c.34,1.6.81,4,1.3,7s1,6.75,1.54,11,1.15,9.14,2.06,14.44l-.21-.18,47.19-.73h.23l0,.22c.21,1.24.42,2.5.63,3.77.43,2.66.87,5.29,1.27,7.76l0,.23-.23.06L263,273.86l-13,3.21-3,.74a27.39,27.39,0,0,1-2.9.64,33.32,33.32,0,0,1-5.56.31,23.39,23.39,0,0,1-9.29-2,13.93,13.93,0,0,1-5.5-4.53,14.79,14.79,0,0,1-2-4c-.15-.5-.23-.88-.29-1.14A1.37,1.37,0,0,1,221.44,266.64Z" style="fill:#263238"></path><path d="M266.94,255.12h0l63.77-1.3a4.71,4.71,0,0,0,4.57-4.08l3.44-25.38a4.72,4.72,0,0,0-4.67-5.35l-34,0a4.71,4.71,0,0,0-4.69,4.3l-2.25,25-23.33,3.59A3.29,3.29,0,0,0,266.94,255.12Z" style="fill:#455a64"></path><path d="M307.29,228.74c-.4.31-7.43,9.85-7.43,9.85l3.25-.38-2.65,7.56,8.77-11.05-3.27,0Z" style="fill:#f5f5f5"></path><path d="M306.49,230.31c-.39.32-5.5,7.58-5.5,7.58l2.92-.38-2.92,7.2,7.11-9.45h-2.85Z" style="fill:#FF725E"></path><circle cx="301.59" cy="228.91" r="2.35" style="fill:#f5f5f5"></circle><circle cx="301.59" cy="228.91" r="2.08" style="fill:#263238"></circle><circle cx="318.1" cy="237.06" r="1.88" style="fill:#f5f5f5"></circle></g><g id="freepik--Plants--inject-238"><path d="M406.81,440.09c-.76-3,1.23-6,3.46-8.22s4.89-4.12,6.06-7c1.9-4.68-.58-10.77,2.63-14.66,1.89-2.29,5.26-3,6.94-5.49a12.54,12.54,0,0,0,1.52-4.38,44.68,44.68,0,0,1,11.22-20.7,38.68,38.68,0,0,1-4.47,20c-1.31,2.46-2.9,4.84-3.35,7.59-.72,4.45,1.74,9.05.62,13.42-1.28,5-6.92,8.32-7.21,13.47-.25,4.35,3.52,8.2,3.21,12.55a11.82,11.82,0,0,1-2,5.15c-3.4,5.58-8.37,9.41-15.87,9.24l-9.18.27Z" style="fill:#FF725E"></path><g style="opacity:0.30000000000000004"><path d="M406.81,440.09c-.76-3,1.23-6,3.46-8.22s4.89-4.12,6.06-7c1.9-4.68-.58-10.77,2.63-14.66,1.89-2.29,5.26-3,6.94-5.49a12.54,12.54,0,0,0,1.52-4.38,44.68,44.68,0,0,1,11.22-20.7,38.68,38.68,0,0,1-4.47,20c-1.31,2.46-2.9,4.84-3.35,7.59-.72,4.45,1.74,9.05.62,13.42-1.28,5-6.92,8.32-7.21,13.47-.25,4.35,3.52,8.2,3.21,12.55a11.82,11.82,0,0,1-2,5.15c-3.4,5.58-8.37,9.41-15.87,9.24l-9.18.27Z"></path></g><path d="M398.56,461.54a7.23,7.23,0,0,1-2.52-.07,15.45,15.45,0,0,1-3-.77,12.65,12.65,0,0,1-3.68-2,5,5,0,0,1-1.5-2,9.08,9.08,0,0,1-.42-2.74,25.71,25.71,0,0,0-.2-3,8.34,8.34,0,0,0-1.1-3c-1.08-1.9-2.86-3.72-3.43-6.3s-.15-5.29.3-8,.87-5.75-.17-8.63-3-5.48-4-8.72-.49-6.8-.68-10.27a13.74,13.74,0,0,0-1.17-5.1c-.74-1.63-1.76-3.17-2.55-4.89-1.61-3.47-1.88-7.39-2.3-11.23q-.31-2.91-.63-5.88a28.69,28.69,0,0,0-1-5.88,51.31,51.31,0,0,0-2.16-5.69,19.08,19.08,0,0,1-1.05-3,30.88,30.88,0,0,1-.28-3.16,37.56,37.56,0,0,1,.28-6.35c.26-2.12.66-4.22.9-6.34,0-.13,0-.25,0-.37l.05-.42.38.19a14.27,14.27,0,0,1,4.92,4.2,22.66,22.66,0,0,1,3,5.61c1.51,4,2,8.1,2.79,12.05s1.71,7.84,3.71,11.13c1,1.64,2.21,3.14,3.27,4.74a13.06,13.06,0,0,1,2.25,5.25c.52,3.88-1.64,7.28-1.22,10.73a11.86,11.86,0,0,0,1.65,4.77c.83,1.48,1.8,2.84,2.72,4.21a27,27,0,0,1,2.44,4.26,13.47,13.47,0,0,1,1.11,4.61c.2,3.09-.25,6,0,8.81a20.34,20.34,0,0,0,2.22,7.56c1.1,2.26,2.32,4.31,3.35,6.3a31.92,31.92,0,0,1,1.37,2.93,14.19,14.19,0,0,1,.79,2.91,18.45,18.45,0,0,1,0,5.24,13.1,13.1,0,0,1-2.67,6.67,5.91,5.91,0,0,1-.74.8,3.15,3.15,0,0,1-.61.51c-.34.25-.53.37-.53.37a12.16,12.16,0,0,0,1.79-1.75,13.25,13.25,0,0,0,2.53-6.63,18,18,0,0,0-.08-5.16,14.58,14.58,0,0,0-.8-2.84c-.39-1-.87-1.92-1.38-2.9-1-2-2.27-4-3.4-6.29a20.68,20.68,0,0,1-2.3-7.69c-.22-2.84.22-5.78,0-8.81a12.84,12.84,0,0,0-1.08-4.46,27,27,0,0,0-2.41-4.16c-.92-1.37-1.91-2.74-2.76-4.24a12.32,12.32,0,0,1-1.72-5c-.42-3.67,1.72-7.09,1.19-10.71a12.52,12.52,0,0,0-2.17-5c-1-1.58-2.26-3.08-3.29-4.76a33.37,33.37,0,0,1-3.79-11.31c-.76-4-1.29-8.07-2.78-12a21.92,21.92,0,0,0-2.92-5.46,13.6,13.6,0,0,0-4.72-4l.43-.23c0,.11,0,.24,0,.37-.24,2.14-.63,4.25-.89,6.34a36.51,36.51,0,0,0-.28,6.26,30,30,0,0,0,.26,3.06,18.2,18.2,0,0,0,1,2.87,54.89,54.89,0,0,1,2.18,5.76,29,29,0,0,1,1,6c.21,2,.41,3.94.62,5.88.41,3.86.68,7.72,2.23,11.07.77,1.66,1.79,3.21,2.54,4.89a14.09,14.09,0,0,1,1.2,5.29c.18,3.55-.3,7,.64,10.16s2.93,5.74,3.92,8.71.6,6.1.15,8.85-.92,5.45-.34,7.89,2.25,4.27,3.34,6.23a8.38,8.38,0,0,1,1.12,3.08,24.22,24.22,0,0,1,.18,3,9.13,9.13,0,0,0,.38,2.68,5,5,0,0,0,1.41,1.94,12.65,12.65,0,0,0,3.59,2.05,15.55,15.55,0,0,0,2.93.81,11.61,11.61,0,0,0,1.87.19C398.34,461.53,398.56,461.54,398.56,461.54Z" style="fill:#263238"></path><path d="M370.16,353.18a1.09,1.09,0,0,1,.09.28c.05.22.12.49.2.83.17.72.38,1.81.72,3.18s1.18,2.91,1.88,4.81a66.69,66.69,0,0,1,2.14,6.52c.69,2.46,1.3,5.18,1.93,8.1a33.76,33.76,0,0,0,2.89,9c.74,1.5,1.58,3,2.25,4.67a21.69,21.69,0,0,1,1.29,5.28A106.11,106.11,0,0,0,385.46,407c1.8,7.54,3.52,14.71,5.08,21.25s3,12.38,4.25,17.33,2.14,8.89,2.82,11.7c.31,1.35.56,2.41.74,3.19.07.33.13.61.17.83a.92.92,0,0,1,0,.29,1.33,1.33,0,0,1-.1-.28c-.06-.21-.13-.48-.23-.81-.2-.77-.49-1.83-.84-3.16-.72-2.8-1.75-6.77-3-11.66s-2.74-10.8-4.38-17.3-3.31-13.72-5.12-21.25A105.29,105.29,0,0,1,383,395.91a21.09,21.09,0,0,0-1.25-5.15c-.64-1.62-1.46-3.12-2.21-4.63a34.38,34.38,0,0,1-2.88-9.13c-.61-2.92-1.19-5.64-1.85-8.09s-1.35-4.63-2.05-6.52-1.46-3.45-1.79-4.86-.48-2.48-.62-3.22c-.06-.34-.1-.62-.14-.84A1.06,1.06,0,0,1,370.16,353.18Z" style="fill:#263238"></path><path d="M396.94,461.56c-6-3.6-7.64-14.44-5.1-20.94s7-12.42,7.67-19.36c.55-5.34-1.17-10.83.11-16,1.71-7,8.62-12.45,8.58-19.69,0-4.06-2.31-7.9-2.1-11.95.25-5,4.1-8.91,6.49-13.28,3.66-6.69,3.94-14.62,5.22-22.14s4.2-15.56,10.89-19.22c.95,6.39,2.6,10.78,2,19.43-.21,3.11-3.86,9-4.39,15.84-.31,4.07-.54,8.15-.81,12.22s-.55,8-2,11.71c-1.1,2.83-2.87,5.4-3.69,8.33-1.56,5.52.41,11.51-.85,17.1-1.07,4.73-4.37,8.79-5.07,13.59-1,6.75,3.35,13.79,1.08,20.22-1.13,3.19-3.78,5.74-4.54,9-.59,2.56,0,5.28-.52,7.84-.86,4.14-8.79,7.59-13,7.31" style="fill:#FF725E"></path><path d="M427,325.27a1.64,1.64,0,0,1,0,.36c0,.27-.08.61-.14,1.05-.14.92-.31,2.28-.63,4s-1.26,3.74-2,6.13S422.65,342,422,345s-1.29,6.48-1.91,10.14-1.3,7.66-3.14,11.46c-.86,1.92-1.81,3.83-2.53,5.87a25.89,25.89,0,0,0-1.3,6.47,133,133,0,0,1-1.84,14l-5.33,26.66c-1.73,8.16-3.28,15.52-4.59,21.71s-2.4,11.14-3.15,14.63c-.37,1.69-.67,3-.88,4l-.24,1a1.63,1.63,0,0,1-.11.35,1.89,1.89,0,0,1,.05-.36c0-.27.11-.61.18-1,.19-.95.45-2.29.78-4,.71-3.5,1.72-8.5,3-14.66s2.78-13.57,4.46-21.74,3.41-17.2,5.29-26.65a134.73,134.73,0,0,0,1.84-13.92,26.5,26.5,0,0,1,1.35-6.61c.74-2.08,1.71-4,2.56-5.9,1.83-3.75,2.49-7.67,3.15-11.32s1.26-7.07,2-10.15a81.41,81.41,0,0,1,2.34-8.21c.77-2.4,1.72-4.36,2.09-6.08s.55-3.08.73-4c.08-.43.15-.77.2-1A1.81,1.81,0,0,1,427,325.27Z" style="fill:#263238"></path><path d="M116.44,420.13c1.93,2.7,5.61,1.76,7.3.09s2.4-4.08,3-6.37c1.45-5.25,2.91-10.75,1.74-16.06a8.82,8.82,0,0,0-2.09-4.34A4.65,4.65,0,0,0,122,392c-1.86.51-3,2.35-3.82,4.09a38.41,38.41,0,0,0-3.62,16.44c0,2.64.36,5.41,1.87,7.58" style="fill:#FF725E"></path><path d="M123.69,433.8a16.46,16.46,0,0,1,10.2-1.34,8.53,8.53,0,0,1,5.07,2.2c1.27,1.38,1.53,3.83.1,5a4.87,4.87,0,0,1-3.18.84c-2.7,0-5.7-.46-7.84,1.19-1.22.94-2,2.49-3.49,3a3.48,3.48,0,0,1-3.84-1.67,5.92,5.92,0,0,1-.48-4.38A6.71,6.71,0,0,1,123.69,433.8Z" style="fill:#FF725E"></path><path d="M111.26,424.07a9.84,9.84,0,0,0,1.45-9.09,17.54,17.54,0,0,0-5.45-7.76,29,29,0,0,0-9.69-5.59,10.29,10.29,0,0,0-4.34-.69,4.56,4.56,0,0,0-3.62,2.23c-1,1.95,0,4.28,1.07,6.19a75,75,0,0,0,6.42,9.57c1.92,2.43,4.12,4.82,7,5.89s5.9.92,7.42-1.1" style="fill:#FF725E"></path><path d="M116.71,461.05a6.38,6.38,0,0,0,.16-1.23c.08-.9.17-2,.29-3.37a49.25,49.25,0,0,1,.71-4.94,38.75,38.75,0,0,1,1.74-5.84,21.1,21.1,0,0,1,2.92-5.3,11.05,11.05,0,0,1,3.73-3.16,10.36,10.36,0,0,1,3.16-1,5.61,5.61,0,0,0,1.22-.19,7.06,7.06,0,0,0-1.25,0,9.74,9.74,0,0,0-3.29.9,11.15,11.15,0,0,0-3.94,3.19,21.37,21.37,0,0,0-3,5.4,36.38,36.38,0,0,0-1.72,5.94,43.23,43.23,0,0,0-.61,5c-.09,1.43-.12,2.59-.13,3.39A5.22,5.22,0,0,0,116.71,461.05Z" style="fill:#263238"></path><path d="M116.91,458.46a2.12,2.12,0,0,0,0-.57c0-.43,0-1,0-1.64,0-1.42,0-3.47,0-6,.07-5.07.44-12.08,1.21-19.78S120,415.81,121,410.83c.23-1.24.46-2.37.68-3.35s.39-1.84.56-2.52.27-1.18.37-1.6a2,2,0,0,0,.09-.56,2.88,2.88,0,0,0-.19.54l-.46,1.57c-.2.68-.41,1.52-.65,2.51s-.5,2.1-.76,3.34a184.2,184.2,0,0,0-3,19.65,198.14,198.14,0,0,0-1.07,19.83c0,2.54.06,4.6.14,6,0,.66.09,1.2.12,1.63A3.14,3.14,0,0,0,116.91,458.46Z" style="fill:#263238"></path><path d="M116.82,444.92a12.37,12.37,0,0,0,0-1.71,45.8,45.8,0,0,0-.57-4.63,63.34,63.34,0,0,0-1.57-6.73,59.25,59.25,0,0,0-2.9-8,42.56,42.56,0,0,0-8.4-12.82,23.18,23.18,0,0,0-2-1.79c-.3-.25-.57-.5-.84-.69l-.76-.52a10.05,10.05,0,0,0-1.45-.9,48.05,48.05,0,0,1,4.76,4.16,44.7,44.7,0,0,1,8.2,12.77A64.06,64.06,0,0,1,114.2,432c.76,2.47,1.28,4.74,1.67,6.66s.59,3.49.72,4.57A9.9,9.9,0,0,0,116.82,444.92Z" style="fill:#263238"></path></g></svg>
