
<!-- Generator: Adobe Illustrator 16.0.0, SVG Export Plug-In . SVG Version: 6.00 Build 0)  -->
<svg version="1.1" id="Layer_1" xmlns="http://www.w3.org/2000/svg" xmlns:xlink="http://www.w3.org/1999/xlink" x="0px" y="0px"
	 width="128px" height="128px" viewBox="0 0 128 128" enable-background="new 0 0 128 128" xml:space="preserve">
<g>
	<g>
		<polygon fill="#282D33" points="75.875,58.413 72.111,57.469 72.111,10.011 76.111,10.011 76.111,49.495 88.004,27.281 88.004,4 
			39.998,4 39.998,27.281 51.889,49.495 51.889,10.011 55.889,10.011 55.889,57.469 52.126,58.413 35.998,28.284 35.998,0 92.004,0 
			92.004,28.284 		"/>
	</g>
	<g>
		<path fill="#282D33" d="M64,128c-18.435,0-33.432-14.713-33.432-32.798S45.565,62.404,64,62.404s33.432,14.713,33.432,32.798
			S82.435,128,64,128z M64,66.403c-16.229,0-29.432,12.919-29.432,28.799C34.568,111.081,47.771,124,64,124
			s29.432-12.919,29.432-28.798C93.432,79.322,80.229,66.403,64,66.403z"/>
	</g>
	<g>
		<path fill="#282D33" d="M50.181,115.45l5.28-15.919l-13.89-9.887H58.74l5.261-15.868l5.26,15.868h17.168l-13.888,9.887
			l5.278,15.919l-13.818-9.841L50.181,115.45z M64.001,100.699l6.17,4.394l-2.356-7.106l6.099-4.342h-7.541L64,86.489l-2.372,7.155
			h-7.54l6.1,4.342l-2.357,7.106L64.001,100.699z"/>
	</g>
	<g>
		<rect x="62.001" y="29.965" fill="#282D33" width="4" height="27.759"/>
	</g>
	<g>
		<rect x="62.001" y="16.952" fill="#282D33" width="4" height="7.155"/>
	</g>
</g>
</svg>