<svg xmlns="http://www.w3.org/2000/svg" xmlns:xlink="http://www.w3.org/1999/xlink" version="1.1" id="Layer_1" x="0px" y="0px" width="128px" height="128px" viewBox="0 0 128 128" enable-background="new 0 0 128 128" xml:space="preserve">
<g>
	<g>
		<path fill="#ffffff" d="M84.552,99.768H43.376l-0.126-1.865c-0.213-3.143-0.877-7.437-2.835-10.045    C25.729,68.958,25.318,50.889,25.318,50.712c0-21.328,17.352-38.68,38.68-38.68c21.329,0,38.682,17.352,38.682,38.68    c0,0.177-0.411,18.225-15.121,37.171c-1.952,2.592-2.64,6.888-2.87,10.031L84.552,99.768z M47.074,95.768h33.803    c0.408-3.406,1.356-7.463,3.504-10.314C98.291,67.537,98.68,50.875,98.68,50.712c0-19.123-15.559-34.68-34.682-34.68    c-19.122,0-34.68,15.557-34.68,34.68c0,0.164,0.388,16.846,14.275,34.717C45.412,87.851,46.575,91.316,47.074,95.768z"/>
	</g>
	<g>
		<path fill="#ffffff" d="M39.048,50.576l-4-0.001c0.002-15.887,12.99-28.813,28.951-28.813v4    C50.243,25.762,39.05,36.894,39.048,50.576z"/>
	</g>
	<g>
		<g>
			
				<rect x="30.135" y="75.511" transform="matrix(0.1773 0.9841 -0.9841 0.1773 117.922 13.9509)" fill="#ffffff" width="40.963" height="4"/>
		</g>
		<g>
			
				<rect x="75.386" y="57.03" transform="matrix(0.9842 0.1772 -0.1772 0.9842 14.9605 -12.4869)" fill="#ffffff" width="4.001" height="40.963"/>
		</g>
	</g>
	<g>
		<polygon fill="#ffffff" points="52.806,64.419 46.549,62.218 47.876,58.444 52.806,60.179 58.399,58.211 63.991,60.179     69.587,58.211 75.188,60.179 80.125,58.444 81.451,62.218 75.188,64.418 69.587,62.451 63.991,64.419 58.399,62.451   "/>
	</g>
	<g>
		<g>
			<rect x="40.149" y="96.201" fill="#ffffff" width="47.702" height="4"/>
		</g>
		<g>
			<rect x="40.149" y="105.467" fill="#ffffff" width="47.702" height="4"/>
		</g>
		<g>
			<rect x="40.149" y="114.734" fill="#ffffff" width="47.702" height="4"/>
		</g>
		<g>
			<rect x="46.638" y="124" fill="#ffffff" width="34.728" height="4"/>
		</g>
		<g>
			<rect x="43.687" y="98.693" fill="#ffffff" width="4" height="17.608"/>
		</g>
	</g>
	<g>
		<g>
			<rect x="62.001" fill="#ffffff" width="4" height="7.272"/>
		</g>
		<g>
			
				<rect x="48.236" y="3.233" transform="matrix(0.2589 0.9659 -0.9659 0.2589 43.4963 -46.225)" fill="#ffffff" width="7.272" height="4"/>
		</g>
		<g>
			
				<rect x="36.932" y="7.916" transform="matrix(0.5 0.866 -0.866 0.5 28.8733 -30.1757)" fill="#ffffff" width="7.272" height="4"/>
		</g>
		<g>
			
				<rect x="27.225" y="15.364" transform="matrix(0.707 0.7072 -0.7072 0.707 21.3223 -16.7382)" fill="#ffffff" width="7.274" height="4"/>
		</g>
		<g>
			
				<rect x="19.777" y="25.069" transform="matrix(0.8659 0.5002 -0.5002 0.8659 16.6779 -8.0815)" fill="#ffffff" width="7.274" height="4"/>
		</g>
		<g>
			
				<rect x="15.093" y="36.372" transform="matrix(0.9659 0.2589 -0.2589 0.9659 10.5715 -3.5405)" fill="#ffffff" width="7.273" height="4"/>
		</g>
		<g>
			<rect x="13.498" y="48.502" fill="#ffffff" width="7.272" height="4"/>
		</g>
		<g>
			
				<rect x="16.729" y="58.995" transform="matrix(0.2585 0.966 -0.966 0.2585 74.3895 28.3466)" fill="#ffffff" width="4" height="7.272"/>
		</g>
		<g>
			
				<rect x="21.412" y="70.3" transform="matrix(0.4999 0.8661 -0.8661 0.4999 75.7419 16.6974)" fill="#ffffff" width="4.001" height="7.273"/>
		</g>
		<g>
			
				<rect x="28.859" y="80.006" transform="matrix(0.7072 0.707 -0.707 0.7072 68.1686 2.6714)" fill="#ffffff" width="4" height="7.274"/>
		</g>
		<g>
			
				<rect x="93.501" y="81.645" transform="matrix(0.707 0.7072 -0.7072 0.707 87.6091 -44.1886)" fill="#ffffff" width="7.273" height="4"/>
		</g>
		<g>
			
				<rect x="100.95" y="71.94" transform="matrix(0.866 0.5001 -0.5001 0.866 50.9984 -42.3947)" fill="#ffffff" width="7.272" height="3.999"/>
		</g>
		<g>
			
				<rect x="105.633" y="60.635" transform="matrix(0.966 0.2586 -0.2586 0.966 19.9188 -26.1309)" fill="#ffffff" width="7.272" height="4.001"/>
		</g>
		<g>
			<rect x="107.23" y="48.506" fill="#ffffff" width="7.272" height="4"/>
		</g>
		<g>
			
				<rect x="107.27" y="34.741" transform="matrix(0.2588 0.9659 -0.9659 0.2588 118.0652 -77.1023)" fill="#ffffff" width="4.001" height="7.272"/>
		</g>
		<g>
			
				<rect x="102.588" y="23.436" transform="matrix(0.5 0.866 -0.866 0.5 75.7355 -77.0392)" fill="#ffffff" width="4" height="7.272"/>
		</g>
		<g>
			
				<rect x="95.142" y="13.729" transform="matrix(0.7071 0.7071 -0.7071 0.7071 40.7314 -63.6033)" fill="#ffffff" width="4" height="7.273"/>
		</g>
		<g>
			
				<rect x="85.435" y="6.282" transform="matrix(0.8661 0.4999 -0.4999 0.8661 16.668 -42.3825)" fill="#ffffff" width="4.001" height="7.271"/>
		</g>
		<g>
			
				<rect x="74.133" y="1.599" transform="matrix(0.9659 0.2588 -0.2588 0.9659 3.9491 -19.526)" fill="#ffffff" width="4" height="7.272"/>
		</g>
	</g>
</g>
</svg>