<svg xmlns="http://www.w3.org/2000/svg" viewBox="0 0 340 340"><g id="Layer_17" data-name="Layer 17"><path d="M139.046,80.091H126.983a16.967,16.967,0,0,0-13.19,6.266,16.318,16.318,0,0,0-3.407,13.624,49.552,49.552,0,0,0,12.362,24H99.372a68,68,0,0,1-7.606-20.2,35.251,35.251,0,0,1,7.306-29.444,35.9,35.9,0,0,1,27.911-13.251h12.063A42.7,42.7,0,0,1,139.046,80.091Z" style="fill:#ffdc7a"/><path d="M156.25,61.087h-17.2v19h17.2a9.5,9.5,0,1,0,0-19Z" style="fill:#ffa96d"/><path d="M291.608,180.689a22.8,22.8,0,0,1-6.1-.807l-.225-.066c-7.247-2.165-13.411-7.174-15.632-14.357-2.234-7.225-.174-15.59,4.564-21.442a38.84,38.84,0,0,1,9.287-8.217c15.007-8.962,24.136-21.008,27.159-35.819a16.318,16.318,0,0,0-3.407-13.624,16.966,16.966,0,0,0-13.19-6.266H264.8a9.5,9.5,0,0,1,0-19h29.267a35.9,35.9,0,0,1,27.911,13.251,35.251,35.251,0,0,1,7.306,29.444c-4.073,19.953-16.5,36.646-35.943,48.279a20.137,20.137,0,0,0-4.354,3.916,3.5,3.5,0,0,0-.613,3.312,3.356,3.356,0,0,0,2.195,2.271,4.625,4.625,0,0,0,2.439-.1,2.344,2.344,0,0,0,.419-.829,9.5,9.5,0,1,1,17.949,6.243C307.747,177.309,299.005,180.689,291.608,180.689Z" style="fill:#ffdc7a"/><polygon points="234.152 151.063 240.592 50.097 205.863 50.097 234.152 151.063" style="fill:#ffdc7a"/><path d="M158.869,50.1a6.87,6.87,0,0,0-6.87,6.87v94.2a67.98,67.98,0,0,0,5.007,26.138c6.531,15.692,28.341,32.2,28.341,32.2a36.418,36.418,0,0,1,9.007,10.67l16.877-27.649-8.57-97.309L179.346,50.1Z" style="fill:#ffdc7a"/><path d="M262.181,50.1H240.592l-8.105,87.329L207.37,50.1H179.346l23.1,99.919a19.467,19.467,0,0,1-3.034,15.566c-6.547,9.337-15.735,28.674-5.064,54.6h0a37.989,37.989,0,0,1,5.024,19.031v15a30.01,30.01,0,0,1-18.366,27.913q-.622.254-1.272.487a16.222,16.222,0,0,0-10.617,11.686,18.6,18.6,0,0,0-.4,3.874h83.608a18.6,18.6,0,0,0-.4-3.874,16.221,16.221,0,0,0-10.617-11.686q-.65-.233-1.272-.487a30.012,30.012,0,0,1-18.366-27.913v-15a38.3,38.3,0,0,1,14.03-29.7s21.81-16.51,28.341-32.2a67.98,67.98,0,0,0,5.007-26.138v-94.2A6.87,6.87,0,0,0,262.181,50.1Z" style="fill:#ffa96d"/><path d="M198.136,41.832h13.718a6.01,6.01,0,0,1,5.87,4.721L245.3,144.9l-25.214,8.626L192.279,49.193A6.011,6.011,0,0,1,198.136,41.832Z" style="fill:#ff6d8d"/><path d="M251.868,47.363,244.056,144.9l27.085,7.733L279.016,48.3a6.01,6.01,0,0,0-5.993-6.463H257.859A6.01,6.01,0,0,0,251.868,47.363Z" style="fill:#ec476e"/><path d="M271.141,152.635a48.822,48.822,0,0,0-26.452-7.749c-.212,0-.422.013-.633.016l-1.263,15.766,27.182,7.412Z" style="fill:#ec476e"/><path d="M54.863,139.626H27.424A17.4,17.4,0,0,0,10,157.186,53.027,53.027,0,0,0,20.88,188.64c18.3,24.615,52.063,33.111,52.063,33.111L56.605,199.1S32.21,195.48,26.046,164.043a8.24,8.24,0,0,1,9.513-9.69,35.813,35.813,0,0,1,19.086,9.889Z" style="fill:#ffdc7a"/><path d="M118.456,139.626H145.9a17.4,17.4,0,0,1,17.422,17.56,53.032,53.032,0,0,1-10.878,31.454c-18.3,24.615-52.064,33.111-52.064,33.111L116.713,199.1s24.4-3.616,30.559-35.053a8.24,8.24,0,0,0-9.513-9.69,35.807,35.807,0,0,0-19.085,9.889Z" style="fill:#ffa96d"/><path d="M106.656,118.008H54.913a6.29,6.29,0,0,0-6.285,6.337c.2,27.469,1.679,52.331,2.88,68.346a50,50,0,0,0,12.466,29.541,140.035,140.035,0,0,1,9.461,11.811q.683.956,1.29,1.955l6.34,2.414s31.393-13.124,31.207-59.071S106.656,118.008,106.656,118.008Z" style="fill:#ffdc7a"/><rect x="161.803" y="71.367" width="13.766" height="55.619" rx="6.883" style="fill:#fff"/><path d="M99.883,234.043a140.035,140.035,0,0,1,9.461-11.811,50,50,0,0,0,12.466-29.541c1.2-16.015,2.677-40.877,2.881-68.346a6.291,6.291,0,0,0-6.285-6.337h-11.75v62.681s.763,44.333-31.937,55.313a32.628,32.628,0,0,1,4.749,16.972V268.73c0,8.446-10.454,13.228-18.823,15.7A14.316,14.316,0,0,0,50.4,298.168h72.514a14.315,14.315,0,0,0-10.243-13.736c-8.369-2.474-18.822-7.256-18.822-15.7V252.974A32.592,32.592,0,0,1,99.883,234.043Z" style="fill:#ffa96d"/><path d="M57.366,133.321c.162,11.44.531,22.33.99,32.2a5.611,5.611,0,0,0,5.609,5.345h0a5.621,5.621,0,0,0,5.6-5.957c-.706-12.307-.8-24.717-.793-31.663a5.613,5.613,0,0,0-5.614-5.625h-.179A5.621,5.621,0,0,0,57.366,133.321Z" style="fill:#fff"/><circle cx="65.66" cy="185.03" r="5.69" style="fill:#fff"/><path d="M220.09,153.528l3.879,14.552,24.245-8.2-4.023-14.952-.135-.031S230.538,145.289,220.09,153.528Z" style="fill:#ec476e"/><circle cx="244.689" cy="193.961" r="38.213" style="fill:#ffdc7a"/><path d="M244.689,220.646a26.685,26.685,0,1,1,26.685-26.684A26.715,26.715,0,0,1,244.689,220.646Zm0-46.369a19.685,19.685,0,1,0,19.685,19.685A19.707,19.707,0,0,0,244.689,174.277Z" style="fill:#ffa96d"/><path d="M241.475,163.39a30.7,30.7,0,0,0-25.917,40.347,4.557,4.557,0,0,0,7.672,1.617l30.983-33.749a4.537,4.537,0,0,0-2.158-7.471A30.864,30.864,0,0,0,241.475,163.39Z" style="fill:#fff"/><path d="M6.5,157.227a56.309,56.309,0,0,0,11.57,33.5c11.185,15.047,27.765,24.278,39.758,29.387a52.052,52.052,0,0,0,3.532,4.446,136.845,136.845,0,0,1,9.224,11.515,28.932,28.932,0,0,1,5.383,16.9V268.73c0,6.545-10.222,10.544-16.315,12.346A17.919,17.919,0,0,0,46.9,298.168a3.5,3.5,0,0,0,3.5,3.5h72.514a3.5,3.5,0,0,0,3.5-3.5,17.919,17.919,0,0,0-12.75-17.092h0c-6.092-1.8-16.314-5.8-16.314-12.346V252.974a28.934,28.934,0,0,1,5.382-16.9,136.845,136.845,0,0,1,9.224-11.515,52.052,52.052,0,0,0,3.532-4.446c11.993-5.109,28.572-14.339,39.758-29.387q1.531-2.059,2.857-4.183c8.975,13.435,24.406,25.207,25.176,25.789a34.519,34.519,0,0,1,12.6,26.878v15a26.678,26.678,0,0,1-16.181,24.67c-.371.152-11.6,4.956-14,14.691a19.274,19.274,0,0,0-.477,4.6,3.5,3.5,0,0,0,3.5,3.5H252.33a3.5,3.5,0,0,0,3.5-3.5,22.2,22.2,0,0,0-.478-4.6c-1.384-6.528-7.917-11.879-14-14.69a27.472,27.472,0,0,1-16.182-24.671v-15a35.313,35.313,0,0,1,.9-7.937,41.7,41.7,0,0,0,58.961-47.909,26.606,26.606,0,0,0,6.574.824c10.928,0,19.553-6.043,23.074-16.165a13.016,13.016,0,0,0-12.967-17.262c16.545-11.829,27.205-27.7,31-46.28a38.738,38.738,0,0,0-8.024-32.358,39.384,39.384,0,0,0-30.622-14.537H281.825l.682-9.029a9.511,9.511,0,0,0-9.484-10.226H257.859a9.556,9.556,0,0,0-9.417,8.265H221.371l-.253-.9a9.571,9.571,0,0,0-9.264-7.362H198.136a9.5,9.5,0,0,0-9.425,8.265H158.869a10.382,10.382,0,0,0-10.37,10.37v.62H126.983A39.384,39.384,0,0,0,96.361,72.124a38.738,38.738,0,0,0-8.024,32.358,72.013,72.013,0,0,0,2.823,10.026H48.6a3.5,3.5,0,0,0-3.5,3.5c0,6.169.071,12.223.19,18.118H27.424A20.9,20.9,0,0,0,6.5,157.227Zm238.188,71.448A34.714,34.714,0,1,1,279.4,193.962,34.753,34.753,0,0,1,244.689,228.675ZM281.3,64.587h12.77a32.414,32.414,0,0,1,25.2,11.964,31.764,31.764,0,0,1,6.587,26.531c-3.87,18.963-15.734,34.861-34.31,45.976l-.085.053a23.365,23.365,0,0,0-5.192,4.663,6.975,6.975,0,0,0-1.238,6.548,6.834,6.834,0,0,0,4.47,4.57,3.432,3.432,0,0,0,.358.095c.343.07,3.4.655,5.247-.724q.074-.056.144-.114a5.252,5.252,0,0,0,1.485-2.368,6,6,0,1,1,11.337,3.943c-3.6,10.348-12.711,11.465-16.462,11.465a19.247,19.247,0,0,1-5.118-.668l-.2-.058a19.161,19.161,0,0,1-4.854-2.224,41.935,41.935,0,0,0-7.647-10.125l1.117-14.8a19.03,19.03,0,0,1,2.035-3.1,35.61,35.61,0,0,1,8.361-7.414c15.878-9.483,25.566-22.31,28.793-38.124a19.807,19.807,0,0,0-4.124-16.538,20.457,20.457,0,0,0-15.9-7.552H280.391Zm-1.434,19h14.2a13.48,13.48,0,0,1,10.479,4.979,12.838,12.838,0,0,1,2.689,10.711c-2.818,13.806-11.406,25.082-25.533,33.52a39.88,39.88,0,0,0-5.889,4.472ZM255.356,47.642a2.525,2.525,0,0,1,2.5-2.31h15.164a2.509,2.509,0,0,1,2.5,2.7l-8.362,110.817a41.423,41.423,0,0,0-20.191-6.536Zm-7.5,5.955L242.4,121.739,223.33,53.6ZM196.171,46.28a2.472,2.472,0,0,1,1.965-.948h13.718a2.526,2.526,0,0,1,2.452,1.972c.014.064,26.476,94.631,26.476,94.631l-.848,10.592a41.392,41.392,0,0,0-15.7,5.1L195.681,48.367A2.468,2.468,0,0,1,196.171,46.28ZM155.5,56.967a3.374,3.374,0,0,1,3.37-3.37h30.943l28.264,108.165c.007.028.02.053.028.081a41.664,41.664,0,0,0,1.735,65.6,42,42,0,0,0-1.666,11.769v15c0,13.845,8.251,25.634,20.543,31.155,4.677,2.1,8.732,5.327,9.708,9.306h-75.8c1.242-5.886,9.246-9.119,9.709-9.307a33.309,33.309,0,0,0,20.542-31.154v-15a41.6,41.6,0,0,0-15.418-32.493c-.183-.139-17.939-13.677-25.529-27.308a55.087,55.087,0,0,0,4.887-22.184,20.677,20.677,0,0,0-6.02-14.879,21.012,21.012,0,0,0-5.3-3.888Zm.319,90.3a13.725,13.725,0,0,1,4,9.877,49.437,49.437,0,0,1-10.188,29.406c-7.818,10.517-18.65,17.988-28.319,23.061a54.131,54.131,0,0,0,2.89-9.211c8.418-3.588,22.023-12.815,26.507-35.686a11.74,11.74,0,0,0-13.569-13.808,40.217,40.217,0,0,0-9.634,3.009q.2-5.259.353-10.791H145.9A13.852,13.852,0,0,1,155.818,147.269Zm-31.1-32.761H119.9a45.783,45.783,0,0,1-6.082-15.227A12.838,12.838,0,0,1,116.5,88.57a13.48,13.48,0,0,1,10.479-4.979H148.5V136.3a21.219,21.219,0,0,0-2.6-.178H128.024c.12-5.9.19-11.949.19-18.118A3.5,3.5,0,0,0,124.714,114.508ZM138.38,157.8a4.629,4.629,0,0,1,4.174,1.338,4.678,4.678,0,0,1,1.284,4.234c-3.214,16.392-11.651,24.575-18.466,28.606.61-8.234,1.264-18.446,1.792-29.96A32.684,32.684,0,0,1,138.38,157.8Zm-36.6-81.246a32.414,32.414,0,0,1,25.2-11.964H148.5v12H126.983a20.457,20.457,0,0,0-15.9,7.552,19.807,19.807,0,0,0-4.124,16.538,52.992,52.992,0,0,0,4.876,13.827H98.666a64.788,64.788,0,0,1-3.47-11.426A31.767,31.767,0,0,1,101.783,76.551Zm19.424,44.957c-.117,28.254-1.619,54.016-2.887,70.921A46.728,46.728,0,0,1,106.731,219.9a143.569,143.569,0,0,0-9.7,12.107,35.9,35.9,0,0,0-6.683,20.964V268.73c0,5.817,3.7,13.846,21.33,19.059h0a10.87,10.87,0,0,1,7.148,6.879H54.49a10.868,10.868,0,0,1,7.148-6.879c17.629-5.213,21.33-13.242,21.33-19.059V252.974a35.9,35.9,0,0,0-6.683-20.964,143.785,143.785,0,0,0-9.7-12.107A46.737,46.737,0,0,1,55,192.429c-1.268-16.9-2.77-42.659-2.887-70.921ZM46.154,162.015c.528,11.516,1.182,21.727,1.792,29.96-6.815-4.031-15.251-12.214-18.465-28.606a4.74,4.74,0,0,1,5.457-5.572A32.715,32.715,0,0,1,46.154,162.015ZM17.5,147.269a13.852,13.852,0,0,1,9.924-4.143H45.461q.151,5.526.353,10.8a40.2,40.2,0,0,0-9.634-3.015,11.74,11.74,0,0,0-13.568,13.808c4.484,22.87,18.087,32.1,26.506,35.686a54.248,54.248,0,0,0,2.89,9.211c-9.67-5.073-20.5-12.545-28.319-23.061A49.445,49.445,0,0,1,13.5,157.146,13.725,13.725,0,0,1,17.5,147.269Z" style="fill:#3c3c4f"/></g></svg>