<svg xmlns="http://www.w3.org/2000/svg" width="49" height="60"><rect id="backgroundrect" width="100%" height="100%" x="0" y="0" fill="none" stroke="none"/><g class="currentLayer" style=""><title>Layer 1</title><g data-name="Outline" id="svg_1" class="selected" fill="#ffffff" fill-opacity="1"><path d="M12.565974643707275,23.043 a20.5,20.5 0 1 0 24.344,0 L49.34697464370728,1.5 a1.007,1.007 0 0 0 -0.8660000000000001,-1.5 H32.314974643707274 a1,1 0 0 0 -0.8660000000000001,0.5 L24.737974643707275,12.124 L18.026974643707277,0.5 a1,1 0 0 0 -0.8660000000000001,-0.5 H0.9949746437072751 a1.007,1.007 0 0 0 -0.8660000000000001,1.5 zM43.237974643707275,39.5 A18.5,18.5 0 1 1 24.737974643707275,21 a18.521,18.521 0 0 1 18.5,18.5 zM46.74897464370728,2 L35.24297464370728,21.929 q-0.8570000000000001,-0.515 -1.7630000000000001,-0.9440000000000001 L44.444974643707276,2 zM42.137974643707274,2 L31.616974643707273,20.213 a20.241,20.241 0 0 0 -4.049,-0.994 L37.514974643707276,2 zm-9.246,0 h2.314 l-9.84,17.032 a14.032,14.032 0 0 0 -2.338,0.05500000000000001 zM16.583974643707275,2 l7,12.124 l-1.154,2 L14.269974643707275,2 zm-4.623,0 l9.314,16.123 l-0.7620000000000001,1.32 a20.223,20.223 0 0 0 -2.654,0.77 L7.337974643707275,2 zm-6.93,0 l10.965,18.985 q-0.908,0.43000000000000005 -1.7630000000000001,0.9440000000000001 L2.726974643707276,2 z" id="svg_2" fill="#ffffff" fill-opacity="1"/><path d="m22.496974643707276,31.540999999999997 l-1.512,2.636 a0.5730000000000001,0.5730000000000001 0 0 1 -0.38900000000000007,0.274 l-3.031,0.5910000000000001 a2.563,2.563 0 0 0 -1.955,1.725 a2.485,2.485 0 0 0 0.5700000000000001,2.5 l2.1,2.221 a0.521,0.521 0 0 1 0.14100000000000001,0.41900000000000004 l-0.36100000000000004,3 a2.5,2.5 0 0 0 1.017,2.337 a2.6,2.6 0 0 0 2.609,0.274 l2.806,-1.264 a0.6060000000000001,0.6060000000000001 0 0 1 0.5,0 l2.808,1.2650000000000001 a2.609,2.609 0 0 0 2.608,-0.275 a2.5,2.5 0 0 0 1.017,-2.337 l-0.36100000000000004,-3 a0.521,0.521 0 0 1 0.14100000000000001,-0.41900000000000004 l2.1,-2.221 a2.487,2.487 0 0 0 0.5690000000000001,-2.5 a2.563,2.563 0 0 0 -1.955,-1.725 l-3.03,-0.5910000000000001 a0.5730000000000001,0.5730000000000001 0 0 1 -0.39000000000000007,-0.274 l-1.512,-2.636 a2.592,2.592 0 0 0 -4.482,0 zm2.747,1 l1.512,2.636 a2.572,2.572 0 0 0 1.741,1.242 l3.032,0.5910000000000001 a0.548,0.548 0 0 1 0.43300000000000005,0.37300000000000005 a0.5,0.5 0 0 1 -0.12000000000000001,0.515 l-2.1,2.22 a2.515,2.515 0 0 0 -0.6740000000000002,2.032 l0.36200000000000004,3 a0.513,0.513 0 0 1 -0.21700000000000003,0.48600000000000004 a0.5850000000000001,0.5850000000000001 0 0 1 -0.6000000000000001,0.06300000000000001 l-2.807,-1.2650000000000001 a2.6,2.6 0 0 0 -2.138,0 L20.861974643707274,45.7 a0.5840000000000001,0.5840000000000001 0 0 1 -0.6000000000000001,-0.06200000000000001 a0.513,0.513 0 0 1 -0.21700000000000003,-0.48600000000000004 l0.36200000000000004,-3 a2.5140000000000002,2.5140000000000002 0 0 0 -0.6730000000000002,-2.031 l-2.1,-2.221 a0.5,0.5 0 0 1 -0.12000000000000001,-0.515 a0.548,0.548 0 0 1 0.43300000000000005,-0.37300000000000005 l3.033,-0.5910000000000001 a2.573,2.573 0 0 0 1.7400000000000002,-1.242 l1.512,-2.636 a0.5920000000000001,0.5920000000000001 0 0 1 1.012,0 z" id="svg_3" fill="#ffffff" fill-opacity="1"/><path d="M28.462974643707277,26.52 a13.5,13.5 0 1 1 -7.45,0 a1,1 0 1 0 -0.551,-1.923 a15.5,15.5 0 1 0 8.552,0 a1,1 0 1 0 -0.551,1.923 z" id="svg_4" fill="#ffffff" fill-opacity="1"/><circle cx="24.737974643707275" cy="25" r="1" id="svg_5" fill="#ffffff" fill-opacity="1"/></g></g></svg>