<svg xmlns="http://www.w3.org/2000/svg" viewBox="0 0 60.04 68.56"><defs><style>.cls-1,.cls-11{fill:#fff;}.cls-2,.cls-3,.cls-5,.cls-6{fill:#c9d2df;}.cls-11,.cls-2{opacity:0.45;}.cls-11,.cls-2,.cls-5,.cls-6{isolation:isolate;}.cls-4{fill:#3e3126;}.cls-5{opacity:0.2;}.cls-6{opacity:0.5;}.cls-7{fill:#c3c6e3;}.cls-8{fill:#57a8b2;}.cls-9{fill:#8f98d8;}.cls-10{fill:#ff9c01;}.cls-12{fill:#ffb320;}.cls-13{fill:#ffe56b;}.cls-14{fill:#f27c00;}</style></defs><g id="Layer_2" data-name="Layer 2"><g id="Layer_1-2" data-name="Layer 1"><rect class="cls-1" x="46.78" y="12.99" width="12.73" height="47.06" rx="2.55"/><polygon class="cls-2" points="52.75 31.38 52.75 12.48 15.75 12.48 15.75 59.78 52.75 59.78 52.75 31.38"/><rect class="cls-3" x="35.34" y="44.3" width="21.02" height="1.64"/><rect class="cls-3" x="35.34" y="48.04" width="21.02" height="1.64"/><rect class="cls-3" x="35.34" y="51.77" width="21.02" height="1.64"/><rect class="cls-3" x="35.34" y="30.48" width="21.02" height="1.64"/><rect class="cls-3" x="35.34" y="34.21" width="21.02" height="1.64"/><rect class="cls-3" x="35.34" y="37.93" width="21.02" height="1.64"/><rect class="cls-3" x="35.34" y="16.2" width="21.02" height="1.64"/><rect class="cls-3" x="35.34" y="16.09" width="21.02" height="9.22"/><path class="cls-4" d="M58.55,60.13a.35.35,0,0,1-.35-.35.35.35,0,0,1,.35-.35h0a.62.62,0,0,0,.62-.62V35.93a.35.35,0,0,1,.29-.4.34.34,0,0,1,.4.28.24.24,0,0,1,0,.12V58.81A1.32,1.32,0,0,1,58.55,60.13Z"/><path class="cls-4" d="M56.18,60.13H51.77a.35.35,0,0,1-.35-.35.35.35,0,0,1,.35-.35h4.41a.35.35,0,1,1,0,.7Z"/><path class="cls-4" d="M47.06,60.13H23.48a1.32,1.32,0,0,1-1.32-1.32h0V14.5a2.38,2.38,0,0,1,2.38-2.37h33a2.36,2.36,0,0,1,2.31,2.37V31.42a.35.35,0,0,1-.29.4.34.34,0,0,1-.4-.28.24.24,0,0,1,0-.12V14.5a1.69,1.69,0,0,0-1.68-1.67H24.54a1.68,1.68,0,0,0-1.69,1.67h0V58.81a.62.62,0,0,0,.62.62H47.06a.35.35,0,0,1,.35.35.35.35,0,0,1-.35.35Z"/><rect class="cls-1" x="0.36" y="7.06" width="49.34" height="55.71"/><path class="cls-5" d="M49.69,23.26V61.63a1.46,1.46,0,0,1-1.46,1.46H4.67C30.79,55.51,44.09,34.89,49.69,23.26Z"/><rect class="cls-6" x="0.6" y="24.4" width="49.09" height="0.21"/><rect class="cls-6" x="0.6" y="39.27" width="49.09" height="0.21"/><rect class="cls-6" x="0.6" y="55.17" width="49.09" height="0.21"/><path class="cls-7" d="M1.34,1.93h47.6a.74.74,0,0,1,.74.74V6.75H.6V2.67A.74.74,0,0,1,1.34,1.93Z"/><circle class="cls-8" cx="5.01" cy="3.77" r="0.89"/><circle class="cls-8" cx="7.72" cy="3.77" r="0.89"/><circle class="cls-8" cx="10.43" cy="3.77" r="0.89"/><path class="cls-5" d="M49.69,8H.6A.38.38,0,0,1,.21,7.6a.38.38,0,0,1,.38-.38h49.1a.38.38,0,0,1,.38.38A.4.4,0,0,1,49.69,8Z"/><circle class="cls-9" cx="5.01" cy="3.77" r="0.89"/><circle class="cls-9" cx="7.72" cy="3.77" r="0.89"/><circle class="cls-9" cx="10.43" cy="3.77" r="0.89"/><path class="cls-4" d="M5,4.84A1.07,1.07,0,1,1,6.07,3.76h0A1.05,1.05,0,0,1,5,4.84ZM5,3.06a.72.72,0,1,0,.71.73v0A.71.71,0,0,0,5,3.06Z"/><path class="cls-4" d="M7.72,4.84A1.07,1.07,0,1,1,8.78,3.76h0a1.05,1.05,0,0,1-1,1.07Zm0-1.78a.72.72,0,0,0,0,1.43.72.72,0,0,0,0-1.43Z"/><path class="cls-4" d="M10.43,4.84a1.07,1.07,0,1,1,1.06-1.08h0A1.07,1.07,0,0,1,10.43,4.84Zm0-1.78a.72.72,0,1,0,.71.73v0A.71.71,0,0,0,10.43,3.06Z"/><rect class="cls-3" x="28.21" y="17.42" width="4.54" height="0.82"/><rect class="cls-3" x="28.36" y="32.12" width="4.54" height="0.82"/><rect class="cls-3" x="28.36" y="46.89" width="4.54" height="0.82"/><rect class="cls-3" x="4.89" y="27.57" width="21.02" height="1.64" rx="0.29"/><rect class="cls-3" x="4.89" y="31.3" width="21.02" height="1.64" rx="0.29"/><rect class="cls-3" x="4.89" y="35.03" width="21.02" height="1.64" rx="0.29"/><rect class="cls-3" x="4.89" y="11.51" width="21.02" height="1.64" rx="0.29"/><rect class="cls-3" x="4.89" y="15.24" width="21.02" height="1.64" rx="0.29"/><rect class="cls-3" x="4.89" y="18.98" width="21.02" height="1.64" rx="0.29"/><rect class="cls-3" x="4.89" y="42.27" width="21.02" height="1.64" rx="0.29"/><rect class="cls-3" x="4.89" y="46.01" width="21.02" height="1.64" rx="0.29"/><rect class="cls-3" x="4.89" y="49.74" width="21.02" height="1.64" rx="0.29"/><polygon class="cls-10" points="29.42 12.67 29.75 13.34 30.48 13.45 29.95 13.96 30.08 14.7 29.42 14.35 28.76 14.7 28.89 13.96 28.36 13.45 29.09 13.34 29.42 12.67"/><polygon class="cls-10" points="32.16 12.67 32.49 13.34 33.23 13.45 32.69 13.96 32.82 14.7 32.16 14.35 31.5 14.7 31.63 13.96 31.1 13.45 31.83 13.34 32.16 12.67"/><polygon class="cls-10" points="34.9 12.67 35.23 13.34 35.96 13.45 35.43 13.96 35.56 14.7 34.9 14.35 34.24 14.7 34.37 13.96 33.84 13.45 34.57 13.34 34.9 12.67"/><polygon class="cls-10" points="37.64 12.67 37.97 13.34 38.7 13.45 38.17 13.96 38.3 14.7 37.64 14.35 36.98 14.7 37.11 13.96 36.58 13.45 37.31 13.34 37.64 12.67"/><polygon class="cls-10" points="40.38 12.67 40.71 13.34 41.44 13.45 40.91 13.96 41.04 14.7 40.38 14.35 39.72 14.7 39.85 13.96 39.32 13.45 40.05 13.34 40.38 12.67"/><polygon class="cls-10" points="29.42 27.38 29.75 28.05 30.48 28.15 29.95 28.67 30.08 29.4 29.42 29.06 28.76 29.4 28.89 28.67 28.36 28.15 29.09 28.05 29.42 27.38"/><polygon class="cls-10" points="32.16 27.38 32.49 28.05 33.23 28.15 32.69 28.67 32.82 29.4 32.16 29.06 31.5 29.4 31.63 28.67 31.1 28.15 31.83 28.05 32.16 27.38"/><polygon class="cls-10" points="34.9 27.38 35.23 28.05 35.96 28.15 35.43 28.67 35.56 29.4 34.9 29.06 34.24 29.4 34.37 28.67 33.84 28.15 34.57 28.05 34.9 27.38"/><polygon class="cls-10" points="37.64 27.38 37.97 28.05 38.7 28.15 38.17 28.67 38.3 29.4 37.64 29.06 36.98 29.4 37.11 28.67 36.58 28.15 37.31 28.05 37.64 27.38"/><polygon class="cls-10" points="40.38 27.38 40.71 28.05 41.44 28.15 40.91 28.67 41.04 29.4 40.38 29.06 39.72 29.4 39.85 28.67 39.32 28.15 40.05 28.05 40.38 27.38"/><polygon class="cls-10" points="29.42 42.08 29.75 42.75 30.48 42.86 29.95 43.38 30.08 44.11 29.42 43.76 28.76 44.11 28.89 43.38 28.36 42.86 29.09 42.75 29.42 42.08"/><polygon class="cls-10" points="32.16 42.08 32.49 42.75 33.23 42.86 32.69 43.38 32.82 44.11 32.16 43.76 31.5 44.11 31.63 43.38 31.1 42.86 31.83 42.75 32.16 42.08"/><polygon class="cls-10" points="34.9 42.08 35.23 42.75 35.96 42.86 35.43 43.38 35.56 44.11 34.9 43.76 34.24 44.11 34.37 43.38 33.84 42.86 34.57 42.75 34.9 42.08"/><polygon class="cls-10" points="37.64 42.08 37.97 42.75 38.7 42.86 38.17 43.38 38.3 44.11 37.64 43.76 36.98 44.11 37.11 43.38 36.58 42.86 37.31 42.75 37.64 42.08"/><polygon class="cls-10" points="40.38 42.08 40.71 42.75 41.44 42.86 40.91 43.38 41.04 44.11 40.38 43.76 39.72 44.11 39.85 43.38 39.32 42.86 40.05 42.75 40.38 42.08"/><rect class="cls-11" x="17.65" y="1.13" width="6.33" height="1.61" rx="0.8"/><ellipse class="cls-11" cx="22.97" cy="3.86" rx="1.01" ry="0.67"/><circle class="cls-4" cx="59.51" cy="33.7" r="0.53"/><rect class="cls-9" x="0.36" y="5.98" width="49.33" height="0.77"/><path class="cls-4" d="M49.69,7.25H.6a.35.35,0,0,1,0-.7H49.69a.35.35,0,1,1,0,.7Z"/><path class="cls-4" d="M.6,46a.53.53,0,0,1-.53-.53v-16a.53.53,0,0,1,.68-.32.51.51,0,0,1,.32.32v16A.52.52,0,0,1,.6,46Z"/><path class="cls-4" d="M18.6,63.87H1.85A1.85,1.85,0,0,1,0,62V49.23a.57.57,0,0,1,.64-.49.56.56,0,0,1,.49.49V62a.72.72,0,0,0,.72.72H18.6a.56.56,0,0,1,0,1.12Z"/><path class="cls-4" d="M48.41,63.77H33.85a.47.47,0,0,1-.46-.46h0a.45.45,0,0,1,.44-.46H48.41a.47.47,0,0,1,.46.46h0A.48.48,0,0,1,48.41,63.77Z"/><path class="cls-4" d="M49.69,57.76a.53.53,0,0,1-.53-.53v-54A2.16,2.16,0,0,0,47,1.07H37.09a.53.53,0,0,1-.68-.32.54.54,0,0,1,.33-.68.53.53,0,0,1,.35,0H47a3.23,3.23,0,0,1,3.22,3.21v54A.54.54,0,0,1,49.69,57.76Z"/><path class="cls-4" d="M.6,25a.53.53,0,0,1-.53-.53V3.24A3.21,3.21,0,0,1,3.28,0H32.39a.53.53,0,0,1,.68.32.54.54,0,0,1-.33.68.53.53,0,0,1-.35,0H3.28A2.16,2.16,0,0,0,1.12,3.19h0V24.45A.53.53,0,0,1,.66,25Z"/><circle class="cls-5" cx="14.7" cy="59.15" r="1.42"/><circle class="cls-5" cx="16.69" cy="56.62" r="0.57"/><circle class="cls-5" cx="10.74" cy="59.15" r="0.57"/><path class="cls-12" d="M27.51,68.18A5.61,5.61,0,0,0,33,63.83h7.19v3.09h2.63V63.83h1.7v3.09h2.63V63.83H50a1.26,1.26,0,1,0,.22-2.51H33a5.61,5.61,0,1,0-5.46,6.86Zm0-8.13A2.53,2.53,0,1,1,25,62.57a2.53,2.53,0,0,1,2.54-2.52Z"/><rect class="cls-13" x="30.03" y="62.35" width="21.19" height="0.63"/><rect class="cls-13" x="21.87" y="62.35" width="3.12" height="0.63"/><rect class="cls-13" x="30.03" y="62.03" width="21.19" height="0.63"/><rect class="cls-13" x="21.87" y="62.03" width="3.12" height="0.63"/><polygon class="cls-13" points="30.03 64.72 32.68 64.72 32.37 65.35 30.03 65.35 30.03 64.72"/><polygon class="cls-13" points="22.33 64.72 24.99 64.72 24.99 65.35 22.5 65.35 22.33 64.72"/><path class="cls-14" d="M22.14,61.05a5.6,5.6,0,0,1,10.71-.56,7.84,7.84,0,0,0-5.07-1.71A7.6,7.6,0,0,0,22.14,61.05Z"/><path class="cls-1" d="M46.75,66.07a.24.24,0,0,1-.24-.24h0V63.49a.23.23,0,0,1,.22-.24h2.6a.24.24,0,0,1,.24.24h0a.24.24,0,0,1-.24.24H47v2.1A.24.24,0,0,1,46.75,66.07Z"/><path class="cls-1" d="M46.08,66.83H44.85a.26.26,0,0,1-.24-.25V63.73H43.05a.24.24,0,0,1-.24-.24h0a.24.24,0,0,1,.24-.24h1.8a.23.23,0,0,1,.24.22v2.87h1a.25.25,0,0,1,0,.49Z"/><path class="cls-1" d="M41.76,66.83H40.54a.26.26,0,0,1-.24-.25V63.73H38.73a.24.24,0,0,1-.24-.24h0a.24.24,0,0,1,.24-.24h1.81a.24.24,0,0,1,.25.23h0v2.85h1a.25.25,0,0,1,0,.49Z"/><path class="cls-4" d="M27.51,68.56a6,6,0,0,1-6-6v-.21a6,6,0,0,1,11.73-1.41H50a1.64,1.64,0,0,1,.26,3.27,1.13,1.13,0,0,1-.26,0H47.49v2.31a.76.76,0,0,1-.77.77H44.85a.76.76,0,0,1-.77-.75V64.21h-1v2.21a.83.83,0,0,1-.83.83H40.61a.83.83,0,0,1-.83-.83h0V64.17H36.59a.38.38,0,0,1,0-.75h3.57a.38.38,0,0,1,.37.37v2.63a.09.09,0,0,0,.08.08h1.72s.07,0,.08-.06V63.79a.38.38,0,0,1,.38-.37h1.7a.38.38,0,0,1,.38.37v2.69h1.85V63.77a.39.39,0,0,1,.37-.37H50a.88.88,0,0,0,.63-.26.93.93,0,0,0,.25-.63.87.87,0,0,0-.88-.88H33a.38.38,0,0,1-.37-.29,5.24,5.24,0,0,0-5.21-4.06,5.22,5.22,0,0,0-.07,10.44h.19a5.2,5.2,0,0,0,2.26-.52.39.39,0,0,1,.51.17.38.38,0,0,1-.17.5h0A5.85,5.85,0,0,1,27.51,68.56Zm4.62-2.45a.39.39,0,0,1-.21-.06.38.38,0,0,1-.1-.52,5.07,5.07,0,0,0,.78-1.78.38.38,0,0,1,.37-.29h2.19a.39.39,0,0,1,.44.31.39.39,0,0,1-.32.44.24.24,0,0,1-.12,0h-1.9A5.91,5.91,0,0,1,32.44,66,.38.38,0,0,1,32.13,66.11Zm-4.62-.63a2.91,2.91,0,1,1,2.9-2.92h0A2.92,2.92,0,0,1,27.51,65.48Zm0-5.06a2.16,2.16,0,1,0,2.15,2.17v0A2.17,2.17,0,0,0,27.51,60.42Z"/><circle class="cls-4" cx="31.18" cy="66.86" r="0.42"/><circle class="cls-4" cx="0.6" cy="26.95" r="0.49"/><circle class="cls-4" cx="34.74" cy="0.56" r="0.49"/><path class="cls-4" d="M43.7,17.42h-.11a.29.29,0,0,1-.16-.38h0L45,13.27a.31.31,0,0,1,.39-.15.29.29,0,0,1,.15.38L44,17.26A.3.3,0,0,1,43.7,17.42Z"/><path class="cls-4" d="M45.85,15.57h-.12a.29.29,0,0,1-.16-.38h0l.85-2a.29.29,0,0,1,.36-.16h0a.29.29,0,0,1,.16.38h0l-.85,2A.3.3,0,0,1,45.85,15.57Z"/></g></g></svg>