<svg xmlns="http://www.w3.org/2000/svg" viewBox="0 0 63.19 63.39"><defs><style>.cls-1{fill:#d9e1e4;}.cls-2{fill:#fff;}.cls-3,.cls-6,.cls-7{fill:#94b5bf;}.cls-4,.cls-5{fill:#3e3126;}.cls-5{opacity:0.3;}.cls-5,.cls-6,.cls-7{isolation:isolate;}.cls-6{opacity:0.5;}.cls-7{opacity:0.35;}</style></defs><g id="Layer_2" data-name="Layer 2"><g id="Layer_1-2" data-name="Layer 1"><path class="cls-1" d="M32.06,15.94A15.87,15.87,0,1,0,47.92,31.82v0A15.87,15.87,0,0,0,32.06,15.94Zm0,27.14A11.27,11.27,0,1,1,43.32,31.8,11.27,11.27,0,0,1,32.06,43.08Z"/><path class="cls-1" d="M45.9,55.24h0A6.39,6.39,0,0,0,37.28,58a6.65,6.65,0,0,0-.27.61h0a6.39,6.39,0,0,1-12-.44h0A6.39,6.39,0,0,0,17,54a6.62,6.62,0,0,0-.62.24h0a6.4,6.4,0,0,1-8.21-8.82h0a6.41,6.41,0,0,0-2.73-8.64l-.58-.26h0a6.39,6.39,0,0,1,.43-12h0a6.4,6.4,0,0,0,4.19-8,5.17,5.17,0,0,0-.26-.69h0A6.4,6.4,0,0,1,18,7.58h0a6.39,6.39,0,0,0,8.62-2.72,6.28,6.28,0,0,0,.27-.59h0a6.39,6.39,0,0,1,12,.43h0A6.41,6.41,0,0,0,47,8.87l.59-.22h0a6.39,6.39,0,0,1,8.21,8.82h0a6.38,6.38,0,0,0,2.71,8.61,4.66,4.66,0,0,0,.6.28h0a6.4,6.4,0,0,1-.43,12h0a6.38,6.38,0,0,0-4.18,8c.07.22.15.43.24.64h0a6.4,6.4,0,0,1-8.79,8.25Z"/><path class="cls-2" d="M38.13,3.69A6.37,6.37,0,0,0,35,2.91a6.28,6.28,0,0,0-5.94,4,6.4,6.4,0,0,1-8.3,3.59,6.28,6.28,0,0,1-.59-.27A6.41,6.41,0,0,0,11.55,13a6.31,6.31,0,0,0-.72,2.92,6.54,6.54,0,0,0,.54,2.57,6.38,6.38,0,0,1-3.3,8.38c-.21.09-.43.17-.64.24A6.28,6.28,0,0,0,3,33.18a6.47,6.47,0,0,0,.77,3.07A6.39,6.39,0,0,1,4.94,24.58a6.43,6.43,0,0,0,4.47-6.12A7,7,0,0,0,8.55,16a5.83,5.83,0,0,1-.21-2.62,6.42,6.42,0,0,1,9.37-5.63,6.48,6.48,0,0,0,2.93.73,6.44,6.44,0,0,0,6-4,6.39,6.39,0,0,1,11.52-.77Z"/><path class="cls-3" d="M62.21,32.68a6.33,6.33,0,0,1-4.47,6.12,6.37,6.37,0,0,0-4,8.63A6.37,6.37,0,0,1,45,55.64a6.41,6.41,0,0,0-8.64,2.74,4.29,4.29,0,0,0-.26.58,6.39,6.39,0,0,1-12-.38C55.44,49.45,54,28.71,49.35,8.49a6.43,6.43,0,0,1,5.52,9.37,6.21,6.21,0,0,0-.73,2.93,6.43,6.43,0,0,0,4,6A6.24,6.24,0,0,1,62.21,32.68Z"/><circle class="cls-4" cx="8.63" cy="13.6" r="0.69"/><circle class="cls-4" cx="24.78" cy="6.92" r="0.69"/><circle class="cls-4" cx="6.67" cy="38.31" r="0.69"/><circle class="cls-3" cx="31.66" cy="31.67" r="15.87"/><path class="cls-4" d="M31.66,48.17A16.5,16.5,0,1,1,48.15,31.66h0A16.53,16.53,0,0,1,31.66,48.17Zm0-31.73A15.24,15.24,0,1,0,46.89,31.69v0A15.25,15.25,0,0,0,31.66,16.44Z"/><path class="cls-3" d="M31.64,51A19.25,19.25,0,1,1,50.83,31.68v.07A19.25,19.25,0,0,1,31.64,51Zm0-37.13a17.89,17.89,0,1,0,17.83,18v-.06A17.88,17.88,0,0,0,31.64,13.86Z"/><path class="cls-5" d="M31.66,47.58A15.87,15.87,0,1,1,47.53,31.71h0A15.9,15.9,0,0,1,31.66,47.58Zm0-30.1A14.24,14.24,0,1,0,45.89,31.73v0A14.25,14.25,0,0,0,31.66,17.44h0Z"/><circle class="cls-2" cx="31.59" cy="31.47" r="11.26"/><path class="cls-4" d="M4.51,37.25h-.2a6.93,6.93,0,0,1,.47-13A5.87,5.87,0,0,0,8.6,16.88c-.06-.19-.13-.37-.2-.55a.53.53,0,0,1,.27-.7h0a.51.51,0,0,1,.68.26v0A6.93,6.93,0,0,1,5.75,25a5.78,5.78,0,0,1-.65.25,5.87,5.87,0,0,0-.4,11,.52.52,0,0,1,.28.68.54.54,0,0,1-.47.32Z"/><path class="cls-4" d="M30.78,63.39h-.26a6.84,6.84,0,0,1-6.31-4.81,5.86,5.86,0,0,0-7.31-3.91,5.17,5.17,0,0,0-.69.26,6.93,6.93,0,0,1-8.89-9.55,5.82,5.82,0,0,0,.34-4.62A.54.54,0,0,1,8,40.08a.53.53,0,0,1,.67.33,6.89,6.89,0,0,1-.4,5.46A5.87,5.87,0,0,0,15.79,54a6.92,6.92,0,0,1,9.1,3.6,6.63,6.63,0,0,1,.25.67,5.74,5.74,0,0,0,5.38,4.1,5.84,5.84,0,0,0,5.67-3.7,6.91,6.91,0,0,1,9-3.89c.22.09.44.19.65.3a5.87,5.87,0,0,0,8.09-7.53,6.91,6.91,0,0,1,3.6-9.1,5.4,5.4,0,0,1,.67-.25,5.87,5.87,0,0,0,.4-11,6.93,6.93,0,0,1-3.88-9,4.51,4.51,0,0,1,.29-.63,5.87,5.87,0,0,0-7.53-8.09,6.94,6.94,0,0,1-9.11-3.62c-.09-.22-.17-.43-.24-.65a5.87,5.87,0,0,0-11-.4.54.54,0,0,1-.7.3.53.53,0,0,1-.3-.69,6.92,6.92,0,0,1,13,.47A5.86,5.86,0,0,0,46.4,8.63,5.71,5.71,0,0,0,47,8.42,6.93,6.93,0,0,1,55.87,18a5.88,5.88,0,0,0,2.5,7.93l.5.23a6.92,6.92,0,0,1-.47,13,5.86,5.86,0,0,0-3.84,7.34,5.77,5.77,0,0,0,.22.58,6.93,6.93,0,0,1-9.55,8.89,5.85,5.85,0,0,0-7.91,2.44,5.62,5.62,0,0,0-.25.56A6.87,6.87,0,0,1,30.78,63.39Z"/><path class="cls-4" d="M8.75,11.78H8.56a.53.53,0,0,1-.31-.67h0A7,7,0,0,1,12.36,7,6.71,6.71,0,0,1,18,7.4a5.94,5.94,0,0,0,4.36.43.5.5,0,0,1,.64.32v0a.52.52,0,0,1-.36.65h0a6.85,6.85,0,0,1-5.14-.5A5.68,5.68,0,0,0,12.73,8a6.05,6.05,0,0,0-3.52,3.42A.56.56,0,0,1,8.75,11.78Z"/><ellipse class="cls-3" cx="30.48" cy="56.69" rx="2.59" ry="2.19"/><circle class="cls-6" cx="32.09" cy="52.81" r="0.83"/><circle class="cls-6" cx="47.84" cy="13.83" r="0.83"/><circle class="cls-3" cx="37.99" cy="53.44" r="1.79"/><circle class="cls-3" cx="52.24" cy="24.23" r="1.79"/><circle class="cls-6" cx="35.26" cy="52.77" r="0.5"/><circle class="cls-6" cx="48.79" cy="15.72" r="0.5"/><circle class="cls-7" cx="50.18" cy="21.2" r="0.5"/><circle class="cls-3" cx="50.75" cy="18.15" r="1.73"/><path class="cls-4" d="M31.66,43.38A11.71,11.71,0,1,1,41,38.76a.44.44,0,0,1-.62.08h0a.45.45,0,0,1-.1-.62h0a10.81,10.81,0,1,0-2.53,2.4.45.45,0,0,1,.59.67l-.09.07A11.71,11.71,0,0,1,31.66,43.38Z"/><path class="cls-4" d="M7.55,33H7.42a.33.33,0,0,1-.18-.43h0L9,28.28a.33.33,0,0,1,.43-.18.33.33,0,0,1,.18.44l-1.8,4.23A.33.33,0,0,1,7.55,33Z"/><path class="cls-4" d="M9.93,30.9H9.81a.33.33,0,0,1-.18-.43h0l1-2.27a.33.33,0,0,1,.43-.18.33.33,0,0,1,.18.44l-1,2.26A.35.35,0,0,1,9.93,30.9Z"/><path class="cls-4" d="M31.66,51.16a19.49,19.49,0,1,1,19.48-19.5h0A19.52,19.52,0,0,1,31.66,51.16Zm0-38.08A18.6,18.6,0,1,0,50.21,31.73v-.06A18.61,18.61,0,0,0,31.66,13.08Z"/></g></g></svg>