<?xml version="1.0" encoding="UTF-8"?><svg version="1.1" id="Layer_1" xmlns="http://www.w3.org/2000/svg" xmlns:xlink="http://www.w3.org/1999/xlink" x="0px" y="0px" viewBox="0 0 1000 1000" style="enable-background:new 0 0 1000 1000;" xml:space="preserve" width="1000px" height="1000px">

<g>
	<g id="Layer_1_1_">
		<path d="M119.3,468.3l456.9-278.9c14.1-8.6,32.6-4.2,41.2,10l157.6,258.1c8.6,14.1,4.2,32.6-10,41.2L308.1,777.6
			c-14.1,8.6-32.6,4.2-41.2-10L109.3,509.5C100.6,495.4,105.1,476.9,119.3,468.3z" style="opacity:0.5;fill:#232323;stroke:#232323;stroke-width:8;stroke-linecap:round;stroke-linejoin:round;enable-background:new    ;"/>
		<path d="M122,446.7l456.9-278.9c14.1-8.6,32.6-4.2,41.2,10l157.6,258.1c8.6,14.1,4.2,32.6-10,41.2L310.8,755.9
			c-14.1,8.6-32.6,4.2-41.2-10L112.1,487.9C103.4,473.8,107.9,455.3,122,446.7z" style="fill:#43597A;"/>
		<path d="M571.4,172.3l-9.9,6.1c18.3-11.2,42.2-5.4,53.4,12.9l148.4,243c11.2,18.3,5.4,42.2-12.9,53.4l9.9-6.1
			c18.3-11.2,24.1-35.1,12.9-53.4c0,0,0,0,0,0l-148.4-243C613.6,166.9,589.7,161.2,571.4,172.3z" style="opacity:0.4;fill:#43597A;enable-background:new    ;"/>
		<path d="M277.7,730.7l-148.4-243c-11.2-18.3-5.4-42.2,12.9-53.4l-14.9,9.1c-18.3,11.2-24.1,35.1-12.9,53.4
			c0,0,0,0,0,0l148.4,243c11.2,18.3,35.1,24.1,53.4,12.9l14.9-9.1C312.8,754.8,288.9,749,277.7,730.7z" style="opacity:0.2;fill:#43597A;enable-background:new    ;"/>
		<g>
			<path d="M295.3,764.3c-11.5,0-22.7-5.8-29.1-16.3L108.6,490c-4.7-7.8-6.2-16.9-4-25.7c2.1-8.8,7.6-16.3,15.3-21
				l2.1,3.4l-2.1-3.4l456.9-278.9c7.8-4.7,16.9-6.2,25.7-4c8.8,2.1,16.3,7.6,21,15.3l157.6,258.1c9.8,16,4.7,37-11.3,46.7
				L312.9,759.4C307.4,762.7,301.3,764.3,295.3,764.3z M594.5,167.3c-4.7,0-9.4,1.3-13.5,3.8L124.1,450.1
				c-5.9,3.6-10.1,9.3-11.7,16.1c-1.6,6.8-0.5,13.7,3.1,19.7L273,743.9c7.5,12.2,23.5,16.1,35.7,8.6l456.9-278.9
				c12.2-7.5,16.1-23.5,8.6-35.7L616.7,179.8c-3.6-5.9-9.3-10.1-16.1-11.7C598.6,167.6,596.6,167.3,594.5,167.3z" style="fill:#202454;"/>
		</g>
		<path d="M223.5,412l358.1-218.6c8.5-5.2,19.6-2.5,24.7,6l145.8,238.8c5.2,8.5,2.5,19.6-6,24.7L388,681.5
			c-8.5,5.2-19.6,2.5-24.7-6L217.5,436.8C212.3,428.3,215,417.2,223.5,412z" style="fill:#2F3F56;"/>
		<g style="opacity:0.16;">
			<g>
				<path d="M434.5,653.6c-0.2,0-0.3-0.1-0.4-0.2L269.6,383.9c-0.1-0.2-0.1-0.5,0.2-0.7c0.2-0.1,0.5-0.1,0.7,0.2
					l164.5,269.5c0.1,0.2,0.1,0.5-0.2,0.7C434.7,653.6,434.6,653.6,434.5,653.6z" style="fill:#303B68;"/>
			</g>
			<g>
				<path d="M487.5,621.3c-0.2,0-0.3-0.1-0.4-0.2L322.6,351.5c-0.1-0.2-0.1-0.5,0.2-0.7c0.2-0.1,0.5-0.1,0.7,0.2
					L488,620.5c0.1,0.2,0.1,0.5-0.2,0.7C487.7,621.2,487.6,621.3,487.5,621.3z" style="fill:#303B68;"/>
			</g>
			<g>
				<path d="M540.6,588.9c-0.2,0-0.3-0.1-0.4-0.2L375.6,319.1c-0.1-0.2-0.1-0.5,0.2-0.7c0.2-0.1,0.5-0.1,0.7,0.2
					L541,588.1c0.1,0.2,0.1,0.5-0.2,0.7C540.7,588.9,540.6,588.9,540.6,588.9z" style="fill:#303B68;"/>
			</g>
			<g>
				<path d="M593.6,556.5c-0.2,0-0.3-0.1-0.4-0.2L428.6,286.8c-0.1-0.2-0.1-0.5,0.2-0.7c0.2-0.1,0.5-0.1,0.7,0.2
					L594,555.8c0.1,0.2,0.1,0.5-0.2,0.7C593.8,556.5,593.7,556.5,593.6,556.5z" style="fill:#303B68;"/>
			</g>
			<g>
				<path d="M646.6,524.2c-0.2,0-0.3-0.1-0.4-0.2L481.6,254.4c-0.1-0.2-0.1-0.5,0.2-0.7c0.2-0.1,0.5-0.1,0.7,0.2
					L647,523.4c0.1,0.2,0.1,0.5-0.2,0.7C646.8,524.1,646.7,524.2,646.6,524.2z" style="fill:#303B68;"/>
			</g>
			<g>
				<path d="M699.6,491.8c-0.2,0-0.3-0.1-0.4-0.2L534.7,222c-0.1-0.2-0.1-0.5,0.2-0.7c0.2-0.1,0.5-0.1,0.7,0.2L700,491
					c0.1,0.2,0.1,0.5-0.2,0.7C699.8,491.8,699.7,491.8,699.6,491.8z" style="fill:#303B68;"/>
			</g>
			<g>
				<path d="M241.8,477.1c-0.2,0-0.3-0.1-0.4-0.2c-0.1-0.2-0.1-0.5,0.2-0.7l388.8-237.4c0.2-0.1,0.5-0.1,0.7,0.2
					c0.1,0.2,0.1,0.5-0.2,0.7L242.1,477C242,477.1,241.9,477.1,241.8,477.1z" style="fill:#303B68;"/>
			</g>
			<g>
				<path d="M274.2,530.1c-0.2,0-0.3-0.1-0.4-0.2c-0.1-0.2-0.1-0.5,0.2-0.7l388.8-237.4c0.2-0.1,0.5-0.1,0.7,0.2
					c0.1,0.2,0.1,0.5-0.2,0.7L274.5,530.1C274.4,530.1,274.3,530.1,274.2,530.1z" style="fill:#303B68;"/>
			</g>
			<g>
				<path d="M306.6,583.2c-0.2,0-0.3-0.1-0.4-0.2c-0.1-0.2-0.1-0.5,0.2-0.7l388.8-237.4c0.2-0.1,0.5-0.1,0.7,0.2
					c0.1,0.2,0.1,0.5-0.2,0.7L306.8,583.1C306.8,583.1,306.7,583.2,306.6,583.2z" style="fill:#303B68;"/>
			</g>
			<g>
				<path d="M338.9,636.2c-0.2,0-0.3-0.1-0.4-0.2c-0.1-0.2-0.1-0.5,0.2-0.7l388.8-237.4c0.2-0.1,0.5-0.1,0.7,0.2
					c0.1,0.2,0.1,0.5-0.2,0.7L339.2,636.1C339.1,636.2,339,636.2,338.9,636.2z" style="fill:#303B68;"/>
			</g>
		</g>
		<g>
			<path d="M378.7,688.2c-7.4,0-14.7-3.7-18.8-10.5L214.1,438.8c-6.3-10.4-3-23.9,7.3-30.2l0,0L579.5,190
				c5-3.1,10.9-4,16.6-2.6c5.7,1.4,10.5,4.9,13.6,9.9l145.8,238.8c6.3,10.4,3,23.9-7.3,30.2L390.1,684.9
				C386.5,687.1,382.6,688.2,378.7,688.2z M225.6,415.4c-6.6,4-8.7,12.7-4.7,19.2l145.8,238.8c4,6.6,12.7,8.7,19.2,4.7L744,459.5
				c6.6-4,8.7-12.7,4.7-19.2L602.9,201.5c-1.9-3.2-5-5.4-8.7-6.3c-3.6-0.9-7.4-0.3-10.6,1.7L225.6,415.4z" style="fill:#202454;"/>
		</g>
		<g style="opacity:0.8;">
			<path d="M287.1,685.5l25.1-15.3c2.8-1.7,6.5-0.8,8.2,2l9.9,16.3c1.7,2.8,0.8,6.5-2,8.2L303.3,712
				c-2.8,1.7-6.5,0.8-8.2-2l-9.9-16.3C283.4,690.9,284.3,687.2,287.1,685.5z" style="fill:#43597A;"/>
			<path d="M260.1,641.3l25.1-15.3c2.8-1.7,6.5-0.8,8.2,2l9.9,16.3c1.7,2.8,0.8,6.5-2,8.2l-25.1,15.3
				c-2.8,1.7-6.5,0.8-8.2-2l-9.9-16.3C256.4,646.7,257.3,643.1,260.1,641.3z" style="fill:#43597A;"/>
		</g>
		<g>
			<path d="M300.2,716.9c-3.4,0-6.7-1.7-8.6-4.8l-9.9-16.3c-2.9-4.7-1.4-10.9,3.3-13.7c0,0,0,0,0,0l25.1-15.3
				c4.7-2.9,10.9-1.4,13.7,3.3l9.9,16.3c2.9,4.7,1.4,10.9-3.3,13.7l-25.1,15.3C303.8,716.4,302,716.9,300.2,716.9z M289.2,688.9
				c-0.9,0.6-1.2,1.8-0.7,2.8l9.9,16.3c0.6,0.9,1.8,1.2,2.7,0.7l25.1-15.3c0.9-0.6,1.2-1.8,0.7-2.8l-9.9-16.3
				c-0.4-0.6-0.9-0.8-1.2-0.9c-0.3-0.1-0.9-0.1-1.5,0.2L289.2,688.9z" style="fill:#202454;"/>
		</g>
		<g>
			<path d="M273.2,672.7c-0.8,0-1.6-0.1-2.4-0.3c-2.6-0.6-4.8-2.2-6.2-4.5l-9.9-16.3c-2.9-4.7-1.4-10.9,3.3-13.7l0,0
				l25.1-15.3c2.3-1.4,5-1.8,7.6-1.2c2.6,0.6,4.8,2.2,6.2,4.5l9.9,16.3c2.9,4.7,1.4,10.9-3.3,13.7l-25.1,15.3
				C276.8,672.2,275,672.7,273.2,672.7z M260.1,641.3l2.1,3.4c-0.6,0.4-0.8,0.9-0.9,1.2c-0.1,0.3-0.1,0.9,0.2,1.5l9.9,16.3
				c0.4,0.6,0.9,0.8,1.2,0.9c0.3,0.1,0.9,0.1,1.5-0.2l25.1-15.3c0.9-0.6,1.2-1.8,0.7-2.8l-9.9-16.3c-0.4-0.6-0.9-0.8-1.2-0.9
				c-0.3-0.1-0.9-0.1-1.5,0.2l-25.1,15.3L260.1,641.3z" style="fill:#202454;"/>
		</g>
		<g style="opacity:0.8;">
			<path d="M189.1,525l25.1-15.3c2.8-1.7,6.5-0.8,8.2,2l9.9,16.3c1.7,2.8,0.8,6.5-2,8.2l-25.1,15.3
				c-2.8,1.7-6.5,0.8-8.2-2l-9.9-16.3C185.4,530.4,186.3,526.7,189.1,525z" style="fill:#43597A;"/>
			<path d="M162.1,480.8l25.1-15.3c2.8-1.7,6.5-0.8,8.2,2l9.9,16.3c1.7,2.8,0.8,6.5-2,8.2l-25.1,15.3
				c-2.8,1.7-6.5,0.8-8.2-2l-9.9-16.3C158.4,486.2,159.3,482.5,162.1,480.8z" style="fill:#43597A;"/>
		</g>
		<g>
			<path d="M202.2,556.4c-3.4,0-6.7-1.7-8.6-4.8l-9.9-16.3c-1.4-2.3-1.8-5-1.2-7.6c0.6-2.6,2.2-4.8,4.5-6.2l25.1-15.3
				c2.3-1.4,5-1.8,7.6-1.2c2.6,0.6,4.8,2.2,6.2,4.5l9.9,16.3c2.9,4.7,1.4,10.9-3.3,13.7l-25.1,15.3
				C205.8,555.9,204,556.4,202.2,556.4z M217.3,512.8c-0.3,0-0.7,0.1-1,0.3l-25.1,15.3c0,0,0,0,0,0c-0.6,0.4-0.8,0.9-0.9,1.2
				c-0.1,0.3-0.1,0.9,0.2,1.5l9.9,16.3c0.6,0.9,1.8,1.2,2.7,0.7l25.1-15.3c0.9-0.6,1.2-1.8,0.7-2.7l-9.9-16.3
				c-0.4-0.6-0.9-0.8-1.2-0.9C217.7,512.8,217.5,512.8,217.3,512.8z M189.1,525L189.1,525L189.1,525z" style="fill:#202454;"/>
		</g>
		<g>
			<path d="M175.2,512.2c-3.4,0-6.7-1.7-8.6-4.8l-9.9-16.3c-1.4-2.3-1.8-5-1.2-7.6c0.6-2.6,2.2-4.8,4.5-6.2l25.1-15.3
				c4.7-2.9,10.9-1.4,13.7,3.3l9.9,16.3c1.4,2.3,1.8,5,1.2,7.6c-0.6,2.6-2.2,4.8-4.5,6.2l-25.1,15.3
				C178.8,511.7,177,512.2,175.2,512.2z M190.4,468.6c-0.4,0-0.7,0.1-1,0.3l-25.1,15.3c0,0,0,0,0,0c-0.6,0.4-0.8,0.9-0.9,1.2
				c-0.1,0.3-0.1,0.9,0.2,1.5l9.9,16.3c0.6,0.9,1.8,1.2,2.7,0.7l25.1-15.3c0.6-0.4,0.8-0.9,0.9-1.2s0.1-0.9-0.2-1.5l-9.9-16.3
				C191.7,468.9,191,468.6,190.4,468.6z M162.1,480.8L162.1,480.8L162.1,480.8z" style="fill:#202454;"/>
		</g>
		
			<ellipse transform="matrix(0.1602 -0.9871 0.9871 0.1602 -375.1583 736.5462)" cx="245.3" cy="588.7" rx="31.1" ry="31.1" style="opacity:0.8;fill:#B4C7E7;enable-background:new    ;"/>
		<g>
			<path d="M245.3,622.8c-18.8,0-34.1-15.3-34.1-34.1c0-18.8,15.3-34.1,34.1-34.1s34.1,15.3,34.1,34.1
				C279.3,607.5,264.1,622.8,245.3,622.8z M245.3,560.7c-15.5,0-28.1,12.6-28.1,28.1c0,15.5,12.6,28.1,28.1,28.1
				s28.1-12.6,28.1-28.1C273.3,573.3,260.7,560.7,245.3,560.7z" style="fill:#22293F;"/>
		</g>
		<g>
			<path d="M245.3,623.8c-19.3,0-35.1-15.7-35.1-35.1s15.7-35.1,35.1-35.1s35.1,15.7,35.1,35.1S264.6,623.8,245.3,623.8
				z M245.3,561.7c-14.9,0-27.1,12.1-27.1,27.1s12.1,27.1,27.1,27.1s27.1-12.1,27.1-27.1S260.2,561.7,245.3,561.7z" style="fill:#202454;"/>
		</g>
		<g>
			<path d="M232,599.3c-0.8,0-1.7-0.4-2.1-1.2c-5.2-8.5-2.5-19.6,6-24.8c1.2-0.7,2.7-0.4,3.4,0.8
				c0.7,1.2,0.4,2.7-0.8,3.4c-6.1,3.7-8.1,11.8-4.3,17.9c0.7,1.2,0.3,2.7-0.8,3.4C232.9,599.2,232.5,599.3,232,599.3z" style="fill:#202454;"/>
		</g>
		<g>
			<path d="M667.9,440.9c-0.5,0-1-0.3-1.3-0.7l-4-6.6c-0.4-0.7-0.2-1.6,0.5-2.1c0.7-0.4,1.6-0.2,2.1,0.5l4,6.6
				c0.4,0.7,0.2,1.6-0.5,2.1C668.5,440.8,668.2,440.9,667.9,440.9z" style="fill:#707A99;"/>
		</g>
		<g>
			<path d="M662.6,439.6c-0.5,0-1-0.3-1.3-0.7c-0.4-0.7-0.2-1.6,0.5-2.1l6.6-4c0.7-0.4,1.6-0.2,2.1,0.5
				s0.2,1.6-0.5,2.1l-6.6,4C663.1,439.5,662.9,439.6,662.6,439.6z" style="fill:#707A99;"/>
		</g>
		<g>
			<path d="M614.9,473.3c-0.5,0-1-0.3-1.3-0.7l-4-6.6c-0.4-0.7-0.2-1.6,0.5-2.1c0.7-0.4,1.6-0.2,2.1,0.5l4,6.6
				c0.4,0.7,0.2,1.6-0.5,2.1C615.4,473.2,615.2,473.3,614.9,473.3z" style="fill:#707A99;"/>
		</g>
		<g>
			<path d="M609.6,472c-0.5,0-1-0.3-1.3-0.7c-0.4-0.7-0.2-1.6,0.5-2.1l6.6-4c0.7-0.4,1.6-0.2,2.1,0.5
				c0.4,0.7,0.2,1.6-0.5,2.1l-6.6,4C610.1,471.9,609.8,472,609.6,472z" style="fill:#707A99;"/>
		</g>
		<g>
			<path d="M561.9,505.6c-0.5,0-1-0.3-1.3-0.7l-4-6.6c-0.4-0.7-0.2-1.6,0.5-2.1c0.7-0.4,1.6-0.2,2.1,0.5l4,6.6
				c0.4,0.7,0.2,1.6-0.5,2.1C562.4,505.6,562.2,505.6,561.9,505.6z" style="fill:#707A99;"/>
		</g>
		<g>
			<path d="M556.5,504.3c-0.5,0-1-0.3-1.3-0.7c-0.4-0.7-0.2-1.6,0.5-2.1l6.6-4c0.7-0.4,1.6-0.2,2.1,0.5
				c0.4,0.7,0.2,1.6-0.5,2.1l-6.6,4C557.1,504.3,556.8,504.3,556.5,504.3z" style="fill:#707A99;"/>
		</g>
		<g>
			<path d="M508.9,538c-0.5,0-1-0.3-1.3-0.7l-4-6.6c-0.4-0.7-0.2-1.6,0.5-2.1c0.7-0.4,1.6-0.2,2.1,0.5l4,6.6
				c0.4,0.7,0.2,1.6-0.5,2.1C509.4,537.9,509.1,538,508.9,538z" style="fill:#707A99;"/>
		</g>
		<g>
			<path d="M503.5,536.7c-0.5,0-1-0.3-1.3-0.7c-0.4-0.7-0.2-1.6,0.5-2.1l6.6-4c0.7-0.4,1.6-0.2,2.1,0.5
				c0.4,0.7,0.2,1.6-0.5,2.1l-6.6,4C504.1,536.6,503.8,536.7,503.5,536.7z" style="fill:#707A99;"/>
		</g>
		<g>
			<path d="M455.8,570.4c-0.5,0-1-0.3-1.3-0.7l-4-6.6c-0.4-0.7-0.2-1.6,0.5-2.1c0.7-0.4,1.6-0.2,2.1,0.5l4,6.6
				c0.4,0.7,0.2,1.6-0.5,2.1C456.4,570.3,456.1,570.4,455.8,570.4z" style="fill:#707A99;"/>
		</g>
		<g>
			<path d="M450.5,569.1c-0.5,0-1-0.3-1.3-0.7c-0.4-0.7-0.2-1.6,0.5-2.1l6.6-4c0.7-0.4,1.6-0.2,2.1,0.5
				c0.4,0.7,0.2,1.6-0.5,2.1l-6.6,4C451,569,450.8,569.1,450.5,569.1z" style="fill:#707A99;"/>
		</g>
		<g>
			<path d="M402.8,602.7c-0.5,0-1-0.3-1.3-0.7l-4-6.6c-0.4-0.7-0.2-1.6,0.5-2.1c0.7-0.4,1.6-0.2,2.1,0.5l4,6.6
				c0.4,0.7,0.2,1.6-0.5,2.1C403.4,602.7,403.1,602.7,402.8,602.7z" style="fill:#707A99;"/>
		</g>
		<g>
			<path d="M397.5,601.4c-0.5,0-1-0.3-1.3-0.7c-0.4-0.7-0.2-1.6,0.5-2.1l6.6-4c0.7-0.4,1.6-0.2,2.1,0.5
				c0.4,0.7,0.2,1.6-0.5,2.1l-6.6,4C398,601.4,397.8,601.4,397.5,601.4z" style="fill:#707A99;"/>
		</g>
		<g>
			<path d="M635.6,387.9c-0.5,0-1-0.3-1.3-0.7l-4-6.6c-0.4-0.7-0.2-1.6,0.5-2.1c0.7-0.4,1.6-0.2,2.1,0.5l4,6.6
				c0.4,0.7,0.2,1.6-0.5,2.1C636.1,387.8,635.8,387.9,635.6,387.9z" style="fill:#707A99;"/>
		</g>
		<g>
			<path d="M630.2,386.6c-0.5,0-1-0.3-1.3-0.7c-0.4-0.7-0.2-1.6,0.5-2.1l6.6-4c0.7-0.4,1.6-0.2,2.1,0.5
				c0.4,0.7,0.2,1.6-0.5,2.1l-6.6,4C630.8,386.5,630.5,386.6,630.2,386.6z" style="fill:#707A99;"/>
		</g>
		<g>
			<path d="M582.5,420.2c-0.5,0-1-0.3-1.3-0.7l-4-6.6c-0.4-0.7-0.2-1.6,0.5-2.1c0.7-0.4,1.6-0.2,2.1,0.5l4,6.6
				c0.4,0.7,0.2,1.6-0.5,2.1C583.1,420.2,582.8,420.2,582.5,420.2z" style="fill:#707A99;"/>
		</g>
		<g>
			<path d="M577.2,418.9c-0.5,0-1-0.3-1.3-0.7c-0.4-0.7-0.2-1.6,0.5-2.1l6.6-4c0.7-0.4,1.6-0.2,2.1,0.5
				s0.2,1.6-0.5,2.1l-6.6,4C577.7,418.9,577.5,418.9,577.2,418.9z" style="fill:#707A99;"/>
		</g>
		<g>
			<path d="M529.5,452.6c-0.5,0-1-0.3-1.3-0.7l-4-6.6c-0.4-0.7-0.2-1.6,0.5-2.1c0.7-0.4,1.6-0.2,2.1,0.5l4,6.6
				c0.4,0.7,0.2,1.6-0.5,2.1C530.1,452.5,529.8,452.6,529.5,452.6z" style="fill:#707A99;"/>
		</g>
		<g>
			<path d="M524.2,451.3c-0.5,0-1-0.3-1.3-0.7c-0.4-0.7-0.2-1.6,0.5-2.1l6.6-4c0.7-0.4,1.6-0.2,2.1,0.5
				c0.4,0.7,0.2,1.6-0.5,2.1l-6.6,4C524.7,451.2,524.4,451.3,524.2,451.3z" style="fill:#707A99;"/>
		</g>
		<g>
			<path d="M476.5,485c-0.5,0-1-0.3-1.3-0.7l-4-6.6c-0.4-0.7-0.2-1.6,0.5-2.1c0.7-0.4,1.6-0.2,2.1,0.5l4,6.6
				c0.4,0.7,0.2,1.6-0.5,2.1C477,484.9,476.8,485,476.5,485z" style="fill:#707A99;"/>
		</g>
		<g>
			<path d="M471.2,483.7c-0.5,0-1-0.3-1.3-0.7c-0.4-0.7-0.2-1.6,0.5-2.1l6.6-4c0.7-0.4,1.6-0.2,2.1,0.5
				s0.2,1.6-0.5,2.1l-6.6,4C471.7,483.6,471.4,483.7,471.2,483.7z" style="fill:#707A99;"/>
		</g>
		<g>
			<path d="M423.5,517.3c-0.5,0-1-0.3-1.3-0.7l-4-6.6c-0.4-0.7-0.2-1.6,0.5-2.1c0.7-0.4,1.6-0.2,2.1,0.5l4,6.6
				c0.4,0.7,0.2,1.6-0.5,2.1C424,517.3,423.7,517.3,423.5,517.3z" style="fill:#707A99;"/>
		</g>
		<g>
			<path d="M418.1,516c-0.5,0-1-0.3-1.3-0.7c-0.4-0.7-0.2-1.6,0.5-2.1l6.6-4c0.7-0.4,1.6-0.2,2.1,0.5
				c0.4,0.7,0.2,1.6-0.5,2.1l-6.6,4C418.7,516,418.4,516,418.1,516z" style="fill:#707A99;"/>
		</g>
		<g>
			<path d="M370.5,549.7c-0.5,0-1-0.3-1.3-0.7l-4-6.6c-0.4-0.7-0.2-1.6,0.5-2.1c0.7-0.4,1.6-0.2,2.1,0.5l4,6.6
				c0.4,0.7,0.2,1.6-0.5,2.1C371,549.6,370.7,549.7,370.5,549.7z" style="fill:#707A99;"/>
		</g>
		<g>
			<path d="M365.1,548.4c-0.5,0-1-0.3-1.3-0.7c-0.4-0.7-0.2-1.6,0.5-2.1l6.6-4c0.7-0.4,1.6-0.2,2.1,0.5
				c0.4,0.7,0.2,1.6-0.5,2.1l-6.6,4C365.7,548.3,365.4,548.4,365.1,548.4z" style="fill:#707A99;"/>
		</g>
		<g>
			<path d="M603.2,334.8c-0.5,0-1-0.3-1.3-0.7l-4-6.6c-0.4-0.7-0.2-1.6,0.5-2.1s1.6-0.2,2.1,0.5l4,6.6
				c0.4,0.7,0.2,1.6-0.5,2.1C603.7,334.8,603.5,334.8,603.2,334.8z" style="fill:#707A99;"/>
		</g>
		<g>
			<path d="M597.9,333.6c-0.5,0-1-0.3-1.3-0.7c-0.4-0.7-0.2-1.6,0.5-2.1l6.6-4c0.7-0.4,1.6-0.2,2.1,0.5
				c0.4,0.7,0.2,1.6-0.5,2.1l-6.6,4C598.4,333.5,598.1,333.6,597.9,333.6z" style="fill:#707A99;"/>
		</g>
		<g>
			<path d="M550.2,367.2c-0.5,0-1-0.3-1.3-0.7l-4-6.6c-0.4-0.7-0.2-1.6,0.5-2.1c0.7-0.4,1.6-0.2,2.1,0.5l4,6.6
				c0.4,0.7,0.2,1.6-0.5,2.1C550.7,367.1,550.4,367.2,550.2,367.2z" style="fill:#707A99;"/>
		</g>
		<g>
			<path d="M544.8,365.9c-0.5,0-1-0.3-1.3-0.7c-0.4-0.7-0.2-1.6,0.5-2.1l6.6-4c0.7-0.4,1.6-0.2,2.1,0.5
				c0.4,0.7,0.2,1.6-0.5,2.1l-6.6,4C545.4,365.9,545.1,365.9,544.8,365.9z" style="fill:#707A99;"/>
		</g>
		<g>
			<path d="M497.2,399.6c-0.5,0-1-0.3-1.3-0.7l-4-6.6c-0.4-0.7-0.2-1.6,0.5-2.1c0.7-0.4,1.6-0.2,2.1,0.5l4,6.6
				c0.4,0.7,0.2,1.6-0.5,2.1C497.7,399.5,497.4,399.6,497.2,399.6z" style="fill:#707A99;"/>
		</g>
		<g>
			<path d="M491.8,398.3c-0.5,0-1-0.3-1.3-0.7c-0.4-0.7-0.2-1.6,0.5-2.1l6.6-4c0.7-0.4,1.6-0.2,2.1,0.5
				c0.4,0.7,0.2,1.6-0.5,2.1l-6.6,4C492.3,398.2,492.1,398.3,491.8,398.3z" style="fill:#707A99;"/>
		</g>
		<g>
			<path d="M444.1,432c-0.5,0-1-0.3-1.3-0.7l-4-6.6c-0.4-0.7-0.2-1.6,0.5-2.1c0.7-0.4,1.6-0.2,2.1,0.5l4,6.6
				c0.4,0.7,0.2,1.6-0.5,2.1C444.7,431.9,444.4,432,444.1,432z" style="fill:#707A99;"/>
		</g>
		<g>
			<path d="M438.8,430.7c-0.5,0-1-0.3-1.3-0.7c-0.4-0.7-0.2-1.6,0.5-2.1l6.6-4c0.7-0.4,1.6-0.2,2.1,0.5
				c0.4,0.7,0.2,1.6-0.5,2.1l-6.6,4C439.3,430.6,439.1,430.7,438.8,430.7z" style="fill:#707A99;"/>
		</g>
		<g>
			<path d="M391.1,464.3c-0.5,0-1-0.3-1.3-0.7l-4-6.6c-0.4-0.7-0.2-1.6,0.5-2.1c0.7-0.4,1.6-0.2,2.1,0.5l4,6.6
				c0.4,0.7,0.2,1.6-0.5,2.1C391.6,464.2,391.4,464.3,391.1,464.3z" style="fill:#707A99;"/>
		</g>
		<g>
			<path d="M385.8,463c-0.5,0-1-0.3-1.3-0.7c-0.4-0.7-0.2-1.6,0.5-2.1l6.6-4c0.7-0.4,1.6-0.2,2.1,0.5
				c0.4,0.7,0.2,1.6-0.5,2.1l-6.6,4C386.3,463,386,463,385.8,463z" style="fill:#707A99;"/>
		</g>
		<g>
			<path d="M338.1,496.7c-0.5,0-1-0.3-1.3-0.7l-4-6.6c-0.4-0.7-0.2-1.6,0.5-2.1c0.7-0.4,1.6-0.2,2.1,0.5l4,6.6
				c0.4,0.7,0.2,1.6-0.5,2.1C338.6,496.6,338.4,496.7,338.1,496.7z" style="fill:#707A99;"/>
		</g>
		<g>
			<path d="M332.8,495.4c-0.5,0-1-0.3-1.3-0.7c-0.4-0.7-0.2-1.6,0.5-2.1l6.6-4c0.7-0.4,1.6-0.2,2.1,0.5
				c0.4,0.7,0.2,1.6-0.5,2.1l-6.6,4C333.3,495.3,333,495.4,332.8,495.4z" style="fill:#707A99;"/>
		</g>
		<g>
			<path d="M570.8,281.8c-0.5,0-1-0.3-1.3-0.7l-4-6.6c-0.4-0.7-0.2-1.6,0.5-2.1c0.7-0.4,1.6-0.2,2.1,0.5l4,6.6
				c0.4,0.7,0.2,1.6-0.5,2.1C571.4,281.8,571.1,281.8,570.8,281.8z" style="fill:#707A99;"/>
		</g>
		<g>
			<path d="M565.5,280.5c-0.5,0-1-0.3-1.3-0.7c-0.4-0.7-0.2-1.6,0.5-2.1l6.6-4c0.7-0.4,1.6-0.2,2.1,0.5
				s0.2,1.6-0.5,2.1l-6.6,4C566,280.5,565.8,280.5,565.5,280.5z" style="fill:#707A99;"/>
		</g>
		<g>
			<path d="M517.8,314.2c-0.5,0-1-0.3-1.3-0.7l-4-6.6c-0.4-0.7-0.2-1.6,0.5-2.1c0.7-0.4,1.6-0.2,2.1,0.5l4,6.6
				c0.4,0.7,0.2,1.6-0.5,2.1C518.3,314.1,518.1,314.2,517.8,314.2z" style="fill:#707A99;"/>
		</g>
		<g>
			<path d="M512.5,312.9c-0.5,0-1-0.3-1.3-0.7c-0.4-0.7-0.2-1.6,0.5-2.1l6.6-4c0.7-0.4,1.6-0.2,2.1,0.5
				c0.4,0.7,0.2,1.6-0.5,2.1l-6.6,4C513,312.8,512.7,312.9,512.5,312.9z" style="fill:#707A99;"/>
		</g>
		<g>
			<path d="M464.8,346.6c-0.5,0-1-0.3-1.3-0.7l-4-6.6c-0.4-0.7-0.2-1.6,0.5-2.1c0.7-0.4,1.6-0.2,2.1,0.5l4,6.6
				c0.4,0.7,0.2,1.6-0.5,2.1C465.3,346.5,465,346.6,464.8,346.6z" style="fill:#707A99;"/>
		</g>
		<g>
			<path d="M459.4,345.3c-0.5,0-1-0.3-1.3-0.7c-0.4-0.7-0.2-1.6,0.5-2.1l6.6-4c0.7-0.4,1.6-0.2,2.1,0.5
				c0.4,0.7,0.2,1.6-0.5,2.1l-6.6,4C460,345.2,459.7,345.3,459.4,345.3z" style="fill:#707A99;"/>
		</g>
		<g>
			<path d="M411.8,378.9c-0.5,0-1-0.3-1.3-0.7l-4-6.6c-0.4-0.7-0.2-1.6,0.5-2.1c0.7-0.4,1.6-0.2,2.1,0.5l4,6.6
				c0.4,0.7,0.2,1.6-0.5,2.1C412.3,378.9,412,378.9,411.8,378.9z" style="fill:#707A99;"/>
		</g>
		<g>
			<path d="M406.4,377.6c-0.5,0-1-0.3-1.3-0.7c-0.4-0.7-0.2-1.6,0.5-2.1l6.6-4c0.7-0.4,1.6-0.2,2.1,0.5
				c0.4,0.7,0.2,1.6-0.5,2.1l-6.6,4C407,377.6,406.7,377.6,406.4,377.6z" style="fill:#707A99;"/>
		</g>
		<g>
			<path d="M358.7,411.3c-0.5,0-1-0.3-1.3-0.7l-4-6.6c-0.4-0.7-0.2-1.6,0.5-2.1c0.7-0.4,1.6-0.2,2.1,0.5l4,6.6
				c0.4,0.7,0.2,1.6-0.5,2.1C359.3,411.2,359,411.3,358.7,411.3z" style="fill:#707A99;"/>
		</g>
		<g>
			<path d="M353.4,410c-0.5,0-1-0.3-1.3-0.7c-0.4-0.7-0.2-1.6,0.5-2.1l6.6-4c0.7-0.4,1.6-0.2,2.1,0.5
				c0.4,0.7,0.2,1.6-0.5,2.1l-6.6,4C353.9,409.9,353.7,410,353.4,410z" style="fill:#707A99;"/>
		</g>
		<g>
			<path d="M305.7,443.7c-0.5,0-1-0.3-1.3-0.7l-4-6.6c-0.4-0.7-0.2-1.6,0.5-2.1c0.7-0.4,1.6-0.2,2.1,0.5l4,6.6
				c0.4,0.7,0.2,1.6-0.5,2.1C306.3,443.6,306,443.7,305.7,443.7z" style="fill:#707A99;"/>
		</g>
		<g>
			<path d="M300.4,442.4c-0.5,0-1-0.3-1.3-0.7c-0.4-0.7-0.2-1.6,0.5-2.1l6.6-4c0.7-0.4,1.6-0.2,2.1,0.5
				s0.2,1.6-0.5,2.1l-6.6,4C300.9,442.3,300.7,442.4,300.4,442.4z" style="fill:#707A99;"/>
		</g>
		<g style="opacity:0.17;">
			
				<rect x="455.4" y="340.5" transform="matrix(0.3877 -0.9218 0.9218 0.3877 -142.4406 723.7029)" width="36.2" height="257.1" style="fill:#232323;stroke:#232323;stroke-width:8;stroke-linecap:round;stroke-linejoin:round;"/>
			<path d="M597.6,505.7l-11.1,26.5l11,3.7c1.9,0.6,3.9-0.3,4.7-2.1l7.5-17.9c0.8-1.8,0-3.9-1.8-4.8L597.6,505.7z" style="fill:#232323;stroke:#232323;stroke-width:8;stroke-linecap:round;stroke-linejoin:round;"/>
			
				<rect x="537.9" y="482.3" transform="matrix(0.3877 -0.9218 0.9218 0.3877 -123.3658 823.8585)" width="41.2" height="44.9" style="fill:#232323;stroke:#232323;stroke-width:8;stroke-linecap:round;stroke-linejoin:round;"/>
			<path d="M392.3,419.1l0.6-1.3c1.2-2.8,4.4-4.1,7.2-2.9l67.5,28.4c2.8,1.2,4.1,4.4,2.9,7.2l-0.6,1.3
				c-1.2,2.8-4.4,4.1-7.2,2.9l-67.5-28.4C392.5,425.1,391.1,421.9,392.3,419.1z" style="fill:#232323;stroke:#232323;stroke-width:8;stroke-linecap:round;stroke-linejoin:round;"/>
			<polygon points="320.4,399.2 316.5,408.5 348,435.9 362,402.5 			" style="fill:#232323;stroke:#232323;stroke-width:8;stroke-linecap:round;stroke-linejoin:round;"/>
			<polygon points="317.2,406.9 309.3,400 319.7,400.9 			" style="fill:#232323;stroke:#232323;stroke-width:8;stroke-linecap:round;stroke-linejoin:round;"/>
			<g>
				<path d="M309.1,403.9c-0.5,0-1-0.1-1.5-0.3l-7.3-3.1c-2-0.9-3-3.2-2.1-5.2c0.9-2,3.2-3,5.2-2.1l7.3,3.1
					c2,0.9,3,3.2,2.1,5.2C312.1,403,310.6,403.9,309.1,403.9z" style="fill:#232323;"/>
			</g>
		</g>
		
			<rect x="448.9" y="326.1" transform="matrix(0.3877 -0.9218 0.9218 0.3877 -133.1425 708.8394)" width="36.2" height="257.1" style="fill:#43597A;"/>
		
			<rect x="456.5" y="337.6" transform="matrix(0.3877 -0.9218 0.9218 0.3877 -146.6871 711.4183)" width="11.3" height="257.1" style="opacity:0.4;fill:#43597A;enable-background:new    ;"/>
		
			<rect x="466.2" y="314.6" transform="matrix(0.3877 -0.9218 0.9218 0.3877 -119.5959 706.2596)" width="11.3" height="257.1" style="opacity:0.4;fill:#43597A;enable-background:new    ;"/>
		<g>
			<path d="M578.5,525.2c-0.5,0-1-0.1-1.5-0.3l-237-99.7c-2-0.9-3-3.2-2.1-5.2l14.1-33.4c0.4-1,1.2-1.8,2.2-2.2
				c1-0.4,2.1-0.4,3.1,0l237,99.7c1,0.4,1.8,1.2,2.2,2.2c0.4,1,0.4,2.1,0,3.1l-14.1,33.4C581.5,524.3,580,525.2,578.5,525.2z
				 M346.7,419.4L576.3,516l11-26l-229.7-96.6L346.7,419.4z" style="fill:#202454;"/>
		</g>
		<path d="M591.1,491.3l-11.1,26.5l11,3.7c1.9,0.6,3.9-0.3,4.7-2.1l7.5-17.9c0.8-1.8,0-3.9-1.8-4.8L591.1,491.3z" style="fill:#6A87AD;"/>
		<g>
			<path d="M592.1,525.6c-0.8,0-1.6-0.1-2.4-0.4l-11-3.7c-1.1-0.4-1.9-1.1-2.4-2.1c-0.5-1-0.5-2.2,0-3.2l11.1-26.5
				c0.4-1,1.3-1.8,2.3-2.2c1-0.4,2.2-0.3,3.2,0.2l10.3,5.3c3.6,1.8,5.2,6.2,3.6,9.9l-7.5,17.9C598,523.8,595.1,525.6,592.1,525.6z
				 M585.3,515.3l6.7,2.2l7.4-17.5l-6.3-3.2L585.3,515.3z" style="fill:#202454;"/>
		</g>
		
			<rect x="531.3" y="467.9" transform="matrix(0.3877 -0.9218 0.9218 0.3877 -114.0668 808.9943)" width="41.2" height="44.9" style="fill:#334665;"/>
		
			<rect x="540.2" y="481.3" transform="matrix(0.3877 -0.9218 0.9218 0.3877 -129.8693 812.0052)" width="12.1" height="44.9" style="opacity:0.25;fill:#43597A;enable-background:new    ;"/>
		
			<rect x="551.4" y="454.3" transform="matrix(0.3877 -0.9218 0.9218 0.3877 -98.0452 805.944)" width="12.5" height="44.9" style="opacity:0.4;fill:#43597A;enable-background:new    ;"/>
		<g>
			<path d="M564.6,522c-0.5,0-1.1-0.1-1.6-0.3l-41.4-17.4c-2-0.9-3-3.2-2.1-5.2l16-37.9c0.4-1,1.2-1.8,2.2-2.2
				c1-0.4,2.1-0.4,3.1,0l41.4,17.4c1,0.4,1.8,1.2,2.2,2.2c0.4,1,0.4,2.1,0,3.1l-16,37.9c-0.4,1-1.2,1.8-2.2,2.2
				C565.7,521.9,565.2,522,564.6,522z M528.5,498.5l34,14.3l12.9-30.6l-34-14.3L528.5,498.5z" style="fill:#202454;"/>
		</g>
		<path d="M385.8,404.7l0.6-1.3c1.2-2.8,4.4-4.1,7.2-2.9l67.5,28.4c2.8,1.2,4.1,4.4,2.9,7.2l-0.6,1.3
			c-1.2,2.8-4.4,4.1-7.2,2.9l-67.5-28.4C385.9,410.7,384.6,407.5,385.8,404.7z" style="fill:#81A0C1;"/>
		<g>
			<path d="M458.3,444.7c-1.2,0-2.5-0.2-3.7-0.7l-67.5-28.4c-2.3-1-4.2-2.8-5.1-5.2c-1-2.3-0.9-4.9,0-7.3l0.6-1.3
				c2-4.8,7.6-7.1,12.4-5.1l67.5,28.4c2.3,1,4.2,2.8,5.1,5.2c1,2.3,0.9,4.9,0,7.3l-0.6,1.3C465.6,442.5,462,444.7,458.3,444.7z
				 M391.4,404c-0.2,0-0.4,0.1-0.6,0.1c-0.2,0.1-0.6,0.3-0.8,0.8l-0.6,1.3l0,0c-0.2,0.5-0.1,0.9,0,1.1c0.1,0.2,0.3,0.6,0.8,0.8
				l67.5,28.4c0.5,0.2,0.9,0.1,1.1,0c0.2-0.1,0.6-0.3,0.8-0.8l0.6-1.3c0.2-0.5,0.1-0.9,0-1.1c-0.1-0.2-0.3-0.6-0.8-0.8L392,404.1
				C391.8,404,391.6,404,391.4,404z M385.8,404.7L385.8,404.7L385.8,404.7z" style="fill:#202454;"/>
		</g>
		<polygon points="313.9,384.8 310,394.1 341.4,421.5 355.5,388.1 		" style="fill:#334665;"/>
		<polygon points="310,394.1 341.4,421.5 345.8,411.1 311.9,389.4 		" style="opacity:0.4;fill:#43597A;enable-background:new    ;"/>
		<polygon points="313.9,384.8 355.5,388.1 351.1,398.5 311.9,389.4 		" style="opacity:0.4;fill:#43597A;enable-background:new    ;"/>
		<g>
			<path d="M341.4,425.5c-1,0-1.9-0.3-2.6-1l-31.5-27.4c-1.3-1.1-1.7-3-1.1-4.6l3.9-9.3c0.7-1.6,2.3-2.6,4-2.4l41.6,3.3
				c1.3,0.1,2.4,0.8,3.1,1.9s0.8,2.4,0.3,3.6l-14.1,33.4c-0.5,1.2-1.5,2.1-2.8,2.3C342,425.5,341.7,425.5,341.4,425.5z M314.8,392.9
				l25.1,21.9l9.8-23.2l-33.2-2.6L314.8,392.9z" style="fill:#202454;"/>
		</g>
		<g>
			<path d="M310.7,396.4c-1,0-1.9-0.3-2.6-1l-7.9-6.9c-1.3-1.1-1.7-3-1.1-4.6c0.7-1.6,2.3-2.6,4-2.4l10.4,0.8
				c1.3,0.1,2.4,0.8,3.1,1.9s0.8,2.4,0.3,3.6l-2.5,6c-0.5,1.2-1.5,2.1-2.8,2.3C311.3,396.4,311,396.4,310.7,396.4z" style="fill:#202454;"/>
		</g>
		<g>
			<path d="M302.5,389.5c-0.5,0-1-0.1-1.5-0.3l-7.3-3.1c-2-0.9-3-3.2-2.1-5.2c0.9-2,3.2-3,5.2-2.1l7.3,3.1
				c2,0.9,3,3.2,2.1,5.2C305.6,388.6,304.1,389.5,302.5,389.5z" style="fill:#202454;"/>
		</g>
		<path d="M820.1,769.6h-18.7c-23.4,0-42.4-19-42.4-42.4l-1.5-100.7c0.8-19.9,19.1-35.5,40.9-35.5H823
			c21.8,0,40.1,15.6,40.9,35.5l-1.5,100.7C862.5,750.6,843.5,769.6,820.1,769.6z" style="opacity:0.5;fill:#232323;stroke:#232323;stroke-width:8;stroke-linecap:round;stroke-linejoin:round;enable-background:new    ;"/>
		<path d="M810.1,755.1h-18.7c-23.4,0-42.4-19-42.4-42.4L747.5,612c0.8-19.9,19.1-35.5,40.9-35.5H813
			c21.8,0,40.1,15.6,40.9,35.5l-1.5,100.7C852.5,736.1,833.5,755.1,810.1,755.1z" style="fill:#E2E9F2;"/>
		<path d="M816.8,576.7l-1.4,92.3c0,23.4-19,42.4-42.4,42.4h-18.7c-1.8,0-3.6-0.1-5.4-0.4l0,1.7
			c0,23.4,19,42.4,42.4,42.4h18.7c23.4,0,42.4-19,42.4-42.4L854,612C853.2,593.3,836.9,578.4,816.8,576.7z" style="fill:#E2E9F2;"/>
		<g>
			<path d="M810.1,759.1L810.1,759.1h-18.7c-25.6,0-46.4-20.8-46.4-46.4l-1.5-100.6c0-0.1,0-0.1,0-0.2
				c0.9-22.1,20.7-39.3,44.9-39.3H813c24.3,0,44,17.3,44.9,39.3c0,0.1,0,0.1,0,0.2l-1.5,100.7C856.5,738.3,835.7,759.1,810.1,759.1z
				 M751.5,612.1l1.5,100.6c0,21.2,17.2,38.5,38.4,38.5h18.7c21.2,0,38.4-17.2,38.4-38.4l1.5-100.6c-0.8-17.4-17.3-31.6-36.9-31.6
				h-24.6C768.8,580.5,752.3,594.7,751.5,612.1z" style="fill:#202454;"/>
		</g>
		<g>
			<path d="M800.7,638.7c-2.2,0-4-1.8-4-4v-58.2c0-2.2,1.8-4,4-4s4,1.8,4,4v58.2C804.7,637,802.9,638.7,800.7,638.7z" style="fill:#202454;"/>
		</g>
	</g>
</g>
</svg>