<svg xmlns="http://www.w3.org/2000/svg" xmlns:xlink="http://www.w3.org/1999/xlink" version="1.1" id="Layer_1" x="0px" y="0px" width="128px" height="128px" viewBox="0 0 128 128" enable-background="new 0 0 128 128" xml:space="preserve">
<g>
	<g>
		<g>
			<g>
				<g>
					<path fill="#ffffff" d="M127.758,23.402H114.84v-4h8.918v-8.108c0-4.022-3.315-7.295-7.39-7.295V0       c6.28,0,11.39,5.067,11.39,11.295V23.402z"/>
				</g>
				<g>
					<path fill="#ffffff" d="M98.768,128h-5.189c-52.239-0.008-79.938-0.01-82.325,0l-0.016-4c2.392-0.01,30.097-0.008,82.342,0       h4.953c3.683-0.475,6.445-3.563,6.445-7.227l-0.063-3.553h0.063V11.294c0-2.732,0.981-5.256,2.631-7.222       C95.832,4.076,70.845,4.074,32.945,4.067l-4.948-0.001c-3.666,0.472-6.417,3.561-6.417,7.228v92.983h-4V11.294       c0-5.737,4.329-10.559,10.069-11.215l0.227-0.013l5.07,0.001c52.243,0.011,79.939,0.009,82.324-0.001l0.236,3.987       c-3.722,0.426-6.528,3.539-6.528,7.241v105.926h-0.011c-0.233,5.553-4.491,10.125-10.086,10.768L98.768,128z"/>
				</g>
				<g>
					<path fill="#ffffff" d="M10.539,128l-0.227-0.012c-5.741-0.656-10.071-5.479-10.071-11.215v-6.67h91.4v6.67       c0,3.701,2.806,6.814,6.526,7.24L97.933,128c-3.601-0.014-64.138-0.004-82.326,0H10.539z M4.241,114.104v2.67       c0,3.666,2.751,6.756,6.418,7.227h4.946c14.699-0.004,57.042-0.01,74.667-0.006c-1.648-1.965-2.631-4.49-2.631-7.221v-2.67       H4.241z"/>
				</g>
				<g>
					<path fill="#ffffff" d="M127.759,22.759h-4V11.294c0-4.022-3.315-7.295-7.39-7.295c-4.076,0-7.392,3.272-7.392,7.295h-4       c0-6.228,5.11-11.295,11.392-11.295c6.28,0,11.39,5.067,11.39,11.295V22.759z"/>
				</g>
				<g>
					<path fill="#ffffff" d="M98.481,128c-5.673,0-10.84-5.352-10.84-11.227v-7.523h4v7.523c0,3.715,3.324,7.227,6.84,7.227V128z"/>
				</g>
			</g>
		</g>
	</g>
	<g>
		<g>
			<polygon fill="#ffffff" points="89.834,104.449 81.22,98.564 72.604,104.449 72.604,86.551 76.604,86.551 76.604,96.873      81.22,93.721 85.834,96.873 85.834,86.551 89.834,86.551    "/>
		</g>
		<g>
			<g>
				<path fill="#ffffff" d="M81.222,91.396c-6.148,0-11.15-4.961-11.15-11.057c0-6.094,5.002-11.049,11.15-11.049      c6.146,0,11.146,4.955,11.146,11.049C92.367,86.436,87.367,91.396,81.222,91.396z M81.222,73.291      c-3.942,0-7.15,3.162-7.15,7.049c0,3.891,3.208,7.057,7.15,7.057c3.94,0,7.146-3.166,7.146-7.057      C88.367,76.453,85.162,73.291,81.222,73.291z"/>
			</g>
		</g>
		<g>
			<rect x="79.22" y="78.025" fill="#ffffff" width="4" height="5.189"/>
		</g>
	</g>
	<g>
		<g>
			<rect x="44.509" y="18.818" fill="#ffffff" width="33.772" height="4"/>
		</g>
		<g>
			<rect x="32.954" y="31.856" fill="#ffffff" width="56.883" height="4"/>
		</g>
		<g>
			<rect x="32.954" y="44.688" fill="#ffffff" width="56.883" height="4"/>
		</g>
		<g>
			<rect x="32.954" y="57.521" fill="#ffffff" width="56.883" height="4"/>
		</g>
		<g>
			<rect x="32.954" y="70.352" fill="#ffffff" width="33.813" height="4"/>
		</g>
		<g>
			<rect x="32.954" y="83.182" fill="#ffffff" width="22.455" height="4"/>
		</g>
	</g>
</g>
</svg>